<svg width="40" height="40" viewBox="0 0 40 40" fill="none" xmlns="http://www.w3.org/2000/svg">
<path d="M27 36.5L17.5 26.5L14.5 24L15 22.5L17 21.5L20.5 24.5L21.5 24L23 22.5H24.5L26 21L28 20.5L28.5 19.5L30.5 18.5L36 23L39 27L39.5 31.5L38 35L35 37.5L31 38L27 36.5Z" fill="#F5617A"/>
<path d="M26.3814 8.98085C28.7386 9.04907 31.4197 8.99141 32.8919 6.84256C33.9942 5.23321 34.2204 2.42584 32.6654 1.01287C32.3928 0.826388 32.0841 0.699002 31.7592 0.638934C31.4339 0.540169 31.1056 0.453107 30.774 0.377749C30.1315 0.233077 29.4805 0.12878 28.8249 0.0654712C27.5467 -0.0577073 26.2576 -0.00690872 24.993 0.216473C23.8878 0.408579 22.5263 0.621807 21.8761 1.634C21.418 2.40725 21.212 3.30352 21.2867 4.19875C21.3811 5.46585 21.9138 6.83628 22.8726 7.7049C23.8209 8.56381 25.1232 8.93232 26.3805 8.98085C27.2639 9.01453 27.2624 7.64439 26.3805 7.6107C25.3928 7.57274 24.3107 7.27787 23.6293 6.52115C23.2715 6.1084 23.0017 5.6273 22.8361 5.10712C22.6705 4.58695 22.6127 4.03859 22.6662 3.49541C22.7061 3.19522 22.785 2.9015 22.901 2.62165C23.1166 2.1401 23.3013 2.06703 23.7874 1.91631C25.0452 1.52957 26.3567 1.34534 27.6725 1.37054C29.1471 1.40076 30.6073 1.66704 31.9974 2.15923L31.6945 1.98282C32.7618 3.07523 32.517 5.07821 31.6519 6.22971C30.4612 7.81451 28.1415 7.66294 26.3811 7.61185C25.4978 7.58501 25.4986 8.95516 26.3814 8.98085Z" fill="white"/>
<path d="M8.17325 2.1582C10.1963 1.43304 12.364 1.20262 14.4947 1.48626C15.0274 1.56413 15.5544 1.67675 16.0724 1.82338C16.3253 1.88447 16.5737 1.96286 16.8159 2.05801C16.9135 2.10209 16.9984 2.17014 17.0626 2.25583C17.4074 2.78215 17.5682 3.40744 17.5202 4.03445C17.4802 4.91454 17.1602 5.75897 16.6065 6.44506C16.0632 7.10558 15.2128 7.42385 14.3878 7.5583C13.4042 7.68954 12.4082 7.69999 11.4221 7.58941C10.5273 7.50721 9.5616 7.25516 8.88787 6.62945C7.71028 5.53648 7.28191 3.20409 8.47637 1.98237C9.09348 1.35067 8.12378 0.38101 7.50553 1.01356C6.03712 2.51673 6.12549 5.11658 7.25275 6.80386C8.68255 8.94472 11.3317 9.05718 13.6663 8.98497C14.7898 8.99001 15.891 8.67137 16.8376 8.06725C17.7673 7.37561 18.4278 6.38339 18.7064 5.25988C18.9706 4.33198 18.9535 3.34672 18.6572 2.42853C18.5201 1.97088 18.2793 1.55089 17.9534 1.2011C17.5325 0.785203 16.9294 0.637341 16.3749 0.484626C13.549 -0.262017 10.5631 -0.139241 7.80837 0.836869C7.6353 0.888914 7.48895 1.00549 7.3997 1.1624C7.31046 1.3193 7.28517 1.50449 7.3291 1.67951C7.37891 1.85379 7.49527 2.00159 7.65314 2.09112C7.81101 2.18064 7.99777 2.20473 8.17325 2.1582Z" fill="white"/>
<path d="M18.9476 4.30483C19.0906 4.23404 18.7909 4.3605 18.9476 4.30312C18.9985 4.28457 19.0506 4.2683 19.1029 4.25345C19.2133 4.22291 19.3254 4.2015 19.438 4.18181C19.4886 4.17267 19.5876 4.17553 19.3891 4.18694C19.4154 4.18552 19.4418 4.18038 19.4678 4.17752C19.5347 4.17029 19.6014 4.16439 19.6679 4.15983C19.8064 4.15069 19.945 4.1466 20.084 4.14755C20.2164 4.14755 20.3491 4.15383 20.4812 4.16354C20.5497 4.16868 20.6177 4.17496 20.6854 4.18238C20.7352 4.18809 20.8375 4.2152 20.6422 4.17524C20.6677 4.18066 20.694 4.18295 20.7197 4.18694C20.8418 4.20607 20.9634 4.23005 21.0829 4.26116C21.1318 4.27401 21.1807 4.28771 21.2287 4.30341C21.2859 4.32196 21.4861 4.40617 21.2519 4.30341C21.4138 4.39019 21.602 4.41477 21.7809 4.37249C21.9527 4.32376 22.0993 4.21146 22.191 4.05849C22.3474 3.76305 22.2965 3.27323 21.9448 3.12108C21.354 2.88254 20.7212 2.76545 20.084 2.77683C19.4554 2.74758 18.8287 2.86547 18.2539 3.12108C18.0976 3.21367 17.9842 3.36394 17.9381 3.53937C17.892 3.71481 17.917 3.9013 18.0077 4.05849C18.1025 4.2121 18.253 4.32334 18.4279 4.36911C18.6028 4.41488 18.7886 4.39165 18.9468 4.30426L18.9476 4.30483Z" fill="white"/>
<path d="M34.2059 3.52143C34.2308 3.5103 34.256 3.49917 34.2811 3.48861L34.1173 3.55768C34.5608 3.36511 35.0232 3.21922 35.497 3.12237C35.6693 3.07463 35.8163 2.96208 35.9071 2.80838C35.999 2.64846 36.0239 2.45875 35.9763 2.28059C35.9283 2.10874 35.8156 1.96208 35.6618 1.87126C35.4996 1.78557 35.3119 1.76105 35.133 1.80218C34.5745 1.91872 34.0312 2.09887 33.5139 2.33911C33.3596 2.42943 33.2468 2.57629 33.1993 2.74844C33.1519 2.92669 33.1767 3.11645 33.2686 3.27652C33.3596 3.43001 33.5065 3.5425 33.6786 3.59051L33.4999 4C33.6217 4.0003 33.5735 3.7952 33.6786 3.73379L34.2059 3.52143Z" fill="white"/>
<path d="M6.82176 2.45602C6.3044 2.21583 5.42751 1.91809 4.86901 1.80151C4.69022 1.75763 4.50145 1.78228 4.33999 1.87059C4.18285 1.96227 4.06863 2.11251 4.02245 2.28825C3.97628 2.464 4.00193 2.65085 4.09377 2.80771C4.18359 2.96241 4.33114 3.07531 4.50413 3.1217C4.97796 3.21855 5.44037 3.36444 5.88389 3.55701L5.71975 3.48793C5.7452 3.4985 5.77008 3.50963 5.79524 3.52076C5.87152 3.56998 6.35848 3.74123 6.44922 3.74509C6.53987 3.76567 6.73327 3.77352 6.82176 3.74509C6.9936 3.69637 6.64258 3.42883 6.73434 3.27585C6.78017 3.19672 6.80988 3.10933 6.82176 3.01871C6.83364 2.92808 6.82745 2.836 6.80354 2.74777C6.78098 2.6621 7.25161 2.81805 7.1976 2.74777C7.14359 2.67749 6.8988 2.49997 6.82176 2.45602Z" fill="white"/>
<path d="M11.4508 3.5607C11.1874 4.41504 11.359 6.37978 12.9804 6.54705C15.1231 6.53449 15.2369 4.15871 14.5157 3.04176C13.9241 2.12718 12.1874 1.74668 11.4508 3.5607Z" fill="white"/>
<path d="M28.6082 3.56085C28.8715 4.41519 28.6999 6.38021 27.0788 6.5472C24.9361 6.53435 24.822 4.15858 25.5432 3.04162C26.1337 2.12705 27.8704 1.74683 28.6082 3.56085Z" fill="white"/>
<path d="M4 19V15.5L13.5 15L17 15.5V19H4Z" fill="#68A4EF"/>
<path d="M19.2072 29.7041V37.1805C19.2072 37.8479 18.6697 38.3889 18.0068 38.3889H2.80105C2.13807 38.3889 1.6006 37.8479 1.6006 37.1805V13.8195C1.6006 13.1521 2.13807 12.6111 2.80105 12.6111H18.0068C18.6697 12.6111 19.2072 13.1521 19.2072 13.8195V23.3252C19.2072 23.7701 19.5655 24.1307 20.0075 24.1307C20.4495 24.1307 20.8078 23.7701 20.8078 23.3252V13.8195C20.8078 12.2622 19.5537 11 18.0068 11H2.80105C1.25414 11 0 12.2622 0 13.8195V37.1805C0 38.7378 1.25414 40 2.80105 40H18.0068C19.5537 40 20.8078 38.7378 20.8078 37.1805V29.7041C20.8078 29.2591 20.4495 28.8985 20.0075 28.8985C19.5655 28.8985 19.2072 29.2591 19.2072 29.7041Z" fill="white"/>
<path d="M15.6058 18.25C15.8269 18.25 16.006 18.0697 16.006 17.8472V16.2361C16.006 16.0136 15.8269 15.8333 15.6058 15.8333H5.20192C5.14937 15.8333 5.09733 15.8437 5.04878 15.8639C5.00023 15.8842 4.95611 15.9138 4.91895 15.9513C4.88179 15.9887 4.85232 16.0331 4.83221 16.0819C4.81211 16.1308 4.80176 16.1832 4.80177 16.2361V17.8472C4.80177 18.0697 4.98086 18.25 5.20192 18.25H15.6058ZM15.6058 19.8611H5.20192C4.0969 19.8611 3.20117 18.9595 3.20117 17.8472V16.2361C3.20117 15.1238 4.0969 14.2222 5.20192 14.2222H15.6058C16.7109 14.2222 17.6066 15.1238 17.6066 16.2361V17.8472C17.6066 18.9595 16.7109 19.8611 15.6058 19.8611ZM7.13738 23.7392C7.35105 24.8743 6.38069 25.851 5.25308 25.6359C4.62682 25.5163 4.11425 25.0003 3.99581 24.37C3.78174 23.235 4.75211 22.2582 5.87972 22.4733C6.50636 22.5929 7.01854 23.1089 7.13738 23.7392ZM11.9392 23.7392C12.1529 24.8743 11.1825 25.851 10.0549 25.6359C9.42863 25.5163 8.91605 25.0003 8.79761 24.37C8.58354 23.235 9.55391 22.2582 10.6815 22.4733C11.3082 22.5929 11.8203 23.1089 11.9392 23.7392ZM7.13738 28.6129C7.35105 29.7479 6.38069 30.7247 5.25308 30.5096C4.62682 30.39 4.11425 29.874 3.99581 29.2437C3.78174 28.1086 4.75211 27.1319 5.87972 27.347C6.50636 27.4666 7.01854 27.9826 7.13738 28.6129ZM11.9392 28.6129C12.1529 29.7479 11.1825 30.7247 10.0549 30.5096C9.42863 30.39 8.91605 29.874 8.79761 29.2437C8.58354 28.1086 9.55391 27.1319 10.6815 27.347C11.3082 27.4666 11.8203 27.9826 11.9392 28.6129ZM16.741 28.6129C16.9547 29.7479 15.9843 30.7247 14.8567 30.5096C14.2304 30.39 13.7179 29.874 13.5994 29.2437C13.3853 28.1086 14.3557 27.1319 15.4833 27.347C16.11 27.4666 16.6221 27.9826 16.741 28.6129ZM7.13738 33.4463C7.35105 34.5813 6.38069 35.5581 5.25308 35.343C4.62682 35.2234 4.11425 34.7074 3.99581 34.0771C3.78174 32.942 4.75211 31.9653 5.87972 32.1804C6.50636 32.3 7.01854 32.816 7.13738 33.4463ZM11.9392 33.4463C12.1529 34.5813 11.1825 35.5581 10.0549 35.343C9.42863 35.2234 8.91605 34.7074 8.79761 34.0771C8.58354 32.942 9.55391 31.9653 10.6815 32.1804C11.3082 32.3 11.8203 32.816 11.9392 33.4463ZM16.741 33.4463C16.9547 34.5813 15.9843 35.5581 14.8567 35.343C14.2304 35.2234 13.7179 34.7074 13.5994 34.0771C13.3853 32.942 14.3557 31.9653 15.4833 32.1804C16.11 32.3 16.6221 32.816 16.741 33.4463ZM23.7541 31.9896L15.9516 24.1357C15.5711 23.7527 15.5711 23.1313 15.9516 22.7483L16.1395 22.5596C16.5207 22.1756 17.1378 22.1756 17.5183 22.5588L25.321 30.4125C25.6335 30.7271 26.1402 30.727 26.4528 30.4124C26.7653 30.0978 26.7653 29.5878 26.4527 29.2732L18.6502 21.4197C17.6447 20.4071 16.0137 20.4071 15.0081 21.4199L14.8204 21.6084C13.8142 22.6213 13.8142 24.2627 14.8198 25.2749L22.6224 33.1288C22.9349 33.4434 23.4416 33.4434 23.7542 33.1288C24.0667 32.8142 24.0667 32.3042 23.7542 31.9896H23.7541Z" fill="white"/>
<path d="M26.5076 29.3278L22.4225 25.2158C22.0416 24.8324 22.0416 24.2115 22.4223 23.8285L22.6112 23.638C22.9911 23.2556 23.6084 23.2556 23.9889 23.6386L28.0745 27.7507C28.387 28.0653 28.8938 28.0652 29.2063 27.7506C29.5188 27.436 29.5188 26.9259 29.2062 26.6114L25.1207 22.4994C24.1151 21.4872 22.4844 21.4872 21.4788 22.4994L21.2901 22.6897C20.2847 23.7012 20.2847 25.3424 21.2907 26.355L25.3758 30.467C25.6884 30.7816 26.1951 30.7816 26.5076 30.467C26.8202 30.1524 26.8202 29.6424 26.5076 29.3278Z" fill="white"/>
<path d="M29.959 27.3707L25.8739 23.2587C25.493 22.8753 25.493 22.2545 25.8738 21.8715L26.0626 21.681C26.4425 21.2986 27.0598 21.2986 27.4403 21.6816L31.5259 25.7936C31.8384 26.1082 32.3452 26.1082 32.6577 25.7936C32.9702 25.479 32.9702 24.9689 32.6576 24.6543L28.5721 20.5423C27.5665 19.5302 25.9358 19.5302 24.9302 20.5424L24.7415 20.7327C23.7361 21.7441 23.7361 23.3853 24.7421 24.398L28.8273 28.51C29.1398 28.8246 29.6465 28.8246 29.959 28.51C30.2716 28.1954 30.2716 27.6853 29.959 27.3707Z" fill="white"/>
<path d="M33.4021 25.4288L29.317 21.3168C28.9361 20.9334 28.9361 20.3126 29.3168 19.9296L29.5057 19.7391C29.8856 19.3567 30.5029 19.3567 30.8834 19.7397L34.969 23.8517C35.2815 24.1663 35.7883 24.1663 36.1008 23.8517C36.4133 23.5371 36.4133 23.027 36.1007 22.7125L32.0152 18.6004C31.0096 17.5883 29.3789 17.5883 28.3733 18.6005L28.1846 18.7908C27.1792 19.8022 27.1792 21.4435 28.1852 22.4561L32.2703 26.5681C32.5829 26.8827 33.0896 26.8827 33.4021 26.5681C33.7147 26.2535 33.7147 25.7434 33.4021 25.4288ZM26.7933 35.0484L23.1591 31.3903L22.0273 32.5295L25.6615 36.1876L26.7933 35.0484Z" fill="white"/>
<path d="M31.9854 20.8487L36.6575 25.5516L37.7893 24.4124L33.1171 19.7095L31.9854 20.8487Z" fill="white"/>
<path d="M36.3873 25.2732C37.6674 26.5547 38.3994 28.2899 38.3994 30.1437C38.3994 33.9373 35.3444 37.0123 31.5756 37.0123C29.7405 37.0123 28.0226 36.281 26.7507 35.0007L25.6189 36.14C27.188 37.7194 29.3116 38.6235 31.5756 38.6235C36.2284 38.6235 40 34.8271 40 30.1437C40 27.8566 39.0952 25.7117 37.516 24.1309L36.3873 25.2732V25.2732Z" fill="white"/>
</svg>
