<svg width="60" height="60" viewBox="0 0 60 60" fill="none" xmlns="http://www.w3.org/2000/svg">
<path d="M18.3619 39.1439H10.4606V57.5659H18.3619V39.1439Z" fill="#0C8CE9"/>
<path d="M18.362 57.9444H10.4607C10.3603 57.9444 10.264 57.9045 10.193 57.8335C10.122 57.7625 10.0822 57.6663 10.0822 57.5659V39.1439C10.0822 39.0435 10.122 38.9472 10.193 38.8763C10.264 38.8053 10.3603 38.7654 10.4607 38.7654H18.362C18.4624 38.7654 18.5587 38.8053 18.6297 38.8763C18.7007 38.9472 18.7406 39.0435 18.7406 39.1439V57.5659C18.7406 57.6156 18.7308 57.6648 18.7117 57.7107C18.6927 57.7566 18.6648 57.7984 18.6297 57.8335C18.5945 57.8687 18.5528 57.8966 18.5069 57.9156C18.4609 57.9346 18.4117 57.9444 18.362 57.9444ZM10.8392 57.1873H17.9835V39.5224H10.8392V57.1873Z" fill="white" stroke="white"/>
<path d="M31.4715 25.5167H23.5701V57.5659H31.4715V25.5167Z" fill="#263238"/>
<path d="M31.4715 57.9444H23.5702C23.4698 57.9444 23.3735 57.9045 23.3025 57.8335C23.2315 57.7625 23.1917 57.6662 23.1917 57.5659V25.5167C23.1917 25.4163 23.2315 25.32 23.3025 25.2491C23.3735 25.1781 23.4698 25.1382 23.5702 25.1382H31.4715C31.5719 25.1382 31.6682 25.1781 31.7392 25.2491C31.8102 25.32 31.85 25.4163 31.85 25.5167V57.5659C31.85 57.6156 31.8403 57.6648 31.8212 57.7107C31.8022 57.7566 31.7743 57.7984 31.7392 57.8335C31.704 57.8687 31.6623 57.8965 31.6164 57.9156C31.5704 57.9346 31.5212 57.9444 31.4715 57.9444ZM23.9487 57.1873H31.093V25.8953H23.9487V57.1873Z" fill="white" stroke="white"/>
<path d="M44.9723 33.431H37.0709V57.5658H44.9723V33.431Z" fill="#E90C59"/>
<path d="M44.9723 57.9444H37.0709C36.9705 57.9444 36.8743 57.9045 36.8033 57.8335C36.7323 57.7625 36.6924 57.6662 36.6924 57.5658V33.4354C36.6918 33.3856 36.7012 33.3361 36.72 33.2899C36.7388 33.2437 36.7667 33.2017 36.802 33.1665C36.8372 33.1312 36.8792 33.1034 36.9254 33.0845C36.9716 33.0657 37.0211 33.0563 37.0709 33.0569H44.9723C45.0221 33.0563 45.0716 33.0657 45.1178 33.0845C45.164 33.1034 45.206 33.1312 45.2412 33.1665C45.2765 33.2017 45.3044 33.2437 45.3232 33.2899C45.342 33.3361 45.3514 33.3856 45.3508 33.4354V57.5658C45.3508 57.6662 45.3109 57.7625 45.2399 57.8335C45.1689 57.9045 45.0727 57.9444 44.9723 57.9444ZM37.4495 57.1873H44.5937V33.8314H37.4495V57.1873Z" fill="white" stroke="white"/>
<path d="M58.5997 20.2173H50.6984V57.5659H58.5997V20.2173Z" fill="#263238"/>
<path d="M58.5997 57.9444H50.7201C50.6704 57.9444 50.6211 57.9346 50.5752 57.9156C50.5293 57.8966 50.4876 57.8687 50.4524 57.8335C50.4173 57.7984 50.3894 57.7567 50.3704 57.7107C50.3513 57.6648 50.3416 57.6156 50.3416 57.5659V20.2173C50.3416 20.1676 50.3513 20.1183 50.3704 20.0724C50.3894 20.0265 50.4173 19.9848 50.4524 19.9496C50.4876 19.9145 50.5293 19.8866 50.5752 19.8676C50.6211 19.8485 50.6704 19.8387 50.7201 19.8387H58.6214C58.7218 19.8387 58.8181 19.8786 58.8891 19.9496C58.9601 20.0206 59 20.1169 59 20.2173V57.5659C59 57.6175 58.9896 57.6685 58.9692 57.7159C58.9488 57.7633 58.919 57.8061 58.8815 57.8415C58.844 57.877 58.7997 57.9044 58.7512 57.9221C58.7027 57.9398 58.6512 57.9474 58.5997 57.9444ZM51.0769 57.1873H58.2211V20.5958H51.0769V57.1873Z" fill="white" stroke="white"/>
<path d="M1.38021 37.8604C1.29504 37.8588 1.21264 37.8298 1.14525 37.7777C1.06629 37.7159 1.01507 37.6253 1.00283 37.5258C0.990594 37.4263 1.01835 37.326 1.07999 37.2469L7.60642 28.9365C7.66674 28.8587 7.755 28.8075 7.85248 28.7937C7.94995 28.7799 8.04897 28.8046 8.12853 28.8626L12.349 31.9909L26.1763 15.4094C26.2365 15.3384 26.3204 15.2917 26.4125 15.2781C26.5046 15.2644 26.5985 15.2849 26.6767 15.3355L38.8289 23.2368L56.8114 3.12668C56.8445 3.08954 56.8846 3.05929 56.9295 3.03766C56.9743 3.01603 57.023 3.00344 57.0726 3.00061C57.1223 2.99778 57.1721 3.00477 57.2191 3.02118C57.2661 3.03758 57.3094 3.06308 57.3465 3.09622C57.3837 3.12936 57.4139 3.16949 57.4356 3.21432C57.4572 3.25915 57.4698 3.3078 57.4726 3.3575C57.4754 3.40719 57.4684 3.45696 57.452 3.50395C57.4356 3.55095 57.4101 3.59425 57.377 3.63139L39.1813 23.9852C39.1199 24.0519 39.0371 24.0949 38.9473 24.1068C38.8575 24.1188 38.7663 24.0988 38.6897 24.0504L26.5461 16.1534L12.7014 32.7523C12.6387 32.826 12.5505 32.8732 12.4545 32.8845C12.3584 32.8958 12.2617 32.8704 12.1836 32.8133L7.97626 29.6936L1.67607 37.7124C1.64139 37.7581 1.59667 37.7952 1.54537 37.8209C1.49407 37.8465 1.43756 37.86 1.38021 37.8604Z" fill="white" stroke="white"/>
<path d="M17.1811 5.57626V2.49704C17.1811 2.15795 17.0078 1.85313 16.7177 1.68167C16.4264 1.50955 16.0761 1.506 15.7806 1.67244C12.9594 3.26161 9.89045 4.18968 6.65897 4.43103C6.63422 4.43286 3.71352 4.44572 3.71352 4.44572C2.97998 4.44572 2.37369 5.00351 2.28979 5.71998H1.69028C1.034 5.71998 0.5 6.25777 0.5 6.91884V9.55281C0.5 10.2139 1.034 10.7517 1.69028 10.7517H2.28971C2.35013 11.2673 2.68099 11.7005 3.13525 11.9029L5.26848 17.8329C5.40181 18.202 5.75339 18.45 6.14345 18.45H8.28417C8.58765 18.45 8.87273 18.3006 9.04681 18.0502C9.22089 17.7998 9.26286 17.4788 9.15925 17.192L7.32646 12.0997C10.3131 12.4122 13.1541 13.3183 15.7806 14.7978C15.9255 14.8794 16.0836 14.9201 16.2415 14.9201C16.4054 14.9201 16.5692 14.8762 16.7176 14.7885C17.0077 14.617 17.181 14.3122 17.181 13.9731V10.8939C18.4873 10.7234 19.5 9.5965 19.5 8.23508C19.5 6.87362 18.4873 5.74666 17.1811 5.57626ZM2.27943 9.82705H1.69028C1.5401 9.82705 1.41797 9.70404 1.41797 9.55277V6.91884C1.41797 6.76769 1.5401 6.6446 1.69028 6.6446H2.27943V9.82705ZM3.50326 11.0558C3.32328 10.9745 3.19741 10.7927 3.19741 10.5815V5.89008C3.19741 5.60351 3.42897 5.37034 3.71349 5.37034H6.21217V11.1013C6.21217 11.1013 3.6917 11.1003 3.68083 11.0997C3.58876 11.0889 3.56939 11.0842 3.50326 11.0558ZM8.29635 17.5076C8.29783 17.5113 8.2988 17.514 8.29482 17.5197C8.29093 17.5253 8.28803 17.5253 8.28414 17.5253H6.14341C6.13795 17.5253 6.13294 17.5218 6.13127 17.5173L4.15583 12.0259H6.32343L8.29635 17.5076ZM16.2631 13.9731C16.2631 13.9798 16.2631 13.9852 16.2532 13.991C16.2414 13.9979 16.2343 13.994 16.2287 13.9908C13.4071 12.4015 10.348 11.4474 7.13015 11.1515V5.31906C10.3483 5.02276 13.4074 4.06861 16.2286 2.47944C16.2344 2.47626 16.2415 2.47234 16.2532 2.47921C16.2631 2.48508 16.2631 2.49035 16.2631 2.49704V13.9731ZM17.1811 9.95791V6.51221C17.979 6.67346 18.582 7.38457 18.582 8.23504C18.582 9.08554 17.979 9.7967 17.1811 9.95791Z" fill="white" stroke="white" stroke-width="0.5"/>
</svg>
