<svg width="40" height="40" viewBox="0 0 40 40" fill="none" xmlns="http://www.w3.org/2000/svg">
<g clip-path="url(#clip0_252_617)">
<path d="M21.3635 11.4437V6.40719C22.6683 5.96828 23.6144 4.74897 23.6144 3.29625C23.6144 1.47578 22.1386 0 20.3182 0C18.4978 0 17.0219 1.47578 17.0219 3.29625C17.0219 4.74877 17.9677 5.96801 19.2722 6.40706V12.3621C19.2722 12.9394 19.7405 13.4077 20.3178 13.4077C21.5588 13.4077 22.5683 14.4172 22.5683 15.6582C22.5683 16.8992 21.5588 17.9087 20.3178 17.9087C19.0769 17.9087 18.0673 16.8992 18.0673 15.6582C18.0673 15.0809 17.599 14.6126 17.0217 14.6126C16.4444 14.6126 15.9761 15.0809 15.9761 15.6582C15.9761 18.0524 17.9237 20 20.3179 20C22.7121 20 24.6597 18.0524 24.6597 15.6582C24.6597 13.6242 23.2539 11.9128 21.3635 11.4437ZM18.6701 3.29625C18.6701 2.38602 19.408 1.64813 20.3182 1.64813C21.2284 1.64813 21.9663 2.38602 21.9663 3.29625C21.9663 4.20649 21.2284 4.94438 20.3182 4.94438C19.408 4.94438 18.6701 4.20642 18.6701 3.29625Z" fill="white"/>
<path d="M39 32L25 18" stroke="white" stroke-width="1.5"/>
<path d="M1 32L15 18" stroke="white" stroke-width="1.5"/>
<rect x="0.75" y="28.75" width="38.5" height="3.5" rx="1.75" fill="#68A4EF" stroke="white" stroke-width="1.5"/>
<path d="M37 32V36" stroke="white" stroke-width="1.5"/>
<path d="M3 32V35.5" stroke="white" stroke-width="1.5"/>
<rect x="0.75" y="35.75" width="38.5" height="3.5" rx="1.75" fill="#F5617A" stroke="white" stroke-width="1.5"/>
</g>
<defs>
<clipPath id="clip0_252_617">
<rect width="40" height="40" fill="white"/>
</clipPath>
</defs>
</svg>
