<svg width="60" height="60" viewBox="0 0 60 60" fill="none" xmlns="http://www.w3.org/2000/svg">
<g clip-path="url(#clip0_124_236)">
<rect x="20.75" y="20.75" width="38.5" height="38.5" stroke="white" stroke-width="1.5" stroke-dasharray="3 3"/>
<path d="M7.7778 1.11108H1.66669V8.88886L7.7778 7.77775V1.11108Z" fill="#0C8CE9"/>
<path d="M31.1111 8.33329L30.5555 1.66663H38.3333V8.33329H31.1111Z" fill="#E90C59"/>
<path d="M38.8889 31.6666H30.5555L31.1111 38.3333H38.8889V31.6666Z" fill="#0C8CE9"/>
<path d="M8.88886 38.3333V31.6666H1.11108V38.8888L8.88886 38.3333Z" fill="#E90C59"/>
<mask id="mask0_124_236" style="mask-type:luminance" maskUnits="userSpaceOnUse" x="0" y="0" width="40" height="40">
<path d="M40 0H0V40H40V0Z" fill="white"/>
</mask>
<g mask="url(#mask0_124_236)">
<path d="M2.04335 39.9771C2.11909 39.9771 2.19746 39.9753 2.27845 39.9718C3.63517 39.9134 5.01095 39.8005 6.3411 39.691C6.917 39.6437 7.49307 39.5962 8.06915 39.5529C9.58717 39.4387 10.1607 38.7756 10.0491 37.2636C10.0242 36.9263 10.0069 36.5904 9.99039 36.2659C9.98636 36.1861 9.98236 36.1076 9.97831 36.0304H30.0922C30.1044 36.0963 30.1117 36.1632 30.114 36.2304V36.3801C30.1201 36.5738 30.1117 36.7675 30.0894 36.9602C29.9342 38.0448 30.0254 38.7154 30.3846 39.1351C30.8155 39.6387 31.5917 39.7514 32.7044 39.7703C32.9798 39.7753 33.1907 39.7736 33.3877 39.7653C33.8828 39.7449 34.3778 39.7215 34.8732 39.6983C35.8712 39.6518 36.9029 39.6032 37.9175 39.5786C39.291 39.5451 39.8864 38.9685 39.9087 37.6505C39.9416 35.7099 39.9522 33.7736 39.9598 31.9564C39.9654 30.6908 39.5173 30.2352 38.2492 30.2166C37.7213 30.209 37.1894 30.2108 36.6261 30.2126C36.4132 30.2126 36.1937 30.2141 35.9672 30.2143V9.64281C36.0983 9.63366 36.2299 9.62462 36.3621 9.61569C36.776 9.58744 37.2041 9.55823 37.6287 9.52035C38.8841 9.40769 39.6365 9.04686 39.7677 7.54057C39.9241 5.73635 39.912 3.89177 39.9001 2.10794L39.8988 1.93062C39.8993 1.53457 39.7593 1.15111 39.5028 0.848196C39.2466 0.545285 38.8912 0.3425 38.4993 0.275771C37.7211 0.120844 36.9272 0.0584647 36.1345 0.0899646C35.0583 0.119189 33.9664 0.180097 32.9104 0.239199C32.2482 0.276095 31.5861 0.312996 30.9236 0.342873C29.8109 0.392833 29.4963 0.710048 29.4588 1.81862C29.4449 2.23397 29.4259 2.64918 29.4061 3.0562L29.3884 3.45144C25.7773 3.85959 11.4404 3.9853 9.26365 3.63232C9.25201 3.4854 9.24087 3.33766 9.2294 3.18893C9.19662 2.76002 9.16269 2.31676 9.11991 1.87676C8.99598 0.601162 8.57138 0.209643 7.30254 0.201153C5.72991 0.190541 4.01765 0.190221 1.91471 0.200017C1.33455 0.202629 0.947459 0.330626 0.69713 0.600666C0.440082 0.878219 0.342532 1.29324 0.390074 1.90582L0.402722 2.06695C0.442831 2.47872 0.461257 2.8923 0.457953 3.30596C0.434839 4.19169 0.401869 5.09225 0.369902 5.96311C0.343345 6.69486 0.316459 7.42661 0.294819 8.15871C0.279738 8.66988 0.386183 9.03544 0.620446 9.2769C0.851758 9.51511 1.20616 9.6322 1.70419 9.63449C2.1814 9.63449 2.66859 9.60002 3.18401 9.56118C3.37631 9.54681 3.5755 9.53177 3.78467 9.51806L3.3493 30.4931L3.34226 30.8266L2.93241 30.8795C2.45831 30.9403 1.94748 31.0058 1.43748 31.0764C0.786821 31.1663 0.470282 31.5409 0.439462 32.2553C0.352249 34.321 0.242689 36.0173 0.0966261 37.5942C0.0123628 38.5014 0.142229 39.1009 0.505181 39.4807C0.826001 39.8173 1.31843 39.9771 2.04335 39.9771ZM2.18566 7.3961L1.92087 2.19201H7.06695V6.98432L2.18566 7.3961ZM9.34963 5.94304C9.33945 5.81896 9.32971 5.69617 9.32041 5.57471H29.4168C29.4345 5.80573 29.4507 6.03625 29.4669 6.26661C29.5109 6.88898 29.5565 7.53242 29.6299 8.16279C29.7742 9.40359 30.3228 9.86712 31.5854 9.83449C32.076 9.81962 32.5672 9.79642 33.0869 9.77192C33.2727 9.76311 33.4628 9.75423 33.657 9.7453C33.235 17.662 33.2261 24.2141 33.6292 30.3341L33.0517 30.3879C32.5092 30.4387 31.9912 30.487 31.4732 30.5348C30.718 30.6037 30.3147 31.0186 30.2745 31.7675C30.2515 32.2 30.2089 32.6377 30.1639 33.1011C30.1477 33.2709 30.1312 33.4453 30.114 33.6256L9.89419 34.1356C9.86649 33.8998 9.84105 33.6767 9.81646 33.4626C9.75368 32.9134 9.69963 32.4395 9.63355 31.9572C9.49143 30.9182 9.06715 30.5014 8.10122 30.5014C8.00955 30.5014 7.91302 30.5051 7.81171 30.5127C7.65467 30.5237 7.4976 30.53 7.34057 30.5363C7.16024 30.5439 6.98143 30.5509 6.80241 30.5653C6.57733 30.5831 6.35538 30.6093 6.07424 30.6425C5.98571 30.6525 5.89138 30.6639 5.78958 30.6749V9.3169C5.92072 9.30498 6.05616 9.29227 6.19583 9.27904C6.65188 9.23642 7.16912 9.18777 7.677 9.15202C8.87601 9.06777 9.44867 8.44784 9.42801 7.25665C9.42014 6.8121 9.38439 6.37013 9.34963 5.94304ZM37.4034 7.18893L32.197 7.40294L31.7125 2.24688H33.1401C34.5079 2.24688 35.831 2.24687 37.1537 2.24784C37.5778 2.24784 37.7307 2.40392 37.7375 2.84246C37.7603 4.30711 37.7515 5.74256 37.4034 7.18893ZM2.14748 37.6508V32.9014L7.5409 32.5564V37.1939L2.14748 37.6508ZM32.0059 32.363H37.9378L37.5732 37.2674H32.2596L32.0059 32.363Z" fill="white"/>
</g>
<path d="M53 4.94118C51.8652 4.94118 50.9412 5.86518 50.9412 7C50.9412 8.13482 51.8652 9.05882 53 9.05882C54.1348 9.05882 55.0588 8.13482 55.0588 7C55.0588 5.86518 54.1348 4.94118 53 4.94118ZM53 8.23529C52.3189 8.23529 51.7647 7.68106 51.7647 7C51.7647 6.31894 52.3189 5.76471 53 5.76471C53.6811 5.76471 54.2353 6.31894 54.2353 7C54.2353 7.68106 53.6811 8.23529 53 8.23529ZM59.9506 7.80212C59.9811 7.53776 60 7.27094 60 7C60 6.72906 59.9811 6.46224 59.9506 6.19788L57.8193 5.55718C57.7213 5.22612 57.5904 4.90906 57.4289 4.61094L58.4822 2.65341C58.1479 2.23341 57.7666 1.85212 57.3458 1.51694L55.3882 2.57106C55.0893 2.40965 54.7722 2.27953 54.4412 2.18071L53.8021 0.0494118C53.5386 0.0189412 53.2718 0 53 0C52.7282 0 52.4614 0.0189412 52.1979 0.0494118L51.5588 2.18071C51.2269 2.27871 50.9091 2.40965 50.6118 2.57188L48.6542 1.51776C48.2334 1.85212 47.8521 2.23341 47.5186 2.65424L48.5719 4.61012C48.4105 4.90824 48.2804 5.22612 48.1815 5.55718L46.0494 6.19788C46.0189 6.46141 46 6.72824 46 7C46 7.27176 46.0189 7.53859 46.0494 7.80212L48.1807 8.44118C48.2795 8.77306 48.4096 9.09094 48.5711 9.38906L47.5178 11.3458C47.8521 11.7666 48.2334 12.1479 48.6542 12.4822L50.6118 11.4289C50.9099 11.5904 51.2278 11.7205 51.5588 11.8193L52.1979 13.9506C52.4622 13.9811 52.7291 14 53 14C53.2709 14 53.5386 13.9811 53.8021 13.9506L54.4412 11.8193C54.7722 11.7205 55.0901 11.5904 55.3882 11.4289L57.3449 12.4822C57.7658 12.1471 58.1471 11.7658 58.4814 11.3449L57.4289 9.38824C57.5904 9.09012 57.7205 8.77224 57.8193 8.44118L59.9506 7.80212ZM57.1572 7.77988L57.0304 8.20647C56.948 8.484 56.8385 8.75 56.7042 8.99623L56.4934 9.38741L56.7034 9.77859L57.4874 11.2362C57.4059 11.3227 57.3219 11.4067 57.2354 11.4882L55.3882 10.4926L54.9971 10.7034C54.7492 10.8376 54.4832 10.9464 54.2065 11.0295L53.7799 11.1564L53.6522 11.5829L53.1754 13.174C53.1161 13.1756 53.0576 13.1765 53 13.1765C52.9424 13.1765 52.8839 13.1756 52.8246 13.174L52.3478 11.5829L52.2201 11.1564L51.7935 11.0295C51.5168 10.9472 51.2508 10.8376 51.0038 10.7034L50.6126 10.4926L48.7638 11.4866C48.6781 11.4051 48.5933 11.3211 48.5118 11.2346L49.5066 9.38659L49.2958 8.99541C49.1624 8.74835 49.0528 8.48235 48.9696 8.20482L48.8436 7.77906L46.8268 7.17459C46.8244 7.11529 46.8235 7.05682 46.8235 7C46.8235 6.94235 46.8244 6.88388 46.8268 6.82459L48.8428 6.22012L48.9696 5.79353C49.052 5.516 49.1615 5.25 49.2958 5.00376L49.5066 4.61259L48.5118 2.76376C48.5933 2.67812 48.6773 2.59329 48.7629 2.51177L50.6134 3.50824L51.0054 3.29494C51.25 3.16153 51.5152 3.052 51.7927 2.96965L52.2193 2.84282L52.3469 2.41624L52.8238 0.825176C52.8839 0.824353 52.9424 0.823529 53 0.823529C53.0576 0.823529 53.1161 0.824353 53.1754 0.826L53.6522 2.41706L53.7799 2.84365L54.2065 2.97047C54.4824 3.05282 54.7492 3.16235 54.9971 3.29659L55.3882 3.50659L57.2362 2.51177C57.3219 2.59329 57.4067 2.67729 57.4882 2.76376L56.7034 4.22141L56.4934 4.61259L56.7051 5.00376C56.8393 5.25082 56.948 5.516 57.0304 5.79188L57.1572 6.21847L57.5838 6.34612L59.1748 6.82459C59.1756 6.88388 59.1765 6.94235 59.1765 7C59.1765 7.05765 59.1756 7.11612 59.1732 7.17541L57.1572 7.77988Z" fill="white"/>
</g>
<defs>
<clipPath id="clip0_124_236">
<rect width="60" height="60" fill="white"/>
</clipPath>
</defs>
</svg>
