<svg width="40" height="40" viewBox="0 0 40 40" fill="none" xmlns="http://www.w3.org/2000/svg">
<path d="M19 22L12 15.5L9 13L12.5 12L18.5 11.5L28 12L31.5 13L23.5 21L20.5 22.5L19 22Z" fill="#F5617A"/>
<path d="M3.23489 7.29468L3.75102 6.75052L3.23489 7.29468ZM2.30713 5.3335V4.5835H1.50149L1.55904 5.38707L2.30713 5.3335ZM18.3505 21.6318L17.8344 22.176L18.3505 21.6318ZM22.4769 21.6343L21.9614 21.0895L22.4769 21.6343ZM36.7598 8.11969L37.2752 8.66447V8.66447L36.7598 8.11969ZM37.6362 5.3335L38.3709 5.18251L38.2478 4.5835H37.6362V5.3335ZM3.75102 6.75052C3.32593 6.34732 3.09393 5.82055 3.05521 5.27992L1.55904 5.38707C1.62344 6.28623 2.01129 7.16781 2.71876 7.83884L3.75102 6.75052ZM18.8666 21.0877L3.75102 6.75052L2.71876 7.83884L17.8344 22.176L18.8666 21.0877ZM21.9614 21.0895C21.0931 21.9111 19.734 21.9103 18.8666 21.0877L17.8344 22.176C19.2799 23.547 21.5452 23.5484 22.9924 22.1791L21.9614 21.0895ZM36.2443 7.57491L21.9614 21.0895L22.9924 22.1791L37.2752 8.66447L36.2443 7.57491ZM36.9016 5.48448C37.0534 6.22336 36.8319 7.01894 36.2443 7.57491L37.2752 8.66447C38.2562 7.73629 38.6226 6.4074 38.3709 5.18251L36.9016 5.48448ZM37.6362 4.5835H2.30713V6.0835H37.6362V4.5835Z" fill="white"/>
<path d="M31.8127 12.794C31.8129 12.794 31.8117 12.7954 31.8089 12.7983C31.8112 12.7954 31.8126 12.794 31.8127 12.794ZM31.282 12.9193C31.3532 12.9473 31.4163 12.9743 31.4721 13C31.4163 13.0257 31.3532 13.0527 31.282 13.0807C30.7467 13.2916 29.9278 13.4968 28.862 13.6744C26.7423 14.0277 23.7855 14.25 20.5 14.25C17.2145 14.25 14.2577 14.0277 12.138 13.6744C11.0722 13.4968 10.2533 13.2916 9.71798 13.0807C9.64682 13.0527 9.58366 13.0257 9.52787 13C9.58366 12.9743 9.64682 12.9473 9.71798 12.9193C10.2533 12.7084 11.0722 12.5032 12.138 12.3256C14.2577 11.9723 17.2145 11.75 20.5 11.75C23.7855 11.75 26.7423 11.9723 28.862 12.3256C29.9278 12.5032 30.7467 12.7084 31.282 12.9193ZM9.18725 12.794C9.18738 12.794 9.18881 12.7954 9.19117 12.7983C9.1883 12.7954 9.18712 12.794 9.18725 12.794ZM9.18725 13.206C9.18712 13.206 9.1883 13.2046 9.19117 13.2017C9.18881 13.2046 9.18738 13.206 9.18725 13.206ZM31.8089 13.2017C31.8117 13.2046 31.8129 13.206 31.8127 13.206C31.8126 13.206 31.8112 13.2046 31.8089 13.2017Z" stroke="white" stroke-width="1.5"/>
<rect x="19" y="22" width="2" height="18" fill="white"/>
<ellipse cx="20" cy="39" rx="7" ry="1" fill="white"/>
<ellipse cx="20" cy="5.34" rx="18" ry="3.34" fill="#24282E" stroke="white" stroke-width="1.5"/>
<path d="M11.1922 2.53537C13.1448 4.48799 13.4614 7.33723 11.8993 8.89933C10.3372 10.4614 7.48799 10.1448 5.53537 8.19222C3.58275 6.2396 3.26617 3.39036 4.82826 1.82826C6.39036 0.266166 9.2396 0.582748 11.1922 2.53537Z" fill="#68A4EF" stroke="white" stroke-width="1.5"/>
<circle cx="8.5" cy="3.5" r="0.5" fill="white"/>
<path d="M26 18L27.6924 1L31 5" stroke="white" stroke-width="1.5" stroke-linejoin="round"/>
</svg>
