<svg width="20" height="20" viewBox="0 0 20 20" fill="none" xmlns="http://www.w3.org/2000/svg">
<path fill-rule="evenodd" clip-rule="evenodd" d="M10.0047 1.0498C14.9778 1.0498 19.0094 5.08138 19.0094 10.0545C19.0094 14.549 15.7165 18.2743 11.4117 18.9498V12.6577H13.5099L13.9091 10.0548H13.909L13.9091 10.0545H11.4117V8.36573C11.4117 7.65352 11.7606 6.95945 12.8792 6.95945H14.0146V4.74345C14.0146 4.74345 14.0146 4.74345 14.0146 4.74344V4.74314C14.0146 4.74314 12.9841 4.56726 11.999 4.56726C9.94209 4.56726 8.59771 5.81385 8.59771 8.07065V10.0545H6.31136V12.6574H6.3114V12.6577H8.59771V18.9498C4.2929 18.2743 1 14.549 1 10.0545C1 5.08138 5.03157 1.0498 10.0047 1.0498Z" fill="white"/>
</svg>
