<svg width="169" height="49" viewBox="0 0 169 49" fill="none" xmlns="http://www.w3.org/2000/svg">
<path fill-rule="evenodd" clip-rule="evenodd" d="M77.9189 9.10838C77.4787 8.70649 76.8979 8.49409 76.3023 8.51716C76.0086 8.50463 75.7153 8.55035 75.4394 8.65168C75.1635 8.75302 74.9103 8.90797 74.6946 9.10759C74.4788 9.30721 74.3047 9.54755 74.1822 9.81478C74.0597 10.082 73.9914 10.3708 73.9811 10.6646C73.9947 10.9548 74.0658 11.2393 74.1902 11.5018C74.3145 11.7643 74.4897 11.9995 74.7056 12.1938C74.9214 12.3882 75.1737 12.5377 75.4478 12.6339C75.7219 12.7301 76.0123 12.771 76.3023 12.7541C76.8911 12.7882 77.4695 12.5874 77.9105 12.1957C78.3515 11.804 78.6191 11.2534 78.6547 10.6646C78.6235 10.0693 78.3592 9.51027 77.9189 9.10838ZM74.3642 15.0174V29.3635H78.276V15.0174H74.3642ZM41.4575 29.3641V10.1574H52.1057C54.81 10.1574 56.6322 10.9192 57.8975 12.2736C58.9443 13.3942 59.5039 14.8841 59.4538 16.4166C59.4037 17.9492 58.7479 19.3993 57.6302 20.4491C56.4273 21.5941 54.7209 22.298 52.1057 22.298H45.6633V29.3552L41.4575 29.3641ZM45.6633 13.7216V18.7516H52.2482C53.0515 18.8066 53.844 18.5425 54.4536 18.0165C54.934 17.5467 55.2094 16.9062 55.2199 16.2344C55.2199 15.5871 54.9673 14.9653 54.516 14.5013C54.2145 14.2175 53.857 14 53.4665 13.8626C53.0759 13.7253 52.661 13.6712 52.2482 13.7038L45.6633 13.7216ZM66.3047 20.1325V29.3639H62.3662V19.0677C62.3569 17.7064 62.2197 16.349 61.9563 15.0134H65.5205C65.6551 15.7222 65.7532 16.4375 65.8146 17.1564C66.7056 15.6861 67.7259 14.5411 69.5793 14.5411C70.3552 14.5251 71.1198 14.729 71.7847 15.1292L70.6931 18.7157C70.0699 18.4876 69.4173 18.3496 68.7551 18.3059C67.7482 18.3103 67.0932 19.1034 66.3047 20.1325ZM93.5933 18.8092C91.9693 18.0426 90.2101 17.6036 88.4163 17.5172C86.946 17.5172 86.0371 17.985 86.0371 18.8983C86.0371 20.1012 87.6232 20.1904 88.8573 20.2349C91.4459 20.3552 95.7675 20.6493 95.7675 24.7927C95.7675 28.2054 92.8003 29.8494 88.9464 29.8494C86.359 29.8361 83.8296 29.0816 81.6576 27.6752L83.0387 24.8818C84.4199 25.7372 86.7411 26.8243 89.0044 26.8243C90.831 26.8243 91.8602 26.1471 91.8602 25.1491C91.8602 23.8125 90.0781 23.6477 88.8306 23.5585C85.7119 23.3848 82.1477 23.1754 82.1477 19.2948C82.1477 15.6504 85.351 14.4742 88.2603 14.4742C90.5737 14.5414 92.8515 15.0605 94.9655 16.0024L93.5933 18.8092ZM99.1713 8.78512V29.3641H103.083V19.7229C103.76 18.8407 104.932 17.8695 106.344 17.8695C107.757 17.8695 108.759 18.7783 108.759 19.8699V29.3641H112.698V19.7229C112.698 16.72 110.492 14.5458 107.226 14.5458C105.493 14.5458 104.112 15.4859 103.083 16.515V8.78512H99.1713ZM115.442 15.0179H117.941V10.9591H121.853V15.0179H125.377V17.9272H121.853V25.3675C121.853 26.2586 122.41 26.6283 123.408 26.6283C124.02 26.6076 124.629 26.5391 125.23 26.4234L125.524 29.3639C124.967 29.8094 123.176 29.9253 122.406 29.9253C120.289 29.9253 117.95 28.8649 117.95 25.6615V17.9272H115.451L115.442 15.0179ZM132.465 9.10838C132.025 8.70649 131.444 8.49409 130.848 8.51716C130.555 8.50463 130.262 8.55035 129.986 8.65168C129.71 8.75302 129.457 8.90797 129.241 9.10759C129.025 9.30721 128.851 9.54755 128.728 9.81478C128.606 10.082 128.538 10.3708 128.527 10.6646C128.541 10.9548 128.612 11.2393 128.736 11.5018C128.861 11.7643 129.036 11.9995 129.252 12.1938C129.468 12.3882 129.72 12.5377 129.994 12.6339C130.268 12.7301 130.558 12.771 130.848 12.7541C131.437 12.7882 132.016 12.5874 132.457 12.1957C132.898 11.804 133.165 11.2534 133.201 10.6646C133.17 10.0693 132.905 9.51027 132.465 9.10838ZM128.91 15.0174V29.3635H132.818V15.0174H128.91ZM145.667 14.5454C146.354 14.5273 147.038 14.6484 147.678 14.9014C148.317 15.1545 148.899 15.5342 149.388 16.0178C149.877 16.5014 150.263 17.0788 150.523 17.7155C150.783 18.3521 150.912 19.0348 150.902 19.7225V29.3637H146.963V19.8695C146.963 18.7779 145.992 17.8691 144.58 17.8691C143.167 17.8691 142.111 18.8091 141.287 19.7225V29.3637H137.375V19.1165C137.38 17.7442 137.243 16.3751 136.966 15.031H140.53C140.665 15.6513 140.763 16.2792 140.824 16.9112C141.394 16.1696 142.127 15.5702 142.967 15.1597C143.808 14.7492 144.732 14.539 145.667 14.5454ZM161.822 14.5456C159.51 14.5702 157.231 15.0913 155.139 16.0738L156.324 18.9697C157.938 18.1703 159.701 17.7151 161.501 17.6331C163.234 17.6331 164.526 18.3103 164.526 19.8073V21.2508C163.47 20.4266 161.942 20.0746 160.414 20.0746C156.413 20.0746 154.118 22.1641 154.118 24.8373C154.118 27.6308 156.324 29.7159 159.794 29.7159C160.694 29.7509 161.591 29.5907 162.424 29.2461C163.256 28.9016 164.003 28.3809 164.615 27.7199C164.696 28.2751 164.813 28.8243 164.967 29.3639H168.852C168.57 28.4599 168.43 27.5174 168.438 26.5704V18.8984C168.438 15.6639 165.114 14.5456 161.822 14.5456ZM164.544 23.8661V25.2472C163.497 26.2469 162.111 26.8148 160.663 26.8377C159.019 26.8377 158.048 26.0403 158.048 24.8373C158.048 23.7502 158.899 22.8369 161.225 22.8369C162.415 22.8008 163.583 23.163 164.544 23.8661Z" fill="white"/>
<path fill-rule="evenodd" clip-rule="evenodd" d="M131.485 37.8708C130.26 36.8834 128.721 36.3683 127.148 36.4192C125.643 36.4192 124.102 36.9568 124.102 38.4264C124.102 39.8939 126.032 40.0032 127.929 40.1106L127.937 40.111L128.002 40.1156C130.05 40.2589 133.277 40.4848 133.277 43.5878C133.277 46.3118 130.858 47.405 128.044 47.405C125.756 47.4452 123.545 46.5824 121.888 45.0035L122.838 43.9283C124.229 45.3102 126.111 46.0837 128.071 46.0788C130.061 46.0788 131.709 45.362 131.709 43.7849C131.709 42.0286 129.917 41.7598 127.928 41.6164L127.92 41.6159C125.395 41.4548 122.552 41.2732 122.552 38.5698C122.552 35.8636 125.114 35.093 127.211 35.093C129.089 35.0728 130.922 35.6711 132.426 36.7956L131.485 37.8708ZM74.818 35.3974V47.1H81.7894C83.3485 47.1 84.1729 46.6878 84.8002 46.0964C85.1349 45.7888 85.4018 45.4147 85.5838 44.9981C85.7659 44.5816 85.8591 44.1316 85.8575 43.677C85.8881 42.9968 85.6761 42.3279 85.2592 41.7896C84.8423 41.2512 84.2477 40.8785 83.5815 40.7379C84.0796 40.5467 84.5068 40.2067 84.805 39.7642C85.1032 39.3218 85.2579 38.7982 85.2482 38.2648C85.2477 37.9199 85.1777 37.5786 85.0422 37.2614C84.9067 36.9442 84.7085 36.6577 84.4597 36.4189C84.0774 36.0663 83.6282 35.7942 83.1387 35.6188C82.6491 35.4433 82.1294 35.368 81.6102 35.3974H74.818ZM76.3771 40.4198V36.7952L81.4489 36.7818C81.7565 36.7602 82.0653 36.7997 82.3575 36.8982C82.6497 36.9966 82.9196 37.152 83.1514 37.3553C83.4625 37.6775 83.636 38.1081 83.6353 38.556C83.6355 38.8055 83.5865 39.0527 83.4912 39.2833C83.3959 39.5139 83.2561 39.7235 83.0797 39.9001C82.8901 40.0764 82.6672 40.2132 82.4241 40.3024C82.181 40.3917 81.9226 40.4316 81.6639 40.4198H76.3771ZM76.3771 45.7201V41.6877L82.0761 41.6698C82.3769 41.6692 82.6748 41.7292 82.9519 41.8462C83.229 41.9632 83.4797 42.1349 83.689 42.3508C84.0402 42.6961 84.24 43.1667 84.2446 43.6591C84.2436 43.924 84.1891 44.1859 84.0844 44.4292C83.9797 44.6724 83.8269 44.8921 83.6353 45.0749C83.1459 45.5172 82.5021 45.7489 81.8431 45.7201H76.3771ZM43.151 35.3975L46.0542 44.7524H46.1438L49.1367 35.3975H50.3195L53.3124 44.7524H53.4199L56.3232 35.3975H57.9361L54.1726 47.1001H52.5776L49.755 38.3187H49.6475L46.8159 47.1001H45.2209L41.4574 35.3975H43.151ZM67.7211 41.6341H62.9899V45.7202H71.2606V47.1001H61.4307V35.3975H70.8395V36.7774H62.9899V40.2542H67.7211V41.6341ZM94.5852 47.1001V35.3975H99.7824C101.969 35.3975 103.187 36.0247 104.263 37.0283C105.321 38.1984 105.9 39.7244 105.883 41.3022C105.867 42.8799 105.256 44.3934 104.173 45.541C103.098 46.5087 101.987 47.0822 99.8003 47.0822L94.5852 47.1001ZM99.7286 45.7202C101.413 45.7202 102.112 45.2721 102.937 44.5911C103.799 43.6909 104.269 42.486 104.245 41.2398C104.273 40.0244 103.822 38.8467 102.99 37.9602C102.184 37.2255 101.395 36.7774 99.7286 36.7774H96.1444V45.7381L99.7286 45.7202ZM111.324 41.6341H116.064V40.2542H111.324V36.7774H119.173V35.3975H109.765V47.1001H119.585V45.7202H111.324V41.6341ZM136.969 35.3975V47.1001H138.528V35.3975H136.969ZM152.937 38.0326C151.781 37.0346 150.307 36.4817 148.779 36.4735C148.147 36.4626 147.519 36.5788 146.933 36.8152C146.346 37.0516 145.813 37.4034 145.365 37.8496C144.917 38.2959 144.564 38.8276 144.325 39.4131C144.086 39.9987 143.968 40.6262 143.976 41.2585C143.976 43.7674 145.84 46.0255 148.905 46.0255C150.254 46.049 151.577 45.6478 152.686 44.8786V42.1008H148.905V40.7208H154.12V45.6492C152.592 46.7909 150.741 47.4184 148.833 47.4413C145.159 47.4413 142.345 44.6814 142.345 41.2764C142.345 37.8713 145.186 35.0935 148.77 35.0935C150.697 35.1167 152.555 35.8142 154.021 37.0649L152.937 38.0326ZM168.932 47.1001V35.3975H167.346V44.3582L159.909 35.3975H158.493V47.1001H160.079V38.1394L167.516 47.1001H168.932Z" fill="white"/>
<path fill-rule="evenodd" clip-rule="evenodd" d="M17.8323 0.98511C17.8473 1.14191 17.82 1.29909 17.7926 1.45623L17.7926 1.45656C17.7813 1.52143 17.77 1.58643 17.7617 1.65125C17.7435 1.79256 17.7394 1.93188 17.7353 2.07078V2.07082L17.7345 2.09807C17.726 2.46931 17.6961 2.83967 17.6448 3.20736C17.6177 3.32357 17.6157 3.44415 17.6389 3.56141C17.6421 3.5793 17.6495 3.59623 17.6605 3.61087C17.6716 3.62552 17.6859 3.63747 17.7024 3.6458C17.7216 3.65127 17.7419 3.65187 17.7613 3.64753C17.931 3.62695 18.0947 3.57376 18.243 3.49102C18.3913 3.40828 18.5214 3.29762 18.6257 3.16536C18.73 3.0331 18.8065 2.88186 18.8508 2.72029C18.8951 2.55872 18.9065 2.39 18.8841 2.22381C18.8739 2.14615 18.8551 2.06975 18.8281 1.99598C18.8018 1.92365 18.7662 1.85591 18.7305 1.78791C18.7001 1.73009 18.6696 1.672 18.6446 1.61057C18.5895 1.46716 18.5484 1.31903 18.5218 1.16818C18.4848 1.01127 18.4605 0.851793 18.4492 0.691258C18.4466 0.626569 18.4482 0.561114 18.4498 0.495712V0.495596V0.495582C18.4536 0.342058 18.4574 0.188599 18.4065 0.0447244C18.3776 0.0173069 18.3394 0.00138893 18.2992 8.67001e-05C18.2591 -0.00121555 18.22 0.0121911 18.1896 0.037683C18.1306 0.0908495 18.0865 0.157943 18.0615 0.232611C17.9416 0.468715 17.8641 0.723244 17.8323 0.98511ZM17.8323 0.98511C17.8295 1.00769 17.8271 1.03032 17.825 1.05299L17.8268 0.940633C17.829 0.955455 17.8308 0.970281 17.8323 0.98511ZM20.2923 1.30767C20.1361 1.93337 20.0371 2.5717 19.9965 3.21514L19.9945 3.27149C19.9912 3.36546 19.988 3.45942 19.9776 3.55082C19.9588 3.69677 19.93 3.84127 19.8914 3.98334L19.7744 4.45504C19.8114 4.47909 19.8543 4.49306 19.8986 4.49549C19.9428 4.49792 19.9869 4.48874 20.0262 4.46888C20.1043 4.4283 20.1725 4.37182 20.2264 4.30324C20.4575 4.02663 20.6606 3.72869 20.833 3.41356C20.8863 3.3305 20.9319 3.24297 20.9694 3.15197C21.0152 3.02015 21.039 2.88188 21.0401 2.74242C21.0412 2.31979 20.9648 1.89999 20.8146 1.50299C20.8053 1.47578 20.7959 1.44285 20.7857 1.407L20.7856 1.40635C20.7441 1.26057 20.6889 1.06663 20.57 1.01118C20.386 0.921218 20.3197 1.18282 20.2923 1.30767ZM23.296 2.03329C23.4053 1.92069 23.539 1.80542 23.6978 1.81212C23.7255 1.81196 23.7529 1.81759 23.7782 1.82865C23.8036 1.8397 23.8262 1.85592 23.8447 1.87621C23.8817 1.93632 23.8933 2.00808 23.8771 2.07619C23.7797 2.92818 23.3019 3.70309 22.6863 4.30992C22.5125 4.4937 22.3065 4.64554 22.0779 4.75834C21.9603 4.81093 21.8575 4.85511 21.8557 4.69237C21.8722 4.55104 21.908 4.41261 21.9622 4.28082C22.1266 3.74736 22.3708 3.24103 22.6867 2.77819C22.8671 2.51289 23.071 2.26364 23.296 2.03329ZM16.6073 4.67197C17.3421 5.08529 18.1089 5.44119 18.9005 5.73633C20.1013 6.21032 21.319 6.64474 22.5358 7.07879C22.8315 7.19097 23.1334 7.287 23.4398 7.36647C23.7929 7.45085 24.2026 7.48018 24.4813 7.25368C24.5117 7.23362 24.5334 7.20314 24.5421 7.16818C24.5435 7.14795 24.5402 7.12764 24.5325 7.1088C24.444 6.84877 24.1577 6.71302 23.8991 6.61001C22.2003 5.93651 20.4469 5.41052 18.6941 4.88468L18.694 4.88467C18.1743 4.72874 17.6545 4.57281 17.1362 4.41307C17.1038 4.40301 17.0464 4.38021 16.9757 4.3521C16.7352 4.25657 16.3403 4.09967 16.2473 4.17304C16.0725 4.30784 16.5024 4.6081 16.6073 4.67197ZM24.6618 4.51626L24.6294 4.56038C24.5425 4.67908 24.4548 4.7972 24.3671 4.91547L24.3663 4.9166C24.2285 5.10234 24.0903 5.28862 23.9541 5.47794C23.8717 5.59272 23.899 5.60477 23.9686 5.63547C23.9925 5.64605 24.0215 5.65884 24.0528 5.67882C24.0877 5.70139 24.0678 5.75983 24.0487 5.81598C24.0265 5.88113 24.0054 5.9432 24.0721 5.9426C24.1509 5.93382 24.2256 5.90366 24.2877 5.85552L24.9455 5.42481C25.3139 5.20402 25.6538 4.94081 25.9581 4.64077C26.2497 4.32872 26.4686 3.93234 26.4789 3.50914C26.387 3.47962 26.2926 3.53594 26.2189 3.59967L26.2017 3.61461C26.1332 3.67431 26.0615 3.73678 25.9722 3.73949C26.1052 3.5655 26.1995 3.36608 26.2492 3.15395C26.1467 3.15478 26.0487 3.19395 25.9752 3.26343C25.6238 3.50402 25.2984 3.77894 25.0039 4.08401C24.8794 4.21997 24.7705 4.36825 24.6618 4.51626ZM3.10927 29.2842L3.18232 29.3543L9.64558 34.6018C9.75888 34.684 9.89806 34.7226 10.0375 34.7104C10.177 34.6982 10.3073 34.636 10.4046 34.5354L14.6186 29.8643C15.0456 29.4064 15.627 29.1228 16.2508 29.0682C16.8745 29.0137 17.4964 29.192 17.9964 29.5688L22.9575 33.4371C23.0704 33.5204 23.2098 33.5595 23.3495 33.5473C23.4893 33.5351 23.6198 33.4723 23.7165 33.3707L29.1751 27.0802C29.1919 27.0521 29.2103 27.025 29.2301 26.9989L30.7373 25.2656C31.0522 24.9053 31.2911 24.485 31.4396 24.0301C31.588 23.5752 31.6431 23.0949 31.6014 22.6182C31.5597 22.1414 31.4221 21.678 31.1968 21.2558C30.9716 20.8336 30.6634 20.4612 30.2907 20.161L17.1204 9.44833C16.3716 8.84569 15.4187 8.55596 14.4611 8.63974C13.5035 8.72351 12.6155 9.17431 11.9826 9.89783L0.877434 22.7343C0.562615 23.0942 0.3238 23.5141 0.175336 23.9686C0.0268731 24.4232 -0.0281745 24.903 0.0135009 25.3794C0.0551762 25.8557 0.192715 26.3187 0.417853 26.7406C0.64299 27.1624 0.951081 27.5344 1.32362 27.8342L3.10927 29.2842ZM30.2398 28.7606L25.1543 34.617C24.7374 35.0864 24.1585 35.381 23.5336 35.4419C22.9087 35.5028 22.2839 35.3254 21.7842 34.9453L16.8278 31.0765C16.7072 30.9947 16.5621 30.9569 16.4169 30.9696C16.2717 30.9823 16.1354 31.0447 16.0308 31.1463L11.8216 35.8169C11.3955 36.278 10.811 36.5612 10.185 36.6098C9.559 36.6583 8.93778 36.4687 8.44566 36.0788L2.42051 31.1945L1.69074 32.0328C1.37781 32.3936 1.14061 32.8136 0.993277 33.2679C0.845939 33.7222 0.791463 34.2015 0.833088 34.6773C0.874713 35.1531 1.01159 35.6156 1.23558 36.0374C1.45957 36.4592 1.76609 36.8317 2.13693 37.1327L15.3028 47.8505C16.0523 48.4513 17.0071 48.735 17.963 48.6408C18.9191 48.5669 19.8084 48.122 20.4407 47.401L31.5502 34.5593C31.865 34.1994 32.1038 33.7796 32.2523 33.325C32.4007 32.8705 32.4558 32.3906 32.4141 31.9143C32.3724 31.4379 32.2349 30.9749 32.0098 30.5531C31.7846 30.1312 31.4765 29.7592 31.104 29.4595L30.2398 28.7606Z" fill="white"/>
</svg>
