<svg width="627" height="315" viewBox="0 0 627 315" fill="none" xmlns="http://www.w3.org/2000/svg">
<path d="M280.688 266.805H355.261L366.675 314.34H269.274L280.688 266.805Z" fill="url(#paint0_linear_183_479)"/>
<rect x="104.149" width="427.651" height="282.139" rx="5" fill="white"/>
<rect x="326.845" y="158.437" width="67.485" height="17.4004" rx="8.70019" fill="url(#paint1_linear_183_479)" stroke="#24282E"/>
<rect width="427.651" height="38.3341" transform="translate(104.149 7.66699)" fill="#F6F7F9"/>
<rect x="184.149" y="11.834" width="30" height="30" fill="#E1E7E9"/>
<rect x="301.8" y="21.834" width="30" height="10" rx="5" fill="#E1E7E9"/>
<rect x="341.8" y="21.834" width="30" height="10" rx="5" fill="#E1E7E9"/>
<rect x="381.8" y="21.834" width="30" height="10" rx="5" fill="#E1E7E9"/>
<rect x="421.8" y="21.834" width="30" height="10" rx="5" fill="#E1E7E9"/>
<rect x="139.434" y="188.546" width="110.042" height="48.8823" fill="white" stroke="#24282E"/>
<path d="M139.825 188.937L249.388 237.038" stroke="#24282E"/>
<path d="M139.825 237.038L249.388 188.937" stroke="#24282E"/>
<rect x="262.946" y="188.546" width="110.042" height="48.8823" fill="white" stroke="#24282E"/>
<path d="M263.337 188.937L372.9 237.038" stroke="#24282E"/>
<path d="M263.337 237.038L372.9 188.937" stroke="#24282E"/>
<rect x="386.458" y="188.546" width="110.042" height="48.8823" fill="white" stroke="#24282E"/>
<path d="M386.849 188.937L496.412 237.038" stroke="#24282E"/>
<path d="M386.849 237.038L496.412 188.937" stroke="#24282E"/>
<rect x="326.345" y="95.835" width="83.7039" height="11.5002" rx="5.75012" fill="#E1E7E9"/>
<rect x="307.698" y="117.636" width="50" height="10" rx="5" fill="#E1E7E9"/>
<rect x="365.698" y="117.636" width="98" height="10" rx="5" fill="#E1E7E9"/>
<rect x="307.698" y="137.636" width="96" height="10" rx="5" fill="#E1E7E9"/>
<rect x="411.698" y="137.636" width="52" height="10" rx="5" fill="#E1E7E9"/>
<rect x="250.776" y="45.5015" width="39" height="4" fill="#BEC2C4"/>
<rect x="250.776" y="51.5015" width="39" height="4" fill="#BEC2C4"/>
<rect x="292.776" y="51.5015" width="30" height="4" fill="#BEC2C4"/>
<rect x="250.776" y="57.5015" width="63" height="4" fill="#BEC2C4"/>
<rect x="250.776" y="63.5015" width="63" height="4" fill="#BEC2C4"/>
<rect x="250.776" y="69.5015" width="70" height="4" fill="#BEC2C4"/>
<rect x="250.776" y="75.5015" width="54" height="4" fill="#BEC2C4"/>
<rect x="250.776" y="81.5015" width="24" height="4" fill="#BEC2C4"/>
<rect x="275.776" y="81.5015" width="39" height="4" fill="#BEC2C4"/>
<rect x="250.776" y="87.5015" width="39" height="4" fill="#BEC2C4"/>
<rect x="250.776" y="93.5015" width="12" height="4" fill="#BEC2C4"/>
<rect x="265.776" y="93.5015" width="42" height="4" fill="#BEC2C4"/>
<rect x="250.776" y="99.5015" width="24" height="4" fill="#BEC2C4"/>
<rect x="275.776" y="99.5015" width="39" height="4" fill="#BEC2C4"/>
<rect x="250.776" y="105.501" width="39" height="4" fill="#BEC2C4"/>
<rect x="250.776" y="111.501" width="12" height="4" fill="#BEC2C4"/>
<rect x="264.776" y="111.501" width="42" height="4" fill="#BEC2C4"/>
<mask id="path-40-inside-1_183_479" fill="white">
<path d="M104.149 0H531.8V282.139H104.149V0Z"/>
</mask>
<path d="M104.149 0V-10H94.1489V0H104.149ZM531.8 0H541.8V-10H531.8V0ZM531.8 282.139V302.139H541.8V282.139H531.8ZM104.149 282.139H94.1489V302.139H104.149V282.139ZM104.149 10H531.8V-10H104.149V10ZM521.8 0V282.139H541.8V0H521.8ZM531.8 262.139H104.149V302.139H531.8V262.139ZM114.149 282.139V0H94.1489V282.139H114.149Z" fill="#24282E" mask="url(#path-40-inside-1_183_479)"/>
<path d="M494.693 293.422C494.693 293.422 493.662 297.917 492.462 299.473C491.262 301.028 486.282 303.968 480.14 306.392C475.788 308.091 478.084 309.503 478.596 309.849C481.229 311.613 490.607 310.712 493.863 310.712H502.619C503.818 310.712 510.161 310.019 508.618 304.491C506.237 295.964 506.905 294.983 506.905 294.983L494.693 293.422Z" fill="white" stroke="#24282E" stroke-linecap="round" stroke-linejoin="round"/>
<path d="M502.586 310.712C503.656 310.712 508.825 310.157 508.825 306.105C507.844 306.74 506.784 307.243 505.673 307.602C503.267 308.294 502.067 307.771 489.375 308.634C483.168 309.059 479.595 308.699 477.552 308.216C477.293 309.039 478.252 309.64 478.564 309.849C481.197 311.614 490.575 310.712 493.831 310.712H502.586Z" fill="white" stroke="#24282E" stroke-linecap="round" stroke-linejoin="round"/>
<path d="M486.457 181.755C486.457 181.755 487.488 221.517 488.856 235.174C490.225 248.831 494.693 286.142 494.693 286.142C494.693 286.142 491.6 287.874 491.6 288.913C491.795 290.54 492.083 292.154 492.462 293.748C492.462 293.748 496.405 296.173 499.492 296.865C502.58 297.558 508.241 295.839 508.241 295.839L508.76 289.272L507.042 283.738L508.241 214.597L527.458 288.749C527.458 288.749 526.602 290.997 526.771 292.017C526.939 293.036 531.064 300.511 531.064 300.511C531.064 300.511 531.751 296.538 536.207 297.055C538.71 297.284 541.123 298.113 543.244 299.472C543.244 299.472 544.1 292.905 543.244 290.834C542.388 288.762 538.782 282.019 538.613 280.287C538.444 278.556 537.238 274.406 536.551 271.296C535.863 268.186 532.607 231.887 532.264 229.476C531.92 227.065 529.864 197.843 529.864 197.843L530.513 185.741C530.513 185.741 501.691 184.186 494.486 182.8C487.28 181.415 487.793 180.899 487.793 180.899L486.457 181.755Z" fill="#24282E" stroke="#24282E" stroke-linecap="round" stroke-linejoin="round"/>
<path d="M487.52 176.09C487.52 176.09 485.996 182.696 487.066 183.774C488.136 184.852 493.921 187.61 509.766 188.838C525.61 190.067 531.713 188.531 532.322 186.538C532.932 184.545 531.868 178.396 531.868 178.396C531.868 178.396 508.695 178.704 498.636 177.011C488.577 175.319 489.187 173.94 489.187 173.94L487.52 176.09Z" fill="white" stroke="#24282E" stroke-linecap="round" stroke-linejoin="round"/>
<path d="M470.47 146.496L440.306 159.342L433.431 165.094L475.593 154.624L470.47 146.496Z" fill="#BDBDBD" stroke="#24282E" stroke-linecap="round" stroke-linejoin="round"/>
<path d="M497.651 114.333C497.651 114.333 492.547 118.293 490.99 120.645C489.434 122.997 476.378 140.693 476.378 140.693L470.463 146.489L475.587 154.617L487.261 148.083L492.702 145.424C492.702 145.424 501.25 116.757 500.939 115.816C500.627 114.875 497.651 114.333 497.651 114.333Z" fill="#68A4EF" stroke="#24282E" stroke-linecap="round" stroke-linejoin="round"/>
<path d="M518.028 108.262C518.028 108.262 499.512 113.32 497.651 114.333C495.789 115.346 489.323 162.034 488.175 166.38C487.027 170.725 485.309 175.776 488.033 177.488C490.756 179.2 503.676 182.258 513.002 182.833C522.328 183.408 529.935 182.546 531.654 181.389C533.373 180.232 533.237 180.232 533.522 177.919C533.807 175.606 535.818 159.845 535.96 159.126C536.103 158.408 546.726 125.004 546.726 123.416C546.726 121.828 533.522 111.125 531.369 110.112C529.216 109.099 521.323 108.262 518.028 108.262Z" fill="#68A4EF" stroke="#24282E" stroke-linecap="round" stroke-linejoin="round"/>
<path d="M532.517 115.202C533.241 114.263 533.84 113.232 534.3 112.137C533.371 111.402 532.392 110.734 531.369 110.138C529.216 109.125 521.323 108.262 518.028 108.262C518.028 108.262 516.031 108.805 513.294 109.569C513.304 112.855 513.591 116.134 514.15 119.371C515.155 124.141 515.155 128.918 517.166 127.761C519.176 126.605 529.936 118.528 532.517 115.202Z" fill="white" stroke="#24282E" stroke-linecap="round" stroke-linejoin="round"/>
<path d="M518.32 82.3014C518.32 82.3014 513.378 90.0774 512.606 91.7894C511.834 93.5014 507.048 95.3637 507.976 97.3894C508.903 99.4151 511.679 99.879 511.679 99.879C511.679 99.879 510.907 107.962 511.99 109.21C513.073 110.458 517.548 109.864 517.548 109.864C517.548 109.864 517.237 118.888 517.237 121.377C517.237 123.867 528.353 115.464 530.364 113.131C532.374 110.798 531.596 104.107 531.596 104.107C531.596 104.107 537.433 96.6445 538.542 93.3773C539.651 90.11 536.693 82.1773 528.165 79.655C519.636 77.1327 518.32 82.3014 518.32 82.3014Z" fill="#BDBDBD" stroke="#24282E" stroke-linecap="round" stroke-linejoin="round"/>
<path d="M516.446 92.3195C516.284 92.9408 515.914 93.3855 515.629 93.307C515.343 93.2285 515.239 92.653 515.401 92.0383C515.564 91.4236 515.933 90.9724 516.225 91.0509C516.517 91.1293 516.615 91.6917 516.446 92.3195Z" fill="#24282E"/>
<path d="M516.005 89.2995C516.005 89.2995 518.599 88.6456 518.781 91.3202" stroke="#24282E" stroke-linecap="round" stroke-linejoin="round"/>
<path d="M517.548 109.831C517.548 109.831 521.867 110.145 524.338 107.812L517.548 118.103V109.831Z" fill="#24282E" stroke="#24282E" stroke-linecap="round" stroke-linejoin="round"/>
<path d="M526.965 89.9202C523.33 89.148 519.937 87.4926 517.081 85.0978C512.606 81.2099 513.534 76.3875 517.853 74.6755C522.172 72.9634 530.824 74.022 535.922 80.1186C541.019 86.2152 543.056 89.1427 541.013 94.1219C538.97 99.1011 532.984 105.629 531.284 105.322C529.585 105.015 528.969 102.055 529.125 101.277C529.28 100.499 531.44 97.6962 529.896 96.4547C528.353 95.2131 526.965 96.141 526.038 94.5858C525.11 93.0306 526.965 89.9202 526.965 89.9202Z" fill="#24282E" stroke="#24282E" stroke-linecap="round" stroke-linejoin="round"/>
<path d="M527.121 97.2323C527.121 97.2323 530.668 92.5668 532.212 95.3635C533.755 98.1602 531.563 100.656 530.364 101.434C529.164 102.212 526.193 101.434 526.193 101.434" fill="#BDBDBD"/>
<path d="M527.121 97.2323C527.121 97.2323 530.668 92.5668 532.212 95.3635C533.755 98.1602 531.563 100.656 530.364 101.434C529.164 102.212 526.193 101.434 526.193 101.434" stroke="#24282E" stroke-linecap="round" stroke-linejoin="round"/>
<path d="M531.064 300.512C531.368 302.919 531.483 305.346 531.408 307.772C531.233 311.228 532.951 313.306 537.582 314.169C542.213 315.031 547.362 312.437 547.531 309.849C547.699 307.262 542.731 298.787 542.731 298.787C542.731 298.787 532.432 291.181 531.064 300.512Z" fill="white" stroke="#24282E" stroke-linecap="round" stroke-linejoin="round"/>
<path d="M547.531 309.849C547.472 308.807 547.219 307.785 546.785 306.837C546.441 308.797 544.885 312.783 539.813 312.783C536.35 312.783 533.327 310.927 531.511 309.555C531.972 311.96 533.807 313.476 537.582 314.168C542.213 315.031 547.362 312.437 547.531 309.849Z" fill="white" stroke="#24282E" stroke-linecap="round" stroke-linejoin="round"/>
<path d="M535.351 132.322L535.87 150.122C535.87 150.122 533.982 148.567 533.982 149.259C533.896 149.971 533.722 150.669 533.464 151.337C532.641 154.22 532.068 157.17 531.751 160.152C531.408 164.302 532.264 165.164 535.526 167.236C538.788 169.307 545.131 172.94 547.531 172.594C549.93 172.248 552.168 170.869 552.336 165.511C552.505 160.152 550.281 155.827 550.281 154.794C550.281 153.762 551.137 149.259 550.929 148.397C550.722 147.534 549.386 145.13 549.386 144.594C549.386 144.058 550.248 126.298 548.529 123.684C546.811 121.07 540.098 118.672 540.098 118.672" fill="#68A4EF"/>
<path d="M535.351 132.322L535.87 150.122C535.87 150.122 533.982 148.567 533.982 149.259C533.896 149.971 533.722 150.669 533.464 151.337C532.641 154.22 532.068 157.17 531.751 160.152C531.408 164.302 532.264 165.164 535.526 167.236C538.788 169.307 545.131 172.94 547.531 172.594C549.93 172.248 552.168 170.869 552.336 165.511C552.505 160.152 550.281 155.827 550.281 154.794C550.281 153.762 551.137 149.259 550.929 148.397C550.722 147.534 549.386 145.13 549.386 144.594C549.386 144.058 550.248 126.298 548.529 123.684C546.811 121.07 540.098 118.672 540.098 118.672" stroke="#24282E" stroke-linecap="round" stroke-linejoin="round"/>
<path d="M545.955 158.571C546.432 159.105 546.845 159.693 547.187 160.324" stroke="#24282E" stroke-linecap="round" stroke-linejoin="round"/>
<path d="M535.695 151.854C538.597 153.081 541.335 154.668 543.847 156.578" stroke="#24282E" stroke-linecap="round" stroke-linejoin="round"/>
<path d="M547.706 152.201C544.575 150.829 541.163 150.235 537.757 150.469" stroke="#24282E" stroke-linecap="round" stroke-linejoin="round"/>
<path d="M526.965 89.9204L521.543 102.453C521.543 102.453 517.762 100.768 515.311 100.434C512.859 100.101 511.679 99.8789 511.679 99.8789C511.679 99.8789 510.304 107.609 511.082 108.955C511.86 110.301 519.656 110.523 521.66 109.739C523.664 108.955 525.668 105.819 526.336 104.133C527.004 102.447 528.113 93.926 528.113 93.926" fill="#24282E"/>
<path d="M526.965 89.9204L521.543 102.453C521.543 102.453 517.762 100.768 515.311 100.434C512.859 100.101 511.679 99.8789 511.679 99.8789C511.679 99.8789 510.304 107.609 511.082 108.955C511.86 110.301 519.656 110.523 521.66 109.739C523.664 108.955 525.668 105.819 526.336 104.133C527.004 102.447 528.113 93.926 528.113 93.926" stroke="#24282E" stroke-linecap="round" stroke-linejoin="round"/>
<path d="M513.086 103.238C513.086 103.238 514.98 104.467 518.32 103.009" stroke="#9C9C9C" stroke-linecap="round" stroke-linejoin="round"/>
<rect x="0.611224" y="0.352885" width="87.2477" height="14.6748" rx="7.33738" transform="matrix(0.965437 -0.260638 0.257011 0.966409 415.306 150.693)" fill="white"/>
<rect x="0.611224" y="0.352885" width="87.2477" height="14.6748" rx="7.33738" transform="matrix(0.965437 -0.260638 0.257011 0.966409 415.306 150.693)" stroke="#24282E"/>
<path d="M433.146 165.197L428.917 162.511L433.729 161.864L433.146 165.197Z" fill="#BDBDBD" stroke="#24282E" stroke-linecap="round" stroke-linejoin="round"/>
<path d="M432.925 163.38C432.798 163.675 432.752 163.999 432.791 164.319C432.83 164.638 432.952 164.941 433.146 165.197C433.6 165.85 434.683 165.537 435.176 164.746C436.032 163.341 437.867 160.106 436.324 159.316C434.78 158.525 432.925 163.38 432.925 163.38Z" fill="#BDBDBD" stroke="#24282E" stroke-linecap="round" stroke-linejoin="round"/>
<path d="M435.798 163.799C435.673 164.094 435.627 164.418 435.666 164.737C435.705 165.056 435.826 165.359 436.019 165.615C436.479 166.269 437.718 165.655 438.204 164.864C439.067 163.459 440.747 160.519 439.197 159.734C437.647 158.95 435.798 163.799 435.798 163.799Z" fill="#BDBDBD" stroke="#24282E" stroke-linecap="round" stroke-linejoin="round"/>
<path d="M439.197 164.315C439.041 164.811 439.022 165.68 439.599 165.87C440.293 166.105 441.045 165.386 441.35 164.628C441.888 163.321 442.861 160.812 441.493 160.322C440.124 159.832 439.197 164.315 439.197 164.315Z" fill="#BDBDBD" stroke="#24282E" stroke-linecap="round" stroke-linejoin="round"/>
<path d="M442.057 164.119C441.972 164.4 441.945 164.694 441.975 164.986C442.005 165.278 442.092 165.56 442.232 165.818C442.601 166.242 443.483 166.105 443.924 164.681C444.268 163.563 445.04 161.263 443.924 160.871C442.809 160.479 442.05 164.138 442.05 164.138L442.057 164.119Z" fill="#BDBDBD" stroke="#24282E" stroke-linecap="round" stroke-linejoin="round"/>
<path d="M514.565 141.829C514.565 141.829 507.191 133.701 505.816 133.335C504.441 132.969 502.573 134.027 500.842 134.89C499.11 135.752 499.467 136.452 499.467 136.968C499.494 137.489 499.553 138.009 499.642 138.523C499.642 138.523 496.211 142.496 496.723 143.189C497.236 143.881 498.786 143.019 498.786 143.019C498.786 143.019 496.379 145.436 498.61 145.436C499.939 145.44 501.243 145.081 502.385 144.397C502.385 144.397 501.529 145.436 503.416 145.436C504.769 145.374 506.102 145.082 507.359 144.574C507.359 144.574 509.59 146.475 510.602 147.188C511.614 147.9 513.521 147.534 513.521 147.534C513.521 147.534 530.5 163.432 533.074 164.125C535.649 164.817 538.049 161.184 538.224 158.074C538.399 154.964 537.193 153.062 534.449 152.023C531.706 150.984 515.92 143.038 515.92 143.038L514.565 141.829Z" fill="#BDBDBD" stroke="#24282E" stroke-linecap="round" stroke-linejoin="round"/>
<path d="M499.668 138.544L504.13 135.955" stroke="#24282E" stroke-linecap="round" stroke-linejoin="round"/>
<path d="M498.812 143.039C498.812 143.039 502.586 139.771 503.098 139.405C504.155 138.891 505.238 138.43 506.341 138.027" stroke="#24282E" stroke-linecap="round" stroke-linejoin="round"/>
<path d="M502.411 144.424L505.842 142.006L508.073 141.313" stroke="#24282E" stroke-linecap="round" stroke-linejoin="round"/>
<path d="M113.401 127.375L110.791 133.046L113.355 137.816L120.316 134.475L119.572 122.299L113.401 127.375Z" fill="white" stroke="#24282E" stroke-linecap="round" stroke-linejoin="round"/>
<path d="M110.791 132.517L114.929 141.143L108.266 147.681L104.322 138.142L110.791 132.517Z" fill="#F5617A" stroke="#24282E" stroke-linecap="round" stroke-linejoin="round"/>
<path d="M79.2429 269.284L80.538 293.557L87.771 292.814L90.3612 270.217L79.2429 269.284Z" fill="white" stroke="#24282E" stroke-linecap="round" stroke-linejoin="round"/>
<path d="M77.5722 291.313L92.7699 291.502L92.5822 295.796C92.5822 295.796 94.4406 290.575 94.6219 293.368C94.8032 296.161 93.139 300.089 93.3268 300.839C93.5146 301.59 94.065 303.828 100.366 306.255C106.666 308.683 108.337 309.616 107.599 310.921C106.86 312.226 102.593 313.909 96.2926 313.909C92.4586 313.894 88.6706 313.067 85.1743 311.482L84.9671 313.537L77.5722 313.342C76.7597 311.332 76.5045 309.137 76.834 306.993C77.3908 303.449 78.129 300.272 77.9413 299.162C77.7535 298.053 77.5722 291.313 77.5722 291.313Z" fill="#24282E" stroke="#24282E" stroke-linecap="round" stroke-linejoin="round"/>
<path d="M99.2583 268.906L94.8097 295.424H87.0263L84.6174 268.534L99.2583 268.906Z" fill="white" stroke="#24282E" stroke-linecap="round" stroke-linejoin="round"/>
<path d="M82.9469 291.313L98.1447 291.502L97.9569 295.796C97.9569 295.796 99.8154 290.575 99.9967 293.368C100.178 296.161 98.5138 300.089 98.7016 300.839C98.8894 301.59 99.4398 303.828 105.74 306.255C112.041 308.683 113.712 309.616 112.973 310.921C112.235 312.226 109.004 314.34 102.703 314.34C98.749 314.308 94.8211 313.686 91.0477 312.493L90.3418 313.798L82.9275 313.616C82.1317 311.508 81.8777 309.232 82.1893 306.999C82.7397 303.456 83.4844 300.278 83.2966 299.169C83.1088 298.06 82.9469 291.313 82.9469 291.313Z" fill="#24282E" stroke="#24282E" stroke-linecap="round" stroke-linejoin="round"/>
<path d="M115.402 195.7L117.623 271.333C110.132 272.464 102.581 273.151 95.0105 273.388C84.2613 273.571 69.6204 270.028 69.6204 270.028L75.3705 191.589L115.402 190.669V195.7Z" fill="#24282E" stroke="#24282E" stroke-linecap="round" stroke-linejoin="round"/>
<path d="M101.473 126.932C101.473 126.932 105.572 133.62 106.938 138.736C108.305 143.851 111.432 195.237 111.432 195.237L76.0894 195.439C76.0894 195.439 77.8442 154.083 81.7294 140.504C85.6147 126.925 88.6581 124.602 88.6581 124.602L101.473 126.932Z" fill="white" stroke="#24282E" stroke-linecap="round" stroke-linejoin="round"/>
<path d="M102.567 93.7255C102.567 93.7255 104.51 96.1724 105.637 97.9603C106.054 98.6884 106.614 99.3238 107.282 99.8284C107.949 100.333 108.711 100.696 109.522 100.897C110.649 101.06 111.782 101.875 110.817 103.663C110.261 104.701 109.611 105.684 108.874 106.6C108.874 106.6 109.198 114.58 107.741 115.082C106.284 115.585 101.434 114.919 101.434 114.919L101.11 123.062L90.439 120.785L90.7627 110.195C90.7627 110.195 89.9533 103.187 94.8034 98.2996C99.6535 93.4123 102.567 93.7255 102.567 93.7255Z" fill="white" stroke="#24282E" stroke-linecap="round" stroke-linejoin="round"/>
<path d="M103.61 100.513C103.687 101.329 104.102 101.955 104.529 101.916C104.957 101.877 105.235 101.172 105.177 100.349C105.119 99.5267 104.678 98.9064 104.251 98.9456C103.823 98.9848 103.526 99.6899 103.61 100.513Z" fill="#24282E"/>
<path d="M107.295 107.148C107.295 107.148 105.883 107.853 103.675 106.638" stroke="#24282E" stroke-linecap="round" stroke-linejoin="round"/>
<path d="M105.261 96.5638C105.261 96.5638 104.154 95.852 103.15 97.4781" stroke="#24282E" stroke-linecap="round" stroke-linejoin="round"/>
<path d="M93.2686 117.999C93.2686 117.999 105.073 120.641 105.073 121.829C105.073 123.017 103.895 128.439 103.895 128.439L88.6775 124.602L90.1474 117.333L93.2686 117.999Z" fill="white" stroke="#24282E" stroke-linecap="round" stroke-linejoin="round"/>
<path d="M88.2049 120.85C88.2049 120.85 106.563 135.016 109.684 143.871C112.805 152.726 118.277 197.984 116.522 198.18C114.767 198.375 103.435 201.129 91.9153 200.737C80.3956 200.346 70.2421 197.39 69.6593 196.999C69.0765 196.607 70.6306 183.224 73.3697 165.319C76.1088 147.414 80.9848 135.016 83.1282 130.292C84.6455 127.053 86.3404 123.9 88.2049 120.85Z" fill="#F5617A" stroke="#24282E" stroke-linecap="round" stroke-linejoin="round"/>
<path d="M90.4194 129.464L97.0244 136.909L102.244 138.103V140.974L110.791 154.611" fill="#D9D9D9"/>
<path d="M90.4194 129.464L97.0244 136.909L102.244 138.103V140.974L110.791 154.611" stroke="#24282E" stroke-linecap="round" stroke-linejoin="round"/>
<path d="M87.0522 125.673L88.7361 127.566" stroke="#24282E" stroke-linecap="round" stroke-linejoin="round"/>
<path d="M80.4343 91.1219C80.4343 91.1219 83.1863 87.0437 86.4175 85.9018C89.6488 84.7599 105.656 85.0862 105.98 87.0372C106.304 88.9882 105.98 91.931 103.072 95.8396C100.165 99.7481 96.7652 104.799 96.7652 104.799C96.7652 104.799 95.9558 109.523 95.4702 112.296C94.9845 115.069 95.632 121.092 95.632 121.092C92.3014 121.434 88.9479 121.488 85.6081 121.255C78.9838 120.929 76.0698 119.624 76.0698 119.624C76.0698 119.624 77.6887 117.836 78.0124 109.836C78.3362 101.836 80.4343 91.1219 80.4343 91.1219Z" fill="#24282E" stroke="#24282E" stroke-linecap="round" stroke-linejoin="round"/>
<path d="M81.9755 85.5364C81.9755 85.5364 86.9875 90.104 85.0513 94.9848C83.1152 99.8656 80.8488 103.467 77.6111 103.291C74.3734 103.115 71.4724 101.334 68.7203 97.5948C65.9683 93.8559 66.1302 88.9556 70.1773 86.1889C74.2244 83.4222 81.1726 84.2314 81.9755 85.5364Z" fill="#24282E" stroke="#24282E" stroke-linecap="round" stroke-linejoin="round"/>
<path d="M98.5266 106.763C98.5266 106.763 94.8033 102.365 93.3463 104.479C91.8893 106.593 93.9939 109.699 95.2889 110.351L96.584 111.004L97.8791 110.351" fill="white"/>
<path d="M98.5266 106.763C98.5266 106.763 94.8033 102.365 93.3463 104.479C91.8893 106.593 93.9939 109.699 95.2889 110.351L96.584 111.004L97.8791 110.351" stroke="#24282E" stroke-linecap="round" stroke-linejoin="round"/>
<path d="M117.138 43.7009L117.104 141.791L247.933 141.836L247.968 43.7465L117.138 43.7009Z" fill="#F6F7F9"/>
<path d="M117.085 141.783L162.795 80.8303L191.092 118.978L210.299 98.5952L247.918 141.821L117.085 141.783Z" fill="white"/>
<path d="M203.128 73.3716C203.126 75.4028 202.52 77.3877 201.387 79.0755C200.254 80.7633 198.645 82.0782 196.763 82.854C194.881 83.6298 192.811 83.8317 190.814 83.4342C188.817 83.0366 186.983 82.0575 185.544 80.6205C184.105 79.1836 183.125 77.3533 182.729 75.361C182.332 73.3687 182.537 71.3039 183.316 69.4275C184.096 67.5512 185.416 65.9475 187.109 64.8191C188.802 63.6908 190.793 63.0885 192.829 63.0884C195.562 63.0907 198.181 64.1752 200.113 66.1035C202.044 68.0318 203.128 70.646 203.128 73.3716Z" fill="white"/>
<path d="M117.138 43.7009L117.104 141.791L247.933 141.836L247.968 43.7465L117.138 43.7009Z" stroke="#24282E"/>
<path d="M117.085 141.783L162.795 80.8303L191.092 118.978L210.299 98.5952L247.918 141.821L117.085 141.783Z" stroke="#24282E"/>
<path d="M203.128 73.3716C203.126 75.4028 202.52 77.3877 201.387 79.0755C200.254 80.7633 198.645 82.0782 196.763 82.854C194.881 83.6298 192.811 83.8317 190.814 83.4342C188.817 83.0366 186.983 82.0575 185.544 80.6205C184.105 79.1836 183.125 77.3533 182.729 75.361C182.332 73.3687 182.537 71.3039 183.316 69.4275C184.096 67.5512 185.416 65.9475 187.109 64.8191C188.802 63.6908 190.793 63.0885 192.829 63.0884C195.562 63.0907 198.181 64.1752 200.113 66.1035C202.044 68.0318 203.128 70.646 203.128 73.3716Z" stroke="#24282E"/>
<path d="M113.394 127.375C113.394 127.375 115.887 123.16 116.088 122.664C116.289 122.168 117.668 120.968 118.16 119.878C118.652 118.788 120.103 120.335 119.565 122.292C119.073 123.761 118.33 125.133 117.37 126.344C117.476 127.506 117.443 128.675 117.273 129.829C116.975 130.925 115 132.713 115 132.713" fill="white"/>
<path d="M113.394 127.375C113.394 127.375 115.887 123.16 116.088 122.664C116.289 122.168 117.668 120.968 118.16 119.878C118.652 118.788 120.103 120.335 119.565 122.292C119.073 123.761 118.33 125.133 117.37 126.344C117.476 127.506 117.443 128.675 117.273 129.829C116.975 130.925 115 132.713 115 132.713" stroke="#24282E" stroke-linecap="round" stroke-linejoin="round"/>
<path d="M142.113 145.254C142.113 145.254 144.372 140.856 145.182 139.877C145.991 138.899 149.223 138.735 150.362 138.246C151.502 137.757 156.022 135.153 155.86 136.615C155.698 138.076 155.374 138.899 154.241 139.551C153.108 140.204 151.334 141.345 151.334 141.345L158.126 141.665C158.126 141.665 159.901 141.345 160.069 142.644C160.237 143.942 158.126 144.112 158.126 144.112C157.521 144.806 156.872 145.46 156.184 146.07C155.698 146.396 151.334 148.68 150.2 148.836C149.067 148.993 143.246 149.489 143.246 149.489L142.113 145.254Z" fill="white" stroke="#24282E" stroke-linecap="round" stroke-linejoin="round"/>
<path d="M86.6119 133.594C80.2596 141.907 80.4927 152.393 88.8524 158.807C92.7377 161.769 96.4546 164.875 100.327 167.812C102.347 169.338 106.64 173.632 109.464 173.312C112.449 172.979 145.571 152.621 145.571 152.621L142.592 143.943L111.782 153.952L96.8884 136.263C96.8884 136.263 94.227 132.595 91.9088 132.595" fill="#F5617A"/>
<path d="M86.6119 133.594C80.2596 141.907 80.4927 152.393 88.8524 158.807C92.7377 161.769 96.4546 164.875 100.327 167.812C102.347 169.338 106.64 173.632 109.464 173.312C112.449 172.979 145.571 152.621 145.571 152.621L142.592 143.943L111.782 153.952L96.8884 136.263C96.8884 136.263 94.227 132.595 91.9088 132.595" stroke="#24282E" stroke-linecap="round" stroke-linejoin="round"/>
<path d="M586.961 109.513L577.33 97.9317L578.618 93.0786L592.722 87.9523L591.282 93.3794L582.457 96.7227L588.44 104.088L586.961 109.513Z" fill="white"/>
<path d="M589.743 114.373L607.538 85.7438L610.916 86.6611L593.068 115.315L589.743 114.373Z" fill="white"/>
<path d="M607.344 114.996L608.786 109.561L617.649 106.189L611.628 98.8524L613.068 93.4253L622.737 105.009L621.449 109.862L607.344 114.996Z" fill="white"/>
<path d="M15.179 34.4924L48.4722 31.5207" stroke="white" stroke-width="2"/>
<path d="M27.2832 56.3258C27.3455 57.0507 27.1923 57.7788 26.843 58.4179C26.4937 59.0571 25.964 59.5787 25.3208 59.9167C24.6776 60.2547 23.9499 60.394 23.2296 60.3169C22.5094 60.2398 21.8289 59.9498 21.2743 59.4837C20.7198 59.0175 20.316 58.396 20.114 57.6978C19.9121 56.9996 19.9211 56.2561 20.1398 55.5613C20.3585 54.8665 20.7772 54.2515 21.3429 53.7943C21.9086 53.337 22.5959 53.0579 23.3178 52.9923C24.286 52.9043 25.2476 53.2061 25.9913 53.8313C26.7349 54.4564 27.1997 55.3537 27.2832 56.3258Z" stroke="white" stroke-width="2" stroke-miterlimit="10"/>
<path d="M46.346 54.6261C46.4083 55.351 46.2551 56.079 45.9058 56.7182C45.5565 57.3574 45.0268 57.879 44.3836 58.217C43.7404 58.555 43.0126 58.6943 42.2924 58.6172C41.5721 58.5401 40.8917 58.2501 40.3371 57.7839C39.7826 57.3177 39.3787 56.6963 39.1768 55.9981C38.9748 55.2999 38.9838 54.5564 39.2025 53.8616C39.4213 53.1668 39.84 52.5518 40.4057 52.0945C40.9714 51.6373 41.6587 51.3582 42.3806 51.2926C42.86 51.249 43.3429 51.3007 43.8016 51.4446C44.2603 51.5886 44.6859 51.822 45.0541 52.1315C45.4223 52.4411 45.7259 52.8207 45.9476 53.2487C46.1693 53.6767 46.3046 54.1447 46.346 54.6261Z" stroke="white" stroke-width="2" stroke-miterlimit="10"/>
<path d="M0.809814 21.4182L11.9484 20.4072L18.5438 50.0618L47.8667 47.4002" stroke="white" stroke-width="2" stroke-miterlimit="10"/>
<path d="M13.542 25.3652L49.3152 22.1216L47.6642 41.1927L17.19 43.9559" stroke="white" stroke-width="2" stroke-miterlimit="10"/>
<path d="M24.9036 24.1292L26.5048 43.0107M39.1691 41.8458L37.5678 22.9642" stroke="white" stroke-width="2"/>
<defs>
<linearGradient id="paint0_linear_183_479" x1="317.974" y1="266.805" x2="317.974" y2="314.34" gradientUnits="userSpaceOnUse">
<stop stop-color="#161B1D"/>
<stop offset="1" stop-color="#263238"/>
</linearGradient>
<linearGradient id="paint1_linear_183_479" x1="326.345" y1="167.137" x2="394.83" y2="167.137" gradientUnits="userSpaceOnUse">
<stop stop-color="#F5617A"/>
<stop offset="0.215" stop-color="#F59661"/>
<stop offset="0.61" stop-color="#68CFEF"/>
<stop offset="1" stop-color="#68A4EF"/>
</linearGradient>
</defs>
</svg>
