<svg width="627" height="315" viewBox="0 0 627 315" fill="none" xmlns="http://www.w3.org/2000/svg">
<path d="M280.885 266.805H355.458L366.872 314.34H269.471L280.885 266.805Z" fill="url(#paint0_linear_27_479)"/>
<rect x="104.346" width="427.651" height="282.139" rx="5" fill="white"/>
<rect x="327.042" y="158.437" width="67.485" height="17.4004" rx="8.70019" fill="url(#paint1_linear_27_479)" stroke="#263238"/>
<rect width="427.651" height="38.3341" transform="translate(104.346 7.66699)" fill="#F6F7F9"/>
<rect x="184.346" y="11.834" width="30" height="30" fill="#E1E7E9"/>
<rect x="301.997" y="21.834" width="30" height="10" rx="5" fill="#E1E7E9"/>
<rect x="341.997" y="21.834" width="30" height="10" rx="5" fill="#E1E7E9"/>
<rect x="381.997" y="21.834" width="30" height="10" rx="5" fill="#E1E7E9"/>
<rect x="421.997" y="21.834" width="30" height="10" rx="5" fill="#E1E7E9"/>
<rect x="139.631" y="188.546" width="110.042" height="48.8823" fill="white" stroke="#263238"/>
<path d="M140.021 188.937L249.584 237.038" stroke="#263238"/>
<path d="M140.021 237.038L249.584 188.937" stroke="#263238"/>
<rect x="263.143" y="188.546" width="110.042" height="48.8823" fill="white" stroke="#263238"/>
<path d="M263.534 188.937L373.097 237.038" stroke="#263238"/>
<path d="M263.534 237.038L373.097 188.937" stroke="#263238"/>
<rect x="386.655" y="188.546" width="110.042" height="48.8823" fill="white" stroke="#263238"/>
<path d="M387.046 188.937L496.609 237.038" stroke="#263238"/>
<path d="M387.046 237.038L496.609 188.937" stroke="#263238"/>
<rect x="326.542" y="95.835" width="83.7039" height="11.5002" rx="5.75012" fill="#E1E7E9"/>
<rect x="307.895" y="117.636" width="50" height="10" rx="5" fill="#E1E7E9"/>
<rect x="365.895" y="117.636" width="98" height="10" rx="5" fill="#E1E7E9"/>
<rect x="307.895" y="137.636" width="96" height="10" rx="5" fill="#E1E7E9"/>
<rect x="411.895" y="137.636" width="52" height="10" rx="5" fill="#E1E7E9"/>
<rect x="250.973" y="45.5015" width="39" height="4" fill="#BEC2C4"/>
<rect x="250.973" y="51.5015" width="39" height="4" fill="#BEC2C4"/>
<rect x="292.973" y="51.5015" width="30" height="4" fill="#BEC2C4"/>
<rect x="250.973" y="57.5015" width="63" height="4" fill="#BEC2C4"/>
<rect x="250.973" y="63.5015" width="63" height="4" fill="#BEC2C4"/>
<rect x="250.973" y="69.5015" width="70" height="4" fill="#BEC2C4"/>
<rect x="250.973" y="75.5015" width="54" height="4" fill="#BEC2C4"/>
<rect x="250.973" y="81.5015" width="24" height="4" fill="#BEC2C4"/>
<rect x="275.973" y="81.5015" width="39" height="4" fill="#BEC2C4"/>
<rect x="250.973" y="87.5015" width="39" height="4" fill="#BEC2C4"/>
<rect x="250.973" y="93.5015" width="12" height="4" fill="#BEC2C4"/>
<rect x="265.973" y="93.5015" width="42" height="4" fill="#BEC2C4"/>
<rect x="250.973" y="99.5015" width="24" height="4" fill="#BEC2C4"/>
<rect x="275.973" y="99.5015" width="39" height="4" fill="#BEC2C4"/>
<rect x="250.973" y="105.501" width="39" height="4" fill="#BEC2C4"/>
<rect x="250.973" y="111.501" width="12" height="4" fill="#BEC2C4"/>
<rect x="264.973" y="111.501" width="42" height="4" fill="#BEC2C4"/>
<mask id="path-40-inside-1_27_479" fill="white">
<path d="M104.346 0H531.997V282.139H104.346V0Z"/>
</mask>
<path d="M104.346 0V-10H94.3458V0H104.346ZM531.997 0H541.997V-10H531.997V0ZM531.997 282.139V302.139H541.997V282.139H531.997ZM104.346 282.139H94.3458V302.139H104.346V282.139ZM104.346 10H531.997V-10H104.346V10ZM521.997 0V282.139H541.997V0H521.997ZM531.997 262.139H104.346V302.139H531.997V262.139ZM114.346 282.139V0H94.3458V282.139H114.346Z" fill="#263238" mask="url(#path-40-inside-1_27_479)"/>
<path d="M494.89 293.422C494.89 293.422 493.859 297.917 492.659 299.473C491.459 301.028 486.478 303.968 480.337 306.392C475.985 308.091 478.281 309.503 478.793 309.849C481.426 311.613 490.804 310.712 494.06 310.712H502.815C504.015 310.712 510.358 310.019 508.814 304.491C506.434 295.964 507.102 294.983 507.102 294.983L494.89 293.422Z" fill="white" stroke="#263238" stroke-linecap="round" stroke-linejoin="round"/>
<path d="M502.783 310.712C503.853 310.712 509.022 310.157 509.022 306.105C508.04 306.74 506.981 307.243 505.87 307.602C503.464 308.294 502.264 307.771 489.572 308.634C483.365 309.059 479.792 308.699 477.749 308.216C477.489 309.039 478.449 309.64 478.76 309.849C481.394 311.614 490.772 310.712 494.027 310.712H502.783Z" fill="white" stroke="#263238" stroke-linecap="round" stroke-linejoin="round"/>
<path d="M486.653 181.755C486.653 181.755 487.685 221.517 489.053 235.174C490.421 248.831 494.89 286.142 494.89 286.142C494.89 286.142 491.796 287.874 491.796 288.913C491.992 290.54 492.28 292.154 492.659 293.748C492.659 293.748 496.602 296.173 499.689 296.865C502.776 297.558 508.438 295.839 508.438 295.839L508.957 289.272L507.238 283.738L508.438 214.597L527.655 288.749C527.655 288.749 526.799 290.997 526.967 292.017C527.136 293.036 531.261 300.511 531.261 300.511C531.261 300.511 531.948 296.538 536.404 297.055C538.907 297.284 541.32 298.113 543.44 299.472C543.44 299.472 544.297 292.905 543.44 290.834C542.584 288.762 538.978 282.019 538.81 280.287C538.641 278.556 537.435 274.406 536.747 271.296C536.06 268.186 532.804 231.887 532.461 229.476C532.117 227.065 530.061 197.843 530.061 197.843L530.709 185.741C530.709 185.741 501.888 184.186 494.682 182.8C487.477 181.415 487.989 180.899 487.989 180.899L486.653 181.755Z" fill="#263238" stroke="#263238" stroke-linecap="round" stroke-linejoin="round"/>
<path d="M487.717 176.09C487.717 176.09 486.193 182.696 487.263 183.774C488.333 184.852 494.118 187.61 509.962 188.838C525.806 190.067 531.909 188.531 532.519 186.538C533.129 184.545 532.065 178.396 532.065 178.396C532.065 178.396 508.892 178.704 498.833 177.011C488.774 175.319 489.384 173.94 489.384 173.94L487.717 176.09Z" fill="white" stroke="#263238" stroke-linecap="round" stroke-linejoin="round"/>
<path d="M470.667 146.496L440.502 159.342L433.628 165.094L475.79 154.624L470.667 146.496Z" fill="#BDBDBD" stroke="#263238" stroke-linecap="round" stroke-linejoin="round"/>
<path d="M497.847 114.333C497.847 114.333 492.743 118.293 491.187 120.645C489.63 122.997 476.575 140.693 476.575 140.693L470.66 146.489L475.784 154.617L487.458 148.083L492.899 145.424C492.899 145.424 501.447 116.757 501.136 115.816C500.824 114.875 497.847 114.333 497.847 114.333Z" fill="#0C8CE9" stroke="#263238" stroke-linecap="round" stroke-linejoin="round"/>
<path d="M518.225 108.262C518.225 108.262 499.709 113.32 497.847 114.333C495.986 115.346 489.52 162.034 488.372 166.38C487.224 170.725 485.505 175.776 488.229 177.488C490.953 179.2 503.872 182.258 513.198 182.833C522.525 183.408 530.132 182.546 531.851 181.389C533.569 180.232 533.433 180.232 533.719 177.919C534.004 175.606 536.015 159.845 536.157 159.126C536.3 158.408 546.923 125.004 546.923 123.416C546.923 121.828 533.719 111.125 531.565 110.112C529.412 109.099 521.519 108.262 518.225 108.262Z" fill="#0C8CE9" stroke="#263238" stroke-linecap="round" stroke-linejoin="round"/>
<path d="M532.713 115.202C533.437 114.263 534.037 113.232 534.497 112.137C533.568 111.402 532.588 110.734 531.566 110.138C529.412 109.125 521.52 108.262 518.225 108.262C518.225 108.262 516.227 108.805 513.49 109.569C513.501 112.855 513.788 116.134 514.347 119.371C515.352 124.141 515.352 128.918 517.362 127.761C519.373 126.605 530.132 118.528 532.713 115.202Z" fill="white" stroke="#263238" stroke-linecap="round" stroke-linejoin="round"/>
<path d="M518.517 82.3014C518.517 82.3014 513.575 90.0774 512.803 91.7894C512.031 93.5014 507.245 95.3637 508.172 97.3894C509.1 99.4151 511.876 99.879 511.876 99.879C511.876 99.879 511.104 107.962 512.187 109.21C513.27 110.458 517.745 109.864 517.745 109.864C517.745 109.864 517.434 118.888 517.434 121.377C517.434 123.867 528.55 115.464 530.56 113.131C532.571 110.798 531.793 104.107 531.793 104.107C531.793 104.107 537.63 96.6445 538.739 93.3773C539.848 90.11 536.89 82.1773 528.362 79.655C519.833 77.1327 518.517 82.3014 518.517 82.3014Z" fill="#BDBDBD" stroke="#263238" stroke-linecap="round" stroke-linejoin="round"/>
<path d="M516.643 92.3195C516.48 92.9408 516.111 93.3855 515.825 93.307C515.54 93.2285 515.436 92.653 515.598 92.0383C515.76 91.4236 516.13 90.9724 516.422 91.0509C516.714 91.1293 516.811 91.6917 516.643 92.3195Z" fill="#263238"/>
<path d="M516.201 89.2995C516.201 89.2995 518.796 88.6456 518.978 91.3202" stroke="#263238" stroke-linecap="round" stroke-linejoin="round"/>
<path d="M517.745 109.831C517.745 109.831 522.064 110.145 524.535 107.812L517.745 118.103V109.831Z" fill="#263238" stroke="#263238" stroke-linecap="round" stroke-linejoin="round"/>
<path d="M527.162 89.9202C523.526 89.148 520.133 87.4926 517.278 85.0978C512.803 81.2099 513.73 76.3875 518.05 74.6755C522.369 72.9634 531.021 74.022 536.118 80.1186C541.216 86.2152 543.252 89.1427 541.209 94.1219C539.167 99.1011 533.18 105.629 531.481 105.322C529.782 105.015 529.166 102.055 529.322 101.277C529.477 100.499 531.637 97.6962 530.093 96.4547C528.55 95.2131 527.162 96.141 526.234 94.5858C525.307 93.0306 527.162 89.9202 527.162 89.9202Z" fill="#263238" stroke="#263238" stroke-linecap="round" stroke-linejoin="round"/>
<path d="M527.318 97.2323C527.318 97.2323 530.865 92.5668 532.409 95.3635C533.952 98.1602 531.76 100.656 530.56 101.434C529.36 102.212 526.39 101.434 526.39 101.434" fill="#BDBDBD"/>
<path d="M527.318 97.2323C527.318 97.2323 530.865 92.5668 532.409 95.3635C533.952 98.1602 531.76 100.656 530.56 101.434C529.36 102.212 526.39 101.434 526.39 101.434" stroke="#263238" stroke-linecap="round" stroke-linejoin="round"/>
<path d="M531.261 300.512C531.565 302.919 531.68 305.346 531.604 307.772C531.429 311.228 533.148 313.306 537.779 314.169C542.409 315.031 547.559 312.437 547.727 309.849C547.896 307.262 542.928 298.787 542.928 298.787C542.928 298.787 532.629 291.181 531.261 300.512Z" fill="white" stroke="#263238" stroke-linecap="round" stroke-linejoin="round"/>
<path d="M547.727 309.849C547.669 308.807 547.416 307.785 546.982 306.837C546.638 308.797 545.081 312.783 540.01 312.783C536.546 312.783 533.524 310.927 531.708 309.555C532.169 311.96 534.004 313.476 537.779 314.168C542.409 315.031 547.559 312.437 547.727 309.849Z" fill="white" stroke="#263238" stroke-linecap="round" stroke-linejoin="round"/>
<path d="M535.548 132.322L536.066 150.122C536.066 150.122 534.179 148.567 534.179 149.259C534.093 149.971 533.919 150.669 533.66 151.337C532.838 154.22 532.265 157.17 531.948 160.152C531.604 164.302 532.461 165.164 535.723 167.236C538.985 169.307 545.328 172.94 547.727 172.594C550.127 172.248 552.365 170.869 552.533 165.511C552.702 160.152 550.477 155.827 550.477 154.794C550.477 153.762 551.333 149.259 551.126 148.397C550.918 147.534 549.582 145.13 549.582 144.594C549.582 144.058 550.445 126.298 548.726 123.684C547.008 121.07 540.295 118.672 540.295 118.672" fill="#0C8CE9"/>
<path d="M535.548 132.322L536.066 150.122C536.066 150.122 534.179 148.567 534.179 149.259C534.093 149.971 533.919 150.669 533.66 151.337C532.838 154.22 532.265 157.17 531.948 160.152C531.604 164.302 532.461 165.164 535.723 167.236C538.985 169.307 545.328 172.94 547.727 172.594C550.127 172.248 552.365 170.869 552.533 165.511C552.702 160.152 550.477 155.827 550.477 154.794C550.477 153.762 551.333 149.259 551.126 148.397C550.918 147.534 549.582 145.13 549.582 144.594C549.582 144.058 550.445 126.298 548.726 123.684C547.008 121.07 540.295 118.672 540.295 118.672" stroke="#263238" stroke-linecap="round" stroke-linejoin="round"/>
<path d="M546.151 158.571C546.628 159.105 547.042 159.693 547.384 160.324" stroke="#263238" stroke-linecap="round" stroke-linejoin="round"/>
<path d="M535.891 151.854C538.793 153.081 541.532 154.668 544.044 156.578" stroke="#263238" stroke-linecap="round" stroke-linejoin="round"/>
<path d="M547.903 152.201C544.772 150.829 541.36 150.235 537.954 150.469" stroke="#263238" stroke-linecap="round" stroke-linejoin="round"/>
<path d="M527.162 89.9204L521.74 102.453C521.74 102.453 517.959 100.768 515.507 100.434C513.056 100.101 511.876 99.8789 511.876 99.8789C511.876 99.8789 510.501 107.609 511.279 108.955C512.057 110.301 519.853 110.523 521.857 109.739C523.861 108.955 525.865 105.819 526.533 104.133C527.201 102.447 528.31 93.926 528.31 93.926" fill="#263238"/>
<path d="M527.162 89.9204L521.74 102.453C521.74 102.453 517.959 100.768 515.507 100.434C513.056 100.101 511.876 99.8789 511.876 99.8789C511.876 99.8789 510.501 107.609 511.279 108.955C512.057 110.301 519.853 110.523 521.857 109.739C523.861 108.955 525.865 105.819 526.533 104.133C527.201 102.447 528.31 93.926 528.31 93.926" stroke="#263238" stroke-linecap="round" stroke-linejoin="round"/>
<path d="M513.283 103.238C513.283 103.238 515.177 104.467 518.517 103.009" stroke="#9C9C9C" stroke-linecap="round" stroke-linejoin="round"/>
<rect x="0.611224" y="0.352885" width="87.2477" height="14.6748" rx="7.33738" transform="matrix(0.965437 -0.260638 0.257011 0.966409 415.503 150.693)" fill="white"/>
<rect x="0.611224" y="0.352885" width="87.2477" height="14.6748" rx="7.33738" transform="matrix(0.965437 -0.260638 0.257011 0.966409 415.503 150.693)" stroke="#263238"/>
<path d="M433.342 165.197L429.114 162.511L433.926 161.864L433.342 165.197Z" fill="#BDBDBD" stroke="#263238" stroke-linecap="round" stroke-linejoin="round"/>
<path d="M433.122 163.38C432.995 163.675 432.949 163.999 432.988 164.319C433.026 164.638 433.149 164.941 433.343 165.197C433.796 165.85 434.88 165.537 435.372 164.746C436.229 163.341 438.064 160.106 436.52 159.316C434.977 158.525 433.122 163.38 433.122 163.38Z" fill="#BDBDBD" stroke="#263238" stroke-linecap="round" stroke-linejoin="round"/>
<path d="M435.995 163.799C435.87 164.094 435.824 164.418 435.863 164.737C435.901 165.056 436.023 165.359 436.216 165.615C436.676 166.269 437.915 165.655 438.401 164.864C439.264 163.459 440.944 160.519 439.394 159.734C437.843 158.95 435.995 163.799 435.995 163.799Z" fill="#BDBDBD" stroke="#263238" stroke-linecap="round" stroke-linejoin="round"/>
<path d="M439.393 164.315C439.238 164.811 439.218 165.68 439.796 165.87C440.49 166.105 441.242 165.386 441.547 164.628C442.085 163.321 443.058 160.812 441.689 160.322C440.321 159.832 439.393 164.315 439.393 164.315Z" fill="#BDBDBD" stroke="#263238" stroke-linecap="round" stroke-linejoin="round"/>
<path d="M442.254 164.119C442.169 164.4 442.141 164.694 442.171 164.986C442.202 165.278 442.289 165.56 442.429 165.818C442.798 166.242 443.68 166.105 444.121 164.681C444.465 163.563 445.237 161.263 444.121 160.871C443.006 160.479 442.247 164.138 442.247 164.138L442.254 164.119Z" fill="#BDBDBD" stroke="#263238" stroke-linecap="round" stroke-linejoin="round"/>
<path d="M514.762 141.829C514.762 141.829 507.388 133.701 506.013 133.335C504.638 132.969 502.77 134.027 501.038 134.89C499.307 135.752 499.663 136.452 499.663 136.968C499.691 137.489 499.75 138.009 499.838 138.523C499.838 138.523 496.408 142.496 496.92 143.189C497.432 143.881 498.982 143.019 498.982 143.019C498.982 143.019 496.576 145.436 498.807 145.436C500.135 145.44 501.44 145.081 502.582 144.397C502.582 144.397 501.726 145.436 503.613 145.436C504.966 145.374 506.299 145.082 507.556 144.574C507.556 144.574 509.787 146.475 510.799 147.188C511.811 147.9 513.717 147.534 513.717 147.534C513.717 147.534 530.696 163.432 533.271 164.125C535.846 164.817 538.246 161.184 538.421 158.074C538.596 154.964 537.39 153.062 534.646 152.023C531.903 150.984 516.117 143.038 516.117 143.038L514.762 141.829Z" fill="#BDBDBD" stroke="#263238" stroke-linecap="round" stroke-linejoin="round"/>
<path d="M499.864 138.544L504.326 135.955" stroke="#263238" stroke-linecap="round" stroke-linejoin="round"/>
<path d="M499.008 143.039C499.008 143.039 502.783 139.771 503.295 139.405C504.352 138.891 505.435 138.43 506.538 138.027" stroke="#263238" stroke-linecap="round" stroke-linejoin="round"/>
<path d="M502.608 144.424L506.039 142.006L508.27 141.313" stroke="#263238" stroke-linecap="round" stroke-linejoin="round"/>
<path d="M113.597 127.375L110.988 133.046L113.552 137.816L120.513 134.475L119.768 122.299L113.597 127.375Z" fill="white" stroke="#263238" stroke-linecap="round" stroke-linejoin="round"/>
<path d="M110.988 132.517L115.126 141.143L108.462 147.681L104.519 138.142L110.988 132.517Z" fill="#E90C59" stroke="#263238" stroke-linecap="round" stroke-linejoin="round"/>
<path d="M79.4396 269.284L80.7347 293.557L87.9677 292.814L90.5579 270.217L79.4396 269.284Z" fill="white" stroke="#263238" stroke-linecap="round" stroke-linejoin="round"/>
<path d="M77.7689 291.313L92.9667 291.502L92.7789 295.796C92.7789 295.796 94.6374 290.575 94.8187 293.368C95 296.161 93.3358 300.089 93.5236 300.839C93.7114 301.59 94.2618 303.828 100.562 306.255C106.863 308.683 108.534 309.616 107.795 310.921C107.057 312.226 102.79 313.909 96.4893 313.909C92.6554 313.894 88.8674 313.067 85.3711 311.482L85.1638 313.537L77.7689 313.342C76.9564 311.332 76.7013 309.137 77.0307 306.993C77.5876 303.449 78.3258 300.272 78.138 299.162C77.9502 298.053 77.7689 291.313 77.7689 291.313Z" fill="#263238" stroke="#263238" stroke-linecap="round" stroke-linejoin="round"/>
<path d="M99.4551 268.906L95.0065 295.424H87.223L84.8142 268.534L99.4551 268.906Z" fill="white" stroke="#263238" stroke-linecap="round" stroke-linejoin="round"/>
<path d="M83.1435 291.313L98.3413 291.502L98.1535 295.796C98.1535 295.796 100.012 290.575 100.193 293.368C100.375 296.161 98.7104 300.089 98.8982 300.839C99.086 301.59 99.6364 303.828 105.937 306.255C112.238 308.683 113.908 309.616 113.17 310.921C112.432 312.226 109.201 314.34 102.9 314.34C98.9456 314.308 95.0177 313.686 91.2443 312.493L90.5385 313.798L83.1241 313.616C82.3283 311.508 82.0743 309.232 82.3859 306.999C82.9363 303.456 83.681 300.278 83.4932 299.169C83.3054 298.06 83.1435 291.313 83.1435 291.313Z" fill="#263238" stroke="#263238" stroke-linecap="round" stroke-linejoin="round"/>
<path d="M115.598 195.7L117.819 271.333C110.328 272.464 102.778 273.151 95.2072 273.388C84.458 273.571 69.8171 270.028 69.8171 270.028L75.5673 191.589L115.598 190.669V195.7Z" fill="#263238" stroke="#263238" stroke-linecap="round" stroke-linejoin="round"/>
<path d="M101.67 126.932C101.67 126.932 105.769 133.62 107.135 138.736C108.501 143.851 111.629 195.237 111.629 195.237L76.2861 195.439C76.2861 195.439 78.0409 154.083 81.9262 140.504C85.8114 126.925 88.8548 124.602 88.8548 124.602L101.67 126.932Z" fill="white" stroke="#263238" stroke-linecap="round" stroke-linejoin="round"/>
<path d="M102.764 93.7255C102.764 93.7255 104.707 96.1724 105.833 97.9603C106.251 98.6884 106.811 99.3238 107.478 99.8284C108.146 100.333 108.908 100.696 109.719 100.897C110.845 101.06 111.979 101.875 111.014 103.663C110.458 104.701 109.808 105.684 109.071 106.6C109.071 106.6 109.395 114.58 107.938 115.082C106.481 115.585 101.631 114.919 101.631 114.919L101.307 123.062L90.6356 120.785L90.9593 110.195C90.9593 110.195 90.1499 103.187 95 98.2996C99.8501 93.4123 102.764 93.7255 102.764 93.7255Z" fill="white" stroke="#263238" stroke-linecap="round" stroke-linejoin="round"/>
<path d="M103.807 100.513C103.884 101.329 104.299 101.955 104.726 101.916C105.154 101.877 105.432 101.172 105.374 100.349C105.316 99.5267 104.875 98.9064 104.448 98.9456C104.02 98.9848 103.722 99.6899 103.807 100.513Z" fill="#263238"/>
<path d="M107.492 107.148C107.492 107.148 106.08 107.853 103.871 106.638" stroke="#263238" stroke-linecap="round" stroke-linejoin="round"/>
<path d="M105.458 96.5638C105.458 96.5638 104.351 95.852 103.347 97.4781" stroke="#263238" stroke-linecap="round" stroke-linejoin="round"/>
<path d="M93.4653 117.999C93.4653 117.999 105.27 120.641 105.27 121.829C105.27 123.017 104.091 128.439 104.091 128.439L88.8743 124.602L90.3442 117.333L93.4653 117.999Z" fill="white" stroke="#263238" stroke-linecap="round" stroke-linejoin="round"/>
<path d="M88.4016 120.85C88.4016 120.85 106.759 135.016 109.88 143.871C113.002 152.726 118.473 197.984 116.719 198.18C114.964 198.375 103.632 201.129 92.112 200.737C80.5922 200.346 70.4388 197.39 69.856 196.999C69.2732 196.607 70.8273 183.224 73.5664 165.319C76.3055 147.414 81.1815 135.016 83.3248 130.292C84.8422 127.053 86.537 123.9 88.4016 120.85Z" fill="#E90C59" stroke="#263238" stroke-linecap="round" stroke-linejoin="round"/>
<path d="M90.6162 129.464L97.2211 136.909L102.44 138.103V140.974L110.988 154.611" fill="#D9D9D9"/>
<path d="M90.6162 129.464L97.2211 136.909L102.44 138.103V140.974L110.988 154.611" stroke="#263238" stroke-linecap="round" stroke-linejoin="round"/>
<path d="M87.2489 125.673L88.9328 127.566" stroke="#263238" stroke-linecap="round" stroke-linejoin="round"/>
<path d="M80.6311 91.1219C80.6311 91.1219 83.3831 87.0437 86.6143 85.9018C89.8456 84.7599 105.853 85.0862 106.177 87.0372C106.5 88.9882 106.177 91.931 103.269 95.8396C100.362 99.7481 96.962 104.799 96.962 104.799C96.962 104.799 96.1526 109.523 95.667 112.296C95.1813 115.069 95.8289 121.092 95.8289 121.092C92.4982 121.434 89.1447 121.488 85.8049 121.255C79.1806 120.929 76.2666 119.624 76.2666 119.624C76.2666 119.624 77.8855 117.836 78.2093 109.836C78.533 101.836 80.6311 91.1219 80.6311 91.1219Z" fill="#263238" stroke="#263238" stroke-linecap="round" stroke-linejoin="round"/>
<path d="M82.1722 85.5364C82.1722 85.5364 87.1842 90.104 85.248 94.9848C83.3119 99.8656 81.0455 103.467 77.8078 103.291C74.5701 103.115 71.6691 101.334 68.917 97.5948C66.165 93.8559 66.3269 88.9556 70.374 86.1889C74.4211 83.4222 81.3693 84.2314 82.1722 85.5364Z" fill="#263238" stroke="#263238" stroke-linecap="round" stroke-linejoin="round"/>
<path d="M98.7234 106.763C98.7234 106.763 95 102.365 93.543 104.479C92.0861 106.593 94.1906 109.699 95.4857 110.351L96.7807 111.004L98.0758 110.351" fill="white"/>
<path d="M98.7234 106.763C98.7234 106.763 95 102.365 93.543 104.479C92.0861 106.593 94.1906 109.699 95.4857 110.351L96.7807 111.004L98.0758 110.351" stroke="#263238" stroke-linecap="round" stroke-linejoin="round"/>
<path d="M117.335 43.7009L117.301 141.791L248.13 141.836L248.164 43.7465L117.335 43.7009Z" fill="#F6F7F9"/>
<path d="M117.282 141.783L162.992 80.8303L191.288 118.978L210.496 98.5952L248.115 141.821L117.282 141.783Z" fill="white"/>
<path d="M203.325 73.3716C203.322 75.4028 202.717 77.3877 201.584 79.0755C200.451 80.7633 198.842 82.0782 196.96 82.854C195.078 83.6298 193.008 83.8317 191.011 83.4342C189.014 83.0366 187.18 82.0575 185.741 80.6205C184.302 79.1836 183.322 77.3533 182.925 75.361C182.529 73.3687 182.733 71.3039 183.513 69.4275C184.293 67.5512 185.612 65.9475 187.306 64.8191C188.999 63.6908 190.989 63.0885 193.026 63.0884C195.758 63.0907 198.378 64.1752 200.309 66.1035C202.24 68.0318 203.325 70.646 203.325 73.3716Z" fill="white"/>
<path d="M117.335 43.7009L117.301 141.791L248.13 141.836L248.164 43.7465L117.335 43.7009Z" stroke="#263238"/>
<path d="M117.282 141.783L162.992 80.8303L191.288 118.978L210.496 98.5952L248.115 141.821L117.282 141.783Z" stroke="#263238"/>
<path d="M203.325 73.3716C203.322 75.4028 202.717 77.3877 201.584 79.0755C200.451 80.7633 198.842 82.0782 196.96 82.854C195.078 83.6298 193.008 83.8317 191.011 83.4342C189.014 83.0366 187.18 82.0575 185.741 80.6205C184.302 79.1836 183.322 77.3533 182.925 75.361C182.529 73.3687 182.733 71.3039 183.513 69.4275C184.293 67.5512 185.612 65.9475 187.306 64.8191C188.999 63.6908 190.989 63.0885 193.026 63.0884C195.758 63.0907 198.378 64.1752 200.309 66.1035C202.24 68.0318 203.325 70.646 203.325 73.3716Z" stroke="#263238"/>
<path d="M113.591 127.375C113.591 127.375 116.084 123.16 116.285 122.664C116.485 122.168 117.865 120.968 118.357 119.878C118.849 118.788 120.299 120.335 119.762 122.292C119.27 123.761 118.527 125.133 117.567 126.344C117.673 127.506 117.64 128.675 117.47 129.829C117.172 130.925 115.197 132.713 115.197 132.713" fill="white"/>
<path d="M113.591 127.375C113.591 127.375 116.084 123.16 116.285 122.664C116.485 122.168 117.865 120.968 118.357 119.878C118.849 118.788 120.299 120.335 119.762 122.292C119.27 123.761 118.527 125.133 117.567 126.344C117.673 127.506 117.64 128.675 117.47 129.829C117.172 130.925 115.197 132.713 115.197 132.713" stroke="#263238" stroke-linecap="round" stroke-linejoin="round"/>
<path d="M142.309 145.254C142.309 145.254 144.569 140.856 145.379 139.877C146.188 138.899 149.419 138.735 150.559 138.246C151.699 137.757 156.219 135.153 156.057 136.615C155.895 138.076 155.571 138.899 154.438 139.551C153.305 140.204 151.53 141.345 151.53 141.345L158.323 141.665C158.323 141.665 160.097 141.345 160.266 142.644C160.434 143.942 158.323 144.112 158.323 144.112C157.718 144.806 157.069 145.46 156.38 146.07C155.895 146.396 151.53 148.68 150.397 148.836C149.264 148.993 143.443 149.489 143.443 149.489L142.309 145.254Z" fill="white" stroke="#263238" stroke-linecap="round" stroke-linejoin="round"/>
<path d="M86.8086 133.594C80.4562 141.907 80.6893 152.393 89.0491 158.807C92.9343 161.769 96.6512 164.875 100.524 167.812C102.544 169.338 106.837 173.632 109.66 173.312C112.646 172.979 145.767 152.621 145.767 152.621L142.789 143.943L111.979 153.952L97.0851 136.263C97.0851 136.263 94.4237 132.595 92.1055 132.595" fill="#E90C59"/>
<path d="M86.8086 133.594C80.4562 141.907 80.6893 152.393 89.0491 158.807C92.9343 161.769 96.6512 164.875 100.524 167.812C102.544 169.338 106.837 173.632 109.66 173.312C112.646 172.979 145.767 152.621 145.767 152.621L142.789 143.943L111.979 153.952L97.0851 136.263C97.0851 136.263 94.4237 132.595 92.1055 132.595" stroke="#263238" stroke-linecap="round" stroke-linejoin="round"/>
<path d="M587.158 109.513L577.527 97.9317L578.815 93.0786L592.919 87.9523L591.478 93.3794L582.653 96.7227L588.636 104.088L587.158 109.513Z" fill="#263238"/>
<path d="M589.94 114.373L607.735 85.7438L611.113 86.6611L593.265 115.315L589.94 114.373Z" fill="#263238"/>
<path d="M607.54 114.996L608.983 109.561L617.846 106.189L611.824 98.8524L613.265 93.4253L622.934 105.009L621.646 109.862L607.54 114.996Z" fill="#263238"/>
<path d="M15.3758 34.4924L48.6691 31.5207" stroke="#263238" stroke-width="2"/>
<path d="M27.48 56.3258C27.5423 57.0507 27.3891 57.7788 27.0398 58.4179C26.6905 59.0571 26.1608 59.5787 25.5176 59.9167C24.8744 60.2547 24.1467 60.394 23.4264 60.3169C22.7062 60.2398 22.0257 59.9498 21.4711 59.4837C20.9166 59.0175 20.5128 58.396 20.3109 57.6978C20.1089 56.9996 20.1179 56.2561 20.3366 55.5613C20.5553 54.8665 20.974 54.2515 21.5397 53.7943C22.1054 53.337 22.7927 53.0579 23.5146 52.9923C24.4828 52.9043 25.4445 53.2061 26.1881 53.8313C26.9318 54.4564 27.3965 55.3537 27.48 56.3258Z" stroke="#263238" stroke-width="2" stroke-miterlimit="10"/>
<path d="M46.5428 54.6261C46.6051 55.351 46.4519 56.079 46.1026 56.7182C45.7533 57.3574 45.2235 57.879 44.5803 58.217C43.9372 58.555 43.2094 58.6943 42.4891 58.6172C41.7689 58.5401 41.0885 58.2501 40.5339 57.7839C39.9793 57.3177 39.5755 56.6963 39.3736 55.9981C39.1716 55.2999 39.1806 54.5564 39.3993 53.8616C39.6181 53.1668 40.0368 52.5518 40.6025 52.0945C41.1682 51.6373 41.8554 51.3582 42.5774 51.2926C43.0568 51.249 43.5396 51.3007 43.9983 51.4446C44.4571 51.5886 44.8827 51.822 45.2509 52.1315C45.6191 52.4411 45.9227 52.8207 46.1444 53.2487C46.366 53.6767 46.5014 54.1447 46.5428 54.6261Z" stroke="#263238" stroke-width="2" stroke-miterlimit="10"/>
<path d="M1.00662 21.4182L12.1452 20.4072L18.7406 50.0618L48.0635 47.4002" stroke="#263238" stroke-width="2" stroke-miterlimit="10"/>
<path d="M13.7387 25.3652L49.5119 22.1216L47.8609 41.1927L17.3868 43.9559" stroke="#263238" stroke-width="2" stroke-miterlimit="10"/>
<path d="M25.1005 24.1292L26.7017 43.0107M39.366 41.8458L37.7647 22.9642" stroke="#263238" stroke-width="2"/>
<defs>
<linearGradient id="paint0_linear_27_479" x1="318.171" y1="266.805" x2="318.171" y2="314.34" gradientUnits="userSpaceOnUse">
<stop stop-color="#161B1D"/>
<stop offset="1" stop-color="#263238"/>
</linearGradient>
<linearGradient id="paint1_linear_27_479" x1="326.542" y1="167.137" x2="395.027" y2="167.137" gradientUnits="userSpaceOnUse">
<stop stop-color="#E90C59"/>
<stop offset="0.215" stop-color="#E9340C"/>
<stop offset="0.61" stop-color="#0CB4E9"/>
<stop offset="1" stop-color="#0C8CE9"/>
</linearGradient>
</defs>
</svg>
