<svg width="627" height="309" viewBox="0 0 627 309" fill="none" xmlns="http://www.w3.org/2000/svg">
<path d="M280.688 261.424H355.261L366.675 308H269.274L280.688 261.424Z" fill="url(#paint0_linear_27_479)"/>
<rect x="104.149" width="427.651" height="276.449" rx="5" fill="white"/>
<rect x="326.845" y="155.251" width="67.485" height="17.0293" rx="8.51463" fill="url(#paint1_linear_27_479)" stroke="#263238"/>
<rect width="427.651" height="37.561" transform="translate(104.149 7.51245)" fill="#F6F7F9"/>
<rect x="184.149" y="11.293" width="30" height="30" fill="#E1E7E9"/>
<rect x="301.8" y="21.293" width="30" height="10" rx="5" fill="#E1E7E9"/>
<rect x="341.8" y="21.293" width="30" height="10" rx="5" fill="#E1E7E9"/>
<rect x="381.8" y="21.293" width="30" height="10" rx="5" fill="#E1E7E9"/>
<rect x="421.8" y="21.293" width="30" height="10" rx="5" fill="#E1E7E9"/>
<rect x="139.434" y="197.5" width="110.042" height="48.8823" fill="white" stroke="#263238"/>
<path d="M139.825 197.891L249.388 245.992" stroke="#263238"/>
<path d="M139.825 245.992L249.388 197.891" stroke="#263238"/>
<rect x="262.946" y="197.5" width="110.042" height="48.8823" fill="white" stroke="#263238"/>
<path d="M263.337 197.891L372.9 245.992" stroke="#263238"/>
<path d="M263.337 245.992L372.9 197.891" stroke="#263238"/>
<rect x="386.458" y="197.5" width="110.042" height="48.8823" fill="white" stroke="#263238"/>
<path d="M386.849 197.891L496.412 245.992" stroke="#263238"/>
<path d="M386.849 245.992L496.412 197.891" stroke="#263238"/>
<rect x="326.345" y="93.9021" width="83.7039" height="11.2683" rx="5.63414" fill="#E1E7E9"/>
<rect x="307.699" y="114.961" width="50" height="10" rx="5" fill="#E1E7E9"/>
<rect x="365.699" y="114.961" width="98" height="10" rx="5" fill="#E1E7E9"/>
<rect x="307.699" y="134.961" width="96" height="10" rx="5" fill="#E1E7E9"/>
<rect x="411.699" y="134.961" width="52" height="10" rx="5" fill="#E1E7E9"/>
<rect x="250.776" y="43.8779" width="39" height="4" fill="#BEC2C4"/>
<rect x="250.776" y="49.8779" width="39" height="4" fill="#BEC2C4"/>
<rect x="292.776" y="49.8779" width="30" height="4" fill="#BEC2C4"/>
<rect x="250.776" y="55.8779" width="63" height="4" fill="#BEC2C4"/>
<rect x="250.776" y="61.8779" width="63" height="4" fill="#BEC2C4"/>
<rect x="250.776" y="67.8779" width="70" height="4" fill="#BEC2C4"/>
<rect x="250.776" y="73.8779" width="54" height="4" fill="#BEC2C4"/>
<rect x="250.776" y="79.8779" width="24" height="4" fill="#BEC2C4"/>
<rect x="275.776" y="79.8779" width="39" height="4" fill="#BEC2C4"/>
<rect x="250.776" y="85.8779" width="39" height="4" fill="#BEC2C4"/>
<rect x="250.776" y="91.8779" width="12" height="4" fill="#BEC2C4"/>
<rect x="265.776" y="91.8779" width="42" height="4" fill="#BEC2C4"/>
<rect x="250.776" y="97.8779" width="24" height="4" fill="#BEC2C4"/>
<rect x="275.776" y="97.8779" width="39" height="4" fill="#BEC2C4"/>
<rect x="250.776" y="103.878" width="39" height="4" fill="#BEC2C4"/>
<rect x="250.776" y="109.878" width="12" height="4" fill="#BEC2C4"/>
<rect x="264.776" y="109.878" width="42" height="4" fill="#BEC2C4"/>
<mask id="path-40-inside-1_27_479" fill="white">
<path d="M104.149 0H531.8V276.449H104.149V0Z"/>
</mask>
<path d="M104.149 0V-10H94.149V0H104.149ZM531.8 0H541.8V-10H531.8V0ZM531.8 276.449V296.449H541.8V276.449H531.8ZM104.149 276.449H94.149V296.449H104.149V276.449ZM104.149 10H531.8V-10H104.149V10ZM521.8 0V276.449H541.8V0H521.8ZM531.8 256.449H104.149V296.449H531.8V256.449ZM114.149 276.449V0H94.149V276.449H114.149Z" fill="#263238" mask="url(#path-40-inside-1_27_479)"/>
<path d="M494.693 287.504C494.693 287.504 493.662 291.909 492.462 293.432C491.262 294.956 486.282 297.837 480.14 300.213C475.788 301.878 478.084 303.261 478.596 303.6C481.229 305.329 490.607 304.445 493.863 304.445H502.619C503.818 304.445 510.161 303.766 508.618 298.35C506.238 289.994 506.906 289.034 506.906 289.034L494.693 287.504Z" fill="white" stroke="#263238" stroke-linecap="round" stroke-linejoin="round"/>
<path d="M502.586 304.445C503.656 304.445 508.825 303.901 508.825 299.931C507.844 300.553 506.784 301.046 505.673 301.398C503.267 302.076 502.067 301.564 489.375 302.409C483.168 302.825 479.595 302.473 477.552 301.999C477.293 302.806 478.252 303.395 478.564 303.6C481.197 305.329 490.575 304.445 493.831 304.445H502.586Z" fill="white" stroke="#263238" stroke-linecap="round" stroke-linejoin="round"/>
<path d="M486.457 178.089C486.457 178.089 487.488 217.049 488.856 230.431C490.225 243.812 494.693 280.371 494.693 280.371C494.693 280.371 491.6 282.068 491.6 283.086C491.796 284.68 492.084 286.262 492.462 287.824C492.462 287.824 496.405 290.199 499.493 290.878C502.58 291.556 508.241 289.873 508.241 289.873L508.76 283.438L507.042 278.015L508.241 210.269L527.458 282.926C527.458 282.926 526.602 285.128 526.771 286.127C526.939 287.126 531.064 294.45 531.064 294.45C531.064 294.45 531.751 290.558 536.207 291.063C538.71 291.288 541.123 292.101 543.244 293.432C543.244 293.432 544.1 286.998 543.244 284.968C542.388 282.939 538.782 276.331 538.613 274.634C538.445 272.938 537.238 268.872 536.551 265.824C535.863 262.777 532.608 227.21 532.264 224.848C531.92 222.485 529.864 193.852 529.864 193.852L530.513 181.995C530.513 181.995 501.691 180.471 494.486 179.114C487.28 177.756 487.793 177.25 487.793 177.25L486.457 178.089Z" fill="#263238" stroke="#263238" stroke-linecap="round" stroke-linejoin="round"/>
<path d="M487.52 172.538C487.52 172.538 485.996 179.011 487.066 180.068C488.136 181.124 493.921 183.826 509.766 185.03C525.61 186.234 531.713 184.729 532.322 182.776C532.932 180.823 531.868 174.798 531.868 174.798C531.868 174.798 508.695 175.099 498.636 173.441C488.577 171.783 489.187 170.432 489.187 170.432L487.52 172.538Z" fill="white" stroke="#263238" stroke-linecap="round" stroke-linejoin="round"/>
<path d="M470.47 143.541L440.306 156.129L433.431 161.764L475.593 151.506L470.47 143.541Z" fill="#BDBDBD" stroke="#263238" stroke-linecap="round" stroke-linejoin="round"/>
<path d="M497.651 112.027C497.651 112.027 492.547 115.907 490.99 118.212C489.434 120.517 476.378 137.855 476.378 137.855L470.463 143.534L475.587 151.499L487.261 145.096L492.702 142.491C492.702 142.491 501.25 114.402 500.939 113.48C500.628 112.558 497.651 112.027 497.651 112.027Z" fill="#0C8CE9" stroke="#263238" stroke-linecap="round" stroke-linejoin="round"/>
<path d="M518.028 106.079C518.028 106.079 499.512 111.035 497.651 112.027C495.789 113.02 489.323 158.766 488.175 163.024C487.027 167.282 485.309 172.231 488.033 173.908C490.756 175.586 503.676 178.582 513.002 179.146C522.328 179.709 529.935 178.864 531.654 177.731C533.373 176.598 533.237 176.598 533.522 174.331C533.807 172.065 535.818 156.621 535.96 155.917C536.103 155.213 546.726 122.483 546.726 120.927C546.726 119.371 533.522 108.883 531.369 107.891C529.215 106.899 521.323 106.079 518.028 106.079Z" fill="#0C8CE9" stroke="#263238" stroke-linecap="round" stroke-linejoin="round"/>
<path d="M532.517 112.879C533.241 111.958 533.84 110.949 534.3 109.876C533.371 109.155 532.392 108.501 531.369 107.917C529.216 106.924 521.323 106.079 518.028 106.079C518.028 106.079 516.031 106.611 513.294 107.36C513.304 110.579 513.591 113.792 514.15 116.964C515.155 121.637 515.155 126.318 517.166 125.185C519.176 124.051 529.936 116.138 532.517 112.879Z" fill="white" stroke="#263238" stroke-linecap="round" stroke-linejoin="round"/>
<path d="M518.32 80.6415C518.32 80.6415 513.378 88.2606 512.606 89.9381C511.834 91.6156 507.048 93.4404 507.976 95.4252C508.903 97.41 511.679 97.8646 511.679 97.8646C511.679 97.8646 510.907 105.785 511.99 107.008C513.073 108.23 517.548 107.648 517.548 107.648C517.548 107.648 517.237 116.49 517.237 118.929C517.237 121.369 528.353 113.135 530.364 110.849C532.374 108.563 531.596 102.007 531.596 102.007C531.596 102.007 537.433 94.6953 538.542 91.494C539.651 88.2927 536.693 80.5199 528.165 78.0485C519.637 75.5771 518.32 80.6415 518.32 80.6415Z" fill="#BDBDBD" stroke="#263238" stroke-linecap="round" stroke-linejoin="round"/>
<path d="M516.446 90.4576C516.284 91.0663 515.914 91.502 515.629 91.4251C515.343 91.3482 515.239 90.7844 515.402 90.1821C515.564 89.5797 515.933 89.1376 516.225 89.2145C516.517 89.2914 516.615 89.8425 516.446 90.4576Z" fill="#263238"/>
<path d="M516.005 87.4985C516.005 87.4985 518.599 86.8578 518.781 89.4785" stroke="#263238" stroke-linecap="round" stroke-linejoin="round"/>
<path d="M517.548 107.616C517.548 107.616 521.868 107.923 524.339 105.637L517.548 115.722V107.616Z" fill="#263238" stroke="#263238" stroke-linecap="round" stroke-linejoin="round"/>
<path d="M526.965 88.1067C523.33 87.3501 519.937 85.728 517.081 83.3816C512.606 79.572 513.534 74.8469 517.853 73.1694C522.172 71.4919 530.824 72.5291 535.922 78.5028C541.019 84.4764 543.056 87.3448 541.013 92.2236C538.97 97.1024 532.984 103.499 531.284 103.198C529.585 102.897 528.969 99.9964 529.125 99.2345C529.28 98.4726 531.44 95.7258 529.897 94.5093C528.353 93.2928 526.965 94.202 526.038 92.6782C525.11 91.1544 526.965 88.1067 526.965 88.1067Z" fill="#263238" stroke="#263238" stroke-linecap="round" stroke-linejoin="round"/>
<path d="M527.121 95.2714C527.121 95.2714 530.668 90.6999 532.212 93.4402C533.755 96.1805 531.563 98.6263 530.364 99.3883C529.164 100.15 526.193 99.3883 526.193 99.3883" fill="#BDBDBD"/>
<path d="M527.121 95.2714C527.121 95.2714 530.668 90.6999 532.212 93.4402C533.755 96.1805 531.563 98.6263 530.364 99.3883C529.164 100.15 526.193 99.3883 526.193 99.3883" stroke="#263238" stroke-linecap="round" stroke-linejoin="round"/>
<path d="M531.064 294.451C531.368 296.809 531.483 299.188 531.408 301.564C531.233 304.951 532.951 306.987 537.582 307.832C542.213 308.677 547.362 306.136 547.531 303.6C547.699 301.065 542.731 292.76 542.731 292.76C542.731 292.76 532.432 285.308 531.064 294.451Z" fill="white" stroke="#263238" stroke-linecap="round" stroke-linejoin="round"/>
<path d="M547.531 303.6C547.472 302.578 547.219 301.577 546.785 300.648C546.441 302.569 544.885 306.475 539.813 306.475C536.35 306.475 533.327 304.656 531.511 303.312C531.972 305.668 533.807 307.153 537.582 307.832C542.213 308.677 547.362 306.135 547.531 303.6Z" fill="white" stroke="#263238" stroke-linecap="round" stroke-linejoin="round"/>
<path d="M535.351 129.653L535.87 147.094C535.87 147.094 533.982 145.57 533.982 146.249C533.896 146.946 533.722 147.63 533.464 148.285C532.641 151.11 532.068 154 531.751 156.922C531.408 160.988 532.264 161.833 535.526 163.863C538.788 165.892 545.131 169.452 547.531 169.113C549.93 168.773 552.168 167.422 552.336 162.172C552.505 156.922 550.281 152.684 550.281 151.672C550.281 150.66 551.137 146.249 550.929 145.404C550.722 144.559 549.386 142.203 549.386 141.678C549.386 141.153 550.248 123.75 548.529 121.189C546.811 118.628 540.098 116.278 540.098 116.278" fill="#0C8CE9"/>
<path d="M535.351 129.653L535.87 147.094C535.87 147.094 533.982 145.57 533.982 146.249C533.896 146.946 533.722 147.63 533.464 148.285C532.641 151.11 532.068 154 531.751 156.922C531.408 160.988 532.264 161.833 535.526 163.863C538.788 165.892 545.131 169.452 547.531 169.113C549.93 168.773 552.168 167.422 552.336 162.172C552.505 156.922 550.281 152.684 550.281 151.672C550.281 150.66 551.137 146.249 550.929 145.404C550.722 144.559 549.386 142.203 549.386 141.678C549.386 141.153 550.248 123.75 548.529 121.189C546.811 118.628 540.098 116.278 540.098 116.278" stroke="#263238" stroke-linecap="round" stroke-linejoin="round"/>
<path d="M545.955 155.373C546.432 155.896 546.845 156.472 547.187 157.09" stroke="#263238" stroke-linecap="round" stroke-linejoin="round"/>
<path d="M535.695 148.791C538.597 149.993 541.335 151.548 543.847 153.42" stroke="#263238" stroke-linecap="round" stroke-linejoin="round"/>
<path d="M547.706 149.132C544.575 147.787 541.163 147.205 537.757 147.434" stroke="#263238" stroke-linecap="round" stroke-linejoin="round"/>
<path d="M526.965 88.1067L521.543 100.387C521.543 100.387 517.762 98.735 515.311 98.4085C512.859 98.082 511.679 97.8643 511.679 97.8643C511.679 97.8643 510.304 105.439 511.082 106.758C511.86 108.076 519.656 108.294 521.66 107.526C523.664 106.758 525.668 103.684 526.336 102.032C527.004 100.381 528.113 92.0315 528.113 92.0315" fill="#263238"/>
<path d="M526.965 88.1067L521.543 100.387C521.543 100.387 517.762 98.735 515.311 98.4085C512.859 98.082 511.679 97.8643 511.679 97.8643C511.679 97.8643 510.304 105.439 511.082 106.758C511.86 108.076 519.656 108.294 521.66 107.526C523.664 106.758 525.668 103.684 526.336 102.032C527.004 100.381 528.113 92.0315 528.113 92.0315" stroke="#263238" stroke-linecap="round" stroke-linejoin="round"/>
<path d="M513.086 101.155C513.086 101.155 514.98 102.359 518.32 100.931" stroke="#9C9C9C" stroke-linecap="round" stroke-linejoin="round"/>
<rect x="0.614345" y="0.354678" width="87.1279" height="14.3797" rx="7.18985" transform="matrix(0.966749 -0.255729 0.261941 0.965084 415.303 147.655)" fill="white"/>
<rect x="0.614345" y="0.354678" width="87.1279" height="14.3797" rx="7.18985" transform="matrix(0.966749 -0.255729 0.261941 0.965084 415.303 147.655)" stroke="#263238"/>
<path d="M433.146 161.865L428.917 159.233L433.729 158.6L433.146 161.865Z" fill="#BDBDBD" stroke="#263238" stroke-linecap="round" stroke-linejoin="round"/>
<path d="M432.925 160.085C432.798 160.374 432.752 160.692 432.791 161.005C432.83 161.317 432.952 161.614 433.146 161.865C433.6 162.505 434.683 162.198 435.176 161.423C436.032 160.047 437.867 156.877 436.324 156.103C434.78 155.328 432.925 160.085 432.925 160.085Z" fill="#BDBDBD" stroke="#263238" stroke-linecap="round" stroke-linejoin="round"/>
<path d="M435.798 160.495C435.673 160.785 435.627 161.102 435.666 161.414C435.705 161.727 435.826 162.024 436.019 162.275C436.479 162.915 437.718 162.314 438.204 161.539C439.067 160.162 440.747 157.281 439.197 156.513C437.647 155.744 435.798 160.495 435.798 160.495Z" fill="#BDBDBD" stroke="#263238" stroke-linecap="round" stroke-linejoin="round"/>
<path d="M439.197 161.001C439.041 161.487 439.022 162.339 439.599 162.525C440.293 162.755 441.045 162.051 441.35 161.308C441.888 160.027 442.861 157.569 441.493 157.089C440.124 156.608 439.197 161.001 439.197 161.001Z" fill="#BDBDBD" stroke="#263238" stroke-linecap="round" stroke-linejoin="round"/>
<path d="M442.057 160.809C441.973 161.084 441.945 161.372 441.975 161.658C442.005 161.944 442.092 162.221 442.232 162.473C442.602 162.889 443.484 162.755 443.925 161.359C444.268 160.264 445.04 158.011 443.925 157.626C442.809 157.242 442.05 160.828 442.05 160.828L442.057 160.809Z" fill="#BDBDBD" stroke="#263238" stroke-linecap="round" stroke-linejoin="round"/>
<path d="M514.565 138.969C514.565 138.969 507.191 131.004 505.816 130.646C504.441 130.287 502.573 131.324 500.842 132.169C499.11 133.015 499.467 133.7 499.467 134.205C499.494 134.716 499.553 135.225 499.642 135.729C499.642 135.729 496.211 139.622 496.723 140.301C497.236 140.979 498.786 140.134 498.786 140.134C498.786 140.134 496.379 142.503 498.61 142.503C499.939 142.507 501.243 142.155 502.385 141.485C502.385 141.485 501.529 142.503 503.416 142.503C504.769 142.442 506.102 142.157 507.359 141.658C507.359 141.658 509.59 143.521 510.602 144.219C511.614 144.917 513.521 144.559 513.521 144.559C513.521 144.559 530.5 160.136 533.074 160.815C535.649 161.493 538.049 157.934 538.224 154.886C538.399 151.838 537.193 149.975 534.449 148.957C531.706 147.939 515.92 140.154 515.92 140.154L514.565 138.969Z" fill="#BDBDBD" stroke="#263238" stroke-linecap="round" stroke-linejoin="round"/>
<path d="M499.668 135.75L504.13 133.213" stroke="#263238" stroke-linecap="round" stroke-linejoin="round"/>
<path d="M498.812 140.154C498.812 140.154 502.586 136.952 503.098 136.594C504.155 136.089 505.238 135.639 506.341 135.243" stroke="#263238" stroke-linecap="round" stroke-linejoin="round"/>
<path d="M502.411 141.512L505.842 139.142L508.073 138.463" stroke="#263238" stroke-linecap="round" stroke-linejoin="round"/>
<path d="M113.401 124.806L110.791 130.362L113.355 135.036L120.316 131.763L119.572 119.832L113.401 124.806Z" fill="white" stroke="#263238" stroke-linecap="round" stroke-linejoin="round"/>
<path d="M110.791 129.844L114.929 138.297L108.266 144.703L104.322 135.356L110.791 129.844Z" fill="#E90C59" stroke="#263238" stroke-linecap="round" stroke-linejoin="round"/>
<path d="M79.2428 263.853L80.5379 287.637L87.771 286.908L90.3611 264.767L79.2428 263.853Z" fill="white" stroke="#263238" stroke-linecap="round" stroke-linejoin="round"/>
<path d="M77.5722 285.437L92.77 285.623L92.5822 289.83C92.5822 289.83 94.4406 284.715 94.6219 287.451C94.8033 290.188 93.1391 294.037 93.3269 294.772C93.5146 295.507 94.0651 297.7 100.366 300.078C106.666 302.457 108.337 303.371 107.599 304.65C106.86 305.929 102.593 307.578 96.2926 307.578C92.4586 307.563 88.6706 306.753 85.1743 305.2L84.9671 307.214L77.5722 307.022C76.7597 305.053 76.5045 302.902 76.834 300.801C77.3909 297.329 78.1291 294.216 77.9413 293.129C77.7535 292.042 77.5722 285.437 77.5722 285.437Z" fill="#263238" stroke="#263238" stroke-linecap="round" stroke-linejoin="round"/>
<path d="M99.2584 263.482L94.8098 289.465H87.0263L84.6174 263.118L99.2584 263.482Z" fill="white" stroke="#263238" stroke-linecap="round" stroke-linejoin="round"/>
<path d="M82.9468 285.437L98.1446 285.623L97.9568 289.83C97.9568 289.83 99.8152 284.715 99.9966 287.451C100.178 290.188 98.5137 294.037 98.7015 294.772C98.8893 295.507 99.4397 297.7 105.74 300.078C112.041 302.457 113.711 303.371 112.973 304.65C112.235 305.929 109.004 308 102.703 308C98.7488 307.969 94.8209 307.359 91.0475 306.191L90.3417 307.469L82.9274 307.29C82.1315 305.225 81.8776 302.995 82.1892 300.807C82.7396 297.336 83.4842 294.222 83.2965 293.135C83.1087 292.048 82.9468 285.437 82.9468 285.437Z" fill="#263238" stroke="#263238" stroke-linecap="round" stroke-linejoin="round"/>
<path d="M115.402 191.753L117.623 265.86C110.132 266.969 102.581 267.641 95.0105 267.874C84.2613 268.053 69.6204 264.582 69.6204 264.582L75.3705 187.725L115.402 186.824V191.753Z" fill="#263238" stroke="#263238" stroke-linecap="round" stroke-linejoin="round"/>
<path d="M101.473 124.372C101.473 124.372 105.572 130.925 106.938 135.937C108.304 140.95 111.432 191.299 111.432 191.299L76.0893 191.497C76.0893 191.497 77.8442 150.975 81.7294 137.67C85.6147 124.365 88.6581 122.089 88.6581 122.089L101.473 124.372Z" fill="white" stroke="#263238" stroke-linecap="round" stroke-linejoin="round"/>
<path d="M102.567 91.835C102.567 91.835 104.51 94.2326 105.637 95.9844C106.054 96.6978 106.614 97.3204 107.282 97.8148C107.949 98.3093 108.711 98.6653 109.522 98.8615C110.649 99.0213 111.782 99.8205 110.817 101.572C110.261 102.589 109.611 103.552 108.874 104.449C108.874 104.449 109.198 112.269 107.741 112.761C106.284 113.253 101.434 112.601 101.434 112.601L101.11 120.58L90.4388 118.349L90.7626 107.972C90.7626 107.972 89.9532 101.106 94.8033 96.3169C99.6533 91.5281 102.567 91.835 102.567 91.835Z" fill="white" stroke="#263238" stroke-linecap="round" stroke-linejoin="round"/>
<path d="M103.61 98.4853C103.688 99.285 104.102 99.8991 104.529 99.8607C104.957 99.8223 105.235 99.1314 105.177 98.3254C105.119 97.5193 104.678 96.9116 104.251 96.95C103.824 96.9883 103.526 97.6793 103.61 98.4853Z" fill="#263238"/>
<path d="M107.295 104.986C107.295 104.986 105.883 105.677 103.675 104.488" stroke="#263238" stroke-linecap="round" stroke-linejoin="round"/>
<path d="M105.261 94.6162C105.261 94.6162 104.154 93.9193 103.15 95.5113" stroke="#263238" stroke-linecap="round" stroke-linejoin="round"/>
<path d="M93.2686 115.619C93.2686 115.619 105.073 118.208 105.073 119.372C105.073 120.536 103.895 125.849 103.895 125.849L88.6775 122.089L90.1474 114.967L93.2686 115.619Z" fill="white" stroke="#263238" stroke-linecap="round" stroke-linejoin="round"/>
<path d="M88.2048 118.413C88.2048 118.413 106.563 132.293 109.684 140.969C112.805 149.645 118.277 193.991 116.522 194.183C114.767 194.375 103.435 197.073 91.9152 196.689C80.3955 196.305 70.242 193.409 69.6592 193.025C69.0764 192.642 70.6305 179.529 73.3696 161.985C76.1087 144.441 80.9847 132.293 83.1281 127.665C84.6454 124.49 86.3403 121.402 88.2048 118.413Z" fill="#E90C59" stroke="#263238" stroke-linecap="round" stroke-linejoin="round"/>
<path d="M90.4194 126.853L97.0243 134.148L102.244 135.318V138.131L110.791 151.493" fill="#D9D9D9"/>
<path d="M90.4194 126.853L97.0243 134.148L102.244 135.318V138.131L110.791 151.493" stroke="#263238" stroke-linecap="round" stroke-linejoin="round"/>
<path d="M87.0522 123.138L88.736 124.993" stroke="#263238" stroke-linecap="round" stroke-linejoin="round"/>
<path d="M80.4343 89.2841C80.4343 89.2841 83.1864 85.2882 86.4176 84.1693C89.6488 83.0504 105.656 83.3701 105.98 85.2818C106.304 87.1934 105.98 90.0769 103.072 93.9066C100.165 97.7364 96.7653 102.685 96.7653 102.685C96.7653 102.685 95.9559 107.314 95.4702 110.031C94.9846 112.748 95.6321 118.65 95.6321 118.65C92.3015 118.985 88.948 119.038 85.6082 118.809C78.9838 118.49 76.0699 117.211 76.0699 117.211C76.0699 117.211 77.6887 115.459 78.0125 107.621C78.3363 99.7823 80.4343 89.2841 80.4343 89.2841Z" fill="#263238" stroke="#263238" stroke-linecap="round" stroke-linejoin="round"/>
<path d="M81.9755 83.8112C81.9755 83.8112 86.9874 88.2867 85.0513 93.0691C83.1151 97.8514 80.8487 101.381 77.611 101.208C74.3733 101.035 71.4724 99.29 68.7203 95.6265C65.9682 91.963 66.1301 87.1614 70.1773 84.4506C74.2244 81.7397 81.1725 82.5325 81.9755 83.8112Z" fill="#263238" stroke="#263238" stroke-linecap="round" stroke-linejoin="round"/>
<path d="M98.5266 104.609C98.5266 104.609 94.8033 100.3 93.3463 102.372C91.8893 104.443 93.9938 107.486 95.2889 108.126L96.584 108.765L97.8791 108.126" fill="white"/>
<path d="M98.5266 104.609C98.5266 104.609 94.8033 100.3 93.3463 102.372C91.8893 104.443 93.9938 107.486 95.2889 108.126L96.584 108.765L97.8791 108.126" stroke="#263238" stroke-linecap="round" stroke-linejoin="round"/>
<path d="M117.138 42.8196L117.104 138.931L247.933 138.976L247.968 42.8642L117.138 42.8196Z" fill="#F6F7F9"/>
<path d="M117.085 138.923L162.795 79.2001L191.092 116.578L210.299 96.6067L247.918 138.961L117.085 138.923Z" fill="white"/>
<path d="M203.128 71.8919C203.126 73.882 202.52 75.827 201.387 77.4807C200.254 79.1345 198.645 80.4228 196.763 81.183C194.881 81.9431 192.811 82.141 190.814 81.7515C188.817 81.3619 186.983 80.4025 185.544 78.9946C184.105 77.5866 183.125 75.7932 182.729 73.8411C182.332 71.889 182.536 69.8659 183.316 68.0273C184.096 66.1888 185.416 64.6174 187.109 63.5119C188.802 62.4063 190.793 61.8161 192.829 61.816C195.561 61.8183 198.181 62.8809 200.113 64.7703C202.044 66.6597 203.128 69.2212 203.128 71.8919Z" fill="white"/>
<path d="M117.138 42.8196L117.104 138.931L247.933 138.976L247.968 42.8642L117.138 42.8196Z" stroke="#263238"/>
<path d="M117.085 138.923L162.795 79.2001L191.092 116.578L210.299 96.6067L247.918 138.961L117.085 138.923Z" stroke="#263238"/>
<path d="M203.128 71.8919C203.126 73.882 202.52 75.827 201.387 77.4807C200.254 79.1345 198.645 80.4228 196.763 81.183C194.881 81.9431 192.811 82.141 190.814 81.7515C188.817 81.3619 186.983 80.4025 185.544 78.9946C184.105 77.5866 183.125 75.7932 182.729 73.8411C182.332 71.889 182.536 69.8659 183.316 68.0273C184.096 66.1888 185.416 64.6174 187.109 63.5119C188.802 62.4063 190.793 61.8161 192.829 61.816C195.561 61.8183 198.181 62.8809 200.113 64.7703C202.044 66.6597 203.128 69.2212 203.128 71.8919Z" stroke="#263238"/>
<path d="M113.394 124.806C113.394 124.806 115.887 120.676 116.088 120.19C116.289 119.704 117.668 118.528 118.16 117.46C118.652 116.392 120.103 117.908 119.565 119.826C119.073 121.265 118.33 122.609 117.37 123.796C117.476 124.934 117.443 126.08 117.273 127.21C116.975 128.284 115 130.036 115 130.036" fill="white"/>
<path d="M113.394 124.806C113.394 124.806 115.887 120.676 116.088 120.19C116.289 119.704 117.668 118.528 118.16 117.46C118.652 116.392 120.103 117.908 119.565 119.826C119.073 121.265 118.33 122.609 117.37 123.796C117.476 124.934 117.443 126.08 117.273 127.21C116.975 128.284 115 130.036 115 130.036" stroke="#263238" stroke-linecap="round" stroke-linejoin="round"/>
<path d="M142.113 142.325C142.113 142.325 144.373 138.015 145.182 137.056C145.991 136.097 149.223 135.937 150.362 135.458C151.502 134.978 156.022 132.427 155.86 133.86C155.698 135.292 155.374 136.097 154.241 136.737C153.108 137.376 151.334 138.495 151.334 138.495L158.126 138.808C158.126 138.808 159.901 138.495 160.069 139.767C160.237 141.039 158.126 141.206 158.126 141.206C157.521 141.885 156.872 142.526 156.184 143.124C155.698 143.443 151.334 145.681 150.2 145.835C149.067 145.988 143.246 146.474 143.246 146.474L142.113 142.325Z" fill="white" stroke="#263238" stroke-linecap="round" stroke-linejoin="round"/>
<path d="M86.6119 130.899C80.2595 139.045 80.4926 149.319 88.8524 155.604C92.7376 158.507 96.4545 161.55 100.327 164.427C102.347 165.923 106.64 170.13 109.464 169.817C112.449 169.491 145.57 149.543 145.57 149.543L142.592 141.039L111.782 150.847L96.8883 133.514C96.8883 133.514 94.2269 129.921 91.9087 129.921" fill="#E90C59"/>
<path d="M86.6119 130.899C80.2595 139.045 80.4926 149.319 88.8524 155.604C92.7376 158.507 96.4545 161.55 100.327 164.427C102.347 165.923 106.64 170.13 109.464 169.817C112.449 169.491 145.57 149.543 145.57 149.543L142.592 141.039L111.782 150.847L96.8883 133.514C96.8883 133.514 94.2269 129.921 91.9087 129.921" stroke="#263238" stroke-linecap="round" stroke-linejoin="round"/>
<path d="M586.901 107.304L577.353 95.9892L578.655 91.2219L592.722 86.1245L591.266 91.4556L582.464 94.7783L588.394 101.975L586.901 107.304Z" fill="#263238"/>
<path d="M589.744 112.126L607.559 83.9701L610.916 84.8532L593.048 113.033L589.744 112.126Z" fill="#263238"/>
<path d="M607.344 112.73L608.801 107.392L617.642 104.041L611.673 96.8721L613.129 91.541L622.714 102.858L621.412 107.625L607.344 112.73Z" fill="#263238"/>
<path d="M15.1791 33.7969L48.4721 30.8851" stroke="#263238" stroke-width="2"/>
<path d="M27.2755 55.2036C27.3393 55.9166 27.1881 56.6318 26.8409 57.2588C26.4937 57.8859 25.9662 58.3965 25.3251 58.7263C24.6839 59.056 23.9579 59.19 23.2389 59.1113C22.5198 59.0326 21.84 58.7448 21.2854 58.2841C20.7309 57.8235 20.3264 57.2109 20.1233 56.5236C19.9201 55.8363 19.9274 55.1054 20.1441 54.4231C20.3608 53.7408 20.7772 53.1379 21.3408 52.6906C21.9043 52.2433 22.5897 51.9717 23.3101 51.9101C24.2762 51.8275 25.2367 52.1281 25.9803 52.7458C26.724 53.3634 27.1899 54.2475 27.2755 55.2036Z" stroke="#263238" stroke-width="2" stroke-miterlimit="10"/>
<path d="M46.3382 53.5381C46.4021 54.251 46.2508 54.9663 45.9037 55.5933C45.5565 56.2203 45.029 56.731 44.3878 57.0607C43.7467 57.3905 43.0206 57.5245 42.3016 57.4458C41.5825 57.3671 40.9028 57.0792 40.3482 56.6186C39.7936 56.158 39.3892 55.5453 39.186 54.8581C38.9828 54.1708 38.9901 53.4398 39.2068 52.7576C39.4235 52.0753 39.84 51.4724 40.4036 51.0251C40.9671 50.5777 41.6524 50.3061 42.3729 50.2445C42.8512 50.2037 43.3332 50.2564 43.7914 50.3998C44.2496 50.5432 44.6749 50.7744 45.0431 51.0802C45.4113 51.3861 45.7152 51.7605 45.9374 52.1822C46.1596 52.6039 46.2958 53.0647 46.3382 53.5381Z" stroke="#263238" stroke-width="2" stroke-miterlimit="10"/>
<path d="M0.809875 20.8274L11.9318 19.8766L18.5875 49.1065L47.8667 46.6035" stroke="#263238" stroke-width="2" stroke-miterlimit="10"/>
<path d="M13.542 24.7307L49.2728 21.6755L47.668 40.4738L17.23 43.0764" stroke="#263238" stroke-width="2" stroke-miterlimit="10"/>
<path d="M24.9037 23.5942L26.5438 42.1434M39.1693 41.0505L37.5291 22.5013" stroke="#263238" stroke-width="2"/>
<defs>
<linearGradient id="paint0_linear_27_479" x1="317.975" y1="261.424" x2="317.975" y2="308" gradientUnits="userSpaceOnUse">
<stop stop-color="#161B1D"/>
<stop offset="1" stop-color="#263238"/>
</linearGradient>
<linearGradient id="paint1_linear_27_479" x1="326.345" y1="163.766" x2="394.83" y2="163.766" gradientUnits="userSpaceOnUse">
<stop stop-color="#E90C59"/>
<stop offset="0.215" stop-color="#E9340C"/>
<stop offset="0.61" stop-color="#0CB4E9"/>
<stop offset="1" stop-color="#0C8CE9"/>
</linearGradient>
</defs>
</svg>
