<svg width="40" height="40" viewBox="0 0 40 40" fill="none" xmlns="http://www.w3.org/2000/svg">
<path d="M26.5 14.5L22.5 18.5L24.5 12L24 5.5L27.5 4L29 5V9L26.5 14.5Z" fill="#E90C59"/>
<path d="M14.5 4.5L12 4L11 9.5L13.5 14.5L17.5 17.5L15.5 13L15 10L16 6L14.5 4.5Z" fill="#0C8CE9"/>
<path d="M33.7586 10.0565C33.6401 9.84516 33.4811 9.66035 33.2911 9.51307C33.1011 9.36579 32.884 9.25907 32.6528 9.19926C31.6262 8.94054 30.563 8.86863 29.512 8.98682C29.7886 7.42576 29.6911 5.81956 29.2276 4.30533C29.0912 3.87354 28.8025 3.50886 28.4176 3.28202C28.0327 3.05518 27.5789 2.98235 27.1444 3.07766C26.1027 3.31277 25.1085 3.72958 24.2057 4.30976C23.4849 2.76087 22.4125 1.40977 21.0777 0.36854C20.7671 0.129372 20.3885 0 19.9994 0C19.6103 0 19.2317 0.129372 18.9211 0.36854C17.5863 1.40977 16.5139 2.76087 15.793 4.30975C14.8903 3.72962 13.8962 3.31281 12.8547 3.07765C12.4201 2.98242 11.9663 3.0553 11.5814 3.28215C11.1964 3.509 10.9077 3.87366 10.7712 4.30544C10.3077 5.81959 10.2102 7.42572 10.4868 8.98671C9.43577 8.86846 8.37256 8.94041 7.34603 9.19926C7.11511 9.2599 6.89836 9.36695 6.70847 9.51414C6.51858 9.66133 6.35937 9.84572 6.24016 10.0565C6.12094 10.2673 6.04412 10.5002 6.01418 10.7417C5.98425 10.9831 6.00181 11.2282 6.06583 11.4627C6.4633 12.9137 7.67993 15.6717 11.3614 17.8414C15.02 19.9974 18.2532 19.9998 19.9934 19.9998C19.9951 19.9998 19.9968 20 19.9985 20L19.9994 19.9999L20.0003 20C20.002 20 20.0037 19.9998 20.0054 19.9998C21.7456 19.9998 24.9788 19.9974 28.6374 17.8413C32.3189 15.6717 33.5355 12.9137 33.933 11.4627C33.9979 11.2283 34.0159 10.9831 33.9859 10.7415C33.956 10.4999 33.8787 10.2669 33.7586 10.0565ZM27.518 4.87208C27.8258 5.83923 28.1269 7.56927 27.4843 9.79876C27.4706 9.83679 27.4594 9.87572 27.4508 9.91528C27.1861 10.7791 26.8265 11.6096 26.3787 12.3909C25.8347 13.3477 25.1788 14.2335 24.4256 15.029C24.9948 13.6602 25.3919 11.9683 25.3919 9.90867C25.3999 8.60615 25.2225 7.30934 24.8652 6.05889C25.6665 5.49273 26.5672 5.08976 27.518 4.87208ZM20.0026 1.83889C21.0825 2.66163 23.5944 5.09515 23.5944 9.90867C23.5944 14.787 21.045 17.2008 19.9994 17.9857C18.9538 17.2008 16.4044 14.787 16.4044 9.90867C16.4044 5.09515 18.9163 2.66163 20.0026 1.83889ZM12.4807 4.87231C13.4316 5.08978 14.3324 5.49269 15.1336 6.05889C14.7763 7.30934 14.5989 8.60615 14.6069 9.90867C14.6069 11.9683 15.004 13.6602 15.5732 15.029C14.82 14.2335 14.1641 13.3477 13.6201 12.3909C13.1718 11.6087 12.8119 10.7772 12.5472 9.91231C12.5391 9.87608 12.5288 9.84038 12.5164 9.80543C11.8713 7.57274 12.1727 5.84029 12.4807 4.87231ZM7.79243 10.9764C8.83697 10.7207 9.92327 10.6981 10.9771 10.9102C11.2649 11.7425 11.6286 12.5454 12.0634 13.3083C13.0309 15.0041 14.2984 16.502 15.8014 17.7258C14.5592 17.4063 13.3672 16.9104 12.2601 16.2525C9.13106 14.4083 8.12069 12.1504 7.79243 10.9764ZM27.7387 16.2523C26.6317 16.9103 25.4396 17.4062 24.1975 17.7258C25.7004 16.502 26.9679 15.0041 27.9354 13.3083C28.3702 12.5454 28.7339 11.7425 29.0217 10.9102C30.0739 10.6998 31.1579 10.7197 32.202 10.9686C31.8781 12.1504 30.8677 14.4083 27.7387 16.2523Z" fill="#263238"/>
<path d="M37.7717 25.7094C37.199 25.4805 36.5338 25.3474 35.8359 25.3474C35.051 25.3474 34.3083 25.5154 33.6444 25.8154L33.6757 25.8025L25.8155 29.1576C25.8196 29.0968 25.8509 29.0451 25.8509 28.9843C25.8305 27.2118 24.3151 25.7831 22.4473 25.7831C22.3534 25.7831 22.2609 25.787 22.1698 25.7934L22.182 25.7921H17.0358L10.5605 23.9885C10.4761 23.9627 10.3795 23.9484 10.2789 23.9484H10.2734H7.32281V22.9697C7.32281 22.4344 6.86573 22 6.30254 22H1.02027C0.457081 22 0 22.4344 0 22.9697V38.7536C0 39.2889 0.457081 39.7233 1.02027 39.7233H6.30254C6.86573 39.7233 7.32281 39.2889 7.32281 38.7536V37.4542C9.79595 37.8214 12.0093 38.4136 14.1069 39.2217L13.9042 39.1518C15.4686 39.6897 17.2752 40 19.1579 40C19.1675 40 19.177 40 19.1865 40C19.1933 40 19.2001 40 19.2083 40C21.3903 40 23.4703 39.5876 25.368 38.839L25.2619 38.8765C26.9528 38.1615 28.388 37.4077 29.747 36.5505L29.6354 36.6164C30.0952 36.3462 30.5523 36.076 31.0148 35.8161C33.2363 34.5659 35.0211 33.4682 36.6318 32.3614C37.4194 31.8288 38.105 31.3025 38.758 30.7414L38.7389 30.7582C39.2464 30.3678 39.6517 29.8765 39.9238 29.3153L39.9347 29.2908C39.9769 29.1886 40 29.071 40 28.9468C40 28.8732 39.9918 28.802 39.9755 28.7335L39.9769 28.74C39.7783 27.4251 38.9498 26.3274 37.7962 25.7184L37.7745 25.7081L37.7717 25.7094ZM5.28228 37.7852H2.04054V23.9394H5.28228V37.7852ZM37.3024 29.3813C36.7419 29.8596 36.1325 30.3238 35.4959 30.7543L35.4319 30.7957C33.877 31.8637 32.1426 32.929 29.9714 34.1521C29.498 34.4172 29.0314 34.6926 28.5607 34.968C27.399 35.7088 26.0618 36.416 24.6647 37.0185L24.4878 37.0871C22.9207 37.6999 21.1005 38.0542 19.1933 38.0542C17.5568 38.0542 15.9842 37.7917 14.5191 37.3107L14.6198 37.3392C12.5044 36.5014 10.0449 35.8588 7.48062 35.52L7.32145 35.5032V25.8891H10.1265L16.6018 27.6927C16.6862 27.7186 16.7828 27.7328 16.8834 27.7328H16.8889H22.1807C23.3819 27.7328 23.809 28.4064 23.809 28.9856C23.809 29.5649 23.3819 30.2385 22.1807 30.2385H12.918C12.3548 30.2385 11.8977 30.6729 11.8977 31.2082C11.8977 31.7434 12.3548 32.1778 12.918 32.1778H23.5029H23.5084C23.658 32.1778 23.7995 32.1468 23.926 32.0899L23.9206 32.0925L34.5246 27.5673C34.9163 27.3966 35.3748 27.2971 35.8577 27.2971C36.2182 27.2971 36.5651 27.3527 36.8889 27.4548L36.8657 27.4484C37.3868 27.7457 37.7608 28.2293 37.8887 28.8007L37.8914 28.815C37.7064 29.0205 37.5133 29.2054 37.3078 29.3774L37.301 29.3826L37.3024 29.3813Z" fill="#263238"/>
</svg>
