<svg width="20" height="20" viewBox="0 0 20 20" fill="none" xmlns="http://www.w3.org/2000/svg">
<mask id="mask0_323_510" style="mask-type:luminance" maskUnits="userSpaceOnUse" x="1" y="1" width="18" height="18">
<path d="M14.4444 2H5.55556C4.61256 2 3.70819 2.3746 3.0414 3.0414C2.3746 3.70819 2 4.61256 2 5.55556V14.4444C2 15.3874 2.3746 16.2918 3.0414 16.9586C3.70819 17.6254 4.61256 18 5.55556 18H14.4444C15.3874 18 16.2918 17.6254 16.9586 16.9586C17.6254 16.2918 18 15.3874 18 14.4444V5.55556C18 4.61256 17.6254 3.70819 16.9586 3.0414C16.2918 2.3746 15.3874 2 14.4444 2Z" fill="white" stroke="white" stroke-width="2" stroke-linejoin="round"/>
<path d="M10 13.5554C10.943 13.5554 11.8474 13.1808 12.5142 12.514C13.181 11.8473 13.5556 10.9429 13.5556 9.99989C13.5556 9.0569 13.181 8.15253 12.5142 7.48573C11.8474 6.81894 10.943 6.44434 10 6.44434C9.05702 6.44434 8.15265 6.81894 7.48586 7.48573C6.81906 8.15253 6.44446 9.0569 6.44446 9.99989C6.44446 10.9429 6.81906 11.8473 7.48586 12.514C8.15265 13.1808 9.05702 13.5554 10 13.5554Z" fill="black" stroke="black" stroke-width="1.5" stroke-linejoin="round"/>
<path d="M15 6C15.2652 6 15.5196 5.89464 15.7071 5.70711C15.8946 5.51957 16 5.26522 16 5C16 4.73478 15.8946 4.48043 15.7071 4.29289C15.5196 4.10536 15.2652 4 15 4C14.7348 4 14.4804 4.10536 14.2929 4.29289C14.1054 4.48043 14 4.73478 14 5C14 5.26522 14.1054 5.51957 14.2929 5.70711C14.4804 5.89464 14.7348 6 15 6Z" fill="black"/>
</mask>
<g mask="url(#mask0_323_510)">
<path d="M-0.666626 -0.666504H20.6667V20.6668H-0.666626V-0.666504Z" fill="white"/>
</g>
</svg>
