<svg width="504" height="494" viewBox="0 0 504 494" fill="none" xmlns="http://www.w3.org/2000/svg">
<path d="M348.101 24.0888C322.179 38.7182 303.895 63.3233 281.738 83.0754C254.18 107.546 220.638 124.514 184.414 132.309C154.714 138.651 123.682 138.745 95.0626 148.72C39.2251 168.05 0.982431 225.419 0.0201264 283.749C-0.942179 342.079 32.691 398.628 82.1249 430.606C98.9608 441.503 117.392 449.785 136.774 455.164C173.128 465.257 211.68 464.812 249.245 460.955C314.136 454.285 382.162 417.923 423.066 366.661C441.299 343.75 456.709 318.782 468.972 292.283C489.23 248.711 500.736 201.677 502.854 153.784C504.577 112.756 502.854 67.2737 469.863 37.3702C436.871 7.4666 386.772 2.25018 348.101 24.0888Z" fill="#E0AAC7"/>
<path d="M279.896 493.825C397.561 493.825 492.946 468.475 492.946 437.206C492.946 405.936 397.561 380.587 279.896 380.587C162.232 380.587 66.8469 405.936 66.8469 437.206C66.8469 468.475 162.232 493.825 279.896 493.825Z" fill="#AAE0BC"/>
<path d="M279.896 493.825C397.561 493.825 492.946 468.475 492.946 437.206C492.946 405.936 397.561 380.587 279.896 380.587C162.232 380.587 66.8469 405.936 66.8469 437.206C66.8469 468.475 162.232 493.825 279.896 493.825Z" fill="#F37316"/>
<path d="M305.867 29.3287H55.3942C49.5219 29.3287 44.7614 34.0259 44.7614 39.8202V178.366C44.7614 184.16 49.5219 188.857 55.3942 188.857H305.867C311.739 188.857 316.5 184.16 316.5 178.366V39.8202C316.5 34.0259 311.739 29.3287 305.867 29.3287Z" fill="white"/>
<path d="M316.5 39.8205V43.9702H44.7614V39.8205C44.7613 37.0325 45.8797 34.3578 47.872 32.3809C49.8644 30.404 52.5688 29.2856 55.3942 29.2701H305.914C307.312 29.2747 308.695 29.5515 309.984 30.0847C311.274 30.6178 312.443 31.3968 313.427 32.3769C314.41 33.3571 315.188 34.5191 315.715 35.7965C316.242 37.0738 316.509 38.4413 316.5 39.8205Z" fill="#0C8CE9"/>
<path d="M305.867 29.3287H55.3942C49.5219 29.3287 44.7614 34.0259 44.7614 39.8202V178.366C44.7614 184.16 49.5219 188.857 55.3942 188.857H305.867C311.739 188.857 316.5 184.16 316.5 178.366V39.8202C316.5 34.0259 311.739 29.3287 305.867 29.3287Z" stroke="#263238" stroke-linecap="round" stroke-linejoin="round"/>
<path d="M316.5 39.8205V43.9702H44.7614V39.8205C44.7613 37.0325 45.8797 34.3578 47.872 32.3809C49.8644 30.404 52.5688 29.2856 55.3942 29.2701H305.914C307.312 29.2747 308.695 29.5515 309.984 30.0847C311.274 30.6178 312.443 31.3968 313.427 32.3769C314.41 33.3571 315.188 34.5191 315.715 35.7965C316.242 37.0738 316.509 38.4413 316.5 39.8205Z" stroke="#263238" stroke-linecap="round" stroke-linejoin="round"/>
<path d="M75.2819 36.6436C75.2842 37.175 75.1266 37.6952 74.8291 38.1382C74.5316 38.5812 74.1076 38.9271 73.6106 39.132C73.1137 39.337 72.5663 39.3919 72.0378 39.2896C71.5093 39.1873 71.0234 38.9326 70.6418 38.5576C70.2601 38.1827 69.9998 37.7044 69.8939 37.1833C69.7879 36.6623 69.8411 36.1219 70.0467 35.6307C70.2522 35.1395 70.6009 34.7196 71.0486 34.4241C71.4962 34.1286 72.0227 33.9708 72.5613 33.9708C73.2808 33.9708 73.971 34.252 74.4808 34.7529C74.9907 35.2538 75.2787 35.9336 75.2819 36.6436Z" fill="#263238"/>
<path d="M89.4789 36.6436C89.4812 37.175 89.3237 37.6952 89.0262 38.1382C88.7287 38.5812 88.3046 38.9271 87.8077 39.132C87.3108 39.337 86.7634 39.3919 86.2348 39.2896C85.7063 39.1873 85.2204 38.9326 84.8388 38.5576C84.4571 38.1827 84.1968 37.7044 84.0909 37.1833C83.9849 36.6623 84.0381 36.1219 84.2437 35.6307C84.4492 35.1395 84.7979 34.7196 85.2456 34.4241C85.6932 34.1286 86.2197 33.9708 86.7583 33.9708C87.4778 33.9708 88.168 34.252 88.6779 34.7529C89.1877 35.2538 89.4757 35.9336 89.4789 36.6436Z" fill="#263238"/>
<path d="M100.955 39.3398C102.458 39.3398 103.676 38.1379 103.676 36.6553C103.676 35.1727 102.458 33.9708 100.955 33.9708C99.4527 33.9708 98.2346 35.1727 98.2346 36.6553C98.2346 38.1379 99.4527 39.3398 100.955 39.3398Z" fill="#263238"/>
<path d="M142.097 55.5867H65.2668C62.8456 55.5867 60.8829 57.5233 60.8829 59.9122V96.3802C60.8829 98.7692 62.8456 100.706 65.2668 100.706H142.097C144.518 100.706 146.481 98.7692 146.481 96.3802V59.9122C146.481 57.5233 144.518 55.5867 142.097 55.5867Z" stroke="#263238" stroke-linecap="round" stroke-linejoin="round"/>
<path d="M65.9083 95.0321H140.125" stroke="#263238" stroke-linecap="round" stroke-linejoin="round"/>
<path d="M80.034 86.4164H71.4208V94.9152H80.034V86.4164Z" fill="#0C8CE9" stroke="#263238" stroke-miterlimit="10"/>
<path d="M92.639 75.245H84.0258V95.0327H92.639V75.245Z" fill="#0C8CE9" stroke="#263238" stroke-miterlimit="10"/>
<path d="M106.836 78.6445H98.2228V95.232H106.836V78.6445Z" fill="#0C8CE9" stroke="#263238" stroke-miterlimit="10"/>
<path d="M121.758 62.1277H113.144V94.6578H121.758V62.1277Z" fill="#0C8CE9" stroke="#263238" stroke-miterlimit="10"/>
<path d="M136.667 62.3855H128.054V94.9156H136.667V62.3855Z" fill="#0C8CE9" stroke="#263238" stroke-miterlimit="10"/>
<path d="M252.596 103.039C265.895 103.039 276.677 92.4003 276.677 79.2775C276.677 66.1546 265.895 55.5164 252.596 55.5164C239.296 55.5164 228.514 66.1546 228.514 79.2775C228.514 92.4003 239.296 103.039 252.596 103.039Z" fill="#F5BF6E" stroke="#263238" stroke-miterlimit="10"/>
<path d="M58.8751 123.764H65.9083" stroke="#263238" stroke-linecap="round" stroke-linejoin="round"/>
<path d="M58.8751 137.174H65.9083" stroke="#263238" stroke-linecap="round" stroke-linejoin="round"/>
<path d="M58.8751 150.584H65.9083" stroke="#263238" stroke-linecap="round" stroke-linejoin="round"/>
<path d="M58.8751 163.994H65.9083" stroke="#263238" stroke-linecap="round" stroke-linejoin="round"/>
<path d="M81.4121 174.123V168.742" stroke="#263238" stroke-linecap="round" stroke-linejoin="round"/>
<path d="M92.5559 174.123V168.742" stroke="#263238" stroke-linecap="round" stroke-linejoin="round"/>
<path d="M103.7 174.123V168.742" stroke="#263238" stroke-linecap="round" stroke-linejoin="round"/>
<path d="M114.855 174.123V168.742" stroke="#263238" stroke-linecap="round" stroke-linejoin="round"/>
<path d="M125.999 174.123V168.742" stroke="#263238" stroke-linecap="round" stroke-linejoin="round"/>
<path d="M137.143 174.123V168.742" stroke="#263238" stroke-linecap="round" stroke-linejoin="round"/>
<path d="M148.286 174.123V168.742" stroke="#263238" stroke-linecap="round" stroke-linejoin="round"/>
<path d="M159.442 174.123V168.742" stroke="#263238" stroke-linecap="round" stroke-linejoin="round"/>
<path d="M170.586 174.123V168.742" stroke="#263238" stroke-linecap="round" stroke-linejoin="round"/>
<path d="M181.729 174.123V168.742" stroke="#263238" stroke-linecap="round" stroke-linejoin="round"/>
<path d="M192.873 174.123V168.742" stroke="#263238" stroke-linecap="round" stroke-linejoin="round"/>
<path d="M204.029 174.123V168.742" stroke="#263238" stroke-linecap="round" stroke-linejoin="round"/>
<path d="M215.172 174.123V168.742" stroke="#263238" stroke-linecap="round" stroke-linejoin="round"/>
<path d="M226.316 174.123V168.742" stroke="#263238" stroke-linecap="round" stroke-linejoin="round"/>
<path d="M237.46 174.123V168.742" stroke="#263238" stroke-linecap="round" stroke-linejoin="round"/>
<path d="M248.188 174.123V168.742" stroke="#263238" stroke-linecap="round" stroke-linejoin="round"/>
<path d="M258.916 174.123V168.742" stroke="#263238" stroke-linecap="round" stroke-linejoin="round"/>
<path d="M269.632 174.123V168.742" stroke="#263238" stroke-linecap="round" stroke-linejoin="round"/>
<path d="M298.002 115.546V167.664C298.002 171.239 294.319 174.123 289.781 174.123H67.1202C65.7644 174.17 64.4158 173.908 63.1795 173.357C61.9431 172.806 60.8523 171.981 59.992 170.946C59.2487 170.006 58.8321 168.855 58.804 167.664V115.546C58.804 112.03 62.4868 109.087 67.0251 109.087H289.781C294.319 109.087 298.002 111.971 298.002 115.546Z" stroke="#0C8CE9" stroke-linecap="round" stroke-linejoin="round"/>
<path d="M230.237 14.6057L159.157 109.087L131.975 145.215L102.274 126.554L65.9321 174.123H65.4094C64.2699 174.124 63.1499 173.831 62.1602 173.274C61.1705 172.717 60.3453 171.914 59.7662 170.946L100.599 117.481L130.3 136.107L150.627 109.146L224.748 10.6787L230.237 14.6057Z" fill="#263238"/>
<path d="M212.202 15.8133L238.339 0.175415L231.104 27.2077L226.494 14.6997L212.202 15.8133Z" fill="#263238"/>
<path d="M341.912 154.769C341.91 164.39 338.605 173.726 332.536 181.255C326.467 188.785 317.992 194.063 308.492 196.231H308.362C307.233 196.477 306.104 196.7 304.94 196.864C302.898 197.151 300.837 197.296 298.774 197.298C287.498 197.258 276.686 193.85 268.654 186.042C260.621 178.233 255.007 166.644 254.799 155.52C254.59 144.395 258.964 133.655 266.699 125.559C274.434 117.464 285.915 112.656 297.182 112.205C297.574 112.205 297.99 112.205 298.37 112.205C298.497 112.194 298.624 112.194 298.75 112.205C298.897 112.194 299.044 112.194 299.19 112.205C305.01 112.242 310.76 113.459 316.084 115.781C323.763 119.1 330.295 124.555 334.882 131.48C339.469 138.404 341.912 146.497 341.912 154.769Z" fill="#F5BF6E"/>
<path d="M341.912 154.769C341.911 164.413 338.591 173.771 332.496 181.31C326.401 188.849 317.891 194.122 308.362 196.266C305.217 196.98 302.001 197.338 298.774 197.333C287.333 197.541 276.277 193.256 268.038 185.421C259.799 177.586 255.052 166.843 254.841 155.554C254.63 144.266 258.972 133.357 266.913 125.227C274.853 117.098 285.742 112.414 297.182 112.205C297.705 112.205 298.24 112.205 298.774 112.205C310.214 112.208 321.184 116.694 329.273 124.675C337.363 132.657 341.908 143.481 341.912 154.769Z" stroke="#263238" stroke-linecap="round" stroke-linejoin="round"/>
<path d="M341.912 154.769C341.911 164.413 338.591 173.771 332.496 181.31C326.401 188.849 317.891 194.122 308.362 196.266C307.839 196.266 307.304 196.266 306.77 196.266C296.181 196.238 285.972 192.37 278.087 185.397C270.201 178.425 265.189 168.834 264.005 158.452C262.821 148.07 265.547 137.62 271.665 129.092C277.783 120.565 286.865 114.554 297.182 112.205C297.705 112.205 298.24 112.205 298.774 112.205C310.214 112.208 321.184 116.694 329.274 124.675C337.363 132.657 341.909 143.481 341.912 154.769Z" stroke="#263238" stroke-linecap="round" stroke-linejoin="round"/>
<path d="M276.724 191.366L285.837 190.956" stroke="#263238" stroke-linecap="round" stroke-linejoin="round"/>
<path d="M272.341 188.377L280.3 187.72" stroke="#263238" stroke-linecap="round" stroke-linejoin="round"/>
<path d="M268.776 185.223L276.724 184.555" stroke="#263238" stroke-linecap="round" stroke-linejoin="round"/>
<path d="M267.683 125.252H274.491" stroke="#263238" stroke-linecap="round" stroke-linejoin="round"/>
<path d="M271.046 122.157L277.829 121.853" stroke="#263238" stroke-linecap="round" stroke-linejoin="round"/>
<path d="M275.299 119.051L282.451 118.395" stroke="#263238" stroke-linecap="round" stroke-linejoin="round"/>
<path opacity="0.3" d="M307.199 196.643V196.15C304.055 196.864 301.925 197.636 298.699 197.63C287.423 197.591 276.686 193.85 268.654 186.042C260.621 178.233 255.007 167.631 254.799 156.507C254.591 145.383 257.763 134.643 265.498 126.547C273.232 118.451 283.432 112.682 294.699 112.231C295.091 112.231 297.819 111.738 298.199 111.738C287.685 115.008 270.214 124.821 265.498 142.252C258.833 167.021 272.544 194.568 307.199 196.643Z" fill="#263238"/>
<path d="M366.385 87.7643C362.969 92.5249 358.019 96.0023 352.342 97.6289C346.665 99.2555 340.597 98.9351 335.128 96.7201L334.974 96.6498C334.162 96.2979 333.369 95.9067 332.597 95.4776C331.726 95.0151 330.884 94.4982 330.079 93.9302C324.816 89.9646 321.275 84.1757 320.171 77.7333C319.067 71.2909 320.483 64.6752 324.132 59.223C327.781 53.7708 333.392 49.8885 339.83 48.3605C346.269 46.8326 353.055 47.7729 358.817 50.9915L359.399 51.3549C359.673 51.5072 359.934 51.6948 360.207 51.8824C360.481 52.0699 361.003 52.4568 361.395 52.7615C366.589 56.8716 369.996 62.782 370.924 69.2868C371.851 75.7915 370.228 82.4002 366.385 87.7643Z" fill="#F5BF6E"/>
<path d="M366.385 87.776C362.966 92.5325 358.014 96.0053 352.337 97.6275C346.661 99.2498 340.594 98.9258 335.128 96.7084C333.324 95.9811 331.61 95.0529 330.02 93.9419C324.724 89.9336 321.183 84.0782 320.123 77.5762C319.063 71.0743 320.564 64.4185 324.318 58.9736C328.072 53.5287 333.796 49.7073 340.314 48.2928C346.833 46.8784 353.653 47.9781 359.376 51.3666C359.637 51.519 359.91 51.6948 360.172 51.8824C365.811 55.8361 369.631 61.8342 370.796 68.5623C371.96 75.2904 370.374 82.1997 366.385 87.776Z" stroke="#263238" stroke-linecap="round" stroke-linejoin="round"/>
<path d="M366.385 87.7762C362.966 92.5327 358.014 96.0055 352.337 97.6277C346.66 99.25 340.594 98.926 335.128 96.7086L334.332 96.1928C329.171 92.5013 325.554 87.0759 324.164 80.9374C322.774 74.799 323.705 68.3708 326.782 62.8624C329.86 57.354 334.871 53.1452 340.874 51.0281C346.877 48.911 353.457 49.0314 359.376 51.3668C359.637 51.5192 359.91 51.695 360.172 51.8826C365.81 55.8363 369.631 61.8344 370.796 68.5625C371.96 75.2906 370.374 82.1999 366.385 87.7762Z" stroke="#263238" stroke-linecap="round" stroke-linejoin="round"/>
<path opacity="0.3" d="M358.758 51.0033C351.63 49.749 342.601 49.0574 337.73 52.1755C328.784 57.8374 323.212 64.9763 323.295 76.5462C323.378 88.1161 334.332 96.2279 334.332 96.2279L334.974 96.6851C333.226 95.9651 331.565 95.0569 330.02 93.9772C324.757 90.0116 321.216 84.2227 320.112 77.7803C319.008 71.3379 320.424 64.7222 324.073 59.27C327.722 53.8178 333.333 49.9355 339.771 48.4075C346.209 46.8796 352.995 47.8199 358.758 51.0385V51.0033Z" fill="#263238"/>
<path d="M352.937 417.876C341.878 431.001 328.695 442.23 313.922 451.108C309.318 453.826 304.558 456.276 299.665 458.447C265.913 473.416 227.445 474.389 191.471 465.785C115.829 447.697 75.6978 381.818 70.6011 308.683C69.2349 288.919 66.1698 267.573 74.284 248.77C82.3983 229.967 98.805 218.292 117.362 210.18C130.834 204.26 145.388 200.287 158.61 197.039C182.54 191.207 207.781 193.776 229.999 204.307C245.551 211.587 256.623 224.235 269.703 234.891C271.089 236.016 272.483 237.138 273.885 238.255C287.098 248.749 300.988 258.385 315.466 267.104C337.457 280.338 359.97 292.822 374.024 315.048C396.442 350.473 377.529 389.039 352.937 417.876Z" fill="#AAE0BC"/>
<path d="M352.937 417.876C341.878 431.001 328.695 442.23 313.922 451.108C309.318 453.826 304.558 456.276 299.665 458.447C265.913 473.416 227.445 474.389 191.471 465.785C115.829 447.697 75.6978 381.818 70.6011 308.683C69.2349 288.919 66.1698 267.573 74.284 248.77C82.3983 229.967 98.805 218.292 117.362 210.18C130.834 204.26 145.388 200.287 158.61 197.039C182.54 191.207 207.781 193.776 229.999 204.307C245.551 211.587 256.623 224.235 269.703 234.891C271.089 236.016 272.483 237.138 273.885 238.255C287.098 248.749 300.988 258.385 315.466 267.104C337.457 280.338 359.97 292.822 374.024 315.048C396.442 350.473 377.529 389.039 352.937 417.876Z" fill="#E90C59"/>
<path d="M273.838 238.255C272.436 237.145 271.042 236.02 269.656 234.879C256.587 224.2 245.491 211.587 229.952 204.307C207.732 193.782 182.493 191.213 158.563 197.04C127.116 204.741 88.1126 216.604 74.2127 248.782C66.0984 267.537 69.1635 288.919 70.5417 308.683C75.6977 381.818 115.829 447.697 191.471 465.785C232.625 475.632 277.01 472.935 313.922 451.109C328.695 442.23 341.878 431.001 352.937 417.876C377.529 389.039 396.442 350.473 374.048 315.048C360.005 292.776 337.492 280.338 315.49 267.104C300.987 258.388 287.074 248.752 273.838 238.255Z" stroke="#263238" stroke-miterlimit="10"/>
<path d="M159.252 368.666C152.954 370.546 146.843 372.987 140.992 375.957" stroke="#263238" stroke-linecap="round" stroke-linejoin="round"/>
<path d="M197.803 361.421C188.604 362.207 179.473 363.637 170.479 365.7" stroke="#263238" stroke-linecap="round" stroke-linejoin="round"/>
<path d="M189.784 359.546C189.784 359.546 154.286 339.172 111.446 355.502" stroke="#263238" stroke-linecap="round" stroke-linejoin="round"/>
<path d="M365.316 416.985C371.977 422.449 378.946 427.537 386.19 432.224C400.315 433.162 393.983 450.007 393.983 450.007L381.889 457.686C381.889 457.686 361.182 441.45 349.872 436.187C338.561 430.923 365.316 416.985 365.316 416.985Z" fill="white"/>
<path opacity="0.3" d="M264.939 239.627C264.939 239.627 263.003 220.719 259.914 215.408L213.01 205.984V202.397C213.01 202.397 214.091 196.16 203.637 192.257C193.182 188.353 171.394 193.429 165.774 197.626C160.155 201.822 162.21 209.043 162.21 209.043C162.21 209.043 143.32 218.456 134.838 222.043C127.894 225.205 121.125 228.726 114.558 232.593C114.558 232.593 110.709 276.06 111.469 286.153C112.23 296.245 110.852 305.74 111.731 311.332C112.61 316.924 113.299 320.1 119.239 324.86C125.179 329.619 130.585 336.582 146.16 329.677L143.986 327.978L246.513 293.901L264.939 239.627Z" fill="#263238"/>
<path d="M264.939 239.627C264.939 239.627 263.003 220.719 259.914 215.408L213.01 205.984V202.397C213.01 202.397 214.091 196.16 203.637 192.257C193.182 188.353 171.394 193.429 165.774 197.626C160.155 201.822 162.21 209.043 162.21 209.043C162.21 209.043 143.32 218.456 134.838 222.043C127.894 225.205 121.125 228.726 114.558 232.593C114.558 232.593 110.709 276.06 111.469 286.153C112.23 296.245 110.852 305.74 111.731 311.332C112.61 316.924 113.299 320.1 119.239 324.86C125.179 329.619 130.585 336.582 146.16 329.677L143.986 327.978L246.513 293.901L264.939 239.627Z" fill="#AAE0BC"/>
<path d="M264.939 239.627C264.939 239.627 263.003 220.719 259.914 215.408L213.01 205.984V202.397C213.01 202.397 214.091 196.16 203.637 192.257C193.182 188.353 171.394 193.429 165.774 197.626C160.155 201.822 162.21 209.043 162.21 209.043C162.21 209.043 143.32 218.456 134.838 222.043C127.894 225.205 121.125 228.726 114.558 232.593C114.558 232.593 110.709 276.06 111.469 286.153C112.23 296.245 110.852 305.74 111.731 311.332C112.61 316.924 113.299 320.1 119.239 324.86C125.179 329.619 130.585 336.582 146.16 329.677L143.986 327.978L246.513 293.901L264.939 239.627Z" fill="#0C8CE9"/>
<path opacity="0.4" d="M198.219 189.233C198.219 189.233 209.363 192.28 211.169 195.973C212.975 199.666 212.785 209.009 212.785 209.009C210.08 215.253 205.983 220.815 200.797 225.279L192.481 209.009L193.23 227.46C193.23 227.46 177.453 224.869 170.752 219.899L164.063 214.917C164.063 214.917 161.177 205.539 161.592 202.362C162.008 199.185 174.043 192.738 174.043 192.738L198.219 189.233Z" fill="#0C8CE9"/>
<path d="M383.837 473.744C383.528 473.076 388.411 464.566 384.586 455.903C380.76 447.24 374.666 450.581 374.666 450.581C374.666 450.581 357.309 439.679 350.014 436.233C344.758 433.628 339.697 430.659 334.867 427.348L327.156 437.593L334.285 459.349L383.837 473.744Z" fill="#AAE0BC"/>
<path d="M374.036 450.054L396.323 463.487C396.323 463.487 411.994 453.57 419.466 446.724C426.939 439.879 443.726 425.296 443.726 425.296L454.418 411.1C454.418 411.1 447.005 402.051 434.649 409.319C418.682 418.696 399.21 432.318 386.225 432.189C386.225 432.189 388.779 447.932 374.119 450.054" fill="#AAE0BC"/>
<path d="M194.441 132.403C194.441 132.403 204.552 147.501 206.393 152.389C208.234 157.278 209.72 164.51 209.351 167.992C208.983 171.473 205.276 190.123 203.411 190.663L201.617 192.667L202.805 200.568C202.805 200.568 194.893 214.06 171.631 204.167C171.631 204.167 170.728 188.412 167.901 183.465C165.073 178.518 160.844 184.403 156.603 170.113C152.361 155.824 165.869 140.808 165.869 140.808L194.441 132.403Z" fill="white"/>
<path d="M444.712 406.693C444.712 406.693 433.248 408.662 429.529 415.356C425.81 422.049 418.67 434.486 416.235 440.5C413.799 446.513 393.662 461.037 393.662 461.037L396.335 463.487C396.335 463.487 412.73 453.488 422.627 443.981C432.523 434.475 454.347 410.561 454.347 410.561C454.347 410.561 452.779 409.026 444.712 406.693Z" fill="white"/>
<path d="M329.996 433.83L327.156 437.593L335.877 455.435L383.837 472.444L386.059 465.516C386.059 465.516 386.796 458.483 369.961 453.137C353.127 447.792 342.862 444.263 338.074 440.594C333.287 436.925 329.996 433.83 329.996 433.83Z" fill="white"/>
<path d="M171.667 301.321C171.667 301.321 156.983 299.141 150.128 310.992C143.273 322.843 143.974 327.978 143.974 327.978C143.974 327.978 153.68 336.676 167.022 336.183C180.363 335.691 199.788 320.616 206.12 315.704C212.452 310.793 228.419 296.738 239.313 299.645L240.501 289.482C240.501 289.482 239.432 284.922 230.118 286.152C220.804 287.383 217.145 292.623 214.139 292.623C211.133 292.623 208.294 289.775 202.259 299.95C202.247 299.95 181.064 303.654 171.667 301.321Z" fill="white"/>
<path d="M190.747 154.113C191.059 156.012 191.504 157.888 192.077 159.728C192.292 160.626 192.697 161.469 193.265 162.201C194.382 163.373 196.188 163.678 197.839 163.924C198.112 163.944 198.371 164.051 198.576 164.229C198.709 164.439 198.771 164.685 198.754 164.933C198.744 166.779 198.182 168.581 197.138 170.114" stroke="#263238" stroke-linecap="round" stroke-linejoin="round"/>
<path d="M339.845 421.674L329.996 433.783C329.996 433.783 340.807 443.642 351.998 447.299C363.189 450.957 382.78 457.85 386.059 463.16L384.8 456.842C384.8 456.842 354.16 438.296 347.127 433.865C345.048 432.52 343.31 430.72 342.047 428.606C340.784 426.493 340.031 424.121 339.845 421.674Z" fill="white"/>
<path d="M374.036 450.054L393.65 461.037C393.65 461.037 403.333 454.496 408.085 449.679C412.837 444.861 418.694 439.515 422.341 428.719C427.319 413.797 441.576 406.693 441.576 406.693C441.576 406.693 421.747 415.907 411.423 423.104C401.099 430.302 391.037 433.349 385.192 432.857C385.132 432.892 389.825 447.545 374.036 450.054Z" fill="white"/>
<path d="M183.832 172.775C183.832 172.775 191.543 178.741 199.55 176.502C199.55 176.502 191.994 191.273 183.832 172.775Z" fill="white" stroke="#263238" stroke-linecap="round" stroke-linejoin="round"/>
<path d="M183.547 159.88C183.773 161.521 183.262 162.94 182.43 163.057C181.599 163.174 180.732 161.885 180.506 160.279C180.28 158.673 180.779 157.219 181.623 157.102C182.466 156.985 183.369 158.239 183.547 159.88Z" fill="#263238"/>
<path d="M200.334 156.891C200.548 158.544 200.049 159.962 199.217 160.068C198.386 160.173 197.507 158.895 197.293 157.301C197.079 155.707 197.566 154.23 198.409 154.124C199.253 154.019 200.108 155.25 200.334 156.891Z" fill="#263238"/>
<path d="M182.359 152.917C182.359 152.917 177.868 150.631 174.673 155.531" stroke="#263238" stroke-linecap="round" stroke-linejoin="round"/>
<path d="M193.871 149.869C193.871 149.869 198.623 145.848 201.368 149.869" stroke="#263238" stroke-linecap="round" stroke-linejoin="round"/>
<path d="M167.105 168.004C167.105 168.004 164.218 163.795 161.165 163.924C158.111 164.053 156.9 168.273 157.993 172.353C159.086 176.432 163.636 182.129 167.081 181.59C169.024 181.343 170.798 180.37 172.035 178.871" stroke="#263238" stroke-linecap="round" stroke-linejoin="round"/>
<path d="M194.786 135.802C198.029 138.463 201.463 141.359 203.102 145.274C204.552 148.603 204.872 152.307 206.203 155.672C207.617 159.27 209.161 163.033 209.28 166.96C209.217 170.593 208.735 174.208 207.842 177.733C207.349 180.79 206.614 183.804 205.644 186.747C204.041 190.956 201.082 193.546 197.114 195.539C194.228 196.993 189.416 199.056 186.291 197.11C184.474 195.938 181.741 192.585 179.472 189.502" stroke="#263238" stroke-linecap="round" stroke-linejoin="round"/>
<path d="M167.105 181.59C167.105 181.59 172.213 193.945 170.978 202.632" stroke="#263238" stroke-linecap="round" stroke-linejoin="round"/>
<path d="M165.798 165.929C166.478 165.432 167.017 164.771 167.362 164.01C167.708 163.248 167.848 162.411 167.77 161.58C167.58 159.681 166.249 157.922 166.511 156.023C166.729 155.114 167.073 154.238 167.532 153.421C168.224 151.844 168.529 150.128 168.422 148.413C168.314 146.698 167.798 145.032 166.915 143.551C166.915 143.551 183.143 144.301 190.747 139.53C198.35 134.759 204.148 122.556 199.55 116.73C194.952 110.904 185.994 118.852 179.353 119.731C172.712 120.61 149.094 124.326 145.328 133.306C141.562 142.285 147.3 145.509 147.479 154.078C147.657 162.647 147.657 178.882 160.642 177.393C160.642 177.393 155.783 171.192 159.157 164.803C161.45 162.119 165.798 165.929 165.798 165.929Z" fill="#263238"/>
<path d="M197.625 126.858C199.829 128.552 201.656 130.675 202.992 133.095C204.329 135.515 205.147 138.18 205.395 140.925C206.12 147.349 217.667 159.834 209.339 166.949C209.339 166.949 207.403 159.388 206.262 155.661C205.122 151.933 203.66 145.11 201.748 142.766C199.835 140.421 189.689 132.216 189.689 132.216L197.625 126.858Z" fill="#263238"/>
<path d="M168.602 202.362C168.602 202.362 176.609 207.566 191.483 207.777L193.23 227.46C193.23 227.46 176.502 226.205 164.063 214.916C164.063 214.916 160.701 206.136 161.592 202.362C162.483 198.587 170.479 194.847 170.479 194.847" stroke="#263238" stroke-linecap="round" stroke-linejoin="round"/>
<path d="M202.247 193.558L202.722 200.592C199.586 203.814 195.741 206.281 191.483 207.801L200.797 225.303C200.797 225.303 211.905 216.769 213.01 207.801C213.01 207.801 213.105 198.622 211.169 195.996C209.232 193.371 202.175 192.14 202.175 192.14" stroke="#263238" stroke-linecap="round" stroke-linejoin="round"/>
<path opacity="0.8" d="M157.173 139.167C158.361 136.225 161.616 134.478 164.788 134.009C167.96 133.54 171.215 133.868 174.423 133.786C178.865 133.751 183.215 132.536 187.016 130.27C188.905 129.135 190.549 127.644 191.853 125.882C193.158 124.12 194.098 122.121 194.62 120.001" stroke="white" stroke-linecap="round" stroke-linejoin="round"/>
<path opacity="0.8" d="M149.51 138.593C151.518 132.579 158.028 128.863 164.432 128.335C167.604 128.066 170.812 128.429 173.936 128.066C177.061 127.702 180.387 126.413 182.038 123.728" stroke="white" stroke-linecap="round" stroke-linejoin="round"/>
<path d="M146.136 329.677C130.692 337.578 125.203 329.443 116.602 322.714C108 315.986 113.643 303.959 111.849 284.676C110.056 265.392 114.523 232.593 114.523 232.593C114.523 232.593 118.372 231.726 129.052 225.279C139.733 218.831 162.21 209.008 162.21 209.008" stroke="#263238" stroke-linecap="round" stroke-linejoin="round"/>
<path d="M161.438 300.489C161.438 300.489 158.991 292.834 152.076 292.635C145.162 292.436 134.256 295.507 126.486 310.008" stroke="#263238" stroke-linecap="round" stroke-linejoin="round"/>
<path d="M150.496 292.178C150.067 292.15 149.645 292.051 149.249 291.885C143.549 289.861 137.362 289.583 131.5 291.088" stroke="#263238" stroke-linecap="round" stroke-linejoin="round"/>
<path d="M127.52 243.062C140.101 256.777 146.231 274.923 152.041 292.506" stroke="#263238" stroke-linecap="round" stroke-linejoin="round"/>
<path d="M213.01 205.984C213.01 205.984 235.82 211.353 246.964 212.63C258.108 213.908 259.914 215.444 259.914 215.444L261.993 223.11" stroke="#263238" stroke-linecap="round" stroke-linejoin="round"/>
<path d="M319.303 219.324L241.618 222.266L235.274 301.098H248.58L316.036 286.199L324.519 221.211L319.303 219.324Z" fill="white"/>
<path d="M239.313 301.321L246.109 225.279L324.519 221.211L316.036 286.199L239.313 301.321Z" stroke="#263238" stroke-linecap="round" stroke-linejoin="round"/>
<path d="M316.036 286.199C316.036 286.199 351.939 285.191 363.166 292.506C374.392 299.821 380.986 336.5 379.43 355.982C377.873 375.465 364.33 420.174 364.33 420.174L338.383 391.196C338.383 391.196 325.6 345.338 332.574 327.38C332.574 327.38 298.121 329.291 284.554 325.094C284.554 325.094 272.4 305.459 251.562 298.965L316.036 286.199Z" fill="#263238"/>
<path d="M369.807 420.935C360.591 412.447 352.315 403.016 345.119 392.802C332.562 373.659 315.205 355.291 297.349 340.954C282.962 329.443 279.706 310.687 261.957 301.274C232.553 285.719 207.13 316.63 197.625 322.89C188.121 329.15 171.667 336.242 171.667 336.242C171.667 336.242 177.678 358.514 195.332 361.152C212.987 363.789 230.843 351.774 239.29 357.576C247.736 363.379 253.986 389.285 281.881 404.466C304.679 416.868 335.746 428.965 351.772 437.124C355.336 438.953 357.998 440.875 360.017 441.965C365.554 444.943 371.47 448.448 377.054 451.917L396.288 463.476C396.288 463.476 415.593 452.211 423.007 441.825C423.993 440.43 426.048 436.714 427.973 433.127C432.166 425.284 437.477 418.251 444.831 414.371C449.916 411.663 454.442 410.854 454.335 410.573C453.848 409.682 444.629 405.028 438.368 407.572C425.11 412.976 398.605 433.736 386.095 432.189C380.276 429.019 374.816 425.246 369.807 420.935Z" stroke="#263238" stroke-miterlimit="10"/>
<path d="M369.807 420.936C358.247 425.542 353.59 432.658 351.808 437.136C335.781 428.93 304.714 416.88 281.916 404.477C254.021 389.238 247.82 363.379 239.325 357.588C230.831 351.797 212.963 363.848 195.368 361.164C177.773 358.479 171.667 336.23 171.667 336.23C171.667 336.23 188.133 329.197 197.637 322.937C207.141 316.677 229.061 285.754 261.957 301.321C280.122 309.914 282.962 329.455 297.349 341.001C315.169 355.291 332.562 373.706 345.119 392.849C352.298 403.062 360.575 412.479 369.807 420.936Z" fill="#263238"/>
<path d="M282.938 321.554C282.938 321.554 274.039 303.713 259.771 300.254" stroke="white" stroke-linecap="round" stroke-linejoin="round"/>
<path d="M236.296 286.035C226.483 283.925 215.707 294.628 211.169 292.623C207.795 291.134 202.247 299.95 202.247 299.95C193.114 301.251 183.879 301.71 174.661 301.321C161.438 300.489 155.177 303.032 150.496 310.007L143.962 327.087C143.962 327.087 161.2 342.326 179.603 333.452C198.005 324.578 222.455 297.804 239.301 297.898" stroke="#263238" stroke-linecap="round" stroke-linejoin="round"/>
<path d="M373.288 449.597C373.288 449.597 389.397 450.898 385.619 431.907" stroke="#263238" stroke-miterlimit="10"/>
<path d="M449.203 420.174C448.015 422.518 433.247 434.921 420.524 445.764C420.524 445.6 424.088 438.977 425.561 436.152C428.947 429.915 437.691 412.812 454.335 410.561C456.699 411.968 449.203 420.174 449.203 420.174Z" fill="#263238"/>
<path d="M442.871 406.822C426.036 410.127 422.211 431.439 416.235 440.5C410.259 449.561 393.662 461.881 393.662 461.881" stroke="#263238" stroke-miterlimit="10"/>
<path d="M384.586 456.442C387.33 461.389 386.035 467.133 384.586 470.732C383.876 472.519 382.992 474.235 381.948 475.854C358.116 471.986 334.285 459.349 334.285 459.349L328.142 440.594L327.156 437.593L336.411 425.296" stroke="#263238" stroke-miterlimit="10"/>
<path d="M384.586 470.733C383.876 472.52 382.992 474.235 381.948 475.855C358.116 471.987 334.284 459.35 334.284 459.35L328.142 440.594C331.219 444.556 336.922 450.359 345.476 452.738C357.083 455.986 378.503 459.784 384.586 470.733Z" fill="#263238"/>
<path d="M235.274 298.355L241.618 222.266L319.303 219.324L324.519 221.211" stroke="#263238" stroke-linecap="round" stroke-linejoin="round"/>
<path d="M385.512 440.501C385.512 440.501 396.133 442.376 404.295 435.812C412.457 429.247 425.608 414.394 425.608 414.394" stroke="#263238" stroke-miterlimit="10"/>
<path d="M396.323 431.052C396.323 431.052 393.757 434.862 396.323 442.505" stroke="#263238" stroke-linecap="round" stroke-linejoin="round"/>
<path d="M403.856 427.406C402.688 431.206 403.032 435.301 404.818 438.859" stroke="#263238" stroke-linecap="round" stroke-linejoin="round"/>
<path d="M412.837 422.272C412.837 422.272 410.687 428.637 412.837 434.252" stroke="#263238" stroke-linecap="round" stroke-linejoin="round"/>
<path d="M338.514 423.714L329.996 433.83C329.996 433.83 338.573 443.079 350.679 446.924C362.785 450.769 384.408 457.299 386.201 464.25" stroke="#263238" stroke-miterlimit="10"/>
</svg>
