<svg width="40" height="40" viewBox="0 0 40 40" fill="none" xmlns="http://www.w3.org/2000/svg">
<g clip-path="url(#clip0_139_217)">
<rect x="4" y="27" width="5" height="12" fill="#0C8CE9"/>
<rect x="9" y="25" width="22" height="14" fill="#E90C59"/>
<path d="M19.2188 15.2114C19.2344 15.1841 19.2344 15.1489 19.2188 15.1216C19.2031 15.1489 19.2031 15.1841 19.2188 15.2114Z" fill="#263238"/>
<path d="M38.288 38.5456H37.3393V27.323C37.3393 26.6806 36.7267 26.1616 35.9779 26.1616H32.2343V25.1619C32.2343 24.5195 31.6216 24.0005 30.8729 24.0005H9.61473C8.86599 24.0005 8.25339 24.5238 8.25339 25.1619V26.1616H4.42037C3.67163 26.1616 3.05903 26.6849 3.05903 27.323V38.5498H1.85509C1.5573 38.5498 1.29354 38.6817 1.1489 38.8816C1.0553 38.9837 1 39.1114 1 39.2518V39.2985C1 39.4389 1.0553 39.5666 1.1489 39.6687C1.29779 39.8686 1.5573 40.0005 1.85509 40.0005H38.288C38.7474 40.0005 39.1218 39.6857 39.1218 39.2985V39.2518C39.1218 38.8604 38.7474 38.5456 38.288 38.5456ZM35.6376 28.1696V38.469H32.2343V27.6123H35.0803C35.3866 27.6123 35.6376 27.8633 35.6376 28.1696ZM9.95507 25.4469H30.5326V27.0848C30.5156 27.1614 30.5028 27.2379 30.5028 27.3188V38.5115H9.95507V25.4469ZM5.62005 27.6123H8.18958V38.469H4.7607V28.4716C4.7607 27.9952 5.14358 27.6123 5.62005 27.6123Z" fill="#263238"/>
<path d="M13.9242 27.9612H16.1577V30.1946H13.9242V27.9612ZM13.8817 33.4491H16.1151V35.6825H13.8817V33.4491ZM24.096 27.9612H26.3294V30.1946H24.096V27.9612ZM24.0534 33.4491H26.2869V35.6825H24.0534V33.4491ZM19.0122 27.9612H21.2457V30.1946H19.0122V27.9612ZM18.9697 33.4491H21.2031V35.6825H18.9697V33.4491Z" fill="#263238"/>
<path d="M30 21.8V14.8C30 13.1432 28.6569 11.8 27 11.8H13C11.3431 11.8 10 13.1432 10 14.8V21.8" stroke="#263238" stroke-width="1.5"/>
<circle cx="20.0601" cy="5.30005" r="4.5" stroke="#263238" stroke-width="1.5"/>
<path fill-rule="evenodd" clip-rule="evenodd" d="M21.25 12.5002L18.5 12.5012C18.2499 12.7508 18.2499 12.7507 18.2498 12.7507C18.2498 12.7507 18.2497 12.7508 18 13.0002L19.247 14.6809H20.7001L21.75 13.0002L21.25 12.5002ZM20.7001 14.681H19.2469L18.3024 19.7669C18.2298 19.9849 18.3024 20.2392 18.4841 20.4208L19.7555 21.6923C19.9009 21.8376 20.1188 21.8376 20.2641 21.6923L21.5356 20.4208C21.6809 20.2392 21.7536 20.0212 21.7173 19.7669L20.7001 14.681Z" fill="#263238"/>
</g>
<defs>
<clipPath id="clip0_139_217">
<rect width="40" height="40" fill="white"/>
</clipPath>
</defs>
</svg>
