<svg width="207" height="120" viewBox="0 0 207 120" fill="none" xmlns="http://www.w3.org/2000/svg">
<path d="M199.751 20.6311C197.973 23.4186 196.019 26.9105 193.222 29.5372C193.123 29.6338 193.036 29.7418 192.962 29.8588C190.219 33.5269 187.521 37.2333 184.74 40.8554C181.308 45.3968 177.106 49.3026 172.326 52.3957C164.901 57.1589 157.453 61.8914 149.875 66.4708C140.398 72.1912 131.24 78.4237 122.442 85.1406C116.81 89.5647 110.846 93.5508 104.603 97.0638C97.9365 100.563 90.8241 103.139 83.4621 104.722C75.1021 106.651 66.4432 108.129 57.6235 109.378C48.4282 110.679 39.3939 112.242 30.306 113.712C24.6585 114.631 19.0418 115.603 13.448 116.553C10.1266 117.203 6.87915 118.186 3.75472 119.486C3.01494 119.925 2.14434 120.09 1.29499 119.953C0.951559 119.85 0.641989 119.657 0.398459 119.394C0.170691 119.138 0.0310316 118.816 0 118.475C0.100829 117.88 0.300233 117.305 0.590026 116.775C2.25438 113.835 4.06505 110.98 6.01521 108.221C7.76196 106.112 9.6873 104.157 11.7699 102.378C16.1913 98.312 20.628 94.261 25.1413 90.3019C28.6437 87.2312 31.912 83.9036 34.9189 80.3468C37.6113 77.2171 40.1334 73.945 42.4743 70.5448C45.0792 66.7973 47.8747 63.1857 50.8496 59.7243C53.3783 56.7301 55.999 53.8278 58.7345 51.0556C62.486 47.2672 66.5234 43.7726 70.8109 40.6027C77.7074 35.4643 84.6038 30.2034 91.5769 25.1569C101.553 18.138 112.237 12.181 123.454 7.3831C128.921 4.90757 134.654 3.06784 140.541 1.9001C147.632 0.494527 154.854 -0.134576 162.081 0.0239378C165.323 0.108174 168.533 0.138805 171.752 0.177094C175.436 0.164205 179.116 0.420146 182.763 0.942876C189.276 1.96137 195.789 2.94157 202.272 3.9524C203.276 4.10555 204.295 4.28934 205.337 4.54205C205.799 4.67266 206.206 4.94912 206.497 5.33009C206.789 5.71107 206.949 6.17608 206.954 6.65561C206.85 7.18045 206.693 7.69353 206.487 8.18717C204.9 12.6746 202.464 16.3657 199.751 20.6311Z" fill="#F37316"/>
<path d="M157.867 35.3573C156.204 34.5915 154.534 33.8257 152.863 33.0599C152.758 32.9685 152.663 32.8657 152.58 32.7536C152.58 32.5928 152.526 32.3248 152.618 32.2712C156.071 30.3312 159.535 28.4014 163.008 26.4819C163.775 26.053 164.832 26.2674 166.15 26.8571C173.425 30.1346 180.694 33.3867 187.958 36.6132L189.797 34.1473C183.1 31.0153 176.479 28.1589 169.874 25.4634C169.154 25.3062 168.494 24.9446 167.974 24.4219C167.798 23.5183 168.48 23.457 168.939 23.212C171.146 22.0174 173.468 20.9682 175.598 19.6817C176.978 18.8394 178.801 18.9925 181.161 19.9651C186.188 22.0327 191.184 23.9854 196.219 26.0913C196.985 25.0116 197.713 23.9088 198.379 22.8444C196.74 22.1475 195.115 21.466 193.491 20.8381C190.15 19.5464 186.809 18.2701 183.468 17.0091L183.146 16.4272C183.79 16.1438 184.395 15.8222 185.077 15.5924C188.832 14.2753 192.594 13.1113 196.311 11.8248C199.552 10.7374 202.87 9.77251 206.272 8.87654C206.356 8.64681 206.456 8.43239 206.533 8.20266C206.739 7.70902 206.896 7.19594 207 6.67109C206.995 6.19157 206.835 5.72655 206.543 5.34558C206.252 4.96461 205.845 4.68815 205.383 4.55754C204.326 4.30483 203.307 4.12104 202.318 3.96789L200.64 3.70752L197.399 4.6188C193.912 5.60666 190.655 6.91614 187.238 7.98824C182.982 9.32078 178.822 10.9403 174.786 12.8356C169.552 15.3091 164.825 18.3952 159.828 21.152C150.756 26.1296 141.89 31.4441 132.296 35.8014C123.285 39.9137 114.596 44.4088 105.891 48.8963C95.6994 54.1496 86.2589 60.3524 77.0331 66.8079C70.0064 71.7242 63.018 76.6712 55.3246 80.8141C48.3203 84.5598 41.5954 88.8055 35.2024 93.5184C28.3596 98.5419 21.8923 104.002 15.5936 109.661C12.6298 112.496 9.43635 115.08 6.04587 117.388C5.05738 118.023 4.1302 118.728 3.18768 119.409C3.00393 119.52 2.85722 119.683 2.76624 119.877C3.08041 119.762 3.37925 119.624 3.68576 119.509C6.81019 118.209 10.0577 117.226 13.3791 116.576L17.0725 115.948C19.287 114.539 21.4326 113.038 23.5245 111.491C24.4746 110.787 25.647 110.81 27.5704 111.882C28.6585 112.494 29.7389 113.069 30.8194 113.651L37.2407 112.594C35.2561 111.598 33.2867 110.664 31.3481 109.868C30.7351 109.623 30.1067 109.301 29.4707 108.98C29.0186 108.75 28.7045 108.107 28.8807 107.854C29.0366 107.628 29.2251 107.427 29.4401 107.257C31.9228 105.534 34.4821 103.902 36.8805 102.08C37.846 101.314 39.1257 101.59 40.9494 102.516C45.731 104.941 50.5125 107.348 55.294 109.738L57.5928 109.401L61.2173 108.834C55.4089 105.687 49.6313 102.754 43.9149 100.127C43.4785 99.9397 43.0582 99.7169 42.6582 99.4608C42.3134 99.2388 42.0375 98.8559 42.1218 98.5955C42.1928 98.3981 42.3349 98.2343 42.5203 98.136C46.957 95.2261 51.409 92.3467 55.8151 89.4061C56.7576 88.7782 58.0449 89.1151 59.746 89.9958C69.0485 94.8126 78.2897 99.3307 87.4926 103.696C89.416 103.175 91.324 102.601 93.1554 101.98C91.1401 100.862 89.1324 99.7595 87.1401 98.718C79.8376 94.9274 72.581 91.4737 65.4471 88.2728C64.5199 87.8593 63.5697 87.3768 62.6119 86.8561C62.4538 86.7764 62.3216 86.6535 62.2308 86.5016C62.1399 86.3498 62.094 86.1753 62.0985 85.9984C62.112 85.9286 62.1393 85.8622 62.1788 85.803C62.2182 85.7439 62.2691 85.6931 62.3283 85.6538C66.3283 82.9659 70.3435 80.2933 74.3205 77.6054C75.0024 77.1383 75.9833 77.391 77.1786 77.9424C84.4812 81.3118 91.7378 84.5587 99.071 88.0277C102.872 89.835 106.683 91.6652 110.504 93.5184C111.661 92.7526 112.803 92.0481 113.937 91.2823C103.508 85.8606 93.278 81.2123 83.1019 76.8626C81.6221 76.36 80.1951 75.7136 78.8414 74.9329C78.5732 74.1671 78.8414 74.1058 79.079 73.945C83.0483 71.0197 87.0405 68.1251 90.9868 65.1615C91.9217 64.457 93.1783 64.5029 94.9944 65.3912C99.0863 67.3823 103.148 69.2201 107.255 71.1958C114.095 74.4989 120.943 77.8173 127.798 81.151C128.948 80.3163 130.097 79.4893 131.277 78.6622C121.952 73.6923 112.657 68.9215 103.523 64.8782C101.554 64.0052 99.592 63.1475 97.615 62.2439C97.4477 62.1633 97.3065 62.0372 97.2075 61.8801C97.1086 61.723 97.056 61.5412 97.0557 61.3556C97.0836 61.2544 97.132 61.1601 97.1979 61.0784C97.2638 60.9967 97.3458 60.9295 97.4388 60.8808C101.83 58.2924 106.159 55.7654 110.488 53.1617C111.53 52.5338 113.04 53.0468 114.764 53.8586C123.86 58.1393 132.94 62.3511 142.028 66.6088L146.35 68.6458C147.292 68.0561 148.227 67.4665 149.177 66.8845L148.848 66.7084C138.794 61.4781 128.856 56.7532 119.063 52.641C118.35 52.3423 117.615 51.9671 116.879 51.5842C116.458 51.3545 116.113 50.6346 116.258 50.4125C116.416 50.1886 116.616 49.9985 116.848 49.8535C120.519 47.9697 124.212 46.1088 127.883 44.2174C128.649 43.8115 129.66 43.8728 130.994 44.516C132.143 45.075 133.293 45.5498 134.427 46.0476C143.836 50.3666 153.124 54.2185 162.541 58.5681L166.051 56.3397C161.828 54.0041 157.668 52.036 153.537 50.2134C147.407 47.5332 141.461 45.3354 135.438 42.9462C135.032 42.7854 134.618 42.6016 134.197 42.4025C134.083 42.3358 133.986 42.2442 133.913 42.1344C133.829 41.9353 133.691 41.629 133.752 41.5754C134.122 41.2746 134.526 41.0177 134.955 40.8096C138.45 39.1479 142.02 37.578 145.446 35.8167C146.633 35.2041 148.013 35.2118 150.043 36.146C155.055 38.4434 160.005 40.6488 165.031 42.9921C169.085 44.8836 173.139 46.821 177.207 48.7738C178.086 48.0284 178.937 47.2626 179.759 46.4764C172.382 42.3361 165.085 38.6297 157.867 35.3573Z" fill="#F6F7F9"/>
</svg>
