<svg width="34" height="50" viewBox="0 0 34 50" fill="none" xmlns="http://www.w3.org/2000/svg">
<path fill-rule="evenodd" clip-rule="evenodd" d="M18.3239 1.01227C18.3394 1.17339 18.3113 1.33491 18.2832 1.49638L18.2832 1.49679C18.2716 1.56342 18.26 1.63019 18.2515 1.69678C18.2327 1.84198 18.2285 1.98514 18.2243 2.12787V2.12792L18.2235 2.15592C18.2148 2.53739 18.184 2.91796 18.1313 3.29579C18.1035 3.41521 18.1015 3.53911 18.1253 3.65961C18.1286 3.67799 18.1362 3.69538 18.1475 3.71043C18.1588 3.72548 18.1735 3.73777 18.1905 3.74632C18.2102 3.75195 18.2311 3.75256 18.251 3.7481C18.4254 3.72695 18.5936 3.6723 18.746 3.58728C18.8984 3.50226 19.032 3.38854 19.1392 3.25263C19.2464 3.11673 19.325 2.96132 19.3706 2.79529C19.4161 2.62927 19.4278 2.4559 19.4048 2.28513C19.3943 2.20532 19.375 2.12682 19.3472 2.05101C19.3202 1.97669 19.2836 1.90708 19.247 1.83721C19.2158 1.77779 19.1844 1.7181 19.1587 1.65497C19.1021 1.50761 19.0598 1.3554 19.0325 1.20039C18.9945 1.03915 18.9695 0.875279 18.9579 0.710318C18.9552 0.643865 18.9569 0.576625 18.9585 0.509439V0.509413V0.509388V0.509362V0.509337V0.509311V0.509286V0.509261C18.9624 0.351499 18.9663 0.193804 18.9141 0.0459576C18.8844 0.017784 18.845 0.00142722 18.8038 8.90905e-05C18.7626 -0.00124907 18.7224 0.0125272 18.6911 0.038722C18.6305 0.0933544 18.5852 0.162298 18.5595 0.239025C18.4363 0.481638 18.3567 0.743186 18.3239 1.01227ZM18.3239 1.01227C18.3211 1.03547 18.3186 1.05872 18.3165 1.08203L18.3184 0.966569C18.3206 0.981799 18.3225 0.997034 18.3239 1.01227ZM20.8518 1.34373C20.6913 1.98668 20.5896 2.64261 20.5478 3.30379L20.5458 3.36169C20.5424 3.45825 20.5391 3.5548 20.5284 3.64872C20.5091 3.7987 20.4795 3.94718 20.4399 4.09317L20.3196 4.57788C20.3577 4.60259 20.4017 4.61694 20.4472 4.61944C20.4927 4.62194 20.538 4.6125 20.5784 4.5921C20.6586 4.55039 20.7288 4.49237 20.7841 4.42189C21.0216 4.13765 21.2303 3.83149 21.4075 3.50767C21.4622 3.42233 21.509 3.33238 21.5476 3.23888C21.5946 3.10343 21.6192 2.96134 21.6202 2.81804C21.6213 2.38375 21.5429 1.95238 21.3885 1.54443C21.379 1.51647 21.3693 1.48264 21.3589 1.44579C21.3162 1.296 21.2594 1.09604 21.1372 1.03906C20.9481 0.946618 20.88 1.21543 20.8518 1.34373ZM23.9383 2.08935C24.0507 1.97365 24.1881 1.8552 24.3512 1.86209C24.3796 1.86192 24.4078 1.86771 24.4339 1.87907C24.4599 1.89042 24.4832 1.90709 24.5021 1.92794C24.5402 1.98971 24.5521 2.06345 24.5355 2.13344C24.4354 3.00892 23.9444 3.8052 23.3118 4.42875C23.1332 4.6176 22.9215 4.77363 22.6866 4.88954C22.5658 4.94357 22.4602 4.98898 22.4584 4.82175C22.4753 4.67652 22.5121 4.53427 22.5678 4.39885C22.7367 3.85069 22.9876 3.33039 23.3122 2.85479C23.4977 2.58218 23.7071 2.32606 23.9383 2.08935ZM17.0652 4.80079C17.8203 5.22551 18.6082 5.59121 19.4216 5.89449C20.6555 6.38156 21.9069 6.82795 23.1571 7.27397C23.4611 7.38924 23.7712 7.48792 24.0861 7.56957C24.449 7.65629 24.8699 7.68643 25.1563 7.45368C25.1876 7.43307 25.2099 7.40174 25.2188 7.36582C25.2203 7.34504 25.2169 7.32417 25.2089 7.30481C25.118 7.03761 24.8238 6.89812 24.5581 6.79226C22.8124 6.1002 21.0107 5.5597 19.2095 5.01935L19.2095 5.01935C18.6754 4.85912 18.1413 4.6989 17.6087 4.53474C17.5754 4.52441 17.5165 4.50098 17.4438 4.4721C17.1966 4.37393 16.7908 4.21271 16.6953 4.2881C16.5157 4.42662 16.9574 4.73516 17.0652 4.80079ZM25.3418 4.64079L25.3085 4.68612C25.2192 4.80804 25.1292 4.92936 25.0391 5.05083L25.039 5.051L25.0381 5.05216C24.8965 5.24302 24.7545 5.43443 24.6146 5.62898C24.53 5.74692 24.558 5.7593 24.6295 5.79085C24.6541 5.80172 24.6839 5.81487 24.716 5.8354C24.7518 5.85859 24.7314 5.91864 24.7118 5.97634C24.689 6.04328 24.6673 6.10706 24.7359 6.10645C24.8169 6.09743 24.8936 6.06644 24.9573 6.01697L25.6333 5.57439C26.0119 5.3475 26.3612 5.07704 26.6738 4.76873C26.9735 4.44807 27.1984 4.04077 27.209 3.60589C27.1146 3.57556 27.0176 3.63343 26.9418 3.69892L26.9241 3.71427C26.8538 3.77562 26.7801 3.83981 26.6883 3.84259C26.825 3.6638 26.9219 3.45889 26.973 3.24091C26.8677 3.24176 26.7669 3.28201 26.6914 3.35341C26.3303 3.60063 25.996 3.88314 25.6934 4.19661C25.5654 4.33631 25.4535 4.48867 25.3419 4.64075L25.3418 4.64077L25.3418 4.64079ZM3.195 30.0916L3.27007 30.1636L9.91153 35.5558C10.028 35.6403 10.171 35.6799 10.3143 35.6674C10.4576 35.6549 10.5915 35.591 10.6915 35.4876L15.0217 30.6878C15.4604 30.2172 16.0579 29.9258 16.6988 29.8697C17.3398 29.8136 17.9788 29.9969 18.4926 30.3841L23.5904 34.359C23.7065 34.4446 23.8497 34.4848 23.9933 34.4723C24.1369 34.4597 24.271 34.3952 24.3704 34.2908L29.9795 27.8269C29.9968 27.798 30.0157 27.7701 30.0361 27.7433L31.5848 25.9622C31.9084 25.592 32.1538 25.1601 32.3064 24.6926C32.459 24.2252 32.5156 23.7317 32.4727 23.2418C32.4298 22.7519 32.2884 22.2757 32.057 21.8419C31.8256 21.408 31.5089 21.0253 31.1259 20.7169L17.5925 9.70882C16.823 9.08957 15.8438 8.79185 14.8598 8.87794C13.8759 8.96402 12.9633 9.42725 12.313 10.1707L0.901627 23.3611C0.578128 23.731 0.332728 24.1624 0.180171 24.6295C0.027614 25.0965 -0.0289514 25.5896 0.0138731 26.0791C0.0566976 26.5686 0.198028 27.0444 0.429374 27.4779C0.660719 27.9113 0.977305 28.2936 1.36011 28.6016L3.195 30.0916ZM31.0735 29.5535L25.8479 35.5713C25.4194 36.0537 24.8246 36.3565 24.1825 36.419C23.5403 36.4816 22.8983 36.2993 22.3848 35.9087L17.2918 31.9333C17.1679 31.8492 17.0188 31.8104 16.8696 31.8234C16.7204 31.8365 16.5803 31.9006 16.4728 32.0049L12.1476 36.8043C11.7097 37.2782 11.109 37.5692 10.4658 37.6191C9.82257 37.669 9.18422 37.4741 8.67853 37.0735L2.48725 32.0545L1.73737 32.9159C1.4158 33.2866 1.17207 33.7182 1.02067 34.1851C0.869268 34.6519 0.81329 35.1444 0.856063 35.6333C0.898836 36.1222 1.03949 36.5975 1.26965 37.0309C1.49981 37.4644 1.81479 37.8471 2.19585 38.1564L15.7248 49.1697C16.4949 49.7871 17.476 50.0786 18.4582 49.9818C19.4407 49.9059 20.3545 49.4487 21.0043 48.7078L32.4201 35.5121C32.7436 35.1423 32.989 34.7109 33.1416 34.2438C33.2941 33.7767 33.3507 33.2836 33.3079 32.7941C33.265 32.3047 33.1237 31.8289 32.8924 31.3954C32.661 30.9619 32.3444 30.5797 31.9616 30.2716L31.0735 29.5535Z" fill="#1E1E1E"/>
</svg>
