<svg width="500" height="477" viewBox="0 0 500 477" fill="none" xmlns="http://www.w3.org/2000/svg">
<path opacity="0.1" d="M471.649 204.895C471.649 204.895 403.568 38.839 279.109 6.81873C154.649 -25.2015 102.451 72.7521 83.3774 140.812C64.3043 208.873 -5.97819 298.787 0.404355 360.615C6.46777 419.381 57.9855 447.169 106.099 459.1C167.255 474.254 236.75 475.403 298.129 462.769C312.723 459.684 327.131 455.779 341.285 451.071C370.124 441.671 398.43 434.386 427.641 426.612C483.212 411.799 505.232 352.171 498.966 295.022C495.434 262.895 483.659 234.14 471.649 204.895Z" fill="#0C8CE9"/>
<path d="M434.162 23.1108H236.835V296.245H434.162V23.1108Z" stroke="#263238" stroke-linecap="round" stroke-linejoin="round"/>
<path d="M335.499 23.2703V297.202" stroke="#263238" stroke-linecap="round" stroke-linejoin="round"/>
<path d="M434.321 160.242H236.665" stroke="#263238" stroke-linecap="round" stroke-linejoin="round"/>
<path d="M434.321 91.6498H236.665" stroke="#263238" stroke-linecap="round" stroke-linejoin="round"/>
<path d="M434.321 228.834H236.665" stroke="#263238" stroke-linecap="round" stroke-linejoin="round"/>
<path d="M398.356 123.308L379.123 141.791" stroke="#263238" stroke-linecap="round" stroke-linejoin="round"/>
<path d="M426.96 95.8077L403.983 117.895" stroke="#263238" stroke-linecap="round" stroke-linejoin="round"/>
<path d="M377.73 132.986L371.624 138.856" stroke="#263238" stroke-linecap="round" stroke-linejoin="round"/>
<path d="M403.962 107.761L381.942 128.934" stroke="#263238" stroke-linecap="round" stroke-linejoin="round"/>
<path d="M291.64 60.7672L272.407 79.2498" stroke="#263238" stroke-linecap="round" stroke-linejoin="round"/>
<path d="M320.244 33.2668L297.267 55.3652" stroke="#263238" stroke-linecap="round" stroke-linejoin="round"/>
<path d="M271.013 70.4446L264.907 76.3148" stroke="#263238" stroke-linecap="round" stroke-linejoin="round"/>
<path d="M297.246 45.2305L275.226 66.393" stroke="#263238" stroke-linecap="round" stroke-linejoin="round"/>
<path d="M393.76 195.963L374.528 214.445" stroke="#263238" stroke-linecap="round" stroke-linejoin="round"/>
<path d="M422.365 168.462L399.388 190.56" stroke="#263238" stroke-linecap="round" stroke-linejoin="round"/>
<path d="M373.134 205.64L367.028 211.51" stroke="#263238" stroke-linecap="round" stroke-linejoin="round"/>
<path d="M399.366 180.426L377.336 201.588" stroke="#263238" stroke-linecap="round" stroke-linejoin="round"/>
<path d="M402.43 270.51L401.6 263.406C401.6 263.406 397.824 263.619 396.367 260.333C395.484 258.344 394.59 254.314 395.888 252.325C396.266 251.704 396.818 251.206 397.474 250.893C398.131 250.58 398.865 250.465 399.586 250.562C400.307 250.659 400.984 250.964 401.534 251.439C402.085 251.915 402.485 252.541 402.685 253.24C403.696 256.122 404.196 257.355 404.196 257.355C403.951 253.176 400.803 236.342 410.281 238.904C414.131 239.968 415.185 243.669 415.355 246.604C415.525 249.539 415.131 257.142 415.131 257.142C415.131 257.142 417.674 257.419 417.844 253.197C418.014 248.975 422.099 247.061 423.918 249.06C425.737 251.06 426.556 258.163 424.577 260.386C422.599 262.609 416.333 263.385 416.333 263.385L416.748 270.521L402.43 270.51Z" fill="#F37316" stroke="#263238" stroke-linecap="round" stroke-linejoin="round"/>
<path d="M407.876 240.074C407.876 240.074 406.313 241.499 406.738 246.349C407.164 251.198 407.164 259.876 407.164 259.876" stroke="#263238" stroke-width="0.5" stroke-linecap="round" stroke-linejoin="round"/>
<path d="M412.014 243.35C412.014 243.35 413.865 243.073 413.291 247.486C412.982 251.181 412.982 254.894 413.291 258.589" stroke="#263238" stroke-width="0.5" stroke-linecap="round" stroke-linejoin="round"/>
<path d="M398.611 252.75C398.611 252.75 396.76 253.176 397.622 256.175C398.484 259.174 398.76 261.439 400.749 261.875C401.639 262.095 402.547 262.238 403.462 262.3L403.749 265.427" stroke="#263238" stroke-width="0.5" stroke-linecap="round" stroke-linejoin="round"/>
<path d="M416.567 261.726C416.567 261.726 422.407 261.875 423.546 259.45C424.684 257.025 423.982 252.899 423.982 252.899" stroke="#263238" stroke-width="0.5" stroke-linecap="round" stroke-linejoin="round"/>
<path d="M401.036 253.537C401.036 253.636 401.007 253.733 400.952 253.815C400.897 253.897 400.819 253.961 400.728 253.999C400.636 254.037 400.536 254.047 400.439 254.028C400.342 254.008 400.253 253.961 400.183 253.891C400.113 253.821 400.065 253.732 400.046 253.635C400.027 253.538 400.037 253.437 400.075 253.346C400.112 253.255 400.176 253.177 400.259 253.122C400.341 253.067 400.438 253.038 400.536 253.038C400.602 253.038 400.667 253.051 400.728 253.076C400.788 253.101 400.844 253.138 400.89 253.184C400.936 253.23 400.973 253.286 400.998 253.346C401.024 253.407 401.036 253.472 401.036 253.537Z" stroke="#263238" stroke-width="0.5" stroke-linecap="round" stroke-linejoin="round"/>
<path d="M402.249 259.801C402.525 259.801 402.749 259.577 402.749 259.301C402.749 259.025 402.525 258.801 402.249 258.801C401.973 258.801 401.749 259.025 401.749 259.301C401.749 259.577 401.973 259.801 402.249 259.801Z" stroke="#263238" stroke-width="0.5" stroke-linecap="round" stroke-linejoin="round"/>
<path d="M399.76 257.451C400.036 257.451 400.26 257.227 400.26 256.951C400.26 256.675 400.036 256.451 399.76 256.451C399.484 256.451 399.26 256.675 399.26 256.951C399.26 257.227 399.484 257.451 399.76 257.451Z" stroke="#263238" stroke-width="0.5" stroke-linecap="round" stroke-linejoin="round"/>
<path d="M409.876 251.549C410.152 251.549 410.376 251.325 410.376 251.049C410.376 250.773 410.152 250.549 409.876 250.549C409.6 250.549 409.376 250.773 409.376 251.049C409.376 251.325 409.6 251.549 409.876 251.549Z" stroke="#263238" stroke-width="0.5" stroke-linecap="round" stroke-linejoin="round"/>
<path d="M405.175 246.699C405.451 246.699 405.674 246.476 405.674 246.2C405.674 245.924 405.451 245.7 405.175 245.7C404.898 245.7 404.675 245.924 404.675 246.2C404.675 246.476 404.898 246.699 405.175 246.699Z" stroke="#263238" stroke-width="0.5" stroke-linecap="round" stroke-linejoin="round"/>
<path d="M412.015 263.576C412.015 263.675 411.985 263.772 411.93 263.854C411.875 263.936 411.797 264 411.706 264.038C411.615 264.076 411.514 264.086 411.417 264.066C411.32 264.047 411.231 264 411.161 263.93C411.091 263.86 411.044 263.771 411.024 263.674C411.005 263.577 411.015 263.476 411.053 263.385C411.091 263.294 411.155 263.216 411.237 263.161C411.319 263.106 411.416 263.076 411.515 263.076C411.647 263.076 411.774 263.129 411.868 263.223C411.962 263.317 412.015 263.444 412.015 263.576Z" stroke="#263238" stroke-width="0.5" stroke-linecap="round" stroke-linejoin="round"/>
<path d="M406.6 262.864C406.6 262.963 406.571 263.059 406.516 263.141C406.461 263.224 406.383 263.288 406.291 263.325C406.2 263.363 406.099 263.373 406.003 263.354C405.906 263.335 405.816 263.287 405.747 263.217C405.677 263.147 405.629 263.058 405.61 262.961C405.59 262.864 405.6 262.764 405.638 262.672C405.676 262.581 405.74 262.503 405.822 262.448C405.905 262.393 406.001 262.364 406.1 262.364C406.233 262.364 406.36 262.417 406.454 262.51C406.547 262.604 406.6 262.731 406.6 262.864Z" stroke="#263238" stroke-width="0.5" stroke-linecap="round" stroke-linejoin="round"/>
<path d="M410.727 242.148C411.003 242.148 411.227 241.924 411.227 241.648C411.227 241.372 411.003 241.148 410.727 241.148C410.451 241.148 410.227 241.372 410.227 241.648C410.227 241.924 410.451 242.148 410.727 242.148Z" stroke="#263238" stroke-width="0.5" stroke-linecap="round" stroke-linejoin="round"/>
<path d="M421.344 251.113C421.344 251.211 421.314 251.308 421.259 251.39C421.204 251.472 421.126 251.537 421.035 251.574C420.944 251.612 420.843 251.622 420.746 251.603C420.649 251.584 420.56 251.536 420.49 251.466C420.42 251.396 420.373 251.307 420.353 251.21C420.334 251.113 420.344 251.013 420.382 250.921C420.42 250.83 420.484 250.752 420.566 250.697C420.648 250.642 420.745 250.613 420.844 250.613C420.976 250.613 421.103 250.665 421.197 250.759C421.291 250.853 421.344 250.98 421.344 251.113Z" stroke="#263238" stroke-width="0.5" stroke-linecap="round" stroke-linejoin="round"/>
<path d="M419.567 258.387C419.843 258.387 420.067 258.163 420.067 257.887C420.067 257.611 419.843 257.387 419.567 257.387C419.291 257.387 419.067 257.611 419.067 257.887C419.067 258.163 419.291 258.387 419.567 258.387Z" stroke="#263238" stroke-width="0.5" stroke-linecap="round" stroke-linejoin="round"/>
<path d="M410.727 258.238C411.003 258.238 411.227 258.014 411.227 257.738C411.227 257.462 411.003 257.238 410.727 257.238C410.451 257.238 410.227 257.462 410.227 257.738C410.227 258.014 410.451 258.238 410.727 258.238Z" stroke="#263238" stroke-width="0.5" stroke-linecap="round" stroke-linejoin="round"/>
<path d="M422.088 265.905H396.441L399.015 286.919H419.525L422.088 265.905Z" fill="white" stroke="#263238" stroke-linecap="round" stroke-linejoin="round"/>
<path d="M307.139 217.497H384.782L366.698 284.09H289.055L307.139 217.497Z" fill="#263238" stroke="#263238" stroke-linecap="round" stroke-linejoin="round"/>
<path d="M309.351 219.975H381.208L364.475 281.612H292.618L309.351 219.975Z" fill="white" stroke="#263238" stroke-linecap="round" stroke-linejoin="round"/>
<path d="M366.698 280.559H257.855V284.101H366.698V280.559Z" fill="#263238" stroke="#263238" stroke-linecap="round" stroke-linejoin="round"/>
<path d="M366.698 280.559H316.681V284.101H366.698V280.559Z" fill="#263238" stroke="#263238" stroke-linecap="round" stroke-linejoin="round"/>
<path d="M228.889 289.737H223.038V475.424H228.889V289.737Z" fill="white" stroke="#263238" stroke-linecap="round" stroke-linejoin="round"/>
<path d="M218.028 475.425H223.027L223.027 289.737H218.028L218.028 475.425Z" fill="#E1E7E9" stroke="#263238" stroke-linecap="round" stroke-linejoin="round"/>
<path d="M378.761 386.893H372.911V475.424H378.761V386.893Z" fill="white" stroke="#263238" stroke-linecap="round" stroke-linejoin="round"/>
<path d="M367.922 475.435H372.921V386.903H367.922V475.435Z" fill="#E1E7E9" stroke="#263238" stroke-linecap="round" stroke-linejoin="round"/>
<path d="M441.417 386.893H435.566V475.424H441.417V386.893Z" fill="white" stroke="#263238" stroke-linecap="round" stroke-linejoin="round"/>
<path d="M430.556 475.435H435.555V386.903H430.556V475.435Z" fill="#E1E7E9" stroke="#263238" stroke-linecap="round" stroke-linejoin="round"/>
<path d="M314.915 391.944H371.996V291.534H314.915V391.944Z" fill="white" stroke="#263238" stroke-linecap="round" stroke-linejoin="round"/>
<path d="M447 291.563H315V391.563H447V291.563Z" fill="white" stroke="#263238" stroke-linecap="round" stroke-linejoin="round"/>
<path d="M372.007 291.545H314.925V296.437H372.007H447.225V291.545H372.007Z" fill="#263238" stroke="#263238" stroke-linecap="round" stroke-linejoin="round"/>
<path d="M454.98 287.131H209.964V292.97H454.98V287.131Z" fill="white" stroke="#263238" stroke-linecap="round" stroke-linejoin="round"/>
<path d="M230.74 346.557C230.74 346.557 238.037 351.608 248.824 382.831C252.419 393.21 272.641 449.179 273.705 453.018C274.769 456.857 276.896 461.525 280.087 461.525C283.279 461.525 294.98 446.637 293.555 444.872C292.129 443.106 285.406 436.003 285.406 436.003C285.406 436.003 281.385 390.7 280.673 377.939C279.96 365.177 282.864 349.811 276.13 339.527C269.397 329.244 239.601 339.878 239.601 339.878L230.74 346.557Z" fill="white" stroke="#263238" stroke-linecap="round" stroke-linejoin="round"/>
<path d="M288.683 436.056C287.861 436.496 287.187 437.169 286.744 437.989C286.301 438.81 286.11 439.743 286.193 440.671C286.555 443.861 289.746 448.115 289.746 448.115C289.746 448.115 283.002 453.432 279.46 453.783C275.918 454.134 272.014 454.847 272.014 455.91C272.014 456.974 274.854 458.75 276.62 462.642C278.575 466.59 280.83 470.384 283.364 473.989C284.428 475.403 285.13 476.467 289.034 475.403C292.938 474.34 301.448 466.545 306.054 463.354C310.66 460.164 324.489 458.037 326.978 456.261C329.467 454.485 337.254 443.149 333.711 441.022C330.169 438.895 329.105 441.373 324.85 442.436C320.595 443.5 308.181 442.085 301.448 440.671C294.714 439.257 292.576 438.895 292.576 438.895L288.683 436.056Z" fill="#0C8CE9" stroke="#263238" stroke-linecap="round" stroke-linejoin="round"/>
<path d="M282.747 473.181C282.981 473.521 283.172 473.797 283.321 473.989C284.385 475.403 285.087 476.467 288.991 475.403C292.895 474.34 301.405 466.545 306.011 463.354C310.617 460.164 324.446 458.037 326.935 456.261C329.424 454.485 337.211 443.149 333.669 441.022C333.171 440.71 332.63 440.474 332.062 440.32C332.126 440.554 332.19 440.767 332.254 441.022C333.318 445.276 329.765 449.53 326.573 452.72C323.382 455.91 312.745 455.198 301.043 461.227C294.577 464.62 288.451 468.623 282.747 473.181Z" fill="white" stroke="#263238" stroke-linecap="round" stroke-linejoin="round"/>
<path d="M282.406 400.59C281.641 391.264 280.97 382.512 280.715 377.992C280.002 365.231 282.906 349.864 276.173 339.581C269.439 329.297 239.643 339.932 239.643 339.932L230.74 346.557C230.74 346.557 238.037 351.608 248.824 382.831C250.196 386.797 254.004 397.442 258.249 409.279L282.406 400.59Z" fill="#263238" stroke="#263238" stroke-linecap="round" stroke-linejoin="round"/>
<path d="M265.046 164.729C265.966 167.193 266.403 169.81 266.333 172.439C266.014 175.98 262.791 177.586 262.471 176.629C262.196 175.036 262.089 173.417 262.152 171.801V170.514C261.358 171.824 260.384 173.016 259.259 174.056C257.004 176.299 255.717 175.661 254.749 175.661C253.781 175.661 253.461 172.471 255.078 170.195C256.695 167.92 261.833 162.794 265.046 164.729Z" fill="white" stroke="#263238" stroke-linecap="round" stroke-linejoin="round"/>
<path d="M272.45 173.088C269.258 171.152 264.408 177.916 257.004 176.278C256.057 176.076 255.717 174.672 257.323 171.461C258.929 168.249 264.078 165.665 266.652 163.74C269.226 161.815 271.162 160.199 271.162 157.944C271.162 155.69 265.365 159.231 263.716 160.518C261.768 161.731 259.743 162.815 257.653 163.762L256.259 163.836C253.398 164.017 248.983 164.527 247.313 165.963C245.122 167.866 243.866 174.407 243.345 176.927C241.92 178.99 240.643 180.894 239.909 182.042C237.654 185.573 192.295 218.71 192.295 218.71L195.487 247.008L246.962 188.518C248.388 187.353 250.029 186.479 251.791 185.945C255.334 184.658 260.152 183.69 264.344 181.436C267.444 179.78 270.452 177.955 273.354 175.97C275.598 174.577 274.194 174.13 272.45 173.088Z" fill="white" stroke="#263238" stroke-linecap="round" stroke-linejoin="round"/>
<path d="M195.561 247.061L227.176 211.106" stroke="#263238" stroke-linecap="round" stroke-linejoin="round"/>
<path d="M195.551 247.061L192.359 218.763C192.359 218.763 199.806 211.563 218.368 199.461L227.197 211.159C227.197 211.159 218.592 225.112 195.551 247.061Z" fill="#0C8CE9" stroke="#263238" stroke-linecap="round" stroke-linejoin="round"/>
<path d="M202.518 306.475C202.518 306.475 225.208 305.412 258.185 310.729C291.161 316.046 303.501 321.715 302.511 328.095C298.49 353.979 238.037 439.193 238.037 439.193L239.101 451.242C239.101 451.242 236.973 454.081 229.527 454.432C222.081 454.783 212.858 444.159 212.858 444.159C212.858 444.159 221.187 435.545 224.378 425.273C227.57 415 253.227 348.652 253.227 348.652C253.227 348.652 219.538 356.096 182.307 349.364C145.075 342.632 202.518 306.475 202.518 306.475Z" fill="white" stroke="#263238" stroke-linecap="round" stroke-linejoin="round"/>
<path d="M258.185 310.729C225.208 305.412 202.518 306.475 202.518 306.475C202.518 306.475 145.075 342.632 182.307 349.364C219.538 356.096 253.227 348.652 253.227 348.652C253.227 348.652 242.59 376.301 234.08 398.633L259.089 408.204C276.981 381.15 300.075 343.76 302.511 328.095C303.501 321.715 291.161 316.046 258.185 310.729Z" fill="#263238" stroke="#263238" stroke-linecap="round" stroke-linejoin="round"/>
<path d="M238.037 439.193C237.321 439.488 236.67 439.922 236.122 440.469C235.575 441.017 235.141 441.667 234.846 442.383C234.162 444.005 233.569 445.663 233.069 447.35C229.189 446.514 225.393 445.325 221.73 443.798C219.03 442.565 216.421 441.143 213.922 439.544C213.922 439.544 210.73 439.906 210.73 442.032C210.712 445.302 210.114 448.543 208.964 451.603C208.05 453.879 206.103 458.952 204.837 462.238C204.69 462.626 204.628 463.04 204.655 463.454C204.682 463.868 204.798 464.271 204.995 464.636C205.192 465.001 205.464 465.32 205.795 465.57C206.126 465.821 206.507 465.997 206.911 466.087C212.528 467.332 224.368 470.065 234.495 473.181C248.323 477.434 263.567 475.307 265.344 474.957C267.12 474.606 274.205 470.341 271.013 467.512C267.822 464.684 249.026 457.229 245.132 452.263C241.239 447.296 238.037 439.193 238.037 439.193Z" fill="#0C8CE9" stroke="#263238" stroke-linecap="round" stroke-linejoin="round"/>
<path d="M269.588 466.555C269.588 470.075 267.78 473.574 262.142 473.574C256.504 473.574 246.536 472.872 232.357 467.194C223.8 463.841 215.007 461.125 206.05 459.069C205.614 460.207 205.188 461.313 204.827 462.259C204.679 462.647 204.617 463.062 204.644 463.476C204.672 463.889 204.788 464.292 204.984 464.658C205.181 465.023 205.454 465.341 205.785 465.592C206.115 465.842 206.496 466.018 206.901 466.109C212.518 467.353 224.357 470.086 234.484 473.202C248.313 477.456 263.557 475.329 265.333 474.978C267.11 474.627 274.194 470.363 271.003 467.534C270.561 467.167 270.087 466.84 269.588 466.555Z" fill="white" stroke="#263238" stroke-linecap="round" stroke-linejoin="round"/>
<path d="M130.885 223.878C130.885 223.878 127.023 254.441 127.353 260.226C127.683 266.011 131.853 315.866 132.821 326.808C133.789 337.751 138.288 347.386 146.33 349.321C154.372 351.257 175.286 354.139 184.296 351.895C193.306 349.651 202.954 329.382 206.167 321.661C209.379 313.941 211.645 309.113 210.677 307.507C209.709 305.901 205.529 302.36 205.529 302.36C205.529 302.36 197.487 243.871 195.55 228.706C193.614 213.541 194.593 212.308 187.508 206.512C180.424 200.716 143.756 195.92 130.885 223.878Z" fill="#0C8CE9" stroke="#263238" stroke-linecap="round" stroke-linejoin="round"/>
<path d="M182.371 330.552C181.211 331.434 179.998 332.275 178.764 333.061" stroke="#263238" stroke-linecap="round" stroke-linejoin="round"/>
<path d="M203.582 304.699C203.582 304.699 196.752 318.099 185.445 328.031" stroke="#263238" stroke-linecap="round" stroke-linejoin="round"/>
<path d="M198.614 305.412C198.614 305.412 187.626 315.685 176.637 322.066" stroke="#263238" stroke-linecap="round" stroke-linejoin="round"/>
<path d="M207.454 127.732C209.223 131.448 210.627 135.326 211.645 139.313C212.603 144.141 212.932 148.64 215.177 149.607C216.677 150.245 217.858 150.288 218.953 151.553C221.793 154.85 218.4 157.934 216.145 160.22C216.145 160.22 217.113 175.662 216.783 178.554C216.453 181.447 199.412 181.447 198.455 181.447C197.497 181.447 187.817 204.289 187.817 204.289L160.798 190.773L165.946 174.056C165.946 174.056 157.585 157.966 156.936 150.894C156.287 143.822 172.733 130.954 182.041 128.062C191.349 125.169 207.454 127.732 207.454 127.732Z" fill="white" stroke="#263238" stroke-linecap="round" stroke-linejoin="round"/>
<path d="M198.455 181.447L189.87 179.001L193.083 191.56L198.455 181.447Z" fill="#263238" stroke="#263238" stroke-linecap="round" stroke-linejoin="round"/>
<path d="M210.645 145.928C211.071 147.746 210.869 149.352 210.177 149.512C209.486 149.671 208.571 148.342 208.135 146.534C207.699 144.726 207.911 143.11 208.603 142.95C209.294 142.791 210.209 144.12 210.645 145.928Z" fill="#263238"/>
<path d="M205.209 163.113C205.209 163.113 209.071 166.016 212.603 164.729" stroke="#263238" stroke-linecap="round" stroke-linejoin="round"/>
<path d="M208.135 128.317C204.431 127.549 200.592 127.746 196.987 128.891C196.55 129.004 196.143 129.211 195.795 129.498C194.912 130.316 195.168 131.741 195.54 132.879C196.056 134.46 196.667 136.008 197.37 137.516C197.662 138.085 197.894 138.684 198.061 139.302C198.212 140.12 198.112 140.963 197.774 141.723C197.436 142.482 196.876 143.121 196.167 143.556C194.639 144.546 193.244 145.729 192.019 147.076C187.828 151.904 185.636 160.263 183.977 160.901C183.105 161.241 181.849 159.327 181.445 158.827C181.039 158.24 180.517 157.742 179.912 157.363C179.306 156.985 178.63 156.734 177.924 156.626C176.911 156.577 175.908 156.853 175.063 157.413C173.892 158.145 172.91 159.143 172.197 160.326C171.483 161.508 171.058 162.842 170.956 164.219C170.722 167.143 172.275 169.217 174.584 170.887C176.238 172.037 178.147 172.767 180.147 173.014C180.979 173.226 181.848 173.248 182.69 173.077C182.69 173.077 171.105 179.192 168.861 179.192C166.616 179.192 159.851 175.332 156.638 171.748C153.426 168.164 141.884 157.647 141.182 148.969C140.639 141.653 147.118 134.081 152.128 129.349C150.465 129.175 148.84 128.745 147.309 128.073C146.446 127.806 145.643 127.373 144.948 126.796C144.114 125.892 143.647 124.709 143.639 123.478C143.522 122.011 143.469 121.617 144.448 120.671C145.916 119.278 148.256 118.385 150.086 117.587C152.619 116.476 155.237 115.57 157.915 114.875C157.558 113.429 157.6 111.914 158.034 110.489C158.468 109.065 159.28 107.784 160.383 106.782C163.84 103.794 169.85 106.559 173.669 107.623C176.371 108.378 179.052 109.175 181.722 110.047C179.318 109.26 181.551 104.943 182.785 104.103C185.902 101.912 189.04 103.294 192.115 104.868C198.327 108.059 205.135 114.258 205.869 121.628C206.906 123.725 207.624 125.965 207.996 128.275" fill="#263238"/>
<path d="M208.135 128.317C204.431 127.549 200.592 127.746 196.987 128.891C196.55 129.004 196.143 129.211 195.795 129.498C194.912 130.316 195.168 131.741 195.54 132.879C196.056 134.46 196.667 136.008 197.37 137.516C197.662 138.085 197.894 138.684 198.061 139.302C198.212 140.12 198.112 140.963 197.774 141.723C197.436 142.482 196.876 143.121 196.167 143.556C194.639 144.546 193.244 145.729 192.019 147.076C187.828 151.904 185.636 160.263 183.977 160.901C183.105 161.241 181.849 159.327 181.445 158.827C181.039 158.24 180.517 157.742 179.912 157.363C179.306 156.985 178.63 156.734 177.924 156.626C176.911 156.577 175.908 156.853 175.063 157.413C173.892 158.145 172.91 159.143 172.197 160.326C171.483 161.508 171.058 162.842 170.956 164.219C170.722 167.143 172.275 169.217 174.584 170.887C176.238 172.037 178.147 172.767 180.147 173.014C180.979 173.226 181.848 173.248 182.69 173.077C182.69 173.077 171.105 179.192 168.861 179.192C166.616 179.192 159.851 175.332 156.638 171.748C153.426 168.164 141.884 157.647 141.182 148.969C140.639 141.653 147.118 134.081 152.128 129.349C150.465 129.175 148.84 128.745 147.309 128.073C146.446 127.806 145.643 127.373 144.948 126.796C144.114 125.892 143.647 124.709 143.639 123.478C143.522 122.011 143.469 121.617 144.448 120.671C145.916 119.278 148.256 118.385 150.086 117.587C152.619 116.476 155.237 115.57 157.915 114.875C157.558 113.429 157.6 111.914 158.034 110.489C158.468 109.065 159.28 107.784 160.383 106.782C163.84 103.794 169.85 106.559 173.669 107.623C176.371 108.378 179.052 109.175 181.722 110.047C179.318 109.26 181.551 104.943 182.785 104.103C185.902 101.912 189.04 103.294 192.115 104.868C198.327 108.059 205.135 114.258 205.869 121.628C206.906 123.725 207.624 125.965 207.996 128.275" stroke="#263238" stroke-linecap="round" stroke-linejoin="round"/>
<path d="M180.254 156.551L221.293 139.962" stroke="#263238" stroke-linecap="round" stroke-linejoin="round"/>
<path d="M210.592 137.633C212.3 136.893 214.228 136.838 215.975 137.48C217.722 138.123 219.155 139.413 219.976 141.083C220.797 142.754 220.943 144.676 220.384 146.451C219.825 148.226 218.604 149.718 216.975 150.618" stroke="#263238" stroke-linecap="round" stroke-linejoin="round"/>
<path d="M195.551 213.244C195.551 213.244 195.231 203.917 192.657 201.344C190.083 198.77 171.105 188.157 162.415 185.913C153.724 183.669 144.724 186.87 138.927 188.806C133.129 190.741 129.278 196.229 126.991 208.15C124.704 220.071 124.417 227.441 129.247 228.089C134.076 228.738 140.831 214.265 155.947 211.361C171.063 208.458 184.902 211.042 188.126 212.648C191.349 214.254 195.551 213.244 195.551 213.244Z" fill="#0C8CE9" stroke="#263238" stroke-linecap="round" stroke-linejoin="round"/>
<path d="M146.692 203.417C143.788 204.481 141.831 205.246 141.831 205.246" stroke="#263238" stroke-linecap="round" stroke-linejoin="round"/>
<path d="M195.551 213.244C195.551 213.244 175.339 201.992 167.893 199.738C164.031 198.568 157.096 200.11 151.351 201.865" stroke="#263238" stroke-linecap="round" stroke-linejoin="round"/>
<path d="M291.086 265.565C291.086 265.565 290.023 272.254 288.799 273.009C287.576 273.764 287.651 266.798 287.651 266.798C287.651 266.798 286.119 270.808 285.172 271.765C284.225 272.722 284.789 267.66 284.789 267.66L285.853 262.885L291.086 265.565Z" fill="white" stroke="#263238" stroke-linecap="round" stroke-linejoin="round"/>
<path d="M277.471 258.972L287.342 259.131C287.342 259.131 289.948 259.503 290.321 260.992C290.849 262.639 291.471 264.254 292.182 265.831L276.907 261.364L277.471 258.972Z" fill="white" stroke="#263238" stroke-linecap="round" stroke-linejoin="round"/>
<path d="M281.002 262.087C281.002 262.087 294.831 260.226 295.161 261.343C295.437 262.183 296.501 269.755 296.735 272.201C296.74 272.284 296.718 272.367 296.672 272.437C296.627 272.508 296.56 272.561 296.482 272.591C296.403 272.621 296.318 272.625 296.237 272.602C296.156 272.58 296.085 272.532 296.033 272.467L292.182 265.809L281.747 266.554C281.747 266.554 278.768 263.948 281.002 262.087Z" fill="white" stroke="#263238" stroke-linecap="round" stroke-linejoin="round"/>
<path d="M166.68 220.39C166.68 220.39 158.106 226.717 161.085 242.361C164.063 258.004 184.924 300.85 186.785 304.529C188.647 308.209 196.838 308.624 200.561 307.507C204.284 306.39 270.599 279.964 270.599 279.964C270.599 279.964 277.673 278.092 278.79 276.603C279.906 275.115 286.991 267.298 286.991 267.298C286.991 267.298 298.16 268.787 300.767 268.043C303.373 267.298 298.161 266.554 295.554 265.809C293.544 265.235 282.459 260.907 277.47 258.95C276.752 258.661 275.963 258.592 275.205 258.753C274.447 258.914 273.754 259.297 273.215 259.854C269.726 263.427 262.291 271.01 260.876 272.137C258.929 273.7 254.419 273.828 252.089 274.264C246.164 275.466 240.218 276.561 234.271 277.646C228.325 278.73 222.23 279.772 216.187 280.836L209.805 281.899C209.16 282.098 208.502 282.255 207.837 282.367C205.55 282.452 206.146 280.496 206.06 278.592C205.433 263.374 203.933 247.837 197.763 233.725C195.71 229.014 193.093 224.431 189.253 220.964C185.413 217.497 180.179 215.37 175.094 216.062" fill="#0C8CE9"/>
<path d="M166.68 220.39C166.68 220.39 158.106 226.717 161.085 242.361C164.063 258.004 184.924 300.85 186.785 304.529C188.647 308.209 196.838 308.624 200.561 307.507C204.284 306.39 270.599 279.964 270.599 279.964C270.599 279.964 277.673 278.092 278.79 276.603C279.906 275.115 286.991 267.298 286.991 267.298C286.991 267.298 298.16 268.787 300.767 268.043C303.373 267.298 298.161 266.554 295.554 265.809C293.544 265.235 282.459 260.907 277.47 258.95C276.752 258.661 275.963 258.592 275.205 258.753C274.447 258.914 273.754 259.297 273.215 259.854C269.726 263.427 262.291 271.01 260.876 272.137C258.929 273.7 254.419 273.828 252.089 274.264C246.164 275.466 240.218 276.561 234.271 277.646C228.325 278.73 222.23 279.772 216.187 280.836L209.805 281.899C209.16 282.098 208.502 282.255 207.837 282.367C205.55 282.452 206.146 280.496 206.06 278.592C205.433 263.374 203.933 247.837 197.763 233.725C195.71 229.014 193.093 224.431 189.253 220.964C185.413 217.497 180.179 215.37 175.094 216.062" stroke="#263238" stroke-linecap="round" stroke-linejoin="round"/>
<path d="M235.941 293.725C253.334 286.834 270.599 279.964 270.599 279.964C270.599 279.964 277.673 278.092 278.79 276.604C279.906 275.115 286.98 267.298 286.98 267.298C286.98 267.298 298.161 268.787 300.809 268.043C303.458 267.298 298.203 266.554 295.597 265.81C293.586 265.235 282.502 260.907 277.513 258.95C276.794 258.661 276.005 258.592 275.247 258.753C274.489 258.914 273.797 259.297 273.258 259.854C269.769 263.427 262.333 271.01 260.918 272.137C259.95 272.913 245.281 275.7 231.42 278.199L235.941 293.725Z" fill="white" stroke="#263238" stroke-linecap="round" stroke-linejoin="round"/>
<path d="M119.545 366.996L103.323 474.765C103.265 474.992 103.3 475.233 103.419 475.434C103.539 475.636 103.734 475.781 103.961 475.839C104.188 475.897 104.429 475.862 104.631 475.743C104.832 475.623 104.978 475.428 105.036 475.201L129.502 368.772L119.545 366.996Z" fill="#E1E7E9" stroke="#263238" stroke-linecap="round" stroke-linejoin="round"/>
<path d="M143.756 367.708L150.809 474.563C150.809 474.797 150.902 475.022 151.068 475.187C151.233 475.353 151.458 475.446 151.692 475.446C151.926 475.446 152.151 475.353 152.316 475.187C152.482 475.022 152.575 474.797 152.575 474.563L153.798 366.847L143.756 367.708Z" fill="#E1E7E9" stroke="#263238" stroke-linecap="round" stroke-linejoin="round"/>
<path d="M167.552 369.314L186.913 474.318C186.97 474.529 187.103 474.71 187.286 474.829C187.469 474.947 187.689 474.993 187.904 474.959C188.119 474.925 188.314 474.812 188.451 474.643C188.588 474.473 188.658 474.259 188.647 474.042L177.371 367.028L167.552 369.314Z" fill="#E1E7E9" stroke="#263238" stroke-linecap="round" stroke-linejoin="round"/>
<path d="M204.975 368.431L220.815 474.138C220.862 474.351 220.987 474.538 221.165 474.665C221.343 474.791 221.561 474.847 221.778 474.822C221.995 474.797 222.195 474.692 222.339 474.529C222.483 474.365 222.562 474.154 222.559 473.936L214.879 366.528L204.975 368.431Z" fill="#E1E7E9" stroke="#263238" stroke-linecap="round" stroke-linejoin="round"/>
<path d="M189.838 346.918C189.838 346.918 171.212 340.708 162.521 318.375C153.83 296.043 139.565 257.568 129.629 252.591C119.694 247.614 100.461 256.93 99.2167 292.917C97.9721 328.903 100.887 355.66 108.907 364.507C116.003 372.302 128.055 382.235 169.893 382.937C207.262 383.575 222.517 369.335 227.697 364.507C232.878 359.679 241.345 349.364 234.527 349.364C227.708 349.364 198.529 349.364 189.838 346.918Z" fill="#F37316" stroke="#263238" stroke-linecap="round" stroke-linejoin="round"/>
<path d="M275.843 126.041C275.843 126.041 268.577 117.534 258.482 115.949C248.387 114.365 247.707 129.083 260.61 135.538C264.229 137.202 268.24 137.828 272.194 137.346C272.194 137.346 261.886 149.522 268.556 151.468C283.449 155.85 280.258 132.901 280.258 132.901L275.843 126.041Z" fill="#E90C59" stroke="#263238" stroke-linecap="round" stroke-linejoin="round"/>
<path d="M278.29 125.456C278.29 125.456 274.035 115.13 277.226 105.411C280.417 95.6908 293.065 102.295 292.937 116.726C292.889 120.46 291.889 124.119 290.033 127.36C290.033 127.36 306.266 123.904 304.266 130.55C299.724 145.662 282.396 132.518 282.396 132.518L278.29 125.456Z" fill="#E90C59" stroke="#263238" stroke-linecap="round" stroke-linejoin="round"/>
<path d="M283.928 138.356C283.743 138.356 283.561 138.308 283.401 138.217C283.241 138.125 283.107 137.994 283.013 137.835L272.918 120.884C272.773 120.642 272.73 120.354 272.797 120.081C272.865 119.808 273.038 119.572 273.279 119.427C273.4 119.354 273.534 119.306 273.673 119.285C273.812 119.264 273.955 119.271 274.091 119.306C274.228 119.341 274.356 119.402 274.469 119.487C274.581 119.571 274.676 119.678 274.747 119.799L284.832 136.75C284.976 136.992 285.02 137.28 284.952 137.553C284.884 137.826 284.711 138.062 284.47 138.207C284.305 138.302 284.118 138.353 283.928 138.356Z" fill="#263238"/>
<path d="M274.641 122.362C274.641 122.362 271.003 114.694 264.546 113.854" stroke="#263238" stroke-linecap="round" stroke-linejoin="round"/>
<path d="M274.747 119.799C274.747 119.799 272.62 113.482 274.237 109.441" stroke="#263238" stroke-linecap="round" stroke-linejoin="round"/>
<path d="M268.311 126.967C267.929 128.838 265.12 129.859 262.078 129.242C259.036 128.625 256.834 126.594 257.217 124.723C257.599 122.851 260.408 121.819 263.45 122.447C266.492 123.074 268.694 125.084 268.311 126.967Z" fill="white" stroke="#263238" stroke-linecap="round" stroke-linejoin="round"/>
<path d="M275.917 140.153C276.981 140.866 276.981 142.865 275.779 144.641C274.577 146.417 272.726 147.31 271.662 146.545C270.599 145.779 270.599 143.833 271.801 142.057C273.003 140.281 274.779 139.441 275.917 140.153Z" fill="white" stroke="#263238" stroke-linecap="round" stroke-linejoin="round"/>
<path d="M298.033 131.252C298.033 132.55 296.352 133.624 294.235 133.656C292.119 133.687 290.395 132.656 290.374 131.359C290.353 130.061 292.055 128.987 294.172 128.955C296.288 128.923 298.012 129.965 298.033 131.252Z" fill="white" stroke="#263238" stroke-linecap="round" stroke-linejoin="round"/>
<path d="M284.927 120.15C283.023 120.363 281.194 118.023 280.853 114.907C280.513 111.791 281.779 109.122 283.683 108.909C285.587 108.697 287.406 111.036 287.746 114.152C288.087 117.268 286.831 119.937 284.927 120.15Z" fill="white" stroke="#263238" stroke-linecap="round" stroke-linejoin="round"/>
</svg>
