<svg width="60" height="60" viewBox="0 0 60 60" fill="none" xmlns="http://www.w3.org/2000/svg">
<circle cx="44.5" cy="40.5" r="4.5" fill="#E90C59"/>
<path d="M51.5 10L28 27.5L5 9.5V8H50.5L51.5 10Z" fill="#0C8CE9"/>
<path d="M30.825 39.5H7.30814L22.3576 24.5925L28.2381 29.075L34.1186 24.59L38.1642 28.5975C38.9725 28.1734 39.8213 27.8301 40.6981 27.5725L36.1351 23.0525L50.9524 11.75V28.55C51.8493 28.9918 52.6955 29.5282 53.4762 30.15V10.75C53.4735 9.75625 53.0738 8.80395 52.3644 8.10126C51.655 7.39857 50.6937 7.00264 49.6905 7H6.78571C5.7825 7.00264 4.82114 7.39857 4.11175 8.10126C3.40237 8.80395 3.00266 9.75625 3 10.75V38.25C3 39.2446 3.39885 40.1984 4.10881 40.9016C4.81877 41.6049 5.78168 42 6.78571 42H30.825C30.7871 41.5875 30.7619 41.1725 30.7619 40.75C30.7619 40.3275 30.7871 39.9125 30.825 39.5ZM5.52381 37.7325V11.7525L20.3411 23.0525L5.52381 37.7325ZM49.6905 9.5C49.7132 9.5 49.7309 9.5125 49.7536 9.5125L28.2381 25.925L6.72262 9.5125C6.74533 9.5125 6.763 9.5 6.78571 9.5H49.6905ZM44.6429 29.5C41.6318 29.5033 38.745 30.6896 36.6158 32.7987C34.4867 34.9078 33.2891 37.7673 33.2857 40.75C33.3037 41.1687 33.3458 41.5861 33.4119 42C33.7159 44.7428 35.0291 47.2786 37.1007 49.1232C39.1724 50.9678 41.8573 51.9919 44.6429 52H45.9048V49.5H44.6429C42.5241 49.4941 40.4783 48.733 38.8795 47.3559C37.2808 45.9788 36.2358 44.0776 35.9357 42C35.8631 41.5869 35.8209 41.1691 35.8095 40.75C35.8084 39.0272 36.3209 37.3425 37.2829 35.9073C38.2448 34.472 39.6133 33.3502 41.2166 32.6826C42.8198 32.0149 44.5865 31.8313 46.2947 32.1546C48.003 32.4779 49.5768 33.2939 50.8186 34.5H48.4286V35.7825C47.3427 34.9556 46.0125 34.505 44.6429 34.5C43.6086 34.4971 42.5896 34.7461 41.6753 35.225C40.7611 35.7039 39.9797 36.3981 39.3999 37.2465C38.8202 38.0949 38.4599 39.0714 38.3507 40.0901C38.2415 41.1089 38.3868 42.1386 38.7738 43.0886C39.1608 44.0386 39.7776 44.8799 40.5699 45.5383C41.3623 46.1967 42.3059 46.6521 43.3176 46.8643C44.3294 47.0766 45.3783 47.0393 46.3721 46.7556C47.3659 46.4719 48.274 45.9506 49.0166 45.2375C49.4513 45.9276 50.1012 46.4585 50.8678 46.7501C51.6344 47.0416 52.476 47.0778 53.2652 46.8532C54.0544 46.6285 54.7482 46.1554 55.2417 45.5052C55.7351 44.8551 56.0013 44.0634 56 43.25V40.75C55.964 37.7774 54.7559 34.9366 52.6337 32.8345C50.5116 30.7324 47.6438 29.5357 44.6429 29.5ZM44.6429 44.5C43.8625 44.4975 43.102 44.2559 42.4658 43.8083C41.8296 43.3607 41.3488 42.729 41.0893 42C40.9399 41.5997 40.8613 41.1768 40.8571 40.75C40.8571 39.7554 41.256 38.8016 41.966 38.0984C42.6759 37.3951 43.6388 37 44.6429 37C45.6469 37 46.6098 37.3951 47.3198 38.0984C48.0297 38.8016 48.4286 39.7554 48.4286 40.75C48.4244 41.1768 48.3458 41.5997 48.1964 42C47.937 42.729 47.4561 43.3607 46.8199 43.8083C46.1837 44.2559 45.4232 44.4975 44.6429 44.5ZM53.4762 43.25C53.4762 43.5815 53.3432 43.8995 53.1066 44.1339C52.8699 44.3683 52.549 44.5 52.2143 44.5C51.8796 44.5 51.5586 44.3683 51.322 44.1339C51.0853 43.8995 50.9524 43.5815 50.9524 43.25V34.6325C52.538 36.2862 53.4388 38.4695 53.4762 40.75V43.25Z" fill="#263238"/>
</svg>
