<svg width="20" height="21" viewBox="0 0 20 21" fill="none" xmlns="http://www.w3.org/2000/svg">
<path d="M10.45 13.992H2.46314L7.57429 9.02286L9.57143 10.517L11.5686 9.02202L12.9426 10.3579C13.2171 10.2165 13.5053 10.102 13.8031 10.0162L12.2534 8.50952L17.2857 4.74202V10.342C17.5903 10.4893 17.8777 10.6681 18.1429 10.8754V4.40869C18.142 4.07744 18.0062 3.76001 17.7653 3.52578C17.5244 3.29155 17.1979 3.15957 16.8571 3.15869H2.28571C1.945 3.15957 1.6185 3.29155 1.37758 3.52578C1.13665 3.76001 1.0009 4.07744 1 4.40869V13.5754C1 13.9069 1.13546 14.2248 1.37658 14.4592C1.6177 14.6937 1.94472 14.8254 2.28571 14.8254H10.45C10.4371 14.6879 10.4286 14.5495 10.4286 14.4087C10.4286 14.2679 10.4371 14.1295 10.45 13.992ZM1.85714 13.4029V4.74286L6.88943 8.50952L1.85714 13.4029ZM16.8571 3.99202C16.8649 3.99202 16.8709 3.99619 16.8786 3.99619L9.57143 9.46702L2.26429 3.99619C2.272 3.99619 2.278 3.99202 2.28571 3.99202H16.8571ZM15.1429 10.6587C14.1202 10.6598 13.1398 11.0552 12.4167 11.7583C11.6936 12.4613 11.2868 13.4145 11.2857 14.4087C11.2918 14.5483 11.3061 14.6874 11.3286 14.8254C11.4318 15.7396 11.8778 16.5849 12.5814 17.1998C13.285 17.8146 14.1968 18.156 15.1429 18.1587H15.5714V17.3254H15.1429C14.4233 17.3234 13.7285 17.0697 13.1855 16.6107C12.6425 16.1516 12.2876 15.5179 12.1857 14.8254C12.161 14.6877 12.1467 14.5484 12.1429 14.4087C12.1425 13.8344 12.3165 13.2729 12.6432 12.7944C12.9699 12.316 13.4347 11.9421 13.9792 11.7195C14.5237 11.497 15.1237 11.4358 15.7039 11.5436C16.284 11.6513 16.8185 11.9233 17.2403 12.3254H16.4286V12.7529C16.0598 12.4772 15.608 12.327 15.1429 12.3254C14.7916 12.3244 14.4455 12.4074 14.135 12.567C13.8245 12.7267 13.5591 12.9581 13.3622 13.2409C13.1653 13.5236 13.043 13.8492 13.0059 14.1887C12.9688 14.5283 13.0182 14.8715 13.1496 15.1882C13.281 15.5049 13.4905 15.7853 13.7596 16.0048C14.0287 16.2243 14.3492 16.3761 14.6928 16.4468C15.0364 16.5176 15.3926 16.5051 15.7302 16.4105C16.0677 16.316 16.3761 16.1422 16.6283 15.9045C16.7759 16.1345 16.9966 16.3115 17.257 16.4087C17.5173 16.5059 17.8032 16.5179 18.0712 16.4431C18.3392 16.3682 18.5749 16.2105 18.7425 15.9938C18.9101 15.7771 19.0005 15.5132 19 15.242V14.4087C18.9878 13.4178 18.5775 12.4709 17.8567 11.7702C17.136 11.0695 16.162 10.6706 15.1429 10.6587ZM15.1429 15.6587C14.8778 15.6579 14.6196 15.5773 14.4035 15.4281C14.1874 15.2789 14.0241 15.0684 13.936 14.8254C13.8852 14.6919 13.8586 14.551 13.8571 14.4087C13.8571 14.0772 13.9926 13.7592 14.2337 13.5248C14.4748 13.2904 14.8019 13.1587 15.1429 13.1587C15.4838 13.1587 15.8109 13.2904 16.052 13.5248C16.2931 13.7592 16.4286 14.0772 16.4286 14.4087C16.4271 14.551 16.4005 14.6919 16.3497 14.8254C16.2616 15.0684 16.0983 15.2789 15.8822 15.4281C15.6662 15.5773 15.4079 15.6579 15.1429 15.6587ZM18.1429 15.242C18.1429 15.3525 18.0977 15.4585 18.0173 15.5367C17.937 15.6148 17.8279 15.6587 17.7143 15.6587C17.6006 15.6587 17.4916 15.6148 17.4112 15.5367C17.3309 15.4585 17.2857 15.3525 17.2857 15.242V12.3695C17.8242 12.9208 18.1302 13.6485 18.1429 14.4087V15.242Z" fill="white" stroke="white" stroke-width="0.4"/>
</svg>
