<svg width="60" height="60" viewBox="0 0 60 60" fill="none" xmlns="http://www.w3.org/2000/svg">
<path fill-rule="evenodd" clip-rule="evenodd" d="M13.5 46.5002H46.4999V13.5002H13.5V46.5002Z" fill="white"/>
<path fill-rule="evenodd" clip-rule="evenodd" d="M41.9999 1.5H18C15.5145 1.5 13.5 3.5145 13.5 5.99999V13.5H46.4999V5.99999C46.4999 3.5145 44.4854 1.5 41.9999 1.5Z" fill="#0C8CE9"/>
<path fill-rule="evenodd" clip-rule="evenodd" d="M13.5 46.5V54C13.5 56.4855 15.5145 58.5 18 58.5H41.9999C44.4854 58.5 46.4999 56.4855 46.4999 54V46.5H13.5Z" fill="#E90C59"/>
<path fill-rule="evenodd" clip-rule="evenodd" d="M41.9999 1.5H18C15.5145 1.5 13.5 3.5145 13.5 5.99999V53.9999C13.5 56.4854 15.5145 58.4999 18 58.4999H41.9999C44.4854 58.4999 46.4999 56.4854 46.4999 53.9999V5.99999C46.4999 3.5145 44.4854 1.5 41.9999 1.5Z" stroke="#263238" stroke-width="2" stroke-linecap="round" stroke-linejoin="round"/>
<path d="M46.4999 46.5H13.5" stroke="#263238" stroke-width="2" stroke-linecap="round" stroke-linejoin="round"/>
<path d="M46.4999 13.5002H13.5" stroke="#263238" stroke-width="2" stroke-linecap="round" stroke-linejoin="round"/>
<path d="M34.6001 7.49976H25.6001" stroke="#263238" stroke-width="2" stroke-linecap="round" stroke-linejoin="round"/>
<path d="M28.4998 52.4995H31.4997" stroke="#263238" stroke-width="2" stroke-linecap="round" stroke-linejoin="round"/>
</svg>
