<svg width="24" height="24" viewBox="0 0 24 24" fill="none" xmlns="http://www.w3.org/2000/svg">
<path d="M12.3 22.0002H12.2C10.8285 21.9897 9.47293 21.7057 8.21257 21.1648C6.95222 20.624 5.81245 19.837 4.86001 18.8502C3.09385 16.9615 2.08989 14.4855 2.04187 11.9001C1.99386 9.3147 2.9052 6.80316 4.60001 4.85017C5.69189 3.62651 7.06454 2.68625 8.60001 2.11017C8.77917 2.04123 8.97439 2.02531 9.16235 2.06432C9.35032 2.10333 9.52308 2.19562 9.66001 2.33017C9.78682 2.45949 9.87614 2.62083 9.91841 2.79695C9.96068 2.97308 9.95432 3.15738 9.90001 3.33017C9.35196 4.8311 9.24338 6.45722 9.58701 8.01769C9.93063 9.57817 10.7122 11.0083 11.84 12.1402C12.9783 13.2645 14.4118 14.0434 15.9745 14.3868C17.5372 14.7301 19.1652 14.6238 20.67 14.0802C20.8491 14.0171 21.0425 14.0064 21.2275 14.0492C21.4125 14.092 21.5814 14.1866 21.7147 14.3219C21.8479 14.4572 21.9398 14.6276 21.9797 14.8133C22.0196 14.9989 22.0058 15.1921 21.94 15.3702C21.4292 16.7339 20.6311 17.9718 19.6 19.0002C18.6408 19.9565 17.5022 20.7138 16.2494 21.2286C14.9966 21.7435 13.6544 22.0057 12.3 22.0002Z" fill="#263238"/>
</svg>
