<svg width="97" height="96" viewBox="0 0 97 96" fill="none" xmlns="http://www.w3.org/2000/svg">
<g filter="url(#filter0_d_257_1044)">
<rect x="31.6599" width="48" height="80" rx="3" fill="white"/>
<rect x="32.1599" y="0.5" width="47" height="79" rx="2.5" stroke="#263238"/>
</g>
<path d="M34.6599 0.5H76.6599C78.0406 0.5 79.1599 1.61929 79.1599 3V6.5H32.1599V3C32.1599 1.61929 33.2792 0.5 34.6599 0.5Z" fill="#68A4EF" stroke="#263238"/>
<rect x="36.1599" y="32.5" width="39" height="7" fill="white" stroke="#263238"/>
<path d="M36.1599 42.5H75.1599V49.5H36.1599V42.5Z" fill="white" stroke="#263238"/>
<path d="M36.1599 52.5H75.1599V59.5H36.1599V52.5Z" fill="white" stroke="#263238"/>
<path d="M35.6599 69.5V62.5H74.6599V69.0333" stroke="#263238"/>
<rect x="18.1599" y="12.5" width="47" height="15" fill="white" stroke="#263238"/>
<rect x="23.6599" y="18" width="36" height="4" rx="2" fill="#BEC2C3"/>
<g clip-path="url(#clip0_257_1044)">
<path d="M40.1599 79.9997C40.1599 71.4394 47.0996 64.5 55.6599 64.5C64.2203 64.5 71.1599 71.4394 71.1599 79.9997C71.1599 88.5603 64.2202 95.5 55.6599 95.5C47.0996 95.5 40.1599 88.5603 40.1599 79.9997Z" fill="white" stroke="#263238"/>
<path fill-rule="evenodd" clip-rule="evenodd" d="M43.7615 73.7578C45.8801 69.746 49.9741 66.9153 54.7098 66.5901C55.0292 66.568 55.3454 66.5613 55.6599 66.5613V68.4858C55.626 68.4858 55.5922 68.4855 55.5583 68.4852C55.4906 68.4846 55.4229 68.4841 55.3546 68.4858C51.0937 68.5958 47.3682 71.0804 45.4731 74.6559L45.4734 74.656C44.6913 76.1318 44.2186 77.792 44.1518 79.5497C44.0788 81.4646 44.5418 83.4163 45.3223 85.023C45.5431 85.4774 45.378 86.0189 44.9274 86.2669L44.9102 86.2761C44.4094 86.5523 43.778 86.3491 43.5326 85.8441C42.5399 83.8038 42.0657 81.3398 42.2638 78.8861C42.4119 77.0496 42.937 75.3142 43.7594 73.7568L43.7615 73.7578Z" fill="#68A4EF"/>
<path fill-rule="evenodd" clip-rule="evenodd" d="M55.6599 68.4858V66.5613C60.9534 66.5622 65.5306 69.6198 67.7217 74.0675L67.7205 74.0681C68.6022 75.8563 69.0999 77.8674 69.0999 79.9962C69.0999 82.0416 68.6273 84.0608 67.7857 85.8314C67.5399 86.3482 66.9086 86.5555 66.4081 86.2733L66.3908 86.2637C65.9406 86.0096 65.7751 85.456 65.9956 84.9914C66.7153 83.4755 67.1751 81.7469 67.1751 79.9962C67.1751 78.0659 66.697 76.248 65.8574 74.6502L65.8602 74.6488C63.9342 70.983 60.0887 68.4861 55.6599 68.4858Z" fill="#F5617A"/>
<path d="M64.1587 71.0444L64.6154 71.5014L53.1923 83.8377L51.8218 82.4672L64.1587 71.0444Z" fill="#263238"/>
<path d="M55.6599 78.3997C54.7761 78.3997 54.0599 79.1158 54.0599 79.9997C54.0599 80.8835 54.7761 81.5997 55.6599 81.5997C56.5438 81.5997 57.2599 80.8835 57.2599 79.9997C57.2599 79.1158 56.5438 78.3997 55.6599 78.3997Z" fill="#263238"/>
<rect x="51.6599" y="90" width="8" height="1" fill="#263238"/>
</g>
<path d="M5.6499 70V68.9H7.3899V64.1C6.8399 64.45 6.2399 64.67 5.6499 64.83V63.69C6.4599 63.45 7.1399 63.12 7.6899 62.66H8.7799V68.9H10.4999V70H5.6499Z" fill="#F5617A"/>
<path d="M14.0859 70.11C11.7859 70.11 11.2959 68.28 11.2959 66.34C11.2959 64.41 11.7759 62.55 14.0759 62.55C16.3859 62.55 16.8759 64.38 16.8759 66.32C16.8759 68.25 16.3959 70.11 14.0859 70.11ZM14.0859 69.03C15.3559 69.03 15.4859 67.64 15.4859 66.33C15.4859 65.02 15.3559 63.63 14.0859 63.63C12.8059 63.63 12.6859 65.02 12.6859 66.33C12.6859 67.64 12.8059 69.03 14.0859 69.03Z" fill="#F5617A"/>
<path d="M20.3019 70.11C18.0019 70.11 17.5119 68.28 17.5119 66.34C17.5119 64.41 17.9919 62.55 20.2919 62.55C22.6019 62.55 23.0919 64.38 23.0919 66.32C23.0919 68.25 22.6119 70.11 20.3019 70.11ZM20.3019 69.03C21.5719 69.03 21.7019 67.64 21.7019 66.33C21.7019 65.02 21.5719 63.63 20.3019 63.63C19.0219 63.63 18.9019 65.02 18.9019 66.33C18.9019 67.64 19.0219 69.03 20.3019 69.03Z" fill="#F5617A"/>
<defs>
<filter id="filter0_d_257_1044" x="31.6599" y="0" width="51" height="83" filterUnits="userSpaceOnUse" color-interpolation-filters="sRGB">
<feFlood flood-opacity="0" result="BackgroundImageFix"/>
<feColorMatrix in="SourceAlpha" type="matrix" values="0 0 0 0 0 0 0 0 0 0 0 0 0 0 0 0 0 0 127 0" result="hardAlpha"/>
<feOffset dx="3" dy="3"/>
<feComposite in2="hardAlpha" operator="out"/>
<feColorMatrix type="matrix" values="0 0 0 0 0.14902 0 0 0 0 0.196078 0 0 0 0 0.219608 0 0 0 1 0"/>
<feBlend mode="normal" in2="BackgroundImageFix" result="effect1_dropShadow_257_1044"/>
<feBlend mode="normal" in="SourceGraphic" in2="effect1_dropShadow_257_1044" result="shape"/>
</filter>
<clipPath id="clip0_257_1044">
<rect width="32" height="32" fill="white" transform="translate(39.6599 64)"/>
</clipPath>
</defs>
</svg>
