<svg width="97" height="96" viewBox="0 0 97 96" fill="none" xmlns="http://www.w3.org/2000/svg">
<g filter="url(#filter0_d_205_91)">
<rect x="31.66" width="48" height="80" rx="3" fill="white"/>
<rect x="32.16" y="0.5" width="47" height="79" rx="2.5" stroke="#263238"/>
</g>
<path d="M32.16 3C32.16 1.61929 33.2793 0.5 34.66 0.5H76.66C78.0407 0.5 79.16 1.61929 79.16 3V6.5H32.16V3Z" fill="#0C8CE9" stroke="#263238"/>
<rect x="36.16" y="32.5" width="39" height="7" fill="white" stroke="#263238"/>
<path d="M36.16 42.5H75.16V49.5H36.16V42.5Z" fill="white" stroke="#263238"/>
<path d="M36.16 52.5H75.16V59.5H36.16V52.5Z" fill="white" stroke="#263238"/>
<path d="M35.66 69.5V62.5H74.66V69.0333" stroke="#263238"/>
<rect x="18.16" y="12.5" width="47" height="15" fill="white" stroke="#263238"/>
<rect x="23.66" y="18" width="36" height="4" rx="2" fill="#BEC2C3"/>
<g clip-path="url(#clip0_205_91)">
<path d="M40.16 79.9997C40.16 71.4394 47.0996 64.5 55.66 64.5C64.2203 64.5 71.16 71.4394 71.16 79.9997C71.16 88.5603 64.2203 95.5 55.66 95.5C47.0996 95.5 40.16 88.5603 40.16 79.9997Z" fill="white" stroke="#263238"/>
<path fill-rule="evenodd" clip-rule="evenodd" d="M43.7615 73.7578C45.8801 69.746 49.9742 66.9153 54.7099 66.5901C55.0293 66.568 55.3454 66.5613 55.66 66.5613V68.4858C55.6261 68.4858 55.5922 68.4855 55.5584 68.4852C55.4907 68.4846 55.423 68.4841 55.3547 68.4858C51.0938 68.5958 47.3683 71.0804 45.4732 74.6559L45.4734 74.656C44.6913 76.1318 44.2187 77.792 44.1518 79.5497C44.0789 81.4646 44.5419 83.4163 45.3224 85.023C45.5432 85.4774 45.3781 86.0189 44.9275 86.2669L44.9102 86.2761C44.4094 86.5523 43.7781 86.3491 43.5326 85.8441C42.54 83.8038 42.0657 81.3398 42.2638 78.8861C42.412 77.0496 42.9371 75.3142 43.7595 73.7568L43.7615 73.7578Z" fill="#0C8CE9"/>
<path fill-rule="evenodd" clip-rule="evenodd" d="M55.66 68.4858V66.5613C60.9534 66.5622 65.5307 69.6198 67.7217 74.0675L67.7206 74.0681C68.6022 75.8563 69.1 77.8674 69.1 79.9962C69.1 82.0416 68.6273 84.0608 67.7857 85.8314C67.54 86.3482 66.9086 86.5555 66.4081 86.2733L66.3909 86.2637C65.9406 86.0096 65.7752 85.456 65.9957 84.9914C66.7153 83.4755 67.1752 81.7469 67.1752 79.9962C67.1752 78.0659 66.6971 76.248 65.8574 74.6502L65.8602 74.6488C63.9342 70.983 60.0888 68.4861 55.66 68.4858Z" fill="#E90C59"/>
<path d="M64.1589 71.0444L64.6155 71.5014L53.1925 83.8377L51.8219 82.4672L64.1589 71.0444Z" fill="#263238"/>
<path d="M55.66 78.3997C54.7761 78.3997 54.06 79.1158 54.06 79.9997C54.06 80.8835 54.7761 81.5997 55.66 81.5997C56.5438 81.5997 57.26 80.8835 57.26 79.9997C57.26 79.1158 56.5438 78.3997 55.66 78.3997Z" fill="#263238"/>
<rect x="51.66" y="90" width="8" height="1" fill="#263238"/>
</g>
<path d="M5.64996 70V68.9H7.38996V64.1C6.83996 64.45 6.23996 64.67 5.64996 64.83V63.69C6.45996 63.45 7.13996 63.12 7.68996 62.66H8.77996V68.9H10.5V70H5.64996Z" fill="#E90C59"/>
<path d="M14.086 70.11C11.786 70.11 11.296 68.28 11.296 66.34C11.296 64.41 11.776 62.55 14.076 62.55C16.386 62.55 16.876 64.38 16.876 66.32C16.876 68.25 16.396 70.11 14.086 70.11ZM14.086 69.03C15.356 69.03 15.486 67.64 15.486 66.33C15.486 65.02 15.356 63.63 14.086 63.63C12.806 63.63 12.686 65.02 12.686 66.33C12.686 67.64 12.806 69.03 14.086 69.03Z" fill="#E90C59"/>
<path d="M20.302 70.11C18.002 70.11 17.512 68.28 17.512 66.34C17.512 64.41 17.992 62.55 20.292 62.55C22.602 62.55 23.092 64.38 23.092 66.32C23.092 68.25 22.612 70.11 20.302 70.11ZM20.302 69.03C21.572 69.03 21.702 67.64 21.702 66.33C21.702 65.02 21.572 63.63 20.302 63.63C19.022 63.63 18.902 65.02 18.902 66.33C18.902 67.64 19.022 69.03 20.302 69.03Z" fill="#E90C59"/>
<defs>
<filter id="filter0_d_205_91" x="31.66" y="0" width="51" height="83" filterUnits="userSpaceOnUse" color-interpolation-filters="sRGB">
<feFlood flood-opacity="0" result="BackgroundImageFix"/>
<feColorMatrix in="SourceAlpha" type="matrix" values="0 0 0 0 0 0 0 0 0 0 0 0 0 0 0 0 0 0 127 0" result="hardAlpha"/>
<feOffset dx="3" dy="3"/>
<feComposite in2="hardAlpha" operator="out"/>
<feColorMatrix type="matrix" values="0 0 0 0 0.14902 0 0 0 0 0.196078 0 0 0 0 0.219608 0 0 0 1 0"/>
<feBlend mode="normal" in2="BackgroundImageFix" result="effect1_dropShadow_205_91"/>
<feBlend mode="normal" in="SourceGraphic" in2="effect1_dropShadow_205_91" result="shape"/>
</filter>
<clipPath id="clip0_205_91">
<rect width="32" height="32" fill="white" transform="translate(39.66 64)"/>
</clipPath>
</defs>
</svg>
