<svg width="100" height="99" viewBox="0 0 100 99" fill="none" xmlns="http://www.w3.org/2000/svg">
<g filter="url(#filter0_d_205_118)">
<rect x="6.32999" width="90" height="64" rx="3" fill="white"/>
<rect x="6.82999" y="0.5" width="89" height="63" rx="2.5" stroke="#263238"/>
</g>
<g filter="url(#filter1_d_205_118)">
<rect x="24.33" y="52" width="72" height="44" rx="3" fill="white"/>
<rect x="24.83" y="52.5" width="71" height="43" rx="2.5" stroke="#263238"/>
</g>
<rect x="75.33" y="92" width="32" height="3" rx="1.5" transform="rotate(-90 75.33 92)" fill="#BEC2C3"/>
<rect x="80.33" y="92" width="24" height="3" rx="1.5" transform="rotate(-90 80.33 92)" fill="#BEC2C3"/>
<rect x="35.83" y="56.5" width="35" height="35" fill="white" stroke="#263238"/>
<path d="M24.83 55C24.83 53.6193 25.9493 52.5 27.33 52.5H30.83V95.5H27.33C25.9493 95.5 24.83 94.3807 24.83 93V55Z" fill="#E90C59" stroke="#263238"/>
<path d="M6.82999 3C6.82999 1.61929 7.94927 0.5 9.32999 0.5H93.33C94.7107 0.5 95.83 1.61929 95.83 3V6.5H6.82999V3Z" fill="white" stroke="#263238"/>
<rect x="11.83" y="14.5" width="33" height="33" fill="white" stroke="#263238"/>
<g filter="url(#filter2_d_205_118)">
<rect x="0.329987" y="24" width="32" height="64" rx="3" fill="white"/>
<rect x="0.829987" y="24.5" width="31" height="63" rx="2.5" stroke="#263238"/>
</g>
<circle cx="90.33" cy="74" r="2" fill="#0C8CE9" stroke="#263238"/>
<rect x="10.33" y="83" width="12" height="1" rx="0.5" fill="#263238"/>
<circle cx="90.83" cy="3.5" r="1" fill="#0C8CE9" stroke="#263238"/>
<circle cx="86.83" cy="3.5" r="1" fill="#0C8CE9" stroke="#263238"/>
<circle cx="82.83" cy="3.5" r="1" fill="#0C8CE9" stroke="#263238"/>
<path d="M0.829987 27C0.829987 25.6193 1.94927 24.5 3.32999 24.5H29.33C30.7107 24.5 31.83 25.6193 31.83 27V30.5H0.829987V27Z" fill="#0C8CE9" stroke="#263238"/>
<rect x="3.82999" y="33.5" width="25" height="25" fill="white" stroke="#263238"/>
<rect x="3.32999" y="63" width="24" height="2" rx="1" fill="#BEC2C3"/>
<rect x="52.33" y="16" width="28" height="3" rx="1.5" fill="#BEC2C3"/>
<rect x="3.32999" y="67" width="16" height="2" rx="1" fill="#BEC2C3"/>
<rect x="52.33" y="21" width="20" height="3" rx="1.5" fill="#BEC2C3"/>
<rect x="52.33" y="29" width="9" height="2" rx="1" fill="#BEC2C3"/>
<rect x="62.33" y="29" width="10" height="2" rx="1" fill="#BEC2C3"/>
<rect x="73.33" y="29" width="8" height="2" rx="1" fill="#BEC2C3"/>
<rect x="52.33" y="32" width="12" height="2" rx="1" fill="#BEC2C3"/>
<rect x="65.33" y="32" width="10" height="2" rx="1" fill="#BEC2C3"/>
<defs>
<filter id="filter0_d_205_118" x="6.32999" y="0" width="93" height="67" filterUnits="userSpaceOnUse" color-interpolation-filters="sRGB">
<feFlood flood-opacity="0" result="BackgroundImageFix"/>
<feColorMatrix in="SourceAlpha" type="matrix" values="0 0 0 0 0 0 0 0 0 0 0 0 0 0 0 0 0 0 127 0" result="hardAlpha"/>
<feOffset dx="3" dy="3"/>
<feComposite in2="hardAlpha" operator="out"/>
<feColorMatrix type="matrix" values="0 0 0 0 0.14902 0 0 0 0 0.196078 0 0 0 0 0.219608 0 0 0 1 0"/>
<feBlend mode="normal" in2="BackgroundImageFix" result="effect1_dropShadow_205_118"/>
<feBlend mode="normal" in="SourceGraphic" in2="effect1_dropShadow_205_118" result="shape"/>
</filter>
<filter id="filter1_d_205_118" x="24.33" y="52" width="75" height="47" filterUnits="userSpaceOnUse" color-interpolation-filters="sRGB">
<feFlood flood-opacity="0" result="BackgroundImageFix"/>
<feColorMatrix in="SourceAlpha" type="matrix" values="0 0 0 0 0 0 0 0 0 0 0 0 0 0 0 0 0 0 127 0" result="hardAlpha"/>
<feOffset dx="3" dy="3"/>
<feComposite in2="hardAlpha" operator="out"/>
<feColorMatrix type="matrix" values="0 0 0 0 0.14902 0 0 0 0 0.196078 0 0 0 0 0.219608 0 0 0 1 0"/>
<feBlend mode="normal" in2="BackgroundImageFix" result="effect1_dropShadow_205_118"/>
<feBlend mode="normal" in="SourceGraphic" in2="effect1_dropShadow_205_118" result="shape"/>
</filter>
<filter id="filter2_d_205_118" x="0.329987" y="24" width="35" height="67" filterUnits="userSpaceOnUse" color-interpolation-filters="sRGB">
<feFlood flood-opacity="0" result="BackgroundImageFix"/>
<feColorMatrix in="SourceAlpha" type="matrix" values="0 0 0 0 0 0 0 0 0 0 0 0 0 0 0 0 0 0 127 0" result="hardAlpha"/>
<feOffset dx="3" dy="3"/>
<feComposite in2="hardAlpha" operator="out"/>
<feColorMatrix type="matrix" values="0 0 0 0 0.14902 0 0 0 0 0.196078 0 0 0 0 0.219608 0 0 0 1 0"/>
<feBlend mode="normal" in2="BackgroundImageFix" result="effect1_dropShadow_205_118"/>
<feBlend mode="normal" in="SourceGraphic" in2="effect1_dropShadow_205_118" result="shape"/>
</filter>
</defs>
</svg>
