<svg width="100" height="99" viewBox="0 0 100 99" fill="none" xmlns="http://www.w3.org/2000/svg">
<g filter="url(#filter0_d_257_1016)">
<rect x="6.33008" width="90" height="64" rx="3" fill="white"/>
<rect x="6.83008" y="0.5" width="89" height="63" rx="2.5" stroke="#263238"/>
</g>
<g filter="url(#filter1_d_257_1016)">
<rect x="24.3301" y="52" width="72" height="44" rx="3" fill="white"/>
<rect x="24.8301" y="52.5" width="71" height="43" rx="2.5" stroke="#263238"/>
</g>
<rect x="75.3301" y="92" width="32" height="3" rx="1.5" transform="rotate(-90 75.3301 92)" fill="#BEC2C3"/>
<rect x="80.3301" y="92" width="24" height="3" rx="1.5" transform="rotate(-90 80.3301 92)" fill="#BEC2C3"/>
<rect x="35.8301" y="56.5" width="35" height="35" fill="white" stroke="#263238"/>
<path d="M27.3301 52.5H30.8301V95.5H27.3301C25.9494 95.5 24.8301 94.3807 24.8301 93V55C24.8301 53.6193 25.9494 52.5 27.3301 52.5Z" fill="#F5617A" stroke="#263238"/>
<path d="M9.33008 0.5H93.3301C94.7108 0.5 95.8301 1.61929 95.8301 3V6.5H6.83008V3C6.83008 1.61929 7.94937 0.5 9.33008 0.5Z" fill="white" stroke="#263238"/>
<rect x="11.8301" y="14.5" width="33" height="33" fill="white" stroke="#263238"/>
<g filter="url(#filter2_d_257_1016)">
<rect x="0.330078" y="24" width="32" height="64" rx="3" fill="white"/>
<rect x="0.830078" y="24.5" width="31" height="63" rx="2.5" stroke="#263238"/>
</g>
<circle cx="90.3301" cy="74" r="2" fill="#68A4EF" stroke="#263238"/>
<rect x="10.3301" y="83" width="12" height="1" rx="0.5" fill="#263238"/>
<circle cx="90.8301" cy="3.5" r="1" fill="#68A4EF" stroke="#263238"/>
<circle cx="86.8301" cy="3.5" r="1" fill="#68A4EF" stroke="#263238"/>
<circle cx="82.8301" cy="3.5" r="1" fill="#68A4EF" stroke="#263238"/>
<path d="M3.33008 24.5H29.3301C30.7108 24.5 31.8301 25.6193 31.8301 27V30.5H0.830078V27C0.830078 25.6193 1.94937 24.5 3.33008 24.5Z" fill="#68A4EF" stroke="#263238"/>
<rect x="3.83008" y="33.5" width="25" height="25" fill="white" stroke="#263238"/>
<rect x="3.33008" y="63" width="24" height="2" rx="1" fill="#BEC2C3"/>
<rect x="52.3301" y="16" width="28" height="3" rx="1.5" fill="#BEC2C3"/>
<rect x="3.33008" y="67" width="16" height="2" rx="1" fill="#BEC2C3"/>
<rect x="52.3301" y="21" width="20" height="3" rx="1.5" fill="#BEC2C3"/>
<rect x="52.3301" y="29" width="9" height="2" rx="1" fill="#BEC2C3"/>
<rect x="62.3301" y="29" width="10" height="2" rx="1" fill="#BEC2C3"/>
<rect x="73.3301" y="29" width="8" height="2" rx="1" fill="#BEC2C3"/>
<rect x="52.3301" y="32" width="12" height="2" rx="1" fill="#BEC2C3"/>
<rect x="65.3301" y="32" width="10" height="2" rx="1" fill="#BEC2C3"/>
<defs>
<filter id="filter0_d_257_1016" x="6.33008" y="0" width="93" height="67" filterUnits="userSpaceOnUse" color-interpolation-filters="sRGB">
<feFlood flood-opacity="0" result="BackgroundImageFix"/>
<feColorMatrix in="SourceAlpha" type="matrix" values="0 0 0 0 0 0 0 0 0 0 0 0 0 0 0 0 0 0 127 0" result="hardAlpha"/>
<feOffset dx="3" dy="3"/>
<feComposite in2="hardAlpha" operator="out"/>
<feColorMatrix type="matrix" values="0 0 0 0 0.14902 0 0 0 0 0.196078 0 0 0 0 0.219608 0 0 0 1 0"/>
<feBlend mode="normal" in2="BackgroundImageFix" result="effect1_dropShadow_257_1016"/>
<feBlend mode="normal" in="SourceGraphic" in2="effect1_dropShadow_257_1016" result="shape"/>
</filter>
<filter id="filter1_d_257_1016" x="24.3301" y="52" width="75" height="47" filterUnits="userSpaceOnUse" color-interpolation-filters="sRGB">
<feFlood flood-opacity="0" result="BackgroundImageFix"/>
<feColorMatrix in="SourceAlpha" type="matrix" values="0 0 0 0 0 0 0 0 0 0 0 0 0 0 0 0 0 0 127 0" result="hardAlpha"/>
<feOffset dx="3" dy="3"/>
<feComposite in2="hardAlpha" operator="out"/>
<feColorMatrix type="matrix" values="0 0 0 0 0.14902 0 0 0 0 0.196078 0 0 0 0 0.219608 0 0 0 1 0"/>
<feBlend mode="normal" in2="BackgroundImageFix" result="effect1_dropShadow_257_1016"/>
<feBlend mode="normal" in="SourceGraphic" in2="effect1_dropShadow_257_1016" result="shape"/>
</filter>
<filter id="filter2_d_257_1016" x="0.330078" y="24" width="35" height="67" filterUnits="userSpaceOnUse" color-interpolation-filters="sRGB">
<feFlood flood-opacity="0" result="BackgroundImageFix"/>
<feColorMatrix in="SourceAlpha" type="matrix" values="0 0 0 0 0 0 0 0 0 0 0 0 0 0 0 0 0 0 127 0" result="hardAlpha"/>
<feOffset dx="3" dy="3"/>
<feComposite in2="hardAlpha" operator="out"/>
<feColorMatrix type="matrix" values="0 0 0 0 0.14902 0 0 0 0 0.196078 0 0 0 0 0.219608 0 0 0 1 0"/>
<feBlend mode="normal" in2="BackgroundImageFix" result="effect1_dropShadow_257_1016"/>
<feBlend mode="normal" in="SourceGraphic" in2="effect1_dropShadow_257_1016" result="shape"/>
</filter>
</defs>
</svg>
