<svg width="500" height="482" viewBox="0 0 500 482" fill="none" xmlns="http://www.w3.org/2000/svg">
<path d="M485.204 189.939C429.701 94.9541 279.148 128.781 248.402 82.586C232.653 58.9649 215.037 31.5094 189.483 17.2525C165.125 3.59871 136.885 -1.19151 112.265 0.606245C24.3424 7.03492 -12.9287 85.6354 3.95886 171.95C26.506 287.086 128.651 404.702 249.996 405.522C313.47 405.999 374.119 383.243 421.605 351.236L422.664 350.519C470.15 318.217 527.588 262.452 485.204 189.939Z" fill="#0C8CE9" fill-opacity="0.1"/>
<g filter="url(#filter0_d_104_560)">
<path d="M455.585 103.931V308.807C455.585 315.504 452.923 321.927 448.185 326.664C443.446 331.401 437.019 334.063 430.316 334.066H69.6759C62.9731 334.063 56.5459 331.401 51.8075 326.664C47.069 321.927 44.4071 315.504 44.4071 308.807V103.931C44.4071 103.328 44.4071 102.794 44.4868 102.156C44.9308 95.7832 47.7772 89.8154 52.452 85.457C57.1268 81.0985 63.282 78.6737 69.6759 78.6719H430.316C436.717 78.6745 442.879 81.1056 447.555 85.4736C452.231 89.8416 455.072 95.8206 455.505 102.202C455.562 102.748 455.585 103.34 455.585 103.931Z" fill="white"/>
<path d="M455.585 103.931V308.807C455.585 315.504 452.923 321.927 448.185 326.664C443.446 331.401 437.019 334.063 430.316 334.066H69.6759C62.9731 334.063 56.5459 331.401 51.8075 326.664C47.069 321.927 44.4071 315.504 44.4071 308.807V103.931C44.4071 103.328 44.4071 102.794 44.4868 102.156C44.9308 95.7832 47.7772 89.8154 52.452 85.457C57.1268 81.0985 63.282 78.6737 69.6759 78.6719H430.316C436.717 78.6745 442.879 81.1056 447.555 85.4736C452.231 89.8416 455.072 95.8206 455.505 102.202C455.562 102.748 455.585 103.34 455.585 103.931Z" stroke="#263238" stroke-width="1.1" stroke-linecap="round" stroke-linejoin="round"/>
</g>
<path d="M56.7056 111.623H444.573V300.876C444.573 307.153 442.078 313.173 437.636 317.611C433.194 322.049 427.169 324.543 420.888 324.543H80.3915C74.1096 324.543 68.085 322.049 63.643 317.611C59.201 313.173 56.7056 307.153 56.7056 300.876V111.623Z" fill="#F6F7F9"/>
<path d="M221.687 224.988C223.039 212.32 226.516 200.313 231.9 189.714C235.831 182.02 240.706 175.124 247.796 171.636C250.633 170.225 253.856 169.523 256.756 171.05C258.262 171.918 259.579 173.256 260.567 174.923C261.856 176.995 262.342 179.654 262.754 182.104C263.198 184.88 263.496 187.679 264.018 190.433C264.704 194.085 265.327 197.73 265.727 201.419C266.596 208.486 266.525 215.601 265.515 222.479C264.564 228.384 262.672 233.888 260.906 239.406C259.097 245.083 257.184 250.878 259.187 257.242C261.079 263.217 266.282 266.02 271.035 265.124C276.173 264.167 279.828 259.415 282.634 254.493C285.667 249.137 288.18 243.336 290.125 237.199C292.06 230.924 293.459 224.38 294.303 217.665C295.994 205.255 296.94 191.379 304.63 182.508C307.834 178.802 312.085 176.123 316.759 176.638C318.753 176.912 320.711 177.664 322.521 178.853C324.331 180.042 325.958 181.644 327.308 183.568C330.235 187.605 332.254 192.486 333.142 197.672C334.274 204.158 333.719 210.88 332.554 217.107C331.477 222.873 330.063 228.509 328.323 233.973C327.301 237.177 326.115 240.256 325.022 243.446C322.393 251.042 319.622 259.203 319.349 267.735C319.263 271.443 319.677 275.307 321.44 278.601C322.364 280.22 323.544 281.602 324.901 282.655C326.258 283.709 327.761 284.41 329.311 284.713C332.673 285.437 336.052 284.058 338.879 282.2C342.293 279.861 345.416 276.967 348.173 273.589C353.25 267.576 358.035 260.635 361.141 252.743C364.629 243.934 365.593 233.648 369.583 225.131C371.681 220.531 374.708 216.724 378.393 214.048C379.763 213.047 381.345 212.52 382.984 212.518C384.399 212.611 385.794 213.179 387.016 214.16C389.861 216.45 391.801 220.173 393.037 224.033C393.658 226.021 394.07 228.082 394.262 230.165C394.501 232.77 394.227 235.771 394.16 238.535C393.806 253.061 394.295 268.012 397.872 282.316C398.947 286.617 400.325 291.243 402.853 294.651C404.13 296.477 405.818 297.794 407.672 298.413C408.846 298.722 410.043 298.745 411.192 298.48C412.341 298.214 413.42 297.667 414.367 296.868C418.798 293.406 419.97 286.755 420.901 280.684C420.928 280.139 420.78 279.586 420.487 279.147C420.195 278.707 419.781 278.415 419.336 278.334C418.892 278.27 418.458 278.419 418.122 278.748C417.787 279.078 417.576 279.564 417.534 280.104C416.716 285.437 415.469 293.142 410.392 294.394C409.645 294.605 408.855 294.578 408.092 294.317C407.329 294.056 406.618 293.568 406.023 292.898C404.815 291.486 403.839 289.803 403.154 287.952C401.166 283.077 400.18 277.847 399.32 272.469C398.166 265.021 397.551 257.507 397.483 250.016C397.43 246.289 397.468 242.572 397.554 238.865C397.737 235.923 397.762 232.956 397.628 229.983C397.227 225.416 395.908 220.967 393.793 217.042C391.857 213.429 389.048 210.176 385.658 208.939C381.526 207.431 377.811 209.177 374.602 212.002C371.079 215.144 368.212 219.249 366.201 224.028C364.449 228.428 363.029 233.038 361.958 237.804C360.758 242.621 359.55 247.508 357.67 251.934C356.13 255.418 354.324 258.699 352.275 261.734C349.947 265.334 347.393 268.696 344.632 271.792C341.929 274.766 338.986 277.642 335.589 279.422C334.245 280.19 332.783 280.641 331.273 280.756C330.642 280.795 330.004 280.732 329.375 280.568C328.702 280.386 328.042 280.111 327.41 279.747C326.812 279.442 326.249 279.029 325.74 278.523L325.352 278.136L325.164 277.937C324.917 277.636 324.684 277.317 324.468 276.981C323.761 275.839 323.264 274.531 323.014 273.156C322.363 269.761 322.682 266.025 323.268 262.593C324.045 258.401 325.092 254.313 326.401 250.368C327.574 246.664 328.89 243.04 330.168 239.396C331.506 235.616 332.606 231.746 333.637 227.828C336.764 215.824 339.054 202.234 334.385 189.688C330.55 179.423 322.27 171.005 312.996 172.64C302.697 174.456 296.397 186.239 293.859 197.726C292.409 204.244 291.749 211.033 290.817 217.697C289.946 224.307 288.491 230.731 286.478 236.859C284.508 242.847 281.935 248.465 278.815 253.587C276.195 257.886 272.426 261.971 267.516 260.994C266.496 260.822 265.51 260.338 264.65 259.588C263.789 258.837 263.081 257.843 262.591 256.698C261.63 254.16 261.376 251.355 261.868 248.74C262.337 245.768 263.471 242.918 264.36 240.15C265.248 237.381 266.143 234.654 266.931 231.851C268.672 225.783 269.598 219.344 269.675 212.775C269.66 205.321 268.908 197.834 267.435 190.48C266.387 185.073 266.366 178.909 263.95 173.95C262.973 171.874 261.625 170.08 260.017 168.717C258.409 167.354 256.588 166.46 254.702 166.109C251.09 165.518 247.505 166.845 244.422 168.761C241.185 170.808 238.241 173.451 235.685 176.605C232.79 180.3 230.284 184.437 228.222 188.93C225.574 194.399 223.394 200.219 221.715 206.303C220.107 212.15 218.97 218.212 218.32 224.408C218.054 226.992 221.407 227.617 221.688 224.996L221.687 224.988Z" fill="#E1E7E9" stroke="#E1E7E9" stroke-width="8"/>
<path d="M455.505 102.202H44.4868C44.9308 95.8286 47.7772 89.8608 52.452 85.5024C57.1268 81.1439 63.282 78.7191 69.6759 78.7173H430.316C436.71 78.7191 442.865 81.1439 447.54 85.5024C452.215 89.8608 455.061 95.8286 455.505 102.202Z" fill="#0C8CE9" stroke="#263238" stroke-width="1.1" stroke-miterlimit="10"/>
<path d="M94.9901 90.414C94.9901 91.2984 94.7276 92.163 94.2359 92.8983C93.7441 93.6337 93.0452 94.2068 92.2274 94.5452C91.4097 94.8837 90.5099 94.9722 89.6417 94.7997C88.7736 94.6272 87.9762 94.2013 87.3503 93.5759C86.7245 92.9506 86.2982 92.1538 86.1255 91.2864C85.9529 90.419 86.0415 89.5199 86.3802 88.7028C86.7189 87.8857 87.2925 87.1873 88.0285 86.696C88.7644 86.2046 89.6297 85.9424 90.5148 85.9424C91.7017 85.9424 92.84 86.4135 93.6793 87.2521C94.5186 88.0907 94.9901 89.2281 94.9901 90.414Z" fill="#263238"/>
<path d="M113.916 90.414C113.916 91.2984 113.654 92.163 113.162 92.8983C112.67 93.6337 111.971 94.2068 111.153 94.5452C110.336 94.8837 109.436 94.9722 108.568 94.7997C107.7 94.6272 106.902 94.2013 106.276 93.5759C105.65 92.9506 105.224 92.1538 105.052 91.2864C104.879 90.419 104.968 89.5199 105.306 88.7028C105.645 87.8857 106.219 87.1873 106.955 86.696C107.69 86.2046 108.556 85.9424 109.441 85.9424C110.628 85.9424 111.766 86.4135 112.605 87.2521C113.445 88.0907 113.916 89.2281 113.916 90.414Z" fill="#263238"/>
<path d="M128.367 94.8856C130.838 94.8856 132.842 92.8836 132.842 90.414C132.842 87.9444 130.838 85.9424 128.367 85.9424C125.895 85.9424 123.891 87.9444 123.891 90.414C123.891 92.8836 125.895 94.8856 128.367 94.8856Z" fill="#263238"/>
<path d="M444.573 111.623V300.876C444.573 307.153 442.078 313.173 437.636 317.611C433.194 322.049 427.169 324.543 420.887 324.543H80.4028C74.9201 324.542 69.6076 322.64 65.3713 319.163C61.135 315.685 58.2373 310.847 57.1724 305.473V305.405C56.8829 303.905 56.738 302.381 56.7396 300.854V111.623H444.573Z" stroke="#263238" stroke-width="1.1" stroke-miterlimit="10"/>
<path d="M393.216 66.1216V132.707C393.216 135.043 392.755 137.357 391.86 139.515C390.965 141.673 389.653 143.634 387.999 145.286C386.345 146.938 384.381 148.247 382.221 149.14C380.06 150.033 377.744 150.492 375.406 150.491H221.926C219.588 150.492 217.272 150.033 215.111 149.14C212.95 148.247 210.987 146.938 209.333 145.286C207.679 143.634 206.367 141.673 205.472 139.515C204.577 137.357 204.116 135.043 204.116 132.707V66.1216C204.119 61.4029 205.996 56.8783 209.336 53.5417C212.675 50.205 217.203 48.3292 221.926 48.3262H375.406C380.129 48.3262 384.659 50.201 387.999 53.5383C391.339 56.8756 393.216 61.402 393.216 66.1216Z" fill="white" stroke="#263238" stroke-width="1.1" stroke-miterlimit="10"/>
<path d="M393.216 66.1216V67.6463H204.116V66.1216C204.119 61.4029 205.996 56.8783 209.336 53.5417C212.675 50.205 217.203 48.3292 221.926 48.3262H375.406C380.129 48.3262 384.659 50.201 387.999 53.5383C391.339 56.8756 393.216 61.402 393.216 66.1216Z" fill="#0C8CE9" stroke="#263238" stroke-width="1.1" stroke-miterlimit="10"/>
<path d="M231.901 61.1721C231.519 61.5546 231.032 61.8154 230.502 61.9213C229.972 62.0272 229.422 61.9735 228.922 61.767C228.422 61.5605 227.995 61.2105 227.695 60.7613C227.394 60.3121 227.234 59.7838 227.234 59.2435C227.234 58.7031 227.394 58.1749 227.695 57.7256C227.995 57.2764 228.422 56.9264 228.922 56.7199C229.422 56.5134 229.972 56.4597 230.502 56.5657C231.032 56.6716 231.519 56.9323 231.901 57.3149C232.41 57.8282 232.695 58.5213 232.695 59.2435C232.695 59.9657 232.41 60.6587 231.901 61.1721Z" fill="#263238"/>
<path d="M244.564 61.1721C244.182 61.5546 243.695 61.8154 243.165 61.9213C242.635 62.0272 242.085 61.9735 241.585 61.767C241.085 61.5605 240.658 61.2105 240.357 60.7613C240.057 60.3121 239.896 59.7838 239.896 59.2435C239.896 58.7031 240.057 58.1749 240.357 57.7256C240.658 57.2764 241.085 56.9264 241.585 56.7199C242.085 56.5134 242.635 56.4597 243.165 56.5657C243.695 56.6716 244.182 56.9323 244.564 57.3149C245.073 57.8282 245.358 58.5213 245.358 59.2435C245.358 59.9657 245.073 60.6587 244.564 61.1721Z" fill="#263238"/>
<path d="M257.227 61.1721C256.845 61.5546 256.358 61.8154 255.828 61.9213C255.297 62.0272 254.748 61.9735 254.248 61.767C253.748 61.5605 253.321 61.2105 253.02 60.7613C252.72 60.3121 252.559 59.7838 252.559 59.2435C252.559 58.7031 252.72 58.1749 253.02 57.7256C253.321 57.2764 253.748 56.9264 254.248 56.7199C254.748 56.5134 255.297 56.4597 255.828 56.5657C256.358 56.6716 256.845 56.9323 257.227 57.3149C257.735 57.8282 258.021 58.5213 258.021 59.2435C258.021 59.9657 257.735 60.6587 257.227 61.1721Z" fill="#263238"/>
<path d="M277.986 79.8894H216.175V133.276H277.986V79.8894Z" stroke="#263238" stroke-width="1.1" stroke-linecap="round" stroke-linejoin="round" stroke-dasharray="4.41 4.41"/>
<path d="M358.655 79.8894H287.518V83.6442H358.655V79.8894Z" fill="#E1E7E9"/>
<path d="M342.086 87.6606H287.518V91.4041H342.086V87.6606Z" fill="#E1E7E9"/>
<path d="M368.767 95.3979H287.518V99.1869H368.767V95.3979Z" fill="#E1E7E9"/>
<path d="M356.708 102.941H287.518V106.73H356.708V102.941Z" fill="#E1E7E9"/>
<path d="M303.358 453.185C303.358 453.185 270.334 462.64 265.722 464.278C261.531 465.758 250.167 469.74 241.638 468.5C240.814 468.381 240 468.207 239.201 467.976C230.558 465.405 226.675 463.004 225.536 457.577C224.397 452.149 228.701 448.144 232.847 445.584C236.992 443.024 259.47 440.35 259.47 440.35L264.902 441.943L303.358 453.185Z" fill="white"/>
<path d="M241.638 468.5C240.814 468.381 240 468.207 239.201 467.976C230.558 465.405 226.675 463.004 225.536 457.577C224.397 452.149 228.701 448.144 232.847 445.584C236.992 443.024 259.47 440.35 259.47 440.35L264.902 441.943C259.983 444.219 241.672 445.459 237.675 447.757C233.678 450.056 231.753 454.379 234.111 460.273C235.375 463.345 238.745 466.361 241.638 468.5Z" fill="white"/>
<path d="M403.943 470.036C403.601 473.449 402.406 476.646 398.989 478.66C399.973 475.305 399.772 471.713 398.42 468.488C396.143 463.379 388.729 458.874 378.982 458.123C369.234 457.372 361.775 452.82 357.869 450.784C354.818 449.202 348.384 445.743 345.708 444.31L348.611 439.758L356.104 441.442C356.104 441.442 362.31 444.958 368.551 447.757C374.791 450.556 389.948 451.171 395.288 455.46C400.629 459.75 404.524 464.415 403.943 470.036Z" fill="white"/>
<path d="M298.386 454.527C298.386 454.527 273.584 460.945 263.745 465.052C253.906 469.16 235.151 470.957 228.444 462.492C221.737 454.027 227.67 446.722 234.354 445.095C241.038 443.468 254.555 440.908 261.934 441.943" fill="#263238"/>
<path d="M261.934 440.6C261.934 440.6 259.93 449.294 264.121 439.6C267.218 432.455 253.622 445.846 261.957 441.943" fill="#263238"/>
<path d="M403.936 470.036C403.594 473.449 402.398 476.647 398.982 478.66C396.705 480.003 393.471 480.8 388.836 480.754C377.255 480.606 355.482 472.334 355.482 472.334L335.099 461.07L345.7 444.31L348.604 439.759L356.097 441.442C356.097 441.442 362.303 444.958 368.544 447.757C374.784 450.556 389.941 451.171 395.281 455.46C400.622 459.75 404.517 464.415 403.936 470.036Z" fill="#263238"/>
<path d="M339.62 464.233C354.292 472.755 370.509 478.289 387.333 480.515C391.045 480.959 395.361 481.027 397.844 478.239C398.504 477.434 398.996 476.505 399.289 475.506C399.583 474.507 399.672 473.459 399.552 472.425C399.108 467.191 394.701 463.05 389.872 460.967C385.044 458.885 379.726 458.407 374.59 457.258C369.483 456.107 364.545 454.302 359.901 451.888C356.211 449.965 352.647 447.632 348.581 446.767C344.516 445.903 339.676 446.949 337.501 450.499" fill="#263238"/>
<path d="M396.477 479.662C398.385 478.749 400.053 477.403 401.348 475.732C402.643 474.061 403.529 472.11 403.936 470.036C404.676 465.109 401.863 460.148 397.912 457.122C393.96 454.095 389.007 452.661 384.122 451.649C379.236 450.636 374.237 449.953 369.557 448.099C362.417 445.3 355.368 439.793 347.921 441.761" fill="#263238"/>
<path d="M362.622 287.962L328.13 274.855L327.697 274.684C327.697 274.684 327.822 273.774 327.925 272.408C328.141 269.655 328.255 265.172 326.957 263.658C325.032 261.383 312.814 270.535 307.496 268.1C302.178 265.665 299.126 262.782 299.126 262.782C299.126 262.782 292.02 261.474 288.877 266.594C287.283 270.724 287.829 276.834 287.829 276.834L287.18 277.062C283.069 278.598 260.704 287.006 255.979 290.386C250.752 294.084 244.967 332.053 243.111 343.203C241.255 354.354 237.952 364.401 239.626 368.235C241.3 372.07 265.328 390.559 279.152 395.327C292.976 400.094 341.999 398.74 341.999 398.74C341.999 398.74 342.797 398.524 344.22 398.069C352.51 395.406 381.924 384.415 397.536 358.609C397.559 358.655 382.436 309.126 362.622 287.962ZM269.427 351.828C266.888 353.626 268.289 360.589 268.289 360.589L263.973 356.789L274.814 330.152L279.437 350.633C279.437 350.633 271.967 350.042 269.427 351.828ZM356.154 368.747C354.958 369.362 359.57 356.561 357.384 353.66C355.198 350.758 348.604 351.031 348.604 351.031L349.162 347.538L353.068 327.513L354.366 325.977C354.366 325.977 367.781 348.949 370.183 357.051C370.183 357.073 355.562 368.747 356.154 368.747Z" fill="#263238"/>
<path d="M297.497 204.89L279.687 223.778C279.687 223.778 277.239 225.951 278.207 231.424C279.175 236.897 281.452 241.664 283.172 241.983C284.533 242.221 285.912 242.343 287.294 242.347C287.294 242.347 291.109 250.608 293.819 253.85C293.819 253.85 300.997 263.055 300.496 266.594C300.496 266.594 304.51 265.395 310.534 266.1C316.558 266.806 322.496 264.1 322.496 264.1L324.281 256.638C324.281 256.638 329.746 248.355 330.111 246.147C330.475 243.94 332.981 244.509 334.21 243.417C335.44 242.324 338.276 237.466 338.765 232.869C339.255 228.272 339.266 222.993 333.926 224.54C329.291 223.3 332.195 213.515 332.195 213.515L324.053 206.347L297.497 204.89Z" fill="#263238"/>
<path d="M293.819 253.85C293.819 253.85 294.799 263.51 293.819 267.925Z" fill="#263238"/>
<path d="M322.994 266.628C323.004 263.522 323.364 260.427 324.064 257.4Z" fill="#263238"/>
<path d="M325.579 212.093C325.579 212.093 331.432 219.431 331.125 224.984C330.817 230.537 330.384 237.113 330.532 243.553C330.68 249.993 320.181 263.488 314.784 264.682C309.386 265.877 304.74 266.184 301.289 262.737C297.839 259.289 294.389 254.499 289.902 248.355C285.415 242.211 286.486 228.727 286.486 228.727" fill="#263238"/>
<path d="M311.481 233.859C311.125 235.875 310.972 237.922 311.026 239.969C310.908 241.694 311.445 243.4 312.529 244.748C313.178 245.408 314.112 245.943 314.237 246.853C314.234 247.263 314.12 247.664 313.908 248.014C313.695 248.365 313.392 248.651 313.03 248.844C312.3 249.212 311.596 249.63 310.923 250.096" fill="#263238"/>
<path d="M302.223 250.801C302.223 250.801 302.895 255.159 308.737 256.069Z" fill="#263238"/>
<path d="M302.827 237.181C302.827 238.444 302.28 239.457 301.608 239.457C300.936 239.457 300.39 238.444 300.39 237.181C300.39 235.918 300.936 234.906 301.608 234.906C302.28 234.906 302.827 235.93 302.827 237.181Z" fill="#263238"/>
<path d="M320.261 237.728C320.261 238.991 319.714 240.003 319.042 240.003C318.371 240.003 317.824 238.979 317.824 237.728C317.824 236.476 318.371 235.452 319.042 235.452C319.714 235.452 320.261 236.465 320.261 237.728Z" fill="#263238"/>
<path d="M316.742 232.209C316.742 232.209 322.436 226.52 327.207 232.869Z" fill="#263238"/>
<path d="M304.751 232.323C304.751 232.323 301.153 228.295 295.482 232.323Z" fill="#263238"/>
<path d="M294.252 259.221C294.252 259.221 297.725 268.778 305.48 271.498C313.235 274.217 323.529 260.12 323.529 260.12L322.994 258.288C322.994 258.288 316.241 267.049 308.737 265.558C301.233 264.068 293.819 253.896 293.819 253.896L294.252 259.221Z" fill="#263238"/>
<path d="M287.294 241.983C287.294 241.983 282.671 243.61 281.441 240.014C280.211 236.419 275.998 226.941 279.687 223.778C283.377 220.615 286.338 227.954 286.338 227.954" fill="#263238"/>
<path d="M330.521 243.94C330.521 243.94 334.814 244.805 336.044 241.209C337.274 237.614 341.487 228.136 337.798 224.972C334.108 221.809 331.147 229.148 331.147 229.148" fill="#263238"/>
<path d="M286.338 237.181C287.944 236.928 289.393 236.074 290.392 234.792C291.001 233.667 291.388 232.434 291.53 231.162C291.953 228.743 292.167 226.291 292.168 223.835C292.118 222.875 292.206 221.913 292.43 220.979C292.772 220.038 293.298 219.176 293.979 218.442C295.584 216.553 297.532 214.96 299.069 213.003C299.893 212.079 300.52 210.998 300.912 209.824C301.303 208.65 301.451 207.409 301.346 206.176C304.869 209.078 308.986 211.174 313.407 212.316C317.827 213.458 322.445 213.619 326.934 212.787C335.076 211.194 342.876 204.06 341.931 195.094C341.753 193.59 341.108 192.181 340.086 191.062C339.065 189.944 337.719 189.173 336.238 188.858C332.218 187.857 328.608 189.996 324.964 191.373C318.325 193.876 311.823 189.575 305.116 188.858C299.422 188.233 292.328 188.949 289.344 194.65C289.344 194.65 279.095 195.856 274.54 204.321C269.985 212.787 278.606 224.495 278.606 224.495C278.606 224.495 282.022 220.308 286.497 228.773L286.338 237.181Z" fill="#263238"/>
<path d="M332.423 209.931C332.423 209.931 323.62 223.812 330.578 230.536C330.578 230.536 332.104 226.361 333.641 225.337C334.75 222.873 335.219 220.17 335.006 217.478C334.793 214.785 333.905 212.189 332.423 209.931Z" fill="#263238"/>
<path d="M338.97 194.138C338.36 196.032 337.324 197.761 335.942 199.195C334.561 200.628 332.87 201.728 330.999 202.41C321.343 206.346 311.971 201.989 302.292 201.135C294.4 200.43 285.689 207.553 285.131 215.654" fill="#263238"/>
<path d="M279.175 213.515C279.293 210.318 280.32 207.221 282.135 204.585C283.949 201.95 286.478 199.885 289.424 198.632" fill="#263238"/>
<path d="M291.587 266.628C295.834 271.05 300.958 274.538 306.63 276.868C306.63 276.868 318.188 273.512 324.064 265.49" fill="#263238"/>
<path d="M303.388 246.435C308.521 244.082 310.774 238.017 308.419 232.888C306.065 227.758 299.995 225.508 294.861 227.86C289.728 230.213 287.475 236.278 289.83 241.407C292.184 246.537 298.255 248.787 303.388 246.435Z" fill="#263238"/>
<path d="M323.214 247.334C328.82 246.646 332.806 241.548 332.118 235.947C331.43 230.346 326.328 226.363 320.722 227.051C315.116 227.739 311.13 232.837 311.818 238.438C312.507 244.039 317.609 248.022 323.214 247.334Z" fill="#263238"/>
<path d="M293.819 262.816C292.783 263.088 291.813 263.566 290.965 264.221C290.118 264.876 289.412 265.694 288.889 266.628C287.078 269.814 288.171 279.838 288.171 279.838C288.171 279.838 297.52 289.077 305.48 292.98L307.826 279.793L311.47 292.98C311.47 292.98 323.791 284.276 327.207 276.914C327.207 276.914 328.346 268.323 327.207 265.536C326.948 264.762 326.456 264.086 325.797 263.604C325.138 263.121 320.313 261.838 319.496 261.823" fill="#263238"/>
<path d="M279.175 351.043C279.175 351.043 275.52 326.58 270.657 316.601Z" fill="#263238"/>
<path d="M260.146 294.891C262.978 298.912 265.505 303.137 267.708 307.532Z" fill="#263238"/>
<path d="M356.154 313.153C357.136 309.063 358.481 305.069 360.174 301.218Z" fill="#263238"/>
<path d="M348.604 351.043C348.604 351.043 351.235 334.271 354.378 320.458Z" fill="#263238"/>
<path d="M353.068 327.49C355.611 324.121 359.186 321.676 363.248 320.526Z" fill="#263238"/>
<path d="M327.708 274.684C327.708 274.684 348.923 283.161 362.622 287.974C362.622 287.974 379.476 303.801 397.547 358.655C397.547 358.655 380.99 386.486 349.492 395.406" fill="#263238"/>
<path d="M354.958 369.737L370.184 357.073C370.184 357.073 378.234 350.963 386.604 355.139" fill="#263238"/>
<path d="M354.378 325.977C354.378 325.977 366.961 344.557 370.184 357.073Z" fill="#263238"/>
<path d="M268.38 361.294L263.927 357.073C263.927 357.073 257.323 355.935 249.83 360.93" fill="#263238"/>
<path d="M263.927 357.073C263.927 357.073 269.462 338.868 274.916 329.549Z" fill="#263238"/>
<path d="M287.852 276.914C287.852 276.914 257.322 288.36 254.328 291.705C251.333 295.051 239.957 359.053 239.649 366.38C239.387 372.934 263.164 387.646 274.95 393.847" fill="#263238"/>
<path d="M310.684 298.544C310.684 298.942 310.566 299.331 310.344 299.663C310.123 299.994 309.808 300.252 309.44 300.404C309.071 300.557 308.666 300.597 308.275 300.519C307.884 300.441 307.525 300.249 307.243 299.968C306.961 299.686 306.769 299.327 306.692 298.937C306.614 298.546 306.654 298.141 306.806 297.773C306.959 297.405 307.217 297.09 307.549 296.869C307.88 296.648 308.27 296.53 308.668 296.53C308.934 296.528 309.196 296.579 309.442 296.68C309.687 296.781 309.91 296.929 310.097 297.116C310.284 297.304 310.433 297.526 310.534 297.771C310.634 298.016 310.685 298.279 310.684 298.544Z" fill="#263238"/>
<path d="M348.445 400.31L357.748 356.618C357.893 355.941 357.884 355.239 357.722 354.566C357.56 353.892 357.249 353.264 356.812 352.726C356.375 352.188 355.824 351.755 355.198 351.458C354.571 351.16 353.887 351.007 353.193 351.009H272.001C271.314 351.009 270.635 351.161 270.014 351.455C269.392 351.749 268.844 352.177 268.409 352.708C267.973 353.239 267.661 353.86 267.494 354.526C267.328 355.193 267.311 355.888 267.446 356.561L275.793 398.797C275.998 399.834 276.55 400.771 277.36 401.451C278.17 402.132 279.188 402.516 280.245 402.54L343.776 403.997C344.862 404.021 345.922 403.666 346.774 402.993C347.627 402.32 348.217 401.371 348.445 400.31Z" fill="#263238"/>
<path d="M348.604 446.699L341.202 466.11C341.202 466.11 322.322 461.354 298.146 456.405C272.855 451.228 246.447 444.526 232.748 420.507C231.086 417.582 229.97 414.123 230.756 410.847C232.726 402.552 243.532 400.299 250.649 399.468C255.124 398.985 259.62 398.734 264.121 398.717C266.398 398.717 273.971 397.477 275.804 398.831C278.559 400.839 277.496 402.6 277.496 402.6L346.496 403.997C347.523 401.76 349.291 397.859 349.492 395.406C358.773 390.696 380.239 386.713 389.348 388.477C403.617 391.242 411.941 399.559 410.358 408.275C408.775 416.991 377.255 440.361 348.604 446.699Z" fill="#263238"/>
<path d="M348.604 446.699C348.604 446.699 330.646 441.943 315.979 432.044C301.312 422.145 289.856 410.653 269.416 413.031" fill="#263238"/>
<path d="M312.62 429.712C321.889 427.049 328.688 421.053 336.124 415.307C343.967 409.017 352.389 403.485 361.278 398.786" fill="#263238"/>
<path fill-rule="evenodd" clip-rule="evenodd" d="M369.996 357C368.163 351.5 363.496 338.4 355.496 328L351.496 350.5L353.496 351L355.496 351.5L356.996 353L357.996 355V357L354.996 369.5L369.996 357ZM269.996 351L275.996 335L279.496 351H269.996Z" fill="#E7F4FD"/>
<path d="M398.386 231.367H363.597C359.49 231.367 356.161 234.693 356.161 238.797V259.198C356.161 263.301 359.49 266.628 363.597 266.628H398.386C402.493 266.628 405.822 263.301 405.822 259.198V238.797C405.822 234.693 402.493 231.367 398.386 231.367Z" fill="white" stroke="#263238" stroke-width="1.1" stroke-linecap="round" stroke-linejoin="round"/>
<path d="M372.183 241.971L362.629 247.968L371.489 255.819" stroke="#263238" stroke-width="1.1" stroke-linecap="round" stroke-linejoin="round"/>
<path d="M389.583 256.388L398.17 249.083L388.262 242.597" stroke="#263238" stroke-width="1.1" stroke-linecap="round" stroke-linejoin="round"/>
<path d="M376.818 260.894L383.878 238.797" stroke="#263238" stroke-width="1.1" stroke-linecap="round" stroke-linejoin="round"/>
<path d="M196.566 165.658H77.4762C69.2312 165.658 62.5472 172.337 62.5472 180.575V345.32C62.5472 353.558 69.2312 360.236 77.4762 360.236H196.566C204.811 360.236 211.495 353.558 211.495 345.32V180.575C211.495 172.337 204.811 165.658 196.566 165.658Z" fill="white" stroke="#263238" stroke-width="1.1" stroke-miterlimit="10"/>
<path d="M225.354 195.275V360.02C225.355 361.98 224.97 363.921 224.221 365.732C223.471 367.543 222.372 369.189 220.985 370.575C219.599 371.962 217.952 373.061 216.14 373.812C214.328 374.562 212.386 374.948 210.425 374.948H91.3348C89.3743 374.947 87.4333 374.559 85.6226 373.808C83.8119 373.057 82.167 371.957 80.7818 370.571C79.3965 369.185 78.2981 367.54 77.5493 365.729C76.8004 363.919 76.4157 361.979 76.4172 360.02V195.275C76.4172 191.321 77.9885 187.529 80.7858 184.732C83.5831 181.935 87.3774 180.362 91.3348 180.359H210.425C214.384 180.359 218.181 181.93 220.981 184.728C223.781 187.525 225.354 191.319 225.354 195.275Z" fill="white" stroke="#263238" stroke-width="1.1" stroke-linecap="round" stroke-linejoin="round"/>
<path d="M225.354 195.275V204.094H76.4172V195.275C76.4172 191.321 77.9885 187.529 80.7858 184.732C83.5831 181.935 87.3774 180.362 91.3348 180.359H210.425C214.384 180.359 218.181 181.93 220.981 184.728C223.781 187.525 225.354 191.319 225.354 195.275Z" fill="#0C8CE9" stroke="#263238" stroke-width="1.1" stroke-miterlimit="10"/>
<path d="M127.057 214.311H90.4124V220.455H127.057V214.311Z" fill="#0C8CE9"/>
<path d="M127.057 269.37H90.4124V275.514H127.057V269.37Z" fill="#0C8CE9"/>
<path d="M127.057 319.298H90.4124V325.442H127.057V319.298Z" fill="#0C8CE9"/>
<path d="M194.482 229.512H90.4124V234.018H194.482V229.512Z" fill="#E1E7E9"/>
<path d="M175.716 238.137H90.4124V242.529H175.716V238.137Z" fill="#E1E7E9"/>
<path d="M186.887 246.614H90.4124V251.006H186.887V246.614Z" fill="#E1E7E9"/>
<path d="M186.887 255.079H90.4124V259.471H186.887V255.079Z" fill="#E1E7E9"/>
<path d="M194.482 279.44H90.4124V283.946H194.482V279.44Z" fill="#E1E7E9"/>
<path d="M175.716 288.064H90.4124V292.456H175.716V288.064Z" fill="#E1E7E9"/>
<path d="M186.887 296.541H90.4124V300.933H186.887V296.541Z" fill="#E1E7E9"/>
<path d="M194.482 334.271H90.4124V338.777H194.482V334.271Z" fill="#E1E7E9"/>
<path d="M175.716 342.896H90.4124V347.288H175.716V342.896Z" fill="#E1E7E9"/>
<path d="M186.887 351.373H90.4124V355.765H186.887V351.373Z" fill="#E1E7E9"/>
<path d="M298.393 454.527C298.393 454.527 273.591 460.945 263.752 465.052C253.913 469.16 235.158 470.957 228.451 462.492C221.744 454.027 227.677 446.722 234.361 445.095C241.045 443.468 254.562 440.908 261.941 441.943" fill="white"/>
<path d="M298.393 454.527C298.393 454.527 273.591 460.945 263.752 465.052C253.913 469.16 235.158 470.957 228.451 462.492C221.744 454.027 227.677 446.722 234.361 445.095C241.045 443.468 254.562 440.908 261.941 441.943" stroke="#263238" stroke-width="1.1" stroke-linecap="round" stroke-linejoin="round"/>
<path d="M242.127 468.056C242.127 468.056 229.51 461.138 233.701 451.444C236.798 444.298 253.629 445.846 261.964 441.943" stroke="#263238" stroke-width="1.1" stroke-linecap="round" stroke-linejoin="round"/>
<path d="M403.943 470.036C403.601 473.449 402.406 476.647 398.989 478.661C396.712 480.003 393.478 480.8 388.843 480.754C377.262 480.606 355.489 472.334 355.489 472.334L335.106 461.07L345.708 444.31L348.611 439.759L356.104 441.442C356.104 441.442 362.31 444.958 368.551 447.757C374.791 450.556 389.948 451.171 395.289 455.46C400.629 459.75 404.524 464.415 403.943 470.036Z" fill="white"/>
<path d="M339.627 464.233C354.299 472.755 370.516 478.289 387.34 480.515C391.052 480.959 395.368 481.027 397.851 478.239C398.511 477.434 399.003 476.505 399.296 475.506C399.59 474.507 399.679 473.459 399.559 472.425C399.115 467.191 394.708 463.05 389.879 460.967C385.051 458.885 379.733 458.407 374.597 457.258C369.49 456.107 364.552 454.302 359.908 451.888C356.218 449.965 352.654 447.632 348.589 446.767C344.523 445.903 339.684 446.949 337.509 450.499" stroke="#263238" stroke-width="1.1" stroke-linecap="round" stroke-linejoin="round"/>
<path d="M396.484 479.662C398.392 478.749 400.06 477.403 401.355 475.732C402.65 474.061 403.536 472.11 403.943 470.036C404.683 465.109 401.87 460.148 397.919 457.122C393.968 454.095 389.014 452.661 384.129 451.649C379.244 450.636 374.244 449.953 369.564 448.099C362.424 445.3 355.375 439.793 347.928 441.761" stroke="#263238" stroke-width="1.1" stroke-linecap="round" stroke-linejoin="round"/>
<path d="M362.629 287.962L328.137 274.855L327.704 274.684C327.704 274.684 327.829 273.774 327.932 272.408C328.148 269.655 328.262 265.172 326.964 263.658C325.039 261.383 319.596 263.294 314.278 260.859C308.96 258.424 299.133 262.782 299.133 262.782C299.133 262.782 292.027 261.474 288.884 266.594C287.29 270.724 287.836 276.834 287.836 276.834L287.187 277.062C283.077 278.598 260.712 287.006 255.986 290.386C250.759 294.084 244.974 332.053 243.118 343.203C241.262 354.354 237.959 364.401 239.633 368.235C241.307 372.07 265.335 390.559 279.159 395.327C292.984 400.094 342.007 398.74 342.007 398.74C342.007 398.74 342.804 398.524 344.227 398.069C352.517 395.406 381.931 384.415 397.543 358.609C397.566 358.655 382.443 309.126 362.629 287.962ZM269.434 351.828C266.895 353.626 268.296 360.589 268.296 360.589L263.98 356.789L268.996 342.5L274.821 330.152L279.444 350.633C279.444 350.633 271.974 350.042 269.434 351.828ZM356.161 368.747C354.965 369.362 359.577 356.561 357.391 353.66C355.205 350.758 348.611 351.031 348.611 351.031L349.169 347.538L353.075 327.513L354.373 325.977C354.373 325.977 367.788 348.949 370.19 357.051C370.19 357.073 355.569 368.747 356.161 368.747Z" fill="#E90C59"/>
<path d="M297.504 204.89L279.694 223.778C279.694 223.778 277.246 225.951 278.214 231.424C279.182 236.897 281.46 241.664 283.179 241.983C284.54 242.221 285.919 242.343 287.301 242.347C287.301 242.347 291.116 250.608 293.826 253.85C293.826 253.85 294.76 266.605 294.259 270.144C294.259 270.144 300.659 275.731 306.683 276.436C312.707 277.142 322.01 267.925 322.01 267.925L324.288 256.638C324.288 256.638 329.754 248.355 330.118 246.147C330.482 243.94 332.988 244.509 334.218 243.417C335.447 242.324 338.283 237.466 338.773 232.869C339.262 228.272 339.274 222.993 333.933 224.54C329.298 223.3 332.202 213.515 332.202 213.515L324.06 206.347L297.504 204.89Z" fill="white"/>
<path d="M293.826 253.85C293.826 253.85 294.806 263.51 293.826 267.925" stroke="#263238" stroke-width="1.1" stroke-linecap="round" stroke-linejoin="round"/>
<path d="M323.001 266.628C323.012 263.522 323.371 260.427 324.071 257.4" stroke="#263238" stroke-width="1.1" stroke-linecap="round" stroke-linejoin="round"/>
<path d="M325.586 212.093C325.586 212.093 331.439 219.431 331.132 224.984C330.824 230.537 330.391 237.113 330.539 243.553C330.688 249.993 320.188 263.488 314.791 264.682C309.393 265.877 304.747 266.184 301.296 262.737C297.846 259.289 294.396 254.499 289.909 248.355C285.422 242.211 286.493 228.727 286.493 228.727" stroke="#263238" stroke-width="1.1" stroke-linecap="round" stroke-linejoin="round"/>
<path d="M311.488 233.859C311.132 235.875 310.979 237.922 311.033 239.969C310.915 241.694 311.452 243.4 312.536 244.748C313.185 245.408 314.119 245.943 314.244 246.853C314.241 247.263 314.127 247.664 313.915 248.014C313.702 248.365 313.399 248.651 313.037 248.844C312.307 249.212 311.603 249.63 310.93 250.096" stroke="#263238" stroke-width="1.1" stroke-linecap="round" stroke-linejoin="round"/>
<path d="M302.23 250.801C302.23 250.801 302.902 255.159 308.744 256.069" stroke="#263238" stroke-width="1.1" stroke-linecap="round" stroke-linejoin="round"/>
<path d="M302.834 237.181C302.834 238.444 302.287 239.457 301.615 239.457C300.943 239.457 300.397 238.444 300.397 237.181C300.397 235.918 300.943 234.906 301.615 234.906C302.287 234.906 302.834 235.93 302.834 237.181Z" fill="#263238"/>
<path d="M320.268 237.728C320.268 238.991 319.721 240.003 319.05 240.003C318.378 240.003 317.831 238.979 317.831 237.728C317.831 236.476 318.378 235.452 319.05 235.452C319.721 235.452 320.268 236.465 320.268 237.728Z" fill="#263238"/>
<path d="M316.749 232.209C316.749 232.209 322.443 226.52 327.214 232.869" stroke="#263238" stroke-width="2.21" stroke-linecap="round" stroke-linejoin="round"/>
<path d="M304.758 232.323C304.758 232.323 301.16 228.295 295.489 232.323" stroke="#263238" stroke-width="2.21" stroke-linecap="round" stroke-linejoin="round"/>
<path d="M294.259 259.221C294.259 259.221 297.732 268.778 305.487 271.498C313.242 274.217 323.536 260.12 323.536 260.12L323.001 258.288C323.001 258.288 316.248 267.049 308.744 265.558C301.24 264.068 293.826 253.896 293.826 253.896L294.259 259.221Z" fill="#263238"/>
<path d="M287.301 241.983C287.301 241.983 282.678 243.61 281.448 240.014C280.218 236.419 276.005 226.941 279.694 223.778C283.384 220.615 286.345 227.954 286.345 227.954" stroke="#263238" stroke-width="1.1" stroke-linecap="round" stroke-linejoin="round"/>
<path d="M330.528 243.94C330.528 243.94 334.821 244.805 336.051 241.209C337.281 237.614 341.494 228.136 337.805 224.972C334.115 221.809 331.154 229.148 331.154 229.148" stroke="#263238" stroke-width="1.1" stroke-linecap="round" stroke-linejoin="round"/>
<path d="M286.345 237.181C287.951 236.928 289.4 236.074 290.399 234.792C291.009 233.667 291.395 232.434 291.538 231.162C291.96 228.743 292.174 226.291 292.175 223.835C292.125 222.875 292.213 221.913 292.437 220.979C292.779 220.038 293.306 219.176 293.986 218.442C295.591 216.553 297.539 214.96 299.076 213.003C299.9 212.079 300.527 210.998 300.919 209.824C301.31 208.65 301.458 207.409 301.353 206.176C304.876 209.078 308.993 211.174 313.414 212.316C317.834 213.458 322.452 213.619 326.941 212.787C335.083 211.194 342.883 204.06 341.938 195.094C341.76 193.59 341.115 192.181 340.094 191.062C339.072 189.944 337.726 189.173 336.245 188.858C332.225 187.857 328.615 189.996 324.971 191.373C318.332 193.876 311.83 189.575 305.123 188.858C299.429 188.233 292.335 188.949 289.351 194.65C289.351 194.65 279.102 195.856 274.547 204.321C269.992 212.787 278.613 224.495 278.613 224.495C278.613 224.495 282.029 220.308 286.504 228.773L286.345 237.181Z" fill="#263238"/>
<path d="M326.292 209.931C326.292 209.931 323.627 223.812 330.585 230.536C330.585 230.536 332.111 226.361 333.648 225.337C334.757 222.873 335.226 220.17 335.013 217.478C334.8 214.785 333.912 212.189 332.43 209.931C327.283 201.852 326.292 209.931 326.292 209.931Z" fill="#263238"/>
<path opacity="0.2" d="M338.978 194.138C338.367 196.032 337.331 197.761 335.95 199.195C334.568 200.628 332.877 201.728 331.006 202.41C321.35 206.346 311.978 201.989 302.299 201.135C294.407 200.43 285.696 207.553 285.138 215.654" stroke="white" stroke-width="1.1" stroke-linecap="round" stroke-linejoin="round"/>
<path opacity="0.2" d="M279.182 213.515C279.3 210.318 280.327 207.221 282.142 204.585C283.957 201.95 286.485 199.885 289.431 198.632" stroke="white" stroke-width="1.1" stroke-linecap="round" stroke-linejoin="round"/>
<path d="M291.594 266.628C295.841 271.05 300.964 274.538 306.637 276.868C306.637 276.868 318.195 273.512 324.071 265.49" stroke="#263238" stroke-width="1.1" stroke-linecap="round" stroke-linejoin="round"/>
<path d="M303.395 246.435C308.528 244.082 310.781 238.017 308.426 232.888C306.072 227.758 300.002 225.508 294.868 227.86C289.735 230.213 287.482 236.278 289.837 241.407C292.191 246.537 298.261 248.787 303.395 246.435Z" stroke="#263238" stroke-width="1.1" stroke-linecap="round" stroke-linejoin="round"/>
<path d="M323.222 247.334C328.827 246.646 332.813 241.548 332.125 235.947C331.437 230.346 326.335 226.363 320.729 227.051C315.124 227.739 311.137 232.837 311.826 238.438C312.514 244.039 317.616 248.022 323.222 247.334Z" stroke="#263238" stroke-width="1.1" stroke-linecap="round" stroke-linejoin="round"/>
<path d="M293.826 262.816C292.79 263.088 291.82 263.566 290.973 264.221C290.125 264.876 289.419 265.694 288.896 266.628C287.085 269.814 288.178 279.838 288.178 279.838C288.178 279.838 297.527 289.077 305.487 292.98L307.833 279.793L311.477 292.98C311.477 292.98 323.798 284.276 327.214 276.914C327.214 276.914 328.353 268.323 327.214 265.536C326.955 264.762 326.463 264.086 325.804 263.604C325.145 263.121 324.353 262.854 323.536 262.839" stroke="#263238" stroke-width="1.1" stroke-linecap="round" stroke-linejoin="round"/>
<path d="M279.182 351.043C279.182 351.043 275.527 326.58 270.664 316.601" stroke="#263238" stroke-width="1.1" stroke-linecap="round" stroke-linejoin="round"/>
<path d="M260.154 294.891C262.985 298.912 265.512 303.137 267.715 307.532" stroke="#263238" stroke-width="1.1" stroke-linecap="round" stroke-linejoin="round"/>
<path d="M356.161 313.153C357.143 309.063 358.488 305.069 360.181 301.218" stroke="#263238" stroke-width="1.1" stroke-linecap="round" stroke-linejoin="round"/>
<path d="M348.611 351.043C348.611 351.043 351.242 334.271 354.385 320.458" stroke="#263238" stroke-width="1.1" stroke-linecap="round" stroke-linejoin="round"/>
<path d="M353.075 327.49C355.618 324.121 359.193 321.676 363.256 320.526" stroke="#263238" stroke-width="1.1" stroke-linecap="round" stroke-linejoin="round"/>
<path d="M327.715 274.684C327.715 274.684 348.93 283.161 362.629 287.974C362.629 287.974 379.483 303.801 397.555 358.655C397.555 358.655 380.997 386.486 349.5 395.406" stroke="#263238" stroke-width="1.1" stroke-linecap="round" stroke-linejoin="round"/>
<path d="M354.966 369.737L370.191 357.073C370.191 357.073 378.242 350.963 386.611 355.139" stroke="#263238" stroke-width="1.1" stroke-linecap="round" stroke-linejoin="round"/>
<path d="M354.385 325.977C354.385 325.977 366.968 344.557 370.191 357.073" stroke="#263238" stroke-width="1.1" stroke-linecap="round" stroke-linejoin="round"/>
<path d="M268.387 361.294L263.934 357.073C263.934 357.073 257.33 355.935 249.837 360.93" stroke="#263238" stroke-width="1.1" stroke-linecap="round" stroke-linejoin="round"/>
<path d="M263.934 357.073C263.934 357.073 269.469 338.868 274.923 329.549" stroke="#263238" stroke-width="1.1" stroke-linecap="round" stroke-linejoin="round"/>
<path d="M287.859 276.914C287.859 276.914 257.33 288.36 254.335 291.705C251.34 295.051 239.964 359.053 239.656 366.38C239.394 372.934 263.171 387.646 274.957 393.847" stroke="#263238" stroke-width="1.1" stroke-linecap="round" stroke-linejoin="round"/>
<path d="M310.691 298.544C310.691 298.942 310.573 299.331 310.352 299.663C310.13 299.994 309.815 300.252 309.447 300.404C309.079 300.557 308.673 300.597 308.282 300.519C307.891 300.441 307.532 300.249 307.25 299.968C306.968 299.686 306.777 299.327 306.699 298.937C306.621 298.546 306.661 298.141 306.813 297.773C306.966 297.405 307.224 297.09 307.556 296.869C307.887 296.648 308.277 296.53 308.676 296.53C308.941 296.528 309.204 296.579 309.449 296.68C309.694 296.781 309.917 296.929 310.104 297.116C310.292 297.304 310.44 297.526 310.541 297.771C310.642 298.016 310.693 298.279 310.691 298.544Z" fill="#263238"/>
<path d="M346.015 405.749H276.551C276.12 405.749 275.705 405.578 275.4 405.272C275.095 404.967 274.923 404.553 274.923 404.122C274.923 403.69 275.095 403.277 275.4 402.971C275.705 402.666 276.12 402.495 276.551 402.495H346.015C346.447 402.495 346.861 402.666 347.166 402.971C347.472 403.277 347.643 403.69 347.643 404.122C347.643 404.553 347.472 404.967 347.166 405.272C346.861 405.578 346.447 405.749 346.015 405.749Z" fill="#263238"/>
<path d="M348.452 400.31L357.755 356.618C357.9 355.941 357.891 355.239 357.729 354.566C357.567 353.892 357.256 353.264 356.819 352.726C356.382 352.188 355.831 351.755 355.205 351.457C354.578 351.16 353.894 351.007 353.2 351.009H272.008C271.321 351.009 270.642 351.161 270.021 351.455C269.4 351.749 268.851 352.177 268.416 352.708C267.98 353.239 267.668 353.86 267.501 354.526C267.335 355.193 267.318 355.888 267.453 356.561L275.8 398.797C276.005 399.834 276.557 400.771 277.367 401.451C278.177 402.132 279.195 402.516 280.252 402.54L343.783 403.997C344.869 404.021 345.929 403.666 346.781 402.993C347.634 402.32 348.224 401.371 348.452 400.31Z" fill="white" stroke="#263238" stroke-width="1.1" stroke-linecap="round" stroke-linejoin="round"/>
<path d="M348.611 446.699L341.209 466.11C341.209 466.11 322.329 461.354 298.154 456.405C272.862 451.228 246.455 444.526 232.755 420.507C231.093 417.582 229.977 414.123 230.763 410.847C232.733 402.552 243.539 400.299 250.656 399.468C255.131 398.985 259.627 398.734 264.128 398.717C266.405 398.717 273.978 397.477 275.811 398.831C278.566 400.839 281.506 402.58 284.591 404.031C288.634 405.749 347.643 402.495 347.643 402.495C348.67 400.258 349.298 397.859 349.5 395.406C358.78 390.696 380.246 386.713 389.356 388.477C403.624 391.242 411.948 399.559 410.365 408.275C408.783 416.991 377.262 440.361 348.611 446.699Z" fill="#263238"/>
<path d="M348.611 446.699C348.611 446.699 330.653 441.943 315.986 432.044C301.319 422.145 289.863 410.653 269.423 413.031" stroke="white" stroke-width="1.1" stroke-linecap="round" stroke-linejoin="round"/>
<path d="M312.627 429.712C321.896 427.049 328.695 421.053 336.131 415.307C343.974 409.017 352.397 403.485 361.286 398.786" stroke="white" stroke-width="1.1" stroke-linecap="round" stroke-linejoin="round"/>
<path d="M309.359 238.797H312.069" stroke="#263238" stroke-width="1.1" stroke-linecap="round" stroke-linejoin="round"/>
<path d="M134.871 33H133.053V20.76H128.265V19.176H139.659V20.76H134.871V33Z" fill="black"/>
<path d="M143.871 433H142.053V420.76H137.265V419.176H148.659V420.76H143.871V433Z" fill="black"/>
<path d="M475.871 401H474.053V388.76H469.265V387.176H480.659V388.76H475.871V401Z" fill="black"/>
<defs>
<filter id="filter0_d_104_560" x="43.8571" y="78.1218" width="418.278" height="262.495" filterUnits="userSpaceOnUse" color-interpolation-filters="sRGB">
<feFlood flood-opacity="0" result="BackgroundImageFix"/>
<feColorMatrix in="SourceAlpha" type="matrix" values="0 0 0 0 0 0 0 0 0 0 0 0 0 0 0 0 0 0 127 0" result="hardAlpha"/>
<feOffset dx="6" dy="6"/>
<feComposite in2="hardAlpha" operator="out"/>
<feColorMatrix type="matrix" values="0 0 0 0 0.14902 0 0 0 0 0.196078 0 0 0 0 0.219608 0 0 0 1 0"/>
<feBlend mode="normal" in2="BackgroundImageFix" result="effect1_dropShadow_104_560"/>
<feBlend mode="normal" in="SourceGraphic" in2="effect1_dropShadow_104_560" result="shape"/>
</filter>
</defs>
</svg>
