<svg width="41" height="41" viewBox="0 0 41 41" fill="none" xmlns="http://www.w3.org/2000/svg">
<path d="M1 7.7605H34.8V14.5204L33.6183 15.2295C31.7451 16.3534 29.4049 16.3534 27.5317 15.2295L26.35 14.5204L25.1683 15.2295C23.2951 16.3534 20.9549 16.3534 19.0817 15.2295L17.9 14.5204L16.7183 15.2295C14.8451 16.3534 12.5049 16.3534 10.6317 15.2295L9.45 14.5204L8.26827 15.2295C6.39507 16.3534 4.05494 16.3534 2.18176 15.2295L1 14.5204V7.7605Z" fill="#F5617A" stroke="white" stroke-width="1.5" stroke-linecap="round" stroke-linejoin="round"/>
<path d="M4.37988 16.6231V34.7998H31.4199V16.21" stroke="white" stroke-width="1.5" stroke-linecap="round" stroke-linejoin="round"/>
<path d="M4.38013 7.6097V1H31.4201V7.75994" stroke="white" stroke-width="1.5" stroke-linecap="round" stroke-linejoin="round"/>
<path d="M22.125 24.6594H13.675V34.7993H22.125V24.6594Z" fill="#68A4EF" stroke="white" stroke-width="1.5" stroke-linecap="round" stroke-linejoin="round"/>
<rect width="20" height="20" transform="translate(21 21)" fill="#0D1219"/>
<path d="M36.4444 38H25.5556C24.7 38 24 37.3 24 36.4444V25.5556C24 24.7 24.7 24 25.5556 24H36.4444C37.3 24 38 24.7 38 25.5556V36.4444C38 37.3 37.3 38 36.4444 38Z" fill="#0D1219" stroke="white" stroke-width="1.5"/>
<path d="M34.0558 27.5563H27.9447C27.5002 27.5563 27.1113 27.1674 27.1113 26.723C27.1113 26.2785 27.5002 25.8896 27.9447 25.8896H34.0558C34.5002 25.8896 34.8891 26.2785 34.8891 26.723C34.8891 27.1674 34.5002 27.5563 34.0558 27.5563Z" fill="white"/>
</svg>
