<svg width="24" height="24" viewBox="0 0 24 24" fill="none" xmlns="http://www.w3.org/2000/svg">
<g clip-path="url(#clip0_205_711)">
<path d="M7.6875 22.3874L10.3125 19.6874C9.375 19.4999 8.5125 19.1249 7.725 18.5999L7.6875 22.3874Z" fill="#FFA722"/>
<path d="M16.3125 1.6123L13.6875 4.3123C14.625 4.4998 15.4875 4.8748 16.275 5.3998L16.3125 1.6123Z" fill="#FFA722"/>
<path d="M1.61249 16.3123L5.39999 16.2748C4.87499 15.4873 4.49999 14.6248 4.31249 13.6873L1.61249 16.3123Z" fill="#FFA722"/>
<path d="M22.3875 7.6875L18.6 7.725C19.0875 8.5125 19.4625 9.375 19.6875 10.3125L22.3875 7.6875Z" fill="#FFA722"/>
<path d="M1.61249 7.6875L4.31249 10.3125C4.49999 9.375 4.87499 8.5125 5.39999 7.725L1.61249 7.6875Z" fill="#FFA722"/>
<path d="M22.3875 16.3123L19.6875 13.6873C19.5 14.6248 19.125 15.4873 18.6 16.2748L22.3875 16.3123Z" fill="#FFA722"/>
<path d="M7.6875 1.6123L7.725 5.3998C8.5125 4.9123 9.375 4.5373 10.3125 4.3123L7.6875 1.6123Z" fill="#FFA722"/>
<path d="M16.3125 22.3874L16.275 18.5999C15.4875 19.1249 14.625 19.4999 13.6875 19.6874L16.3125 22.3874Z" fill="#FFA722"/>
<path d="M5.54999 16.5L4.04999 19.9875L7.53749 18.4875C6.74999 17.925 6.07499 17.25 5.54999 16.5Z" fill="#FFA722"/>
<path d="M18.45 7.5002L19.95 4.0127L16.5 5.5127C17.25 6.0752 17.925 6.7502 18.45 7.5002Z" fill="#FFA722"/>
<path d="M4.275 10.6125L0.75 12L4.275 13.3875C4.1625 12.9375 4.125 12.4875 4.125 12C4.125 11.5125 4.1625 11.0625 4.275 10.6125Z" fill="#FFA722"/>
<path d="M19.725 13.3875L23.25 12L19.725 10.6125C19.8 11.0625 19.875 11.55 19.875 12C19.875 12.4875 19.8375 12.9375 19.725 13.3875Z" fill="#FFA722"/>
<path d="M7.50001 5.5498L4.01251 4.0498L5.51251 7.5373C6.07501 6.7498 6.75001 6.0748 7.50001 5.5498Z" fill="#FFA722"/>
<path d="M16.5 18.4499L19.9875 19.9499L18.4875 16.4624C17.925 17.2499 17.25 17.9249 16.5 18.4499Z" fill="#FFA722"/>
<path d="M13.3875 4.275L12 0.75L10.6125 4.275C11.0625 4.2 11.55 4.125 12 4.125C12.45 4.125 12.9375 4.1625 13.3875 4.275Z" fill="#FFA722"/>
<path d="M10.6125 19.7251L12 23.2501L13.3875 19.7251C12.9375 19.8376 12.4875 19.8751 12 19.8751C11.5125 19.8751 11.0625 19.8376 10.6125 19.7251Z" fill="#FFA722"/>
<path d="M12 19.125C15.935 19.125 19.125 15.935 19.125 12C19.125 8.06497 15.935 4.875 12 4.875C8.06497 4.875 4.875 8.06497 4.875 12C4.875 15.935 8.06497 19.125 12 19.125Z" fill="#FCC11A"/>
</g>
<defs>
<clipPath id="clip0_205_711">
<rect width="24" height="24" fill="white"/>
</clipPath>
</defs>
</svg>
