<svg width="18" height="18" viewBox="0 0 18 18" fill="none" xmlns="http://www.w3.org/2000/svg">
<path d="M2 14C2 12.3431 3.34315 11 5 11H13C14.6569 11 16 12.3431 16 14V18H2V14Z" fill="white"/>
<path d="M1.25 14C1.25 11.9289 2.92893 10.25 5 10.25H13C15.0711 10.25 16.75 11.9289 16.75 14H15.25C15.25 12.7574 14.2426 11.75 13 11.75H5C3.75736 11.75 2.75 12.7574 2.75 14H1.25ZM16 18H2H16ZM1.25 18V14C1.25 11.9289 2.92893 10.25 5 10.25V11.75C3.75736 11.75 2.75 12.7574 2.75 14V18H1.25ZM13 10.25C15.0711 10.25 16.75 11.9289 16.75 14V18H15.25V14C15.25 12.7574 14.2426 11.75 13 11.75V10.25Z" fill="#263238"/>
<circle cx="9" cy="4.25" r="3.5" fill="white" stroke="#263238" stroke-width="1.5"/>
</svg>
