<svg width="40" height="41" viewBox="0 0 40 41" fill="none" xmlns="http://www.w3.org/2000/svg">
<g clip-path="url(#clip0_104_893)">
<g filter="url(#filter0_d_104_893)">
<rect x="1" y="1.86646" width="35" height="35" rx="2" fill="white"/>
<rect x="1" y="1.86646" width="35" height="35" rx="2" stroke="#263238" stroke-width="2"/>
</g>
<path d="M38.5197 21.4151C37.8616 21.1363 37.1861 20.9033 36.5106 20.668C36.4705 20.6574 36.4337 20.6378 36.4031 20.6107C36.3724 20.5836 36.3489 20.5499 36.3345 20.5123C36.2571 20.3143 36.1709 20.1188 36.0848 19.9257C36.067 19.8918 36.0578 19.8544 36.0578 19.8164C36.0578 19.7785 36.067 19.7411 36.0848 19.7072C36.2221 19.4079 36.3582 19.1037 36.4881 18.8056C36.6812 18.3981 36.8415 17.9769 36.9676 17.5455C36.9963 17.4783 37.004 17.4044 36.9898 17.333C36.9756 17.2616 36.9401 17.1958 36.8877 17.1436C36.4207 16.7091 35.9587 16.2686 35.4954 15.8292C35.4447 15.779 35.3811 15.7426 35.3112 15.7237C35.2412 15.7049 35.1674 15.7042 35.0971 15.7218C35.0192 15.7396 34.9425 15.7617 34.8673 15.7882C34.1843 16.0175 33.5262 16.306 32.8694 16.5957C32.818 16.6224 32.7607 16.6369 32.7022 16.638C32.6438 16.639 32.586 16.6266 32.5335 16.6017C32.3437 16.5172 32.1477 16.446 31.9517 16.3748C31.9144 16.3627 31.8807 16.3423 31.8531 16.3153C31.8255 16.2882 31.805 16.2553 31.7931 16.2191C31.6844 15.9499 31.5696 15.6832 31.4534 15.4165C31.2732 14.9776 31.0668 14.5493 30.8353 14.1335C30.7909 14.0475 30.721 13.9763 30.6344 13.929C30.5479 13.8817 30.4487 13.8604 30.3496 13.8679C29.7815 13.8788 29.2108 13.886 28.6427 13.8679C28.3467 13.8583 28.1557 13.9584 28.0421 14.2155C28.0046 14.3 27.9559 14.3797 27.9172 14.463C27.6782 14.9509 27.4698 15.4523 27.2928 15.9644C27.1967 16.2505 27.0219 16.3856 26.7497 16.5051C26.604 16.5761 26.4429 16.6124 26.2797 16.6109C26.1166 16.6095 25.9562 16.5703 25.8119 16.4967C25.1971 16.2197 24.5619 15.9873 23.9114 15.8015C23.8192 15.7712 23.7197 15.7683 23.6257 15.7933C23.5318 15.8183 23.4478 15.8699 23.3845 15.9415C22.9949 16.3217 22.6141 16.7139 22.1958 17.0628C21.9285 17.2848 21.9036 17.5081 22.0209 17.7869C22.0347 17.8183 22.0459 17.8497 22.0584 17.8811C22.2994 18.5051 22.5978 19.1037 22.8938 19.7048C22.9168 19.744 22.9295 19.788 22.9308 19.833C22.9321 19.8781 22.922 19.9227 22.9013 19.9631C22.8089 20.1546 22.7235 20.3497 22.6453 20.5485C22.6335 20.5794 22.6146 20.6074 22.5899 20.6302C22.5652 20.653 22.5355 20.6701 22.5029 20.68C22.1633 20.8007 21.8236 20.9347 21.4865 21.0662C21.0723 21.2201 20.6675 21.3967 20.274 21.5949C20.1859 21.6339 20.1123 21.6984 20.0636 21.7794C20.0149 21.8605 19.9933 21.9541 20.0018 22.0475C20.0168 22.54 20.0018 23.0324 20.0018 23.5236C20.0018 24.0945 20.0093 24.1078 20.5525 24.3419C21.1856 24.6159 21.8386 24.838 22.4904 25.0661C22.528 25.0767 22.5625 25.0956 22.5912 25.1214C22.6198 25.1472 22.6417 25.1791 22.6553 25.2146C22.7352 25.4125 22.8176 25.6081 22.905 25.8012C22.924 25.8366 22.934 25.8759 22.934 25.9158C22.934 25.9557 22.924 25.9951 22.905 26.0305C22.7452 26.3793 22.5866 26.7281 22.4355 27.0793C22.2674 27.4391 22.1279 27.8107 22.0184 28.191C21.9932 28.2667 21.9916 28.3479 22.0138 28.4245C22.036 28.5012 22.0811 28.5698 22.1433 28.6218C22.5791 29.0189 23.0099 29.4221 23.4282 29.8348C23.4985 29.9161 23.5938 29.9736 23.7002 29.999C23.8067 30.0244 23.9187 30.0164 24.0201 29.9761C24.5982 29.7902 25.1539 29.55 25.7108 29.3158C25.9031 29.235 26.0854 29.0913 26.2852 29.0865C26.485 29.0817 26.6735 29.2157 26.8683 29.2893C26.9282 29.3122 26.9932 29.3376 27.0494 29.3569C27.0854 29.3667 27.1184 29.3851 27.1452 29.4104C27.172 29.4357 27.1919 29.4671 27.2029 29.5017C27.337 29.8292 27.4756 30.1543 27.6188 30.4769C27.7791 30.8615 27.9634 31.2364 28.1707 31.5994C28.2105 31.6824 28.2763 31.7512 28.3587 31.7963C28.4411 31.8413 28.5361 31.8602 28.6302 31.8505C28.9286 31.8336 29.2283 31.8505 29.528 31.8505C29.7776 31.8355 30.0279 31.8375 30.2772 31.8565C30.6868 31.9132 30.9015 31.7237 31.0339 31.3846C31.0339 31.3713 31.0464 31.358 31.0526 31.3447C31.3173 30.7944 31.5433 30.2283 31.7544 29.655C31.776 29.5682 31.8215 29.4887 31.8862 29.4249C31.9508 29.3612 32.0321 29.3155 32.1215 29.2929C32.2695 29.2509 32.4129 29.1951 32.5498 29.1264C32.6017 29.099 32.6599 29.0847 32.719 29.0847C32.7781 29.0847 32.8363 29.099 32.8882 29.1264C33.0617 29.2096 33.2453 29.276 33.4251 29.346C33.987 29.5821 34.5638 29.7837 35.152 29.9495C35.2215 29.9697 35.2955 29.9708 35.3656 29.9527C35.4358 29.9346 35.4993 29.898 35.5491 29.8469C35.9974 29.4208 36.4419 28.9912 36.9002 28.576C36.9661 28.5215 37.0133 28.4489 37.0356 28.3678C37.0579 28.2868 37.0542 28.2011 37.025 28.1222C37.0076 28.057 36.9863 27.9918 36.9638 27.929C36.7141 27.27 36.3994 26.6436 36.0898 26.0124C36.0704 25.9766 36.0603 25.9369 36.0603 25.8965C36.0603 25.8562 36.0704 25.8164 36.0898 25.7806C36.1784 25.5924 36.2633 25.4017 36.3395 25.2085C36.3534 25.1704 36.3761 25.1359 36.406 25.1076C36.4359 25.0794 36.4721 25.0582 36.5118 25.0456C36.9164 24.8947 37.3197 24.7415 37.7205 24.5821C38.0844 24.4481 38.4368 24.2867 38.7744 24.0993C38.8449 24.0633 38.9029 24.0081 38.9413 23.9405C38.9797 23.8729 38.9968 23.796 38.9904 23.7192C38.9805 23.1881 38.958 22.6558 38.9967 22.1272C39.0267 21.7397 38.8518 21.5563 38.5197 21.4151ZM29.4993 25.9472C27.8285 25.9472 26.2527 24.6871 26.2465 22.8682C26.2465 21.0276 27.856 19.7555 29.5055 19.7869C31.145 19.7615 32.7521 21.0276 32.7521 22.867C32.7496 24.6666 31.1862 25.9472 29.4993 25.9472Z" fill="#0C8CE9" stroke="#263238" stroke-width="2"/>
<rect x="2" y="7.86646" width="33" height="2" fill="#263238"/>
<circle cx="4.5" cy="5.36646" r="1.5" fill="#E90C59"/>
<circle cx="8.5" cy="5.36646" r="1.5" fill="#E90C59"/>
<circle cx="12.5" cy="5.36646" r="1.5" fill="#E90C59"/>
<rect x="5" y="12.8665" width="10" height="10" rx="1" fill="white" stroke="#263238" stroke-width="2"/>
<rect x="4" y="25.8665" width="11" height="2" rx="1" fill="#263238"/>
<rect x="4" y="28.8665" width="8" height="2" rx="1" fill="#263238"/>
</g>
<defs>
<filter id="filter0_d_104_893" x="0" y="0.866455" width="40" height="40" filterUnits="userSpaceOnUse" color-interpolation-filters="sRGB">
<feFlood flood-opacity="0" result="BackgroundImageFix"/>
<feColorMatrix in="SourceAlpha" type="matrix" values="0 0 0 0 0 0 0 0 0 0 0 0 0 0 0 0 0 0 127 0" result="hardAlpha"/>
<feOffset dx="3" dy="3"/>
<feComposite in2="hardAlpha" operator="out"/>
<feColorMatrix type="matrix" values="0 0 0 0 0.14902 0 0 0 0 0.196078 0 0 0 0 0.219608 0 0 0 1 0"/>
<feBlend mode="normal" in2="BackgroundImageFix" result="effect1_dropShadow_104_893"/>
<feBlend mode="normal" in="SourceGraphic" in2="effect1_dropShadow_104_893" result="shape"/>
</filter>
<clipPath id="clip0_104_893">
<rect width="40" height="40" fill="white" transform="translate(0 0.866455)"/>
</clipPath>
</defs>
</svg>
