<svg width="60" height="60" viewBox="0 0 60 60" fill="none" xmlns="http://www.w3.org/2000/svg">
<rect x="1" y="7" width="56" height="44" rx="2" fill="#263238" stroke="white" stroke-width="2"/>
<rect y="13" width="57" height="1" fill="white"/>
<path d="M57.272 43.9327C49.8742 43.9327 43.8214 37.88 43.8214 30.4822C43.8214 23.0844 49.8742 17.0316 57.272 17.0316" stroke="white" stroke-miterlimit="10" stroke-linecap="round" stroke-linejoin="round"/>
<path d="M43.8214 43.8394L43.8214 16.9383" stroke="white" stroke-miterlimit="10" stroke-linecap="round" stroke-linejoin="round"/>
<path d="M46.3 43.6608C46.3 42.2801 45.1808 41.1608 43.8 41.1608C42.4193 41.1608 41.3 42.2801 41.3 43.6608C41.3 45.0415 42.4193 46.1608 43.8 46.1608C45.1808 46.1608 46.3 45.0415 46.3 43.6608Z" fill="#E90C59" stroke="white" stroke-miterlimit="10" stroke-linecap="round" stroke-linejoin="round"/>
<path d="M46.3 16.6428C46.3 15.2621 45.1808 14.1428 43.8 14.1428C42.4193 14.1428 41.3 15.2621 41.3 16.6428C41.3 18.0235 42.4193 19.1428 43.8 19.1428C45.1808 19.1428 46.3 18.0235 46.3 16.6428Z" fill="#E90C59" stroke="white" stroke-miterlimit="10" stroke-linecap="round" stroke-linejoin="round"/>
<path d="M41.8 27.1965C41.5239 27.1965 41.3 27.4204 41.3 27.6965L41.3 31.6965C41.3 31.9727 41.5239 32.1965 41.8 32.1965L45.8 32.1965C46.0762 32.1965 46.3 31.9727 46.3 31.6965L46.3 27.6965C46.3 27.4204 46.0762 27.1965 45.8 27.1965L41.8 27.1965Z" fill="#0C8CE9" stroke="white" stroke-miterlimit="10" stroke-linecap="round" stroke-linejoin="round"/>
<path d="M55 41.1608C54.7239 41.1608 54.5 41.3846 54.5 41.6608L54.5 45.6608C54.5 45.9369 54.7239 46.1608 55 46.1608L59 46.1608C59.2761 46.1608 59.5 45.9369 59.5 45.6608L59.5 41.6608C59.5 41.3846 59.2761 41.1608 59 41.1608L55 41.1608Z" fill="#0C8CE9" stroke="white" stroke-miterlimit="10" stroke-linecap="round" stroke-linejoin="round"/>
<path d="M55 14.4465C54.7239 14.4465 54.5 14.6704 54.5 14.9465L54.5 18.9465C54.5 19.2227 54.7239 19.4465 55 19.4465L59 19.4465C59.2761 19.4465 59.5 19.2227 59.5 18.9465L59.5 14.9465C59.5 14.6704 59.2761 14.4465 59 14.4465L55 14.4465Z" fill="#0C8CE9" stroke="white" stroke-miterlimit="10" stroke-linecap="round" stroke-linejoin="round"/>
<circle cx="5.5" cy="10.5" r="1" stroke="white"/>
<circle cx="9.5" cy="10.5" r="1" stroke="white"/>
<circle cx="13.5" cy="10.5" r="1" stroke="white"/>
<rect x="8.5" y="18.5" width="23" height="23" fill="#263238" stroke="#959595" stroke-dasharray="2 2"/>
<mask id="path-14-inside-1_1_669" fill="white">
<path fill-rule="evenodd" clip-rule="evenodd" d="M4.09344 41.9385L12.6076 36.0384C12.68 35.9885 12.7725 35.9885 12.8433 36.0312C12.9136 36.0687 12.9601 36.1442 12.9574 36.2295L12.593 46.5824C12.5893 46.6724 12.5309 46.7512 12.4446 46.78C12.3593 46.8087 12.2647 46.7809 12.2082 46.7113L10.4014 44.481L8.52875 47.8881C8.47125 47.992 8.33958 48.0309 8.2348 47.9734L6.82753 47.2008L5.27661 46.357C5.17183 46.2995 5.13288 46.1687 5.19037 46.0639L7.04496 42.6476L4.19266 42.3317C4.10272 42.3215 4.02853 42.2575 4.00628 42.1694C3.98495 42.0822 4.01926 41.9904 4.09344 41.9385Z"/>
</mask>
<path fill-rule="evenodd" clip-rule="evenodd" d="M4.09344 41.9385L12.6076 36.0384C12.68 35.9885 12.7725 35.9885 12.8433 36.0312C12.9136 36.0687 12.9601 36.1442 12.9574 36.2295L12.593 46.5824C12.5893 46.6724 12.5309 46.7512 12.4446 46.78C12.3593 46.8087 12.2647 46.7809 12.2082 46.7113L10.4014 44.481L8.52875 47.8881C8.47125 47.992 8.33958 48.0309 8.2348 47.9734L6.82753 47.2008L5.27661 46.357C5.17183 46.2995 5.13288 46.1687 5.19037 46.0639L7.04496 42.6476L4.19266 42.3317C4.10272 42.3215 4.02853 42.2575 4.00628 42.1694C3.98495 42.0822 4.01926 41.9904 4.09344 41.9385Z" fill="#263238"/>
<path d="M12.6076 36.0384L12.038 35.2164L12.0404 35.2148L12.6076 36.0384ZM4.09344 41.9385L3.51997 41.1193L3.52386 41.1166L4.09344 41.9385ZM12.8433 36.0312L12.372 36.9131L12.349 36.9008L12.3266 36.8873L12.8433 36.0312ZM12.9574 36.2295L13.9569 36.2605L13.9568 36.2647L12.9574 36.2295ZM12.593 46.5824L13.5924 46.6176L13.5921 46.6236L12.593 46.5824ZM12.4446 46.78L12.1253 45.8323L12.1284 45.8313L12.4446 46.78ZM12.2082 46.7113L11.4324 47.3423L11.4311 47.3408L12.2082 46.7113ZM10.4014 44.481L9.52504 43.9994L10.2418 42.6954L11.1784 43.8516L10.4014 44.481ZM8.52875 47.8881L9.4051 48.3698L9.40364 48.3724L8.52875 47.8881ZM8.2348 47.9734L7.7538 48.8501L7.75353 48.85L8.2348 47.9734ZM6.82753 47.2008L7.30545 46.3224L7.30879 46.3242L6.82753 47.2008ZM5.27661 46.357L4.79869 47.2354L4.79555 47.2337L5.27661 46.357ZM5.19037 46.0639L6.06924 46.541L6.06708 46.545L5.19037 46.0639ZM7.04496 42.6476L7.15504 41.6536L8.63346 41.8174L7.92381 43.1247L7.04496 42.6476ZM4.19266 42.3317L4.08258 43.3256L4.08 43.3253L4.19266 42.3317ZM4.00628 42.1694L3.03671 42.4143L3.03493 42.407L4.00628 42.1694ZM13.1772 36.8603L4.66302 42.7604L3.52386 41.1166L12.038 35.2164L13.1772 36.8603ZM12.3266 36.8873C12.5812 37.041 12.9133 37.0421 13.1748 36.8619L12.0404 35.2148C12.4467 34.9349 12.9639 34.9359 13.36 35.175L12.3266 36.8873ZM11.9579 36.1985C11.9485 36.5023 12.1152 36.7759 12.372 36.9131L13.3147 35.1492C13.712 35.3616 13.9716 35.786 13.9569 36.2605L11.9579 36.1985ZM11.5936 46.5473L11.958 36.1943L13.9568 36.2647L13.5924 46.6176L11.5936 46.5473ZM12.1284 45.8313C11.8165 45.9352 11.6071 46.2206 11.5938 46.5412L13.5921 46.6236C13.5715 47.1242 13.2452 47.5672 12.7608 47.7286L12.1284 45.8313ZM12.984 46.0804C12.7793 45.8287 12.4384 45.7268 12.1253 45.8323L12.7639 47.7276C12.2802 47.8906 11.7501 47.733 11.4324 47.3423L12.984 46.0804ZM11.1784 43.8516L12.9852 46.0819L11.4311 47.3408L9.62437 45.1105L11.1784 43.8516ZM7.6524 47.4064L9.52504 43.9994L11.2777 44.9627L9.4051 48.3698L7.6524 47.4064ZM8.71579 47.0967C8.33382 46.8871 7.861 47.0296 7.65386 47.4038L9.40364 48.3724C9.08151 48.9543 8.34534 49.1747 7.7538 48.8501L8.71579 47.0967ZM7.30879 46.3242L8.71606 47.0968L7.75353 48.85L6.34626 48.0774L7.30879 46.3242ZM5.75453 45.4786L7.30545 46.3224L6.34961 48.0792L4.79869 47.2354L5.75453 45.4786ZM6.06708 46.545C6.27857 46.1595 6.13097 45.6851 5.75767 45.4803L4.79555 47.2337C4.21268 46.9138 3.98719 46.1779 4.31367 45.5829L6.06708 46.545ZM7.92381 43.1247L6.06923 46.541L4.31152 45.5869L6.1661 42.1705L7.92381 43.1247ZM4.30275 41.3377L7.15504 41.6536L6.93487 43.6415L4.08258 43.3256L4.30275 41.3377ZM4.97582 41.9244C4.89489 41.6041 4.62401 41.3742 4.30532 41.338L4.08 43.3253C3.58142 43.2688 3.16218 42.9108 3.03674 42.4143L4.97582 41.9244ZM4.66691 42.7577C4.93066 42.5731 5.05431 42.2452 4.97763 41.9317L3.03493 42.407C2.91559 41.9193 3.10786 41.4077 3.51998 41.1193L4.66691 42.7577Z" fill="white" mask="url(#path-14-inside-1_1_669)"/>
</svg>
