<svg width="99" height="99" viewBox="0 0 99 99" fill="none" xmlns="http://www.w3.org/2000/svg">
<path d="M65.391 37.2209C63.3401 25.867 63.9575 14.2585 67.2001 3.0088L50.1569 0C46.408 13.0023 45.6988 26.4344 48.0649 39.5571L65.391 37.2209Z" fill="#263238"/>
<path d="M63.7825 3.20001L53.1252 1.39258C52.7949 2.5746 51.5147 3.38806 50.228 3.19786C47.494 14.0364 46.8986 25.3001 48.475 36.3645C49.779 36.2248 50.9707 37.0844 51.1736 38.2793L62.0004 36.8953C61.8126 35.7949 62.7452 34.7881 64.0513 34.6484C62.6677 24.9336 63.1908 15.0439 65.5917 5.52753C64.3039 5.33303 63.4792 4.29069 63.7825 3.20001Z" fill="#68A4EF"/>
<path d="M58.9694 25.8263C61.5601 24.6443 62.5942 21.5453 61.4435 18.8298C60.2928 16.1144 57.2693 14.5466 54.5297 15.3912C51.7901 16.2358 50.4732 19.4412 51.7739 22.4941C53.0746 25.5469 56.3788 27.0051 58.9694 25.8263Z" fill="#263238"/>
<path d="M60.8606 19.8162L59.9193 20.1461C60.1827 21.3163 59.7488 22.1877 58.9338 22.4908C58.1188 22.7938 57.401 22.5187 56.531 21.4689C55.8919 20.7242 55.5595 20.4362 55.2551 20.5404C54.996 20.6275 54.8233 20.9294 55.0813 21.5881C55.2015 21.89 55.3612 22.1747 55.5562 22.4349C55.7721 22.7197 55.7376 23.1119 55.4818 23.301C55.2335 23.4837 54.8676 23.4085 54.6635 23.1226C54.4664 22.8443 54.2979 22.5469 54.1605 22.235L53.3477 22.5209C53.2117 22.1842 53.0775 21.8471 52.9451 21.5097L53.8259 21.2099C53.5895 20.0451 54.0008 19.2026 54.8211 18.9393C55.7279 18.6492 56.464 19.2327 57.2143 20.1772C57.7356 20.8306 58.0864 21.0637 58.4362 20.9391C58.8053 20.8069 58.8528 20.3556 58.6326 19.8001C58.4875 19.4391 58.2901 19.1013 58.0465 18.7975C57.9937 18.7362 57.9543 18.6647 57.9306 18.5876C57.907 18.5104 57.8997 18.4291 57.9091 18.349C57.9185 18.2688 57.9445 18.1915 57.9854 18.1219C58.0264 18.0522 58.0813 17.9917 58.1469 17.9443L58.176 17.9239C58.3031 17.8469 58.4548 17.8206 58.6005 17.8503C58.7463 17.88 58.8754 17.9635 58.9619 18.084C59.2203 18.4219 59.4377 18.7891 59.6095 19.1779L60.4893 18.8748C60.6109 19.1908 60.7347 19.5045 60.8606 19.8162Z" fill="white"/>
<path d="M66.654 33.3891C58.6852 24.0168 52.5408 13.248 48.5356 1.63452L33.9707 5.96182C38.6021 19.3882 45.7063 31.8379 54.9194 42.6734L66.654 33.3891Z" fill="#263238"/>
<path d="M46.0679 3.22168L37.0006 5.99299C37.4269 7.20403 36.9228 8.4645 35.8445 8.82771C40.0454 19.9408 45.9724 30.3286 53.4091 39.612C54.3137 38.9458 55.7008 39.2316 56.5395 40.2309L63.9142 34.497C63.1468 33.5772 63.2763 32.2781 64.1798 31.6129C57.6488 23.4605 52.4437 14.3382 48.7546 4.57886C47.6751 4.93884 46.4565 4.33601 46.0679 3.22168Z" fill="#68A4EF"/>
<path d="M52.5488 27.4446C54.9776 25.9553 55.6144 22.7509 54.1345 20.1966C52.6546 17.6424 49.4606 16.4604 46.8461 17.6316C44.2317 18.8029 43.3239 22.1448 44.9938 25.0193C46.6637 27.8938 50.1266 28.9329 52.5488 27.4446Z" fill="#263238"/>
<path d="M53.6778 21.2475L52.7862 21.6945C53.1931 22.825 52.8703 23.7362 52.0986 24.1435C51.3268 24.5507 50.5873 24.3584 49.5878 23.4257C48.8613 22.7648 48.4975 22.5187 48.2061 22.6606C47.96 22.7788 47.8207 23.1001 48.164 23.7212C48.3206 24.0064 48.5148 24.2695 48.7415 24.5034C48.9898 24.7603 49.0049 25.1482 48.7739 25.3717C48.5504 25.5866 48.178 25.5522 47.9405 25.2954C47.7098 25.0438 47.5055 24.7694 47.3307 24.4766L46.5643 24.8602C46.3872 24.5428 46.212 24.2251 46.0386 23.9071L46.8762 23.5009C46.4973 22.3747 46.7996 21.4871 47.5822 21.1261C48.4457 20.7263 49.2477 21.2142 50.1102 22.0588C50.7082 22.6423 51.0817 22.8314 51.4174 22.6649C51.7672 22.4886 51.7585 22.0341 51.4703 21.5097C51.2812 21.1695 51.0434 20.8586 50.7644 20.5866C50.7044 20.5323 50.6564 20.4661 50.6234 20.3924C50.5904 20.3187 50.573 20.2389 50.5724 20.1582C50.5718 20.0775 50.5879 19.9975 50.6199 19.9233C50.6518 19.8491 50.6988 19.7822 50.7579 19.727L50.7849 19.7033C50.9013 19.6114 51.0484 19.5666 51.1966 19.5782C51.3448 19.5898 51.483 19.6567 51.5837 19.7657C51.8815 20.0693 52.1424 20.4069 52.3609 20.7715L53.1963 20.3631C53.3518 20.6597 53.5148 20.9541 53.6778 21.2475Z" fill="white"/>
<path d="M63.0723 35.2244C53.4361 30.7498 44.4347 24.3712 36.5429 16.4119L28.8 26.2485C37.9235 35.4468 48.3314 42.8269 59.4734 47.9999C60.6737 43.741 61.8734 39.4825 63.0723 35.2244Z" fill="#263238"/>
<path d="M35.6211 18.7931L30.8381 24.9816C31.6736 25.8122 31.9122 27.0834 31.3573 27.8453C39.1628 35.3071 47.8447 41.4633 57.075 46.0829C57.3751 45.1394 58.4297 44.7848 59.4411 45.2641C60.2104 42.6135 60.9797 39.965 61.749 37.3187C60.8185 36.8781 60.3133 35.7369 60.6134 34.7945C52.5068 30.738 44.8827 25.3319 38.0283 18.7834C37.4735 19.5432 36.3897 19.5571 35.6211 18.7931Z" fill="#F5617A"/>
<path d="M50.9632 36.2797C51.9055 33.9963 50.8714 31.0444 48.7233 29.5422C46.5753 28.0399 43.9069 28.4139 42.6968 30.5093C41.4868 32.6047 42.4043 35.7919 44.8233 37.479C47.2424 39.166 50.0241 38.5589 50.9632 36.2797Z" fill="#263238"/>
<path d="M48.8971 30.6146L48.5053 31.3668C49.2911 32.1373 49.4919 33.0389 49.1616 33.7072C48.8313 34.3756 48.2484 34.5368 47.1603 34.1801C46.3756 33.9383 46.0215 33.8878 45.892 34.1306C45.784 34.3359 45.8347 34.6679 46.3464 35.0365C46.5739 35.2044 46.823 35.3414 47.0869 35.4437C47.2261 35.4994 47.3427 35.5996 47.4182 35.7287C47.4937 35.8578 47.5237 36.0082 47.5036 36.1562C47.4518 36.4281 47.1884 36.5613 46.9131 36.4485C46.6398 36.3317 46.3791 36.1876 46.1348 36.0186L45.7948 36.6634C45.5329 36.4735 45.2716 36.2823 45.0111 36.0896L45.3835 35.3932C44.6193 34.6131 44.4174 33.7416 44.7737 33.1055C45.1677 32.4027 45.9254 32.4672 46.884 32.8057C47.5489 33.0378 47.8868 33.0346 48.0314 32.7541C48.1847 32.4575 47.972 32.0814 47.5413 31.7655C47.2692 31.5664 46.9692 31.4082 46.6508 31.2959C46.5111 31.2417 46.3949 31.1404 46.3227 31.0095C46.2505 30.8787 46.2268 30.7267 46.2557 30.5802C46.2557 30.5695 46.2557 30.5598 46.2633 30.5491C46.2756 30.4902 46.301 30.4348 46.3375 30.3869C46.374 30.339 46.4208 30.2997 46.4744 30.2721C46.5281 30.2444 46.5872 30.2289 46.6476 30.2269C46.708 30.2248 46.7681 30.2361 46.8235 30.26C47.1662 30.3911 47.4922 30.5617 47.795 30.7683C47.9192 30.5362 48.0422 30.303 48.1663 30.0698C48.411 30.2597 48.6546 30.4413 48.8971 30.6146Z" fill="white"/>
<path d="M58.7622 40.3984C56.5313 39.2794 54.3365 38.0662 52.1776 36.7588C52.0186 37.1478 51.8602 37.5368 51.7026 37.9258C53.8896 39.2496 56.1147 40.4797 58.3779 41.6159L58.7622 40.3984Z" fill="#50BFA5"/>
<path d="M40.7786 28.6211C38.9608 26.9469 37.2125 25.199 35.5336 23.3772L34.6506 24.2895C36.3526 26.1356 38.1254 27.9076 39.969 29.6054L40.7786 28.6211Z" fill="#263238"/>
<path d="M46.1251 16.0831C45.0262 13.9919 44.0259 11.8575 43.1242 9.67969L41.8872 10.1751C42.8019 12.3801 43.8162 14.5446 44.9301 16.6687L46.1251 16.0831Z" fill="#263238"/>
<path d="M58.2601 13.7148C58.3281 11.5316 58.5104 9.35332 58.8063 7.18896L57.3772 7.03638C57.0755 9.23237 56.8892 11.4425 56.8191 13.6579L58.2601 13.7148Z" fill="#263238"/>
<g filter="url(#filter0_d_257_967)">
<path d="M6 35C6 33.3431 7.34315 32 9 32H87C88.6569 32 90 33.3431 90 35V86.3396H6V35Z" fill="white"/>
<path d="M9 32.5H87C88.3807 32.5 89.5 33.6193 89.5 35V85.8396H6.5V35C6.5 33.6193 7.61929 32.5 9 32.5Z" stroke="#263238"/>
</g>
<g filter="url(#filter1_d_257_967)">
<path d="M0 85.1321H96V93C96 94.6569 94.6569 96 93 96H3C1.34315 96 0 94.6569 0 93V85.1321Z" fill="white"/>
<path d="M0.5 85.6321H95.5V93C95.5 94.3807 94.3807 95.5 93 95.5H3C1.61929 95.5 0.5 94.3807 0.5 93V85.6321Z" stroke="#263238"/>
</g>
<path d="M37.7 85.6321H58.3V88.1698C58.3 89.5505 57.1807 90.6698 55.8 90.6698H40.2C38.8192 90.6698 37.7 89.5505 37.7 88.1698V85.6321Z" fill="#F5617A" stroke="#263238"/>
<rect x="9.5" y="35.5" width="77" height="47" stroke="#263238"/>
<path d="M2.84056 53.5674C1.7915 54.3689 1.2515 56.6077 1.139 59.7746C1.0265 62.9414 1.62275 64.6627 1.83087 65.183C2.039 65.7033 3.60275 66.4796 5.36337 67.8408C6.65431 68.8393 16.7906 75.8958 17.9915 76.4443C19.9012 77.3133 21.1162 75.5555 21.1162 75.5555C21.1162 75.5555 22.1287 76.1349 23.1074 75.5555C24.3027 74.8468 24.1621 73.9664 24.1621 73.9664C24.1621 73.9664 25.394 74.2505 26.0212 73.6964C26.6484 73.1424 26.9268 71.8121 26.9268 71.8121C26.9268 71.8121 27.7565 72.1889 28.4596 71.5618C29.1627 70.9346 29.6971 70.0852 28.9518 68.9264C28.2065 67.7677 25.1746 64.1171 24.3871 63.0933C23.5996 62.0696 21.5746 56.2308 19.6256 55.6486C17.6765 55.0664 15.7527 55.2155 13.7165 55.8174C11.6802 56.4193 9.77619 56.363 7.51494 55.7218C5.25369 55.0805 2.84056 53.5674 2.84056 53.5674Z" fill="white"/>
<path d="M34.6809 58.5313C34.2647 55.761 33.7162 53.8766 33.3084 53.421C32.8415 52.9035 32.04 53.9329 30.344 54.5348C28.6481 55.1366 25.5937 55.3645 25.5937 55.3645C25.5937 55.3645 20.6803 55.221 18.8409 55.8398C18.149 56.0704 11.3231 58.9476 11.1178 60.1541C11.0306 60.666 11.5987 61.8107 13.0106 61.926C15.3028 62.1145 18.1687 60.1176 18.1687 60.1176C18.2025 60.0613 18.5428 59.9657 20.1093 59.9657C21.6759 59.9657 23.4956 60.9923 23.6109 61.1835C24.7809 63.1101 25.8918 64.4601 26.9634 65.7651C27.7481 66.7185 29.5931 69.2413 29.5931 69.2413C29.5931 69.2413 31.6659 66.7916 32.1947 66.2263C32.7234 65.661 34.6837 64.2295 34.6837 64.2295C34.6837 64.2295 35.1168 61.4282 34.6809 58.5313Z" fill="white"/>
<path d="M7.4783 71.1398C7.4783 71.1398 6.73018 71.4042 6.04674 70.4226C5.3633 69.4411 5.93424 68.7661 6.63174 68.2176C7.32924 67.6692 8.25174 67.4048 8.80018 67.8211C9.3458 68.2345 9.57361 68.9517 9.57361 68.9517C9.57361 68.9517 10.7042 68.0292 11.7224 68.5945C12.7405 69.1598 12.6758 70.1892 12.6758 70.1892C12.6758 70.1892 13.663 69.5901 14.7008 70.1892C15.7386 70.7883 15.2296 72.5151 15.2296 72.5151C15.2296 72.5151 16.4361 72.5517 16.6611 73.7414C16.8861 74.9283 16.6049 76.1911 15.2464 76.4189C13.8908 76.6439 13.0977 75.3726 13.0977 75.3726C13.0977 75.3726 11.7421 76.1911 10.7408 75.5161C9.73955 74.8411 9.85486 73.4236 9.85486 73.4236C9.85486 73.4236 8.63143 73.6261 7.94236 72.9848C7.2533 72.3436 7.4783 71.1398 7.4783 71.1398Z" fill="white"/>
<path d="M16.9566 75.4794C17.2997 74.8437 17.3841 74.1125 17.1591 73.5106C16.996 73.0719 16.6051 72.5206 15.6938 72.2534C15.7022 72.2365 15.7107 72.2225 15.7191 72.2084L15.6938 72.1944C15.8147 71.8259 15.8429 71.4744 15.7866 71.0525C15.6966 70.3887 15.3141 69.8909 14.7094 69.6575C14.1976 69.4578 13.5788 69.4747 13.0838 69.6772C13.0304 69.1006 12.7547 68.69 12.2232 68.3665C11.1601 67.7197 10.3669 68.1415 9.88037 68.4228C9.6638 67.8012 9.12662 67.4947 8.7863 67.3569C8.3813 67.1937 7.3913 66.9828 6.21287 68.0347L6.81474 68.5859C7.62755 67.894 8.23505 68.0065 8.48537 68.1078C9.13224 68.3665 9.10974 68.8475 9.10693 69.0697C9.10412 69.289 9.07037 69.5225 8.53318 70.0203C7.86943 70.6362 7.39974 70.639 7.39974 70.639C6.92443 70.6953 6.49974 70.3353 6.30568 69.9781C6.23818 69.8515 6.03849 69.4184 6.30287 69.1062C6.36474 69.0359 6.4913 68.839 6.92162 68.5015L6.32818 67.939C6.06943 68.1528 5.74599 68.5128 5.68412 68.5831C5.28755 69.05 5.2538 69.7334 5.59412 70.3634C5.87537 70.8894 6.44349 71.3844 7.13818 71.4519C7.08755 72.1269 7.32662 72.7512 7.83568 73.2434C8.3813 73.7722 9.05912 73.8284 9.53162 73.7862C9.53724 74.2587 9.6413 74.9225 10.1026 75.3978C11.0194 76.34 12.1641 76.1009 12.9066 75.7044C13.1738 76.2472 13.6547 76.6353 14.2651 76.7787C14.4366 76.8181 14.611 76.8378 14.7826 76.8378C15.4238 76.8378 16.2535 76.8378 17.0691 75.2431C16.816 75.0856 16.5741 74.9619 16.3604 74.8353C15.7388 76.0672 14.9147 76.0981 14.4479 75.9884C14.0232 75.8872 13.711 75.6003 13.5676 75.1869C14.2454 74.4275 14.7235 73.8284 15.2551 72.9819C15.8569 73.1084 16.2422 73.3812 16.3969 73.7975C16.5319 74.1603 16.4785 74.6272 16.2704 75.0434L16.9566 75.4794ZM9.83537 72.8975C9.82693 72.9003 8.96068 73.1984 8.39818 72.6556C8.02412 72.2928 7.87787 71.854 7.96505 71.3534C8.98318 70.6306 9.86349 69.5 10.0463 69.2553C10.111 69.2215 10.9744 68.5381 11.8013 69.0556C12.1838 69.2947 12.3385 69.8459 12.2597 70.234C12.181 70.6222 12.001 71.0919 11.2585 71.885C10.5329 72.6584 9.83537 72.8975 9.83537 72.8975ZM14.8332 72.1747C14.6447 72.5459 14.0597 73.7778 12.8447 74.779C12.7069 74.8915 11.5454 75.7072 10.6847 74.824C10.3754 74.5062 10.3276 73.9606 10.3444 73.6062C10.921 73.1534 12.0685 72.1409 12.9572 70.6925C13.3032 70.3015 13.9754 70.2369 14.4169 70.4084C14.7432 70.535 14.9344 70.7853 14.9822 71.1565C15.0301 71.4997 15.0216 71.8034 14.8332 72.1747Z" fill="#263238"/>
<path d="M22.036 76.16C21.766 76.16 21.5016 76.1178 21.2541 76.0306C20.6185 75.8084 18.1576 73.9353 17.7357 73.2856C17.6147 73.0972 17.6682 72.8469 17.8538 72.7259C18.0422 72.605 18.2926 72.6584 18.4135 72.844C18.706 73.294 21.001 75.0828 21.5213 75.2656C21.9882 75.4287 22.5872 75.3444 23.0429 75.0519C23.3326 74.8634 23.6926 74.509 23.746 73.8875C23.7657 73.6653 23.9626 73.4994 24.1847 73.519C24.4069 73.5387 24.5729 73.7356 24.5532 73.9578C24.4885 74.6975 24.1088 75.3275 23.4844 75.7325C23.0524 76.0106 22.5498 76.1589 22.036 76.16Z" fill="#263238"/>
<path d="M24.9861 74.3263C24.432 74.3263 23.8358 74.1519 23.1158 73.7835C22.2298 73.3335 21.0626 72.1775 20.2104 71.3366C20.0389 71.1679 19.8842 71.0132 19.752 70.8866C19.5917 70.7319 19.5861 70.476 19.7408 70.3129C19.8954 70.1497 20.1514 70.1469 20.3145 70.3016C20.4495 70.431 20.607 70.5857 20.7814 70.76C21.5492 71.5194 22.7108 72.6669 23.4842 73.0607C24.4601 73.5585 24.9608 73.5529 25.3264 73.4825C25.9958 73.3504 26.412 72.7232 26.4092 71.84C26.4092 71.7326 26.4519 71.6296 26.5278 71.5537C26.6038 71.4777 26.7068 71.435 26.8142 71.435C26.9216 71.435 27.0246 71.4777 27.1006 71.5537C27.1765 71.6296 27.2192 71.7326 27.2192 71.84C27.222 73.1141 26.5386 74.0732 25.4811 74.2813C25.3179 74.3122 25.152 74.3263 24.9861 74.3263Z" fill="#263238"/>
<path d="M27.312 72.3378C27.0955 72.3378 26.8761 72.3013 26.6652 72.2197C25.5261 71.7753 24.0073 70.3747 22.0217 67.9363C21.9583 67.8523 21.93 67.747 21.9427 67.6426C21.9553 67.5381 22.0081 67.4427 22.0897 67.3763C22.1714 67.31 22.2756 67.2779 22.3804 67.2869C22.4853 67.2958 22.5825 67.3451 22.6517 67.4244C24.5192 69.7194 25.9677 71.0778 26.9605 71.4631C27.4583 71.6572 28.198 71.3759 28.6423 70.8247C28.8505 70.5659 29.1486 70.0513 28.7886 69.5028C27.9927 68.2906 27.1883 67.3119 26.3361 66.2769C25.2448 64.9494 24.117 63.5769 22.9161 61.6025C22.8008 61.4113 22.8598 61.1609 23.0511 61.0456C23.2423 60.9303 23.4927 60.9894 23.608 61.1806C24.778 63.1072 25.8889 64.4572 26.9605 65.7622C27.8267 66.8141 28.6423 67.8097 29.4636 69.0584C29.9277 69.7616 29.8545 70.6138 29.2695 71.3366C28.8195 71.8906 28.0686 72.3378 27.312 72.3378Z" fill="#263238"/>
<path d="M28.0179 63.5516C28.0011 63.5516 27.987 63.5516 27.9701 63.5488C24.9945 63.2029 23.5011 62.0498 22.5139 61.2876C22.0273 60.9135 21.6448 60.6154 21.2792 60.5619C20.2442 60.4044 19.2204 60.2919 18.1179 60.6126C18.0139 60.6435 17.7045 60.7898 17.3726 60.9473C16.3573 61.4282 14.8245 62.1566 13.6967 62.2748C12.8192 62.3676 12.0345 62.1454 11.4861 61.6532C11.0417 61.2538 10.7886 60.7026 10.7886 60.1401C10.7886 59.1529 12.0373 58.5707 12.8614 58.1882C13.3142 57.9773 13.9301 57.6313 14.5798 57.2657C15.7161 56.6273 17.0042 55.9016 17.9492 55.6035C19.5017 55.1141 23.5939 54.9679 24.9045 54.9538C27.8436 54.9257 30.2595 54.1016 32.0961 53.1566C32.172 53.1173 32.5067 52.9429 32.7992 53.016C33.207 53.1173 33.3083 53.4238 33.3083 53.4238C31.3029 54.6191 28.5636 55.7329 24.9158 55.7694C23.307 55.7835 19.5495 55.9551 18.1995 56.3798C17.3333 56.6526 16.0845 57.3557 14.982 57.9773C14.3183 58.3513 13.6911 58.7057 13.2073 58.9279C12.7264 59.1501 11.6014 59.6732 11.6014 60.1457C11.6014 60.4776 11.7589 60.8094 12.0289 61.0569C12.4029 61.3944 12.9683 61.5435 13.6123 61.476C14.6023 61.3719 16.1183 60.6519 17.0267 60.2216C17.4851 60.0023 17.7326 59.8869 17.8929 59.8419C19.257 59.4426 20.5479 59.6366 21.4001 59.766C21.9711 59.8532 22.452 60.2244 23.0089 60.6519C23.982 61.4029 25.3123 62.4294 28.0658 62.7501C28.2879 62.7754 28.4483 62.9779 28.4229 63.2001C28.3976 63.3998 28.2233 63.5516 28.0179 63.5516Z" fill="#263238"/>
<path d="M29.4271 69.005L29.0137 68.3975C29.3287 68.5663 30.0459 68.4369 30.9543 67.1572C31.5309 66.3444 32.608 64.7047 34.6555 63.8525C34.6555 63.8525 34.8102 64.6288 34.349 64.9438C32.9596 65.9 32.0849 66.9632 31.6152 67.6269C30.8446 68.7154 30.1359 69.3679 29.7309 69.6941C29.7309 69.6941 29.6802 69.3679 29.4271 69.005Z" fill="#263238"/>
<path d="M19.1868 77.0038C18.1771 77.0038 17.2012 76.4751 16.709 76.2079C16.6274 76.1629 16.5571 76.1263 16.498 76.0954L17.0971 74.7285C17.0971 74.7285 17.2434 75.5441 17.8621 75.8648C18.8802 76.3963 19.7943 76.4723 20.5368 75.4879L21.1837 75.9773C20.6015 76.7507 19.8843 77.0038 19.1868 77.0038Z" fill="#263238"/>
<path d="M5.8135 68.8139C4.88537 67.8352 3.74631 66.907 2.49194 66.097C2.43006 66.0577 2.08975 65.8383 1.92381 65.543C1.66506 65.0845 1.72694 64.6936 1.72694 64.6936C3.50725 65.6836 5.1385 66.9239 6.40131 68.257L5.8135 68.8139Z" fill="#263238"/>
<path d="M11.1346 56.6611C7.79898 56.6611 4.7193 55.3842 2.50586 53.8992C2.50586 53.8992 2.62117 53.6658 2.84055 53.5674C3.14711 53.4296 3.38336 53.5055 3.41711 53.5252C5.47305 54.8021 8.19836 55.8483 11.1318 55.8483H11.1515C11.9924 55.8483 13.123 55.5108 13.798 55.3111C13.9246 55.2746 14.0371 55.2408 14.1355 55.2127C15.7949 54.743 17.5809 54.7486 20.1065 55.2267L19.9546 56.0227C17.5612 55.5699 15.8849 55.5614 14.3549 55.9917C14.2621 56.0171 14.1524 56.0508 14.0287 56.0874C13.3115 56.3011 12.1105 56.6583 11.1543 56.6583C11.1487 56.6611 11.1402 56.6611 11.1346 56.6611Z" fill="#263238"/>
<path d="M26.0634 64.6597C26.0634 64.6597 25.8384 64.0663 26.2153 63.7316C26.6569 63.3379 27.1519 63.4785 27.495 63.4841C27.495 63.4841 26.8284 63.3097 25.979 62.9694C24.9244 62.5447 24.1987 62.0188 24.1987 62.0188C24.1987 62.0188 24.3872 62.3957 24.9722 63.2816C25.5544 64.1675 26.0634 64.6597 26.0634 64.6597Z" fill="#263238"/>
<rect x="48" y="42" width="28" height="3" rx="1.5" fill="#D9D9D9"/>
<rect x="48" y="47" width="22" height="3" rx="1.5" fill="#D9D9D9"/>
<rect x="48" y="77" width="30" height="2" rx="1" fill="#D9D9D9"/>
<rect x="48.5" y="54.5" width="31" height="19" fill="white" stroke="#263238"/>
<path d="M60 73.5L69 59L79.5 73.5" stroke="#263238" stroke-linejoin="round"/>
<path d="M54.5 73.5L60 65L63 69" stroke="#263238" stroke-linejoin="round"/>
<circle cx="54.5" cy="60.5" r="3" fill="#68A4EF" stroke="#263238"/>
<defs>
<filter id="filter0_d_257_967" x="6" y="32" width="87" height="57.3396" filterUnits="userSpaceOnUse" color-interpolation-filters="sRGB">
<feFlood flood-opacity="0" result="BackgroundImageFix"/>
<feColorMatrix in="SourceAlpha" type="matrix" values="0 0 0 0 0 0 0 0 0 0 0 0 0 0 0 0 0 0 127 0" result="hardAlpha"/>
<feOffset dx="3" dy="3"/>
<feComposite in2="hardAlpha" operator="out"/>
<feColorMatrix type="matrix" values="0 0 0 0 0.14902 0 0 0 0 0.196078 0 0 0 0 0.219608 0 0 0 1 0"/>
<feBlend mode="normal" in2="BackgroundImageFix" result="effect1_dropShadow_257_967"/>
<feBlend mode="normal" in="SourceGraphic" in2="effect1_dropShadow_257_967" result="shape"/>
</filter>
<filter id="filter1_d_257_967" x="0" y="85.1321" width="99" height="13.8679" filterUnits="userSpaceOnUse" color-interpolation-filters="sRGB">
<feFlood flood-opacity="0" result="BackgroundImageFix"/>
<feColorMatrix in="SourceAlpha" type="matrix" values="0 0 0 0 0 0 0 0 0 0 0 0 0 0 0 0 0 0 127 0" result="hardAlpha"/>
<feOffset dx="3" dy="3"/>
<feComposite in2="hardAlpha" operator="out"/>
<feColorMatrix type="matrix" values="0 0 0 0 0.14902 0 0 0 0 0.196078 0 0 0 0 0.219608 0 0 0 1 0"/>
<feBlend mode="normal" in2="BackgroundImageFix" result="effect1_dropShadow_257_967"/>
<feBlend mode="normal" in="SourceGraphic" in2="effect1_dropShadow_257_967" result="shape"/>
</filter>
</defs>
</svg>
