<svg width="501" height="501" viewBox="0 0 501 501" fill="none" xmlns="http://www.w3.org/2000/svg">
<path opacity="0.1" d="M416.716 88.587C456.884 123.657 486.828 168.955 497.052 219.367C507.277 269.779 497.052 324.575 472.951 374.257C448.12 424.67 409.412 469.968 359.75 488.964C310.087 507.96 250.2 501.384 201.268 477.274C152.335 453.894 114.358 412.98 90.2569 366.951C66.1559 320.922 55.2009 268.318 49.3583 203.293C44.2459 137.538 44.2459 58.6318 82.9536 23.5623C121.661 -10.7766 199.077 -2.00919 262.616 14.7949C326.885 30.8685 376.547 54.2481 416.716 88.587Z" fill="#0C8CE9"/>
<g filter="url(#filter0_d_104_1273)">
<path d="M412.996 92.3194V297.681C412.996 304.394 410.329 310.832 405.581 315.58C400.833 320.328 394.393 322.997 387.677 323H26.3154C19.5992 322.997 13.1592 320.328 8.41124 315.58C3.66329 310.832 0.996093 304.394 0.996094 297.681V92.3194C0.996094 91.715 0.996093 91.1789 1.07596 90.5402C1.52079 84.1519 4.37297 78.17 9.05712 73.8012C13.7413 69.4324 19.9088 67.0019 26.3154 67H387.677C394.091 67.0027 400.264 69.4395 404.95 73.8178C409.635 78.1962 412.482 84.1894 412.916 90.5859C412.973 91.1333 412.996 91.7264 412.996 92.3194Z" fill="white"/>
<path d="M412.996 92.3194V297.681C412.996 304.394 410.329 310.832 405.581 315.58C400.833 320.328 394.393 322.997 387.677 323H26.3154C19.5992 322.997 13.1592 320.328 8.41124 315.58C3.66329 310.832 0.996093 304.394 0.996094 297.681V92.3194C0.996094 91.715 0.996093 91.1789 1.07596 90.5402C1.52079 84.1519 4.37297 78.17 9.05712 73.8012C13.7413 69.4324 19.9088 67.0019 26.3154 67H387.677C394.091 67.0027 400.264 69.4395 404.95 73.8178C409.635 78.1962 412.482 84.1894 412.916 90.5859C412.973 91.1333 412.996 91.7264 412.996 92.3194Z" stroke="#263238" stroke-width="1.1" stroke-linecap="round" stroke-linejoin="round"/>
</g>
<path d="M0.996094 91C0.996094 77.7452 11.7413 67 24.9961 67H292.996V91H0.996094V91Z" fill="#0C8CE9" stroke="#263238"/>
<path d="M50.9466 78.9716C50.9466 79.856 50.6842 80.7206 50.1924 81.4559C49.7007 82.1913 49.0017 82.7644 48.184 83.1029C47.3662 83.4413 46.4664 83.5299 45.5983 83.3573C44.7302 83.1848 43.9328 82.7589 43.3069 82.1335C42.681 81.5082 42.2548 80.7114 42.0821 79.844C41.9094 78.9766 41.998 78.0775 42.3368 77.2604C42.6755 76.4433 43.2491 75.745 43.985 75.2536C44.721 74.7623 45.5862 74.5 46.4714 74.5C47.6583 74.5 48.7966 74.9711 49.6359 75.8097C50.4751 76.6483 50.9466 77.7857 50.9466 78.9716Z" fill="#263238"/>
<path d="M69.8727 78.9716C69.8727 79.856 69.6102 80.7206 69.1184 81.4559C68.6267 82.1913 67.9277 82.7644 67.11 83.1029C66.2922 83.4413 65.3924 83.5299 64.5243 83.3573C63.6562 83.1848 62.8588 82.7589 62.2329 82.1335C61.607 81.5082 61.1808 80.7114 61.0081 79.844C60.8354 78.9766 60.9241 78.0775 61.2628 77.2604C61.6015 76.4433 62.1751 75.745 62.9111 75.2536C63.647 74.7623 64.5123 74.5 65.3974 74.5C66.5843 74.5 67.7226 74.9711 68.5619 75.8097C69.4011 76.6483 69.8727 77.7857 69.8727 78.9716Z" fill="#263238"/>
<path d="M84.3234 83.4432C86.795 83.4432 88.7987 81.4412 88.7987 78.9716C88.7987 76.502 86.795 74.5 84.3234 74.5C81.8518 74.5 79.8481 76.502 79.8481 78.9716C79.8481 81.4412 81.8518 83.4432 84.3234 83.4432Z" fill="#263238"/>
<rect x="50.9961" y="107" width="174" height="190" fill="white" stroke="#263238" stroke-linecap="round" stroke-dasharray="4 4"/>
<rect x="44.9961" y="101" width="12" height="12" rx="3" fill="white" stroke="#263238"/>
<rect x="218.996" y="101" width="12" height="12" rx="3" fill="white" stroke="#263238"/>
<rect x="44.9961" y="291" width="12" height="12" rx="3" fill="white" stroke="#263238"/>
<rect x="218.996" y="291" width="12" height="12" rx="3" fill="white" stroke="#263238"/>
<path d="M292.996 67H387.996C401.803 67 412.996 78.1929 412.996 92V298C412.996 311.807 401.803 323 387.996 323H292.996V67Z" fill="white" stroke="#263238"/>
<rect x="302.996" y="101" width="50" height="10" rx="5" fill="#E1E7E9"/>
<rect x="302.996" y="127" width="87" height="4" rx="2" fill="#E1E7E9"/>
<rect x="302.996" y="269" width="48" height="6" rx="3" fill="#E1E7E9"/>
<rect x="302.996" y="285" width="48" height="6" rx="3" fill="#E1E7E9"/>
<rect x="302.996" y="133" width="32" height="4" rx="2" fill="#E1E7E9"/>
<circle cx="310.996" cy="149" r="8" fill="#E1E7E9"/>
<circle cx="331.996" cy="149" r="8" fill="#E1E7E9"/>
<circle cx="352.996" cy="149" r="8" fill="#E1E7E9"/>
<circle cx="373.996" cy="149" r="8" fill="#E1E7E9"/>
<circle cx="394.996" cy="149" r="8" fill="#E1E7E9"/>
<circle cx="310.996" cy="241" r="8" fill="#E90C59"/>
<circle cx="331.996" cy="241" r="8" fill="white" stroke="#E1E7E9" stroke-linecap="round" stroke-dasharray="4 4"/>
<circle cx="352.996" cy="241" r="8" fill="white" stroke="#E1E7E9" stroke-linecap="round" stroke-dasharray="4 4"/>
<circle cx="373.996" cy="241" r="8" fill="white" stroke="#E1E7E9" stroke-linecap="round" stroke-dasharray="4 4"/>
<circle cx="394.996" cy="241" r="8" fill="white" stroke="#E1E7E9" stroke-linecap="round" stroke-dasharray="4 4"/>
<rect x="302.996" y="167" width="100" height="56" rx="3" fill="white" stroke="#1E1E1E" stroke-linecap="round" stroke-dasharray="4 4"/>
<path d="M196.996 138H78.9961C76.2347 138 73.9961 140.239 73.9961 143V261C73.9961 263.761 76.2347 266 78.9961 266H196.996C199.758 266 201.996 263.761 201.996 261V143C201.996 140.239 199.758 138 196.996 138Z" fill="#E1E7E9"/>
<path d="M172.312 181.136L142.456 212.336L119.201 205.827C118.058 205.51 116.858 205.454 115.69 205.664C114.522 205.874 113.417 206.344 112.455 207.039L73.9961 234.892V266H201.996V200.188L183.682 181.136C182.945 180.373 182.062 179.766 181.085 179.352C180.108 178.937 179.058 178.724 177.997 178.724C176.936 178.724 175.886 178.937 174.909 179.352C173.932 179.766 173.049 180.373 172.312 181.136Z" fill="white"/>
<path d="M136.368 178.559C139.756 170.306 135.813 160.869 127.56 157.481C119.307 154.093 109.871 158.037 106.483 166.289C103.094 174.542 107.038 183.979 115.291 187.367C123.544 190.755 132.98 186.811 136.368 178.559Z" fill="white"/>
<path d="M196.996 138H78.9961C76.2347 138 73.9961 140.239 73.9961 143V261C73.9961 263.761 76.2347 266 78.9961 266H196.996C199.758 266 201.996 263.761 201.996 261V143C201.996 140.239 199.758 138 196.996 138Z" stroke="#263238" stroke-linecap="round" stroke-linejoin="round"/>
<g clip-path="url(#clip0_104_1273)">
<path d="M53.0159 221.85C53.0159 221.85 59.1059 217.12 59.5859 215.33C60.0659 213.54 59.7759 202.48 59.7759 202.48C59.7759 202.48 60.2959 200.85 58.4659 201C56.6359 201.15 56.5159 202.66 56.3359 203.32C56.1559 203.98 55.1359 211.15 55.1359 211.15L53.2259 207.66L52.2259 195.5C52.2259 195.5 50.2259 195.89 49.7759 196.57C49.3259 197.25 45.6359 205.28 45.0359 206.41C44.4359 207.54 43.8459 220.03 43.8459 220.03L44.3059 228.37L50.2259 230.95L53.0159 221.85Z" fill="white" stroke="#263238" stroke-linecap="round" stroke-linejoin="round"/>
<path d="M52.576 227.47L43.346 223.19C43.346 223.19 26.6759 253.5 25.4159 258.04C24.1559 262.58 23.416 270.92 24.146 274.71C24.876 278.5 28.146 282.29 28.946 283.05C29.746 283.81 45.576 279.26 45.576 279.26L46.576 254.26L52.576 227.47Z" fill="#0C8CE9" stroke="#263238" stroke-miterlimit="10"/>
<path d="M89.216 219.3C89.216 219.3 91.406 223.02 91.656 224.99C91.906 226.96 92.396 231.17 92.396 231.17C92.396 231.17 94.126 235.86 93.876 237.34C93.626 238.82 91.166 240.34 91.166 240.34C91.166 240.34 89.436 247.99 88.446 250.22C87.456 252.45 77.826 249.48 77.826 249.48L75.356 255.4L57.356 250.71L59.826 239.6L55.876 220.33C55.876 220.33 60.566 212.43 63.776 211.44C66.986 210.45 85.576 210.65 89.216 219.3Z" fill="white" stroke="#263238" stroke-miterlimit="10"/>
<path d="M89.966 229.56C89.966 230.62 89.726 231.49 89.436 231.49C89.146 231.49 88.896 230.62 88.896 229.56C88.896 228.5 89.136 227.63 89.436 227.63C89.736 227.63 89.966 228.5 89.966 229.56Z" fill="#263238"/>
<path d="M88.386 225.93C88.386 225.93 89.006 223.46 91.006 225" stroke="#263238" stroke-miterlimit="10"/>
<path d="M89.4159 241.1C89.4159 241.1 86.4859 242.02 85.2559 238.63" stroke="#263238" stroke-miterlimit="10"/>
<path d="M89.216 219.3C89.216 219.3 82.566 218.97 82.806 219.68C83.046 220.39 85.456 222.36 84.736 224.25C84.016 226.14 81.2861 228.7 81.2861 228.7C81.2861 228.7 79.2861 234.13 78.5361 234.84C77.7861 235.55 77.026 231.84 75.846 230.16C74.666 228.48 72.1461 228.45 69.9261 231.42C68.5261 233.28 69.066 241.24 68.356 241.95C67.646 242.66 60.8961 242.36 60.8961 242.36C60.8961 242.36 56.196 235.66 52.446 229.45C48.696 223.24 56.846 210.45 58.876 208.79C62.426 205.94 69.536 205.71 71.436 205.71C73.336 205.71 71.436 203.57 74.276 203.57C76.3705 203.733 78.3979 204.384 80.196 205.47C80.196 205.47 77.826 201.92 81.856 203.57C85.886 205.22 95.156 214.19 89.216 219.3Z" fill="#263238" stroke="#263238" stroke-miterlimit="10"/>
<path d="M70.666 235.86C70.666 235.86 71.156 238.86 73.136 240.06C75.116 241.26 76.346 240.31 76.346 240.31C76.346 240.31 76.096 244.01 76.836 245" stroke="#263238" stroke-miterlimit="10"/>
<path d="M71.516 485.94C71.2052 485.994 70.9188 486.143 70.6966 486.367C70.4744 486.591 70.3274 486.879 70.276 487.19C69.926 489.41 69.186 494.38 69.626 495.03C70.176 495.86 88.276 498.93 92.726 498.93C97.176 498.93 105.536 500.04 106.366 498.37C107.196 496.7 107.756 496.14 106.646 495.59C105.536 495.04 96.066 490.85 94.116 489.18C92.3355 487.468 90.6655 485.644 89.116 483.72C88.9491 483.518 88.7317 483.363 88.4859 483.272C88.2401 483.181 87.9745 483.156 87.716 483.2L71.516 485.94Z" fill="white" stroke="#263238" stroke-miterlimit="10"/>
<path d="M106.366 498.4L106.586 497.98C103.946 497.87 99.986 497.72 95.516 497.57C89.686 497.36 77.636 494.57 71.376 493.01C71.1417 492.954 70.8972 492.954 70.6629 493.01C70.4286 493.067 70.2112 493.179 70.0285 493.336C69.8458 493.493 69.7032 493.692 69.6123 493.915C69.5215 494.138 69.485 494.38 69.506 494.62C69.5139 494.774 69.5549 494.924 69.626 495.06C70.176 495.89 88.276 498.96 92.726 498.96C97.176 498.96 105.576 500.04 106.366 498.4Z" fill="white" stroke="#263238" stroke-miterlimit="10"/>
<path d="M16.576 483.95C16.8552 484.091 17.0878 484.31 17.246 484.58C18.3414 486.655 19.5672 488.659 20.916 490.58C21.746 491.41 24.256 492.8 24.256 493.92V494.92C24.256 495.32 24.0969 495.705 23.8137 495.988C23.5305 496.271 23.1465 496.43 22.746 496.43H3.00599C2.79856 496.432 2.59298 496.391 2.40224 496.309C2.21151 496.228 2.03976 496.108 1.89785 495.956C1.75594 495.805 1.64696 495.626 1.57779 495.43C1.50862 495.235 1.48077 495.027 1.49599 494.82C1.78311 491.519 2.31457 488.243 3.08599 485.02C4.57599 478.59 14.356 482.89 16.576 483.95Z" fill="white" stroke="#263238" stroke-miterlimit="10"/>
<path d="M24.246 493.92C24.2356 493.721 24.1735 493.528 24.066 493.36H3.00602C2.62721 493.361 2.26274 493.505 1.98489 493.762C1.70704 494.02 1.53612 494.372 1.50602 494.75C1.48656 494.959 1.51086 495.169 1.57735 495.368C1.64384 495.567 1.75107 495.75 1.8922 495.906C2.03333 496.061 2.20527 496.185 2.39704 496.27C2.58881 496.355 2.79621 496.399 3.00602 496.4H22.736C22.9343 496.4 23.1307 496.361 23.3139 496.285C23.4971 496.209 23.6635 496.098 23.8037 495.958C23.944 495.817 24.0552 495.651 24.1311 495.468C24.207 495.285 24.246 495.088 24.246 494.89V493.92Z" fill="white" stroke="#263238" stroke-miterlimit="10"/>
<path d="M16.246 326.99C16.246 326.99 17.576 354.53 17.576 365.11V411.88C17.576 411.88 10.0561 431.88 8.94605 441.39C7.94605 449.75 3.81605 479.98 2.99605 485.54C2.94602 485.871 3.00847 486.21 3.17341 486.502C3.33835 486.794 3.59628 487.022 3.90605 487.15C5.78543 487.978 7.76061 488.57 9.78605 488.91C11.956 489.12 14.786 487.65 15.956 486.99C16.2838 486.8 16.5269 486.493 16.636 486.13C17.186 484.39 18.9261 478.93 20.0861 476.38C21.4761 473.32 40.676 416.89 41.796 412.38C42.916 407.87 42.906 395.68 42.906 395.68L45.116 365.4H48.4561L77.1261 413.84C77.1261 413.84 74.3461 430.84 74.3461 439.45C74.3461 447.02 71.0061 480.54 70.3461 487.2C70.3063 487.589 70.42 487.978 70.6628 488.284C70.9056 488.59 71.2584 488.79 71.6461 488.84C74.956 489.328 78.301 489.539 81.6461 489.47C84.9161 489.25 88.3561 486.82 89.6461 485.77C89.8286 485.63 89.9767 485.45 90.0789 485.243C90.1812 485.037 90.2349 484.81 90.2361 484.58V480.58C90.2361 478.91 89.6761 477.8 89.6761 476.69C89.6761 475.58 101.356 414.97 100.246 409.96C99.136 404.95 79.086 353.96 79.086 353.96L77.326 333.96L16.246 326.99Z" fill="#263238" stroke="#263238" stroke-miterlimit="10"/>
<path d="M79.656 309.49C81.1166 302.85 83.331 296.398 86.256 290.26C87.256 288.1 88.946 274.15 88.426 267.89C88.2466 266.281 87.653 264.746 86.703 263.435C85.753 262.124 84.4792 261.082 83.006 260.41C79.276 259.52 76.826 259.11 76.826 259.11L46.686 250.51C46.686 250.51 39.106 249.07 34.406 253.27C29.706 257.47 26.526 268.99 26.276 272.64C26.026 276.29 27.136 308.35 17.686 322.27C12.936 329.27 20.576 334.92 20.576 334.92C20.576 334.92 33.926 337.75 45.766 339.79C86.916 346.86 78.566 333.27 78.566 333.27C77.5108 325.342 77.8799 317.289 79.656 309.49Z" fill="#0C8CE9" stroke="#263238" stroke-miterlimit="10"/>
<path d="M81.3461 259.71C81.3461 259.71 76.5861 254.02 72.1861 252.51C67.7861 251 55.8961 248.74 51.4061 247.92C50.1812 247.662 48.9049 247.827 47.7859 248.388C46.6669 248.949 45.7715 249.874 45.2461 251.01C50.0761 253.812 55.3168 255.837 60.7761 257.01C67.5774 258.291 74.4447 259.192 81.3461 259.71Z" fill="white" stroke="#263238" stroke-linecap="round" stroke-linejoin="round"/>
<path d="M165.576 297.28C165.576 297.28 169.366 291.9 170.926 291.38C172.486 290.86 182.416 290.33 182.416 290.33C182.416 290.33 183.836 289.79 183.836 291.33C183.836 292.87 182.496 293.06 181.916 293.26C181.336 293.46 174.996 294.79 174.996 294.79L178.266 296.14H189.266C189.266 296.14 189.076 297.87 188.506 298.25C187.936 298.63 181.006 302.25 180.046 302.87C179.086 303.49 167.936 304.79 167.936 304.79L160.436 304.98L160.636 298.06L165.576 297.28Z" fill="white" stroke="#263238" stroke-linecap="round" stroke-linejoin="round"/>
<path d="M83.0059 260.4C83.0059 260.4 88.8959 261.4 92.3559 264.86C95.8159 268.32 111.306 285.66 111.306 285.66L163.186 298.05L163.516 307.14L105.256 307.37L77.7759 296.51" fill="#0C8CE9"/>
<path d="M83.0059 260.4C83.0059 260.4 88.8959 261.4 92.3559 264.86C95.8159 268.32 111.306 285.66 111.306 285.66L163.186 298.05L163.516 307.14L105.256 307.37L77.7759 296.51" stroke="#263238" stroke-miterlimit="10"/>
<path d="M175.176 394.756V393.334H177.102V390.274H178.812V393.334H181.134V394.756H178.812V400.048C178.812 401.2 179.118 401.722 180.378 401.722C180.702 401.722 180.936 401.686 181.134 401.65V403.036C180.756 403.126 180.324 403.198 179.784 403.198C177.948 403.198 177.102 402.19 177.102 400.48V394.756H175.176Z" fill="black"/>
</g>
<path d="M459.176 265.756V264.334H461.102V261.274H462.812V264.334H465.134V265.756H462.812V271.048C462.812 272.2 463.118 272.722 464.378 272.722C464.702 272.722 464.936 272.686 465.134 272.65V274.036C464.756 274.126 464.324 274.198 463.784 274.198C461.948 274.198 461.102 273.19 461.102 271.48V265.756H459.176Z" fill="black"/>
<rect x="254.996" y="310" width="130" height="190" rx="15" fill="white" stroke="#263238"/>
<path d="M254.996 325C254.996 316.716 261.712 310 269.996 310H369.996C378.28 310 384.996 316.716 384.996 325V334H254.996V325Z" fill="#0C8CE9" stroke="#263238"/>
<rect x="302.996" y="320" width="34" height="4" rx="2" fill="#263238"/>
<rect x="264.996" y="344" width="51" height="48" rx="5" fill="#E1E7E9"/>
<rect x="264.996" y="400" width="51" height="48" rx="5" fill="#E1E7E9"/>
<rect x="323.996" y="344" width="51" height="48" rx="5" fill="#E1E7E9"/>
<rect x="323.996" y="400" width="51" height="48" rx="5" fill="#E1E7E9"/>
<path d="M170.872 33H169.054V20.76H164.266V19.176H175.66V20.76H170.872V33Z" fill="black"/>
<defs>
<filter id="filter0_d_104_1273" x="0.446045" y="66.45" width="419.1" height="263.1" filterUnits="userSpaceOnUse" color-interpolation-filters="sRGB">
<feFlood flood-opacity="0" result="BackgroundImageFix"/>
<feColorMatrix in="SourceAlpha" type="matrix" values="0 0 0 0 0 0 0 0 0 0 0 0 0 0 0 0 0 0 127 0" result="hardAlpha"/>
<feOffset dx="6" dy="6"/>
<feComposite in2="hardAlpha" operator="out"/>
<feColorMatrix type="matrix" values="0 0 0 0 0.14902 0 0 0 0 0.196078 0 0 0 0 0.219608 0 0 0 1 0"/>
<feBlend mode="normal" in2="BackgroundImageFix" result="effect1_dropShadow_104_1273"/>
<feBlend mode="normal" in="SourceGraphic" in2="effect1_dropShadow_104_1273" result="shape"/>
</filter>
<clipPath id="clip0_104_1273">
<rect width="188.69" height="304.79" fill="white" transform="translate(0.996094 195)"/>
</clipPath>
</defs>
</svg>
