<svg width="18" height="18" viewBox="0 0 18 18" fill="none" xmlns="http://www.w3.org/2000/svg">
<g clip-path="url(#clip0_47_38)">
<path d="M16.2 18H1.80002C1.26002 18 0.900024 17.64 0.900024 17.1C0.900024 16.56 1.26002 16.2 1.80002 16.2H16.2C16.74 16.2 17.1 16.56 17.1 17.1C17.1 17.64 16.74 18 16.2 18Z" fill="#263238"/>
<path d="M6.75 13H3.75C3.3 13 3 12.7 3 12.25V9.25C3 9.025 3.075 8.875 3.225 8.725L10.725 1.225C11.025 0.925 11.475 0.925 11.775 1.225L14.775 4.225C15.075 4.525 15.075 4.975 14.775 5.275L7.275 12.775C7.125 12.925 6.975 13 6.75 13Z" stroke="#263238" stroke-width="1.5"/>
</g>
<defs>
<clipPath id="clip0_47_38">
<rect width="18" height="18" fill="white"/>
</clipPath>
</defs>
</svg>
